<?xml version="1.0" encoding="UTF-8" standalone="no"?>
<svg version="1.1" xmlns:xlink="http://www.w3.org/1999/xlink" xmlns:cc="http://creativecommons.org/ns#" xmlns:dc="http://purl.org/dc/elements/1.1/" xmlns="http://www.w3.org/2000/svg" viewBox="0 0 767.53729 338.03278" xmlns:rdf="http://www.w3.org/1999/02/22-rdf-syntax-ns#">
<defs>
<linearGradient id="a" y2="22.09" x2="61.25" y1="34.15" x1="61.25" gradientUnits="userSpaceOnUse" gradientTransform="matrix(1 0 0 .8487 -.02723 6.329)">
<stop offset="0" stop-color="#76f04c"/>
<stop offset="1" stop-color="#b9f7a2"/>
</linearGradient>
<linearGradient id="f" y2="390.1" x2="-234.9" y1="416.2" x1="-234.9" gradientUnits="userSpaceOnUse" xlink:href="#a" gradientTransform="matrix(.7301 0 0 .6037 63.36 45)"/>
<linearGradient id="e" y2="390.1" x2="-234.9" y1="416.2" x1="-234.9" gradientUnits="userSpaceOnUse" xlink:href="#b" gradientTransform="matrix(.7301 0 0 .6037 63.36 235.7)"/>
<linearGradient id="b" y2="22.09" x2="61.25" y1="34.15" x1="61.25" gradientUnits="userSpaceOnUse" gradientTransform="matrix(1 0 0 .8487 -.02723 6.329)">
<stop offset="0" stop-color="#f0c04c"/>
<stop offset="1" stop-color="#f7dea2"/>
</linearGradient>
<linearGradient id="d" y2="390.1" x2="-234.9" x1="-234.9" gradientUnits="userSpaceOnUse" y1="416.2" xlink:href="#a" gradientTransform="matrix(.7301 0 0 .6037 353.3 -7.37)"/>
<linearGradient id="c" y2="390.1" x2="-234.9" x1="-234.9" gradientUnits="userSpaceOnUse" y1="416.2" xlink:href="#b" gradientTransform="matrix(.7301 0 0 .6037 353.3 159.3)"/>
</defs>
<metadata>
<rdf:RDF>
<cc:Work rdf:about="">
<dc:format>image/svg+xml</dc:format>
<dc:type rdf:resource="http://purl.org/dc/dcmitype/StillImage"/>
<dc:title/>
</cc:Work>
</rdf:RDF>
</metadata>
<g transform="translate(533.6 -135.7)">
<g font-family="sans-serif" fill="#000000">
<text xml:space="preserve" line-height="125%" style="word-spacing:0px;letter-spacing:0px" font-size="15px" x="381.66089" y="342.25021"><tspan y="342.25021" x="381.66089"/></text>
<text xml:space="preserve" line-height="125%" style="word-spacing:0px;letter-spacing:0px" font-size="7.5px" x="616.8125" y="355.17471"><tspan y="355.17471" x="616.8125"/></text>
<text xml:space="preserve" line-height="125%" style="word-spacing:0px;letter-spacing:0px" font-size="15px" x="535.05396" y="773.63092"><tspan y="773.63092" x="535.05396"/></text>
<text xml:space="preserve" line-height="125%" style="word-spacing:0px;letter-spacing:0px" font-size="7.5px" x="770.20557" y="786.55542"><tspan y="786.55542" x="770.20557"/></text>
</g>
<g>
<rect fill="#4d4d4d" x="-276.1" height="142.1" y="165" ry="4.21" width="217.1"/>
<rect fill="#fff" x="-273.3" height="125.2" y="178.8" ry="4.007" width="211.4"/>
<rect fill="url(#f)" height="16.43" stroke-linecap="round" ry=".9456" stroke-width=".4608" x="-147.8" stroke-linejoin="round" stroke="#52a834" y="280.2" width="79.51"/>
<g fill="#bbb">
<g transform="translate(20 1.414)">
<rect x="-288" height="77.78" y="184.4" ry="4.582" width="110"/>
<rect x="-288" height="26.87" y="268.6" ry="4.582" width="110"/>
</g>
<rect x="-148" height="26.87" y="185.9" ry="4.582" width="80"/>
<rect x="-148" height="51.62" y="220.6" ry="4.582" width="80"/>
</g>
</g>
<path fill="#bbb" d="m-354.3 198.9 36.82 36.82c0.1659 0.1659 0.1659 0.433 0 0.5989l-36.82 36.82h-0.5989v-74.24z"/>
<path fill="#bbb" d="m-14.33 198.9 36.82 36.82c0.1659 0.1659 0.1659 0.433 0 0.5989l-36.82 36.82h-0.5989v-74.24z"/>
<g transform="translate(0 -24)">
<rect fill="#4d4d4d" x="-276.1" height="142.1" y="355.6" ry="4.21" width="217.1"/>
<rect fill="#fff" x="-273.3" height="125.2" y="369.4" ry="4.007" width="211.4"/>
<rect fill="url(#e)" height="16.43" stroke-linecap="round" ry=".9456" stroke-width=".4608" x="-147.8" stroke-linejoin="round" stroke="#a88734" y="470.8" width="79.51"/>
<g fill="#bbb">
<g transform="translate(20 192.1)">
<rect x="-288" height="77.78" y="184.4" ry="4.582" width="110"/>
<rect x="-288" height="26.87" y="268.6" ry="4.582" width="110"/>
</g>
<rect x="-148" height="26.87" y="376.5" ry="4.582" width="80"/>
<rect x="-148" height="51.62" y="411.2" ry="4.582" width="80"/>
</g>
</g>
<path fill="#bbb" d="m-354.3 365.6 36.82 36.82c0.1659 0.1659 0.1659 0.433 0 0.5989l-36.82 36.82h-0.5989v-74.24z"/>
<path fill="#bbb" d="m-14.33 365.6 36.82 36.82c0.1659 0.1659 0.1659 0.433 0 0.5989l-36.82 36.82h-0.5989v-74.24z"/>
<g fill="#eee" stroke="#fff" stroke-linecap="round" stroke-width="13.5" stroke-linejoin="round">
<g transform="matrix(.1833 0 0 .1833 -409.6 116.9)">
<path d="m-195.5 242.4c-47.8 0-86.28 38.48-86.28 86.28v78.64a267 106.8 0 0 0 114.2 10.42 267 106.8 0 0 0 114.2 -10.39v-78.66c0-47.8-38.48-86.28-86.28-86.28h-55.91z"/>
<circle cy="182.7" cx="-167.5" r="73.19"/>
</g>
<g transform="matrix(.1833 0 0 .1833 -387.6 142.2)">
<path d="m-195.5 242.4c-47.8 0-86.28 38.48-86.28 86.28v78.64a267 106.8 0 0 0 114.2 10.42 267 106.8 0 0 0 114.2 -10.39v-78.66c0-47.8-38.48-86.28-86.28-86.28h-55.91z"/>
<circle cy="182.7" cx="-167.5" r="73.19"/>
</g>
<g transform="matrix(.1833 0 0 .1833 -453.6 116.9)">
<path d="m-195.5 242.4c-47.8 0-86.28 38.48-86.28 86.28v78.64a267 106.8 0 0 0 114.2 10.42 267 106.8 0 0 0 114.2 -10.39v-78.66c0-47.8-38.48-86.28-86.28-86.28h-55.91z"/>
<circle cy="182.7" cx="-167.5" r="73.19"/>
</g>
<g transform="matrix(.1833 0 0 .1833 -431.6 131.2)">
<path d="m-195.5 242.4c-47.8 0-86.28 38.48-86.28 86.28v78.64a267 106.8 0 0 0 114.2 10.42 267 106.8 0 0 0 114.2 -10.39v-78.66c0-47.8-38.48-86.28-86.28-86.28h-55.91z"/>
<circle cy="182.7" cx="-167.5" r="73.19"/>
</g>
<g transform="matrix(.1833 0 0 .1833 -471.9 142.2)">
<path d="m-195.5 242.4c-47.8 0-86.28 38.48-86.28 86.28v78.64a267 106.8 0 0 0 114.2 10.42 267 106.8 0 0 0 114.2 -10.39v-78.66c0-47.8-38.48-86.28-86.28-86.28h-55.91z"/>
<circle cy="182.7" cx="-167.5" r="73.19"/>
</g>
<g transform="matrix(.1833 0 0 .1833 -453.6 290.6)">
<path d="m-195.5 242.4c-47.8 0-86.28 38.48-86.28 86.28v78.64a267 106.8 0 0 0 114.2 10.42 267 106.8 0 0 0 114.2 -10.39v-78.66c0-47.8-38.48-86.28-86.28-86.28h-55.91z"/>
<circle cy="182.7" cx="-167.5" r="73.19"/>
</g>
<g transform="matrix(.1833 0 0 .1833 -409.6 290.6)">
<path d="m-195.5 242.4c-47.8 0-86.28 38.48-86.28 86.28v78.64a267 106.8 0 0 0 114.2 10.42 267 106.8 0 0 0 114.2 -10.39v-78.66c0-47.8-38.48-86.28-86.28-86.28h-55.91z"/>
<circle cy="182.7" cx="-167.5" r="73.19"/>
</g>
<g transform="matrix(.1833 0 0 .1833 -387.6 315.9)">
<path d="m-195.5 242.4c-47.8 0-86.28 38.48-86.28 86.28v78.64a267 106.8 0 0 0 114.2 10.42 267 106.8 0 0 0 114.2 -10.39v-78.66c0-47.8-38.48-86.28-86.28-86.28h-55.91z"/>
<circle cy="182.7" cx="-167.5" r="73.19"/>
</g>
<g transform="matrix(.1833 0 0 .1833 -431.6 305)">
<path d="m-195.5 242.4c-47.8 0-86.28 38.48-86.28 86.28v78.64a267 106.8 0 0 0 114.2 10.42 267 106.8 0 0 0 114.2 -10.39v-78.66c0-47.8-38.48-86.28-86.28-86.28h-55.91z"/>
<circle cy="182.7" cx="-167.5" r="73.19"/>
</g>
<g transform="matrix(.1833 0 0 .1833 -471.9 315.9)">
<path d="m-195.5 242.4c-47.8 0-86.28 38.48-86.28 86.28v78.64a267 106.8 0 0 0 114.2 10.42 267 106.8 0 0 0 114.2 -10.39v-78.66c0-47.8-38.48-86.28-86.28-86.28h-55.91z"/>
<circle cy="182.7" cx="-167.5" r="73.19"/>
</g>
</g>
<g stroke-linecap="round" stroke="#fff" transform="translate(0,-40)" stroke-width="2.474" stroke-linejoin="round">
<g transform="translate(95.59 -18.42)">
<path fill="#4d4d4d" d="m-585 259.8c-8.76 0-15.81 7.053-15.81 15.81v14.41a48.93 19.57 0 0 0 20.94 1.909 48.93 19.57 0 0 0 20.94 -1.904v-14.42c0-8.76-7.052-15.81-15.81-15.81h-10.25z"/>
<path fill="#bbb" transform="translate(-538.5 98.49)" d="m-38.5 161.3-22.86 30.39a48.93 19.57 0 0 0 19.93 1.74 48.93 19.57 0 0 0 20.94 -1.904v-14.42c0-8.76-7.052-15.81-15.81-15.81h-2.199z"/>
<circle fill="#4d4d4d" cy="248.8" cx="-579.9" r="13.41"/>
<path fill="#bbb" transform="translate(-538.5 98.49)" d="m-28.29 147.7-12.04 16a13.41 13.41 0 0 0 12.31 -13.36 13.41 13.41 0 0 0 -0.2754 -2.639z"/>
</g>
<g transform="translate(139.6 -18.42)">
<path fill="#4d4d4d" d="m-585 259.8c-8.76 0-15.81 7.053-15.81 15.81v14.41a48.93 19.57 0 0 0 20.94 1.909 48.93 19.57 0 0 0 20.94 -1.904v-14.42c0-8.76-7.052-15.81-15.81-15.81h-10.25z"/>
<path fill="#bbb" transform="translate(-538.5 98.49)" d="m-38.5 161.3-22.86 30.39a48.93 19.57 0 0 0 19.93 1.74 48.93 19.57 0 0 0 20.94 -1.904v-14.42c0-8.76-7.052-15.81-15.81-15.81h-2.199z"/>
<circle fill="#4d4d4d" cy="248.8" cx="-579.9" r="13.41"/>
<path fill="#bbb" transform="translate(-538.5 98.49)" d="m-28.29 147.7-12.04 16a13.41 13.41 0 0 0 12.31 -13.36 13.41 13.41 0 0 0 -0.2754 -2.639z"/>
</g>
<g transform="translate(117.6 -11.09)">
<path fill="#4d4d4d" d="m-585 259.8c-8.76 0-15.81 7.053-15.81 15.81v14.41a48.93 19.57 0 0 0 20.94 1.909 48.93 19.57 0 0 0 20.94 -1.904v-14.42c0-8.76-7.052-15.81-15.81-15.81h-10.25z"/>
<path fill="#bbb" transform="translate(-538.5 98.49)" d="m-38.5 161.3-22.86 30.39a48.93 19.57 0 0 0 19.93 1.74 48.93 19.57 0 0 0 20.94 -1.904v-14.42c0-8.76-7.052-15.81-15.81-15.81h-2.199z"/>
<circle fill="#4d4d4d" cy="248.8" cx="-579.9" r="13.41"/>
<path fill="#bbb" transform="translate(-538.5 98.49)" d="m-28.29 147.7-12.04 16a13.41 13.41 0 0 0 12.31 -13.36 13.41 13.41 0 0 0 -0.2754 -2.639z"/>
</g>
</g>
<g stroke-linecap="round" stroke="#fff" transform="translate(0,-40)" stroke-width="2.474" stroke-linejoin="round">
<path fill="#bbb" d="m-489.4 415c-8.76 0-15.81 7.053-15.81 15.81v14.41a48.93 19.57 0 0 0 20.94 1.909 48.93 19.57 0 0 0 20.94 -1.904v-14.42c0-8.76-7.052-15.81-15.81-15.81h-10.25z"/>
<path fill="#4d4d4d" d="m-481.4 415-22.86 30.39a48.93 19.57 0 0 0 19.93 1.74 48.93 19.57 0 0 0 20.94 -1.904v-14.42c0-8.76-7.052-15.81-15.81-15.81h-2.199z"/>
<circle fill="#bbb" cy="404.1" cx="-484.3" r="13.41"/>
<path fill="#4d4d4d" d="m-471.2 401.5-12.04 16a13.41 13.41 0 0 0 12.31 -13.36 13.41 13.41 0 0 0 -0.2754 -2.639z"/>
<path fill="#bbb" d="m-445.4 415c-8.76 0-15.81 7.053-15.81 15.81v14.41a48.93 19.57 0 0 0 20.94 1.909 48.93 19.57 0 0 0 20.94 -1.904v-14.42c0-8.76-7.052-15.81-15.81-15.81h-10.25z"/>
<path fill="#4d4d4d" d="m-437.4 415-22.86 30.39a48.93 19.57 0 0 0 19.93 1.74 48.93 19.57 0 0 0 20.94 -1.904v-14.42c0-8.76-7.052-15.81-15.81-15.81h-2.199z"/>
<circle fill="#bbb" cy="404.1" cx="-440.3" r="13.41"/>
<path fill="#4d4d4d" d="m-427.2 401.5-12.04 16a13.41 13.41 0 0 0 12.31 -13.36 13.41 13.41 0 0 0 -0.2754 -2.639z"/>
<path fill="#bbb" d="m-467.4 422.4c-8.76 0-15.81 7.053-15.81 15.81v14.41a48.93 19.57 0 0 0 20.94 1.909 48.93 19.57 0 0 0 20.94 -1.904v-14.42c0-8.76-7.052-15.81-15.81-15.81h-10.25z"/>
<path fill="#4d4d4d" d="m-459.4 422.4-22.86 30.39a48.93 19.57 0 0 0 19.93 1.74 48.93 19.57 0 0 0 20.94 -1.904v-14.42c0-8.76-7.052-15.81-15.81-15.81h-2.199z"/>
<circle fill="#bbb" cy="411.4" cx="-462.3" r="13.41"/>
<path fill="#4d4d4d" d="m-449.2 408.8-12.04 16a13.41 13.41 0 0 0 12.31 -13.36 13.41 13.41 0 0 0 -0.2754 -2.639z"/>
</g>
<text font-family="XITS" fill="#4d4d4d" xml:space="preserve" line-height="89.99999762%" style="word-spacing:0px;letter-spacing:0px" font-size="25px" x="-462.23447" y="259.68262"><tspan line-height="89.99999762%" style="text-anchor:middle;text-align:center" x="-462.23447" y="259.68262">50% chance</tspan><tspan line-height="89.99999762%" style="text-anchor:middle;text-align:center" x="-462.23447" y="282.18262">per visitor</tspan></text>
<text font-family="XITS" fill="#4d4d4d" xml:space="preserve" line-height="89.99999762%" style="word-spacing:0px;letter-spacing:0px" font-size="25px" x="-462.23447" y="433.38718"><tspan line-height="89.99999762%" style="text-anchor:middle;text-align:center" x="-462.23447" y="433.38718">50% chance</tspan><tspan line-height="89.99999762%" style="text-anchor:middle;text-align:center" x="-462.23447" y="455.88718">per visitor</tspan></text>
<g stroke-linecap="round" stroke="#4d4d4d" transform="translate(0 -5.168)">
<path stroke-width="1.246" fill="#fff" d="m104.9 229.7 17.13 15.99-8.279 0.7138 4.711 10.42-3.14 1.427-4.568-10.56-5.853 5.567v-23.55" stroke-linejoin="round"/>
<g fill="none" stroke-width=".8305">
<path d="m110.8 229.6h-3.034m-5.552 0h-2.964"/>
<path d="m100.8 225.4 2.275 2.275m4.083 4.083 2.109 2.109"/>
<path d="m100.8 233.8 2.275-2.275m4.083-4.083 2.109-2.109"/>
<path d="m105 235.4v-3.034m0-5.552v-2.964"/>
</g>
</g>
<g fill="#4d4d4d">
<path d="m100.2 256.6c-7-5.85-8.5-11.5-8.5-20.8 0-9.65 1.55-14.3 8.5-20.25l-0.45-0.8c-8 4.75-12.35 11.95-12.35 21.2 0 8.5 4.3 16.95 12.2 21.45l0.6-0.8z"/>
<path d="m132.4 258v-43.95h-3.3v43.95h3.3z"/>
<path d="m221.2 215.6c7.25 5.7 8.5 11.45 8.5 20.8 0 9.7-1.4 14.4-8.5 20.25l0.45 0.8c7.95-4.85 12.35-11.95 12.35-21.2 0-8.5-4.55-16.85-12.2-21.45l-0.6 0.8z"/>
</g>
<rect fill="url(#d)" height="16.43" stroke-linecap="round" ry=".9456" stroke-width=".4608" x="142.2" stroke-linejoin="round" stroke="#52a834" y="227.8" width="79.51"/>
<g transform="translate(-231.2 -16.86)" fill="#4d4d4d">
<path d="m287.2 236.3v0.95c3.7 0.3 4.2 0.9 4.2 4.6v21.45c0 4.3-0.3 4.85-4.2 5.15v0.95h14v-0.95c-4.05-0.2-4.7-0.85-4.7-4.65v-8.95c1.35 0.1 2.15 0.15 3.45 0.15 5.35 0 7.8-0.45 10.7-3.05 1.85-1.65 2.85-3.9 2.85-6.55 0-2.5-0.85-4.55-2.5-5.95-2.25-1.9-5.85-3.15-10.85-3.15h-12.95zm9.3 3.65c0-1.35 0.3-1.8 1.75-1.8 6.8 0 9.8 2 9.8 7.5 0 4.5-3 7.35-8.5 7.35-1 0-1.9-0.05-3.05-0.15v-12.9z"/>
<text font-family="&apos;XITS Math&apos;" xml:space="preserve" line-height="125%" style="word-spacing:0px;letter-spacing:0px" font-size="35px" x="290.82022" y="238.74249"><tspan y="238.74249" x="290.82022">~</tspan></text>
</g>
<rect fill="url(#c)" height="16.43" stroke-linecap="round" ry=".9456" stroke-width=".4608" x="142.2" stroke-linejoin="round" stroke="#a88734" y="394.4" width="79.51"/>
<g stroke-linecap="round" stroke="#4d4d4d" transform="translate(0 161.5)">
<path stroke-width="1.246" fill="#fff" d="m104.9 229.7 17.13 15.99-8.279 0.7138 4.711 10.42-3.14 1.427-4.568-10.56-5.853 5.567v-23.55" stroke-linejoin="round"/>
<g fill="none" stroke-width=".8305">
<path d="m110.8 229.6h-3.034m-5.552 0h-2.964"/>
<path d="m100.8 225.4 2.275 2.275m4.083 4.083 2.109 2.109"/>
<path d="m100.8 233.8 2.275-2.275m4.083-4.083 2.109-2.109"/>
<path d="m105 235.4v-3.034m0-5.552v-2.964"/>
</g>
</g>
<g fill="#4d4d4d">
<path d="m100.2 423.3c-7-5.85-8.5-11.5-8.5-20.8 0-9.65 1.55-14.3 8.5-20.25l-0.45-0.8c-8 4.75-12.35 11.95-12.35 21.2 0 8.5 4.3 16.95 12.2 21.45l0.6-0.8z"/>
<path d="m132.4 424.7v-43.95h-3.3v43.95h3.3z"/>
<path d="m221.2 382.2c7.25 5.7 8.5 11.45 8.5 20.8 0 9.7-1.4 14.4-8.5 20.25l0.45 0.8c7.95-4.85 12.35-11.95 12.35-21.2 0-8.5-4.55-16.85-12.2-21.45l-0.6 0.8z"/>
</g>
<g transform="translate(-231.2 149.8)" fill="#4d4d4d">
<path d="m287.2 236.3v0.95c3.7 0.3 4.2 0.9 4.2 4.6v21.45c0 4.3-0.3 4.85-4.2 5.15v0.95h14v-0.95c-4.05-0.2-4.7-0.85-4.7-4.65v-8.95c1.35 0.1 2.15 0.15 3.45 0.15 5.35 0 7.8-0.45 10.7-3.05 1.85-1.65 2.85-3.9 2.85-6.55 0-2.5-0.85-4.55-2.5-5.95-2.25-1.9-5.85-3.15-10.85-3.15h-12.95zm9.3 3.65c0-1.35 0.3-1.8 1.75-1.8 6.8 0 9.8 2 9.8 7.5 0 4.5-3 7.35-8.5 7.35-1 0-1.9-0.05-3.05-0.15v-12.9z"/>
<text font-family="&apos;XITS Math&apos;" xml:space="preserve" line-height="125%" style="word-spacing:0px;letter-spacing:0px" font-size="35px" x="290.82022" y="238.74249"><tspan y="238.74249" x="290.82022">~</tspan></text>
</g>
</g>
</svg>
