<?xml version="1.0" encoding="UTF-8" standalone="no"?>
<svg xmlns:dc="http://purl.org/dc/elements/1.1/" xmlns="http://www.w3.org/2000/svg" xmlns:cc="http://creativecommons.org/ns#" height="297.6mm" version="1.1" xmlns:rdf="http://www.w3.org/1999/02/22-rdf-syntax-ns#" viewBox="0 0 678.27337 1054.663" width="191.4mm">
<metadata>
<rdf:RDF>
<cc:Work rdf:about="">
<dc:format>image/svg+xml</dc:format>
<dc:type rdf:resource="http://purl.org/dc/dcmitype/StillImage"/>
<dc:title/>
</cc:Work>
</rdf:RDF>
</metadata>
<g stroke="#000" stroke-width="2.008" transform="translate(1808 -657)" stroke-linecap="round" stroke-linejoin="round">
<path fill="#ff8282" d="m-1458 1320c-60.56-104.7-172.3-169.3-293.4-169.7-29.89 51.53-45.68 110-45.78 169.6 0.1486 59.57 15.99 118 45.92 169.6 121-0.3655 232.6-64.9 293.2-169.5z"/>
<path fill="#ff8282" d="m-1458 1320c60.56 104.7 172.3 169.3 293.4 169.7 29.89-51.53 45.68-110 45.78-169.6-0.1486-59.57-15.99-118-45.92-169.6-121 0.3655-232.6 64.9-293.2 169.5z"/>
<path fill="#4ad4ff" d="m-1458 1320c31.2-116.8-2.11-241.6-87.46-327.4-57.57 15.31-110.1 45.49-152.3 87.53-42.02 42.23-72.17 94.78-87.43 152.4 85.79 85.28 210.4 118.6 327.2 87.5z"/>
<path fill="#4ad4ff" d="m-1458 1320c116.8 31.2 241.6-2.11 327.4-87.46-15.31-57.57-45.49-110.1-87.53-152.3-42.23-42.02-94.78-72.17-152.4-87.43-85.28 85.79-118.6 210.4-87.5 327.2z"/>
<g fill="#48c086">
<path d="m-1458 1320c-31.2 116.8 2.11 241.6 87.46 327.4 57.57-15.31 110.1-45.49 152.3-87.53 42.02-42.23 72.17-94.78 87.43-152.4-85.79-85.28-210.4-118.6-327.2-87.5z"/>
<path d="m-1458 1320c-116.8-31.2-241.6 2.11-327.4 87.46 15.31 57.57 45.49 110.1 87.53 152.3 42.23 42.02 94.78 72.17 152.4 87.43 85.28-85.79 118.6-210.4 87.5-327.2z"/>
<path d="m-1458 1320c-104.7 60.56-169.3 172.3-169.7 293.4 51.53 29.89 110 45.68 169.6 45.78 59.57-0.1487 118-15.99 169.6-45.92-0.3655-121-64.9-232.6-169.5-293.2z"/>
</g>
<path fill="#ffd065" d="m-1458 1320c104.7-60.56 169.3-172.3 169.7-293.4-51.53-29.89-110-45.68-169.6-45.78-59.57 0.1486-118 15.99-169.6 45.92 0.3654 121 64.9 232.6 169.5 293.2z"/>
</g>
</svg>
