<?xml version="1.0" encoding="UTF-8" standalone="no"?>
<!DOCTYPE svg  PUBLIC '-//W3C//DTD SVG 1.1//EN'  'http://www.w3.org/Graphics/SVG/1.1/DTD/svg11.dtd'>
<svg width="504pt" version="1.1" height="216pt" viewBox="0 0 504 216" xmlns:xlink="http://www.w3.org/1999/xlink" xmlns="http://www.w3.org/2000/svg">
<defs>
<style type="text/css">*{stroke-linecap:butt;stroke-linejoin:round;stroke-miterlimit:100000;}</style>
</defs>
<path fill="#fff" d="m0 216h504v-216h-504z"/>
<path fill="#fff" d="m67.89 169.2h418.5v-154.9l-418.5 0.04z"/>
<defs>
<path id="c" stroke="#262626" d="m0 0"/>
</defs>
<use xlink:href="#c" x="69.3973659297" stroke="#262626" y="169.1775" fill="#262626"/>
<use xlink:href="#c" x="69.3973659297" stroke="#262626" y="14.3421710676" fill="#262626"/>
<defs>
<path id="b" d="m47.59 33c0 20.5-9.09 34.59-22.18 34.59-16.11 0-23-16.29-23-34-0.004-16.39 5.496-35 22.59-35 16.3 0.004 22.59 17.21 22.59 34.41m-9.59-0.5c0-19.8-4.5-31.3-13-31.3-8.59 0.003-13 11.39-13 31.71 0 20.29 4.5 32.09 12.8 32.09 8.79 0 13.2-11.7 13.2-32.5"/>
</defs>
<g transform="translate(66.9 183) scale(.1 -.1)" fill="#262626">
<use xlink:href="#b"/>
</g>
<use xlink:href="#c" x="137.743544551" stroke="#262626" y="169.1775" fill="#262626"/>
<use xlink:href="#c" x="137.743544551" stroke="#262626" y="14.3421710676" fill="#262626"/>
<defs>
<path id="l" d="m39.41 0v1.5c-7.5 0-9.5 1.797-9.5 6.094v59.71l-0.91 0.29-17.91-9.09v-1.41l2.71 1c1.79 0.71 3.5 1.21 4.5 1.21 2.11 0 3-1.5 3-4.89v-44.91c0-5.5-2.1-7.594-9.5-8v-1.5z"/>
</defs>
<g transform="translate(127.7 183) scale(.1 -.1)" fill="#262626">
<use xlink:href="#l"/>
<use xlink:href="#b" x="49.99998474121094"/>
<use xlink:href="#b" x="99.99996948242188"/>
<use xlink:href="#b" x="149.9999542236328"/>
</g>
<use xlink:href="#c" x="206.089723172" stroke="#262626" y="169.1775" fill="#262626"/>
<use xlink:href="#c" x="206.089723172" stroke="#262626" y="14.3421710676" fill="#262626"/>
<defs>
<path id="bg" d="m47.41 13.7l-1.41 0.6c-3.3-5.597-5.41-6.706-9.59-6.706h-23.41l16.5 17.61c8.91 9.39 12.8 16.89 12.8 24.8 0 9.91-7.21 17.59-18.5 17.59-12.3 0-18.71-8.18-20.8-19.89l2.094-0.5c4 9.8 7.496 13 14.71 13 8.5 0 13.9-5 13.9-14.11 0-8.5-3.61-16.09-13-26l-17.79-18.89-0.004-1.2h39.09z"/>
</defs>
<g transform="translate(196.1 183) scale(.1 -.1)" fill="#262626">
<use xlink:href="#bg"/>
<use xlink:href="#b" x="49.99998474121094"/>
<use xlink:href="#b" x="99.99996948242188"/>
<use xlink:href="#b" x="149.9999542236328"/>
</g>
<use xlink:href="#c" x="274.435901794" stroke="#262626" y="169.1775" fill="#262626"/>
<use xlink:href="#c" x="274.435901794" stroke="#262626" y="14.3421710676" fill="#262626"/>
<defs>
<path id="bf" d="m6.094 51c4.106 7.41 8.706 10.59 14.91 10.59 6.59 0 10.8-3.39 10.8-10.18 0-6.11-3.21-10.61-8.1-13.41-2-1.2-4.61-2.3-8.4-3.59v-1.41c5.7 0 8-0.3 10.2-1 6.91-2 10.41-6.91 10.41-14.5 0-8.5-5.61-15.3-13-15.3-2.82 0.003-4.91 0.503-8.61 3.097-2.8 2-4.394 2.609-6.097 2.609-2.297 0-4.109-1.5-4.109-3.609 0-3.594 3.906-5.703 11.21-5.703 8.9 0 18.4 2.906 23.2 9.312 2.91 3.794 4.59 8.684 4.59 14 0 5.18-1.59 9.79-4.39 12.89-2.11 2.2-3.9 3.4-8.29 5.29 6.68 4 9.29 9 9.29 13.82 0 8.18-6.29 13.68-15.61 13.68-10.39 0-16.68-6.68-19.59-16.18z"/>
</defs>
<g transform="translate(264.4 183) scale(.1 -.1)" fill="#262626">
<use xlink:href="#bf"/>
<use xlink:href="#b" x="49.99998474121094"/>
<use xlink:href="#b" x="99.99996948242188"/>
<use xlink:href="#b" x="149.9999542236328"/>
</g>
<use xlink:href="#c" x="342.782080415" stroke="#262626" y="169.1775" fill="#262626"/>
<use xlink:href="#c" x="342.782080415" stroke="#262626" y="14.3421710676" fill="#262626"/>
<defs>
<path id="be" d="m47.3 16.7v6.39h-10.3v44.5h-4.41l-31.39-44.5 0.003-6.39h28v-16.7h7.8v16.7zm-18.1 6.39h-24l24 34.32z"/>
</defs>
<g transform="translate(332.8 183) scale(.1 -.1)" fill="#262626">
<use xlink:href="#be"/>
<use xlink:href="#b" x="49.99998474121094"/>
<use xlink:href="#b" x="99.99996948242188"/>
<use xlink:href="#b" x="149.9999542236328"/>
</g>
<use xlink:href="#c" x="411.128259036" stroke="#262626" y="169.1775" fill="#262626"/>
<use xlink:href="#c" x="411.128259036" stroke="#262626" y="14.3421710676" fill="#262626"/>
<defs>
<path id="w" d="m43.8 68.09l-0.89 0.71c-1.61-2.1-2.5-2.6-4.82-2.6h-20.68l-10.91-23.7s-0.094-0.3-0.094-0.5c0-0.59 0.297-0.8 1.188-0.8 9.606 0 16.61-3.2 21.32-7 4.5-3.61 6.68-8.61 6.68-15 0-8.61-6.5-16.9-13.5-16.9-2-0.003-4.29 0.903-7.09 3.2-3.2 2.594-5.094 3.094-7.406 3.094-2.797 0-4.5-1.297-4.5-3.797 0-3.797 5.203-6.203 12.71-6.203 6.79 0 12.29 1.5 17 4.906 6.79 5 9.79 11.2 9.79 20.8 0 5.29-0.89 9.11-3.5 12.7-5.68 7.91-10.68 10.09-25 12.8l4 8.5h19.41c1.59 0 2.41 0.61 2.7 1.29z"/>
</defs>
<g transform="translate(401.1 183) scale(.1 -.1)" fill="#262626">
<use xlink:href="#w"/>
<use xlink:href="#b" x="49.99998474121094"/>
<use xlink:href="#b" x="99.99996948242188"/>
<use xlink:href="#b" x="149.9999542236328"/>
</g>
<use xlink:href="#c" x="479.474437658" stroke="#262626" y="169.1775" fill="#262626"/>
<use xlink:href="#c" x="479.474437658" stroke="#262626" y="14.3421710676" fill="#262626"/>
<defs>
<path id="ak" d="m44.59 68.41c-13.79-1.5-21.68-3.91-30.29-12.91-7.097-7.3-10.89-16.8-10.89-27.59-0.004-7 1.887-14.11 4.684-19.21 3.496-6.403 9.816-10.11 17.71-10.11 6.61 0.004 12.2 2.707 15.9 7.316 3.3 4 5.1 9.594 5.1 16 0 12.89-7.21 20.89-18.89 20.89-4.41 0-7.82-0.71-12.71-4.5 2.71 15.11 13.89 25.9 29.6 28.5zm-6.79-49.61c0-10.21-3.71-17.39-10.89-17.39-9.41-0.004-14.21 10-14.21 25.18 0 9.21 5.89 11.61 11.6 11.61 9.29 0 13.5-6.61 13.5-19.4"/>
</defs>
<g transform="translate(469.5 183) scale(.1 -.1)" fill="#262626">
<use xlink:href="#ak"/>
<use xlink:href="#b" x="49.99998474121094"/>
<use xlink:href="#b" x="99.99996948242188"/>
<use xlink:href="#b" x="149.9999542236328"/>
</g>
<defs>
<path id="aw" d="m77.5 0v1.5l-2.59 0.203c-3 0.203-4.32 1.5-4.32 6v20.3c0 11.8-3.5 18-11.59 18-5.8 0-10.91-2.59-16.3-8.41-1.79 5.71-5.2 8.41-10.61 8.41-4.5 0-8.68-0.91-15.29-7.7h-0.21v7.4l-0.79 0.3c-5.1-1.91-8.394-3-13.89-4.5l-0.004-1.7c1.297 0.29 2.094 0.4 3.188 0.4 2.609 0 3.5-1.7 3.5-6.61v-24.79c0-5.8-1.391-7.206-7-7.3v-1.5h22.21v1.5c-5.3 0.203-6.8 1.203-6.8 5.5v27.8c0 0.2 0.59 0.9 1.3 1.7 2 2.41 6.9 4.3 10.61 4.3 4.29 0 6.5-4.21 6.5-11.1v-21.11c0-6.09-1.11-6.684-6.82-7.09v-1.5h22.41v1.5c-5.7 0.094-7.2 1.5-7.2 8v25.2c3 4.3 6 6.1 10.7 6.1 5.7 0 7.7-3.3 7.7-11.21v-20.59c0-5.797-0.9-6.906-6.5-7.5v-1.5z"/>
<path id="s" d="m18 63.2c0 2.8-2.2 5.1-5.09 5.1-2.82 0-5.113-2.3-5.113-5.1 0-2.9 2.203-5.11 5.003-5.11 3 0 5.2 2.21 5.2 5.11m7.3-63.2v1.5c-6.6 0.5-7.39 1.594-7.39 9v35.09l-0.41 0.41-15.5-5.5v-1.59c1.797 0.5 3.297 0.5 4.203 0.5 2.5 0 3.297-1.61 3.297-6.32v-22.68c0-7.613-1-8.504-7.906-8.91v-1.5z"/>
<path id="au" d="m41.8 13.59l-1.8 0.41c-1-5-1.3-6.594-2.7-8.297-1.39-1.703-4.8-2.703-10.6-2.703h-13.29l26.89 40.5v1.5h-34.6l-0.403-11.8h1.797c0.906 7.3 2.406 8.8 8.706 8.8h13.5l-26.6-40.5 0.003-1.5h37.6z"/>
<path id="af" d="m15.91 45.8l-0.61 0.2c-5.3-2.09-8.894-3.41-14.39-5.09l-0.0038-1.61c0.8908 0.11 1.594 0.11 2.5 0.11 3.391 0 4.094-1 4.094-5.71v-46.79c0-5.21-1.094-6.32-7-6.91v-1.7h24.2v1.79c-7.5 0.11-8.79 1.21-8.79 7.5v15.71c3.59-3.3 5.89-4.3 10.09-4.3 11.91 0 21 11.2 21 25.7 0 12.39-7 21.3-16.7 21.3-5.6 0-10-2.41-14.39-7.91zm0-12.39c0 3 5.59 6.59 10.18 6.59 7.41 0 12.32-7.59 12.32-19.3 0-11-4.91-18.5-12.11-18.5-4.71 0.003-10.39 3.597-10.39 6.597z"/>
<path id="ag" d="m48.5 0v1.5c-4.91 0.5-6.09 1.594-6.09 7v22.09c0 9.91-4.21 15.41-11.82 15.41-4.59 0-9.18-2.2-14.39-8.09h-0.11v7.79l-0.79 0.3c-4.89-1.8-8.206-2.91-13.71-4.5l0.004-1.7c0.703 0.29 1.812 0.4 2.906 0.4 2.797 0 3.5-1.61 3.5-6.5v-24.29c0-5.91-1.094-7.504-6.203-7.91v-1.5h21.11v1.5c-5.11 0.406-6.5 1.797-6.5 5.703v27.6c4.59 4.5 7 5.7 10.29 5.7 4.89 0 7.3-3 7.3-10.09v-19.91c0-6.594-1.2-8.594-6.2-9l-0.1-1.5z"/>
<path id="i" d="m26.59 7.703c-2.18-2.609-3.79-3.5-6-3.5-3.68 0-5.18 2.594-5.18 8.997v28.6h10.09v3.2h-10.09v11.59c0 1-0.21 1.32-0.71 1.32-0.61-1-1.4-1.91-2-2.82-3.794-5.5-7.106-9.18-9.7-10.68-1.094-0.71-1.703-1.32-1.703-1.91 0-0.3 0.109-0.5 0.406-0.7h5.297v-30.1c0-8.403 3-12.7 8.8-12.7 5 0 8.79 2.406 12.11 7.594z"/>
<path id="q" d="m15.59 30.09c-2.79 1.71-4.29 4.61-4.29 6.82 0 4.68 3.2 6.79 7.5 6.79 6 0 9-3.29 11.29-12.29h1.5l-0.5 13.59h-1.09c-0.8-0.91-1.2-1-1.59-1-0.71 0-1.71 0.3-2.82 0.8-2.09 1-4.29 1.11-6.68 1.11-8.21 0-13.82-4.41-13.82-12.32 0.004-5.09 3.707-9.89 12-14.5l5.41-3c3.3-1.79 5.3-4.39 5.3-7.496 0-4.094-3.21-7.391-8.3-7.391-6.91 0-10.59 4.391-12.7 14.1h-1.597v-15.71l1.297 0.0038c0.594 1 1.203 1.203 2.406 1.203 1.094 0.0001 2.184-0.0937 4.594-0.8906 2.3-0.8124 5.2-0.9062 7.3-0.9062 7.61 0 14 5.797 14 12.5 0 5.7-2.39 8.41-8.8 12.3z"/>
<path id="t" d="m44.2 6.594c-1.7-1.391-2.7-1.891-4.29-1.891-1.82 0-3.11 2-3.11 6.597v19.11c0 6.09-0.39 8.18-2.8 11.09s-6.2 4.5-11.8 4.5c-4.5 0-8.7-1.2-11.5-3-3.497-2.2-5.106-5.41-5.106-8 0-2.7 2.203-4.59 4.312-4.59 2.594 0 4.594 2.18 4.594 4.09 0 2.09-0.59 2.41-0.59 4.2 0 2.71 3 4.89 7 4.89 4.5 0 7.79-2.79 7.79-9v-5.39c-11.29-4.2-15-6.11-18-8.11-3.903-2.59-6.997-6.5-6.997-11.68 0-6.613 4.297-10.41 10.5-10.41 4.3 0 9.21 1.297 14.5 7.297h0.1c0.5-5.297 2.7-7.297 6.4-7.297 3.39 0 6 1 9 4.797zm-15.5 6.106c0-2.903-0.61-4.294-3.5-6.294-1.7-1.109-3.79-1.609-5.79-1.609-3.91 0-6.91 2.406-6.91 7.703 0 3.09 1 5.5 3.41 7.7 2.5 2.3 6.59 4.39 12.79 6.6z"/>
<path id="r" d="m47 23.09c0 13.82-9.41 22.91-21.59 22.91-13.5 0-22.5-9.3-22.5-23.2-0.004-13.89 9.5-23.8 21.59-23.8 13.5 0 22.5 10.2 22.5 24.09m-9-2.68c0-11.61-4.41-18.61-11.8-18.61-3.61-0.003-6.79 1.794-9 4.997-3.7 5.403-5.29 12.61-5.29 20.5 0 10 4.68 15.9 11.59 15.9 4.3 0 7.09-2 9.5-5 3.2-4.11 5-11 5-17.79"/>
<path id="az" d="m46.91 46.3l-2.21 21.29h-2.11c-0.39-2.18-1.5-3.39-3.18-3.39-1 0-2.61 0.39-4.41 1.21-3.8 1.59-6.41 2.18-10.5 2.18-9.91 0-17.41-6.59-17.41-17.5 0.004-6.18 3.21-12.39 12.21-17.18 6.4-3.41 13.29-7.82 16.79-11.61 1.91-2.1 2.91-4.39 2.91-7.89 0-6.613-4.91-11.21-11.91-11.21-9.5 0.003-16 5.597-20.59 17.71h-2.203l2.906-21.21 2.203 0.003c0 2.094 1.294 3.297 2.794 3.297 1.1 0 2.8-0.297 4.71-1.094 3.68-1.609 7.59-2.312 11.79-2.312 11.6 0 20.39 7.5 20.39 18.71 0 7.61-4.89 13.4-15.5 19.61-10.5 6.09-17.89 10.29-17.89 17.09 0 5.5 3.89 9.5 10.1 9.5 6 0 11-3.3 14.5-7.8 1.79-2.4 2.9-5 4.11-9.4z"/>
<path id="ah" d="m25.7 0v1.5c-6.4 0.406-7.5 1.703-7.5 7.203v59.21l-0.5 0.39c-5.2-1.71-8.903-2.71-15.79-4.39l-0.004-1.61c1.594 0.2 2.891 0.2 3.688 0.2 3.203 0 4.203-1.59 4.203-6.41v-46.89c0-5.497-1.391-7.2-7.703-7.7v-1.5z"/>
<path id="j" d="m40.8 16.41c-4.89-7.41-8.71-10.5-15.39-10.5-4.61-0.004-8.32 1.793-11.11 5.5-3.6 4.79-4.1 8.68-4.597 16.29h30.8c-0.41 5.39-1.41 8.6-3.41 11.39-3.18 4.5-7.68 6.91-13.89 6.91-12.61 0-20.7-10.2-20.7-24.3 0-13.79 7.203-22.7 19-22.7 10 0 17 5.797 20.91 16.7zm-30.89 14.5c1.094 7.5 5.004 11.5 10.59 11.5 6.59 0 8.7-3.41 9.8-11.5z"/>
<path id="ax" d="m48.7 0v1.5c-5.4 1-6 1.797-6 8.7v19.89c0 10.5-4.11 15.91-12.29 15.91-5.91 0-10.11-2.41-14.71-8.41v30.41l-0.5 0.3c-3.5-1.21-5.794-1.89-11.5-3.6l-2.7-0.79v-1.61c0.297 0.11 0.797 0.11 1.203 0.11 4.297 0 5.094-0.82 5.094-5.11v-47.1c0-6.997-0.594-7.903-6.391-8.7l0.0002-1.5h21.59v1.5c-5.8 0.594-6.8 1.797-6.8 8.7v24.1c4.21 4.61 7.21 6.29 11.21 6.29 4.89 0 7.39-3.59 7.39-10.59v-19.8c0-6.903-1-8.106-6.8-8.7v-1.5z"/>
<path id="ay" d="m2.094 45v-3.2h8.206v-31.39c0-7.316-1.097-8.504-8.3-8.91v-1.5h26v1.5c-8.2 0.297-9.3 1.406-9.3 8.91v31.39h12.21v3.2h-12.21v11.59c0 5.91 1.8 8.91 5.6 8.91 2.2 0 3.5-1 5.29-3.91 1.61-2.68 2.82-3.59 4.5-3.59 2.41 0 4.21 1.8 4.21 4.09 0 3.61-4.39 6.21-10.39 6.21-6.32 0-11.5-2.71-14.11-7.21-2.6-4.5-3.39-8.09-3.5-16.09z"/>
<path id="ai" d="m47 38.8v3.9h-7.7c-2 0-3.5 0.3-5.5 1l-2.21 0.8c-2.68 1-5.39 1.5-8 1.5-9.29 0-16.68-7.2-16.68-16.3-0.004-6.29 2.59-10.11 9.29-13.4-1.4-1.39-2.79-2.71-4.29-4-3.316-2.894-4.613-4.894-4.613-6.894 0-2.203 1.109-3.312 5.293-5.312-7.184-5.188-9.793-8.5-9.793-12.18 0-5.32 7.703-9.71 17.29-9.71 7.21 0 14.82 2.39 20 6.39 4.11 3.21 6 6.504 6 10.5 0 6.207-4.68 10.41-12.09 10.71l-12.91 0.606c-5.39 0.297-7.79 1.094-7.79 2.688 0 1.996 3.29 5.496 6 6.316l1.9-0.21c1.8-0.2 3.21-0.29 3.8-0.29 3.5 0 7.2 1.5 10.41 3.89 3.59 2.7 5.18 6.4 5.18 11.61 0 2.89-0.5 5.18-1.89 8.39zm-31.8-5c0 5.9 2.8 9.4 7.39 9.4 3.11 0 5.71-1.7 7.32-4.7 1.89-3.5 3-8 3-12.09 0-5.5-2.91-9-7.41-9-6.2 0-10.3 6.5-10.3 16.09zm28.1-40.21c0-5.794-7.6-9.684-19-9.684-8.8 0-14.5 2.89-14.5 7.293-0.003 2.297 0.9 3.797 4.9 8.594 3.39-0.7032 11.3-1.297 16.21-1.297 9.09 0 12.39-1.203 12.39-4.906"/>
</defs>
<g transform="translate(195.4 199.1) scale(.13 -.13)" fill="#262626">
<use xlink:href="#az"/>
<use xlink:href="#t" x="55.59999084472656"/>
<use xlink:href="#aw" x="99.99998474121094"/>
<use xlink:href="#af" x="177.7999725341797"/>
<use xlink:href="#ah" x="227.79995727539062"/>
<use xlink:href="#j" x="255.59994506835938"/>
<use xlink:href="#XITS-20" x="299.99993896484375"/>
<use xlink:href="#q" x="324.9999237060547"/>
<use xlink:href="#s" x="363.89991760253906"/>
<use xlink:href="#au" x="391.6999053955078"/>
<use xlink:href="#j" x="436.0998992919922"/>
<use xlink:href="#XITS-20" x="480.49989318847656"/>
<use xlink:href="#r" x="505.4998779296875"/>
<use xlink:href="#ay" x="555.4998626708984"/>
<use xlink:href="#XITS-20" x="588.7998504638672"/>
<use xlink:href="#i" x="613.7998352050781"/>
<use xlink:href="#ax" x="641.5998229980469"/>
<use xlink:href="#j" x="691.5998077392578"/>
<use xlink:href="#XITS-20" x="735.9998016357422"/>
<use xlink:href="#i" x="760.9997863769531"/>
<use xlink:href="#j" x="788.7997741699219"/>
<use xlink:href="#q" x="833.1997680664062"/>
<use xlink:href="#i" x="872.0997619628906"/>
<use xlink:href="#s" x="899.8997497558594"/>
<use xlink:href="#ag" x="927.6997375488281"/>
<use xlink:href="#ai" x="977.6997222900391"/>
<use xlink:href="#XITS-20" x="1027.69970703125"/>
<use xlink:href="#q" x="1052.699691772461"/>
<use xlink:href="#i" x="1091.5996856689453"/>
<use xlink:href="#t" x="1119.399673461914"/>
<use xlink:href="#ai" x="1163.7996673583984"/>
<use xlink:href="#j" x="1213.7996520996094"/>
</g>
<use xlink:href="#c" x="67.89375" stroke="#262626" y="165.306890622" fill="#262626"/>
<use xlink:href="#c" x="486.445747877" stroke="#262626" y="165.306890622" fill="#262626"/>
<g transform="translate(40.89 167.6) scale(.1 -.1)" fill="#262626">
<use xlink:href="#ak"/>
<use xlink:href="#b" x="49.99998474121094"/>
<use xlink:href="#b" x="99.99996948242188"/>
<use xlink:href="#b" x="149.9999542236328"/>
</g>
<use xlink:href="#c" x="67.89375" stroke="#262626" y="96.4543284118" fill="#262626"/>
<use xlink:href="#c" x="486.445747877" stroke="#262626" y="96.4543284118" fill="#262626"/>
<g transform="translate(35.89 98.78) scale(.1 -.1)" fill="#262626">
<use xlink:href="#w"/>
<use xlink:href="#b" x="49.99998474121094"/>
<use xlink:href="#b" x="99.99996948242188"/>
<use xlink:href="#b" x="149.9999542236328"/>
<use xlink:href="#b" x="199.99993896484375"/>
</g>
<use xlink:href="#c" x="67.89375" stroke="#262626" y="18.2127804455" fill="#262626"/>
<use xlink:href="#c" x="486.445747877" stroke="#262626" y="18.2127804455" fill="#262626"/>
<g transform="translate(30.89 20.54) scale(.1 -.1)" fill="#262626">
<use xlink:href="#l"/>
<use xlink:href="#b" x="49.99998474121094"/>
<use xlink:href="#b" x="99.99996948242188"/>
<use xlink:href="#b" x="149.9999542236328"/>
<use xlink:href="#b" x="199.99993896484375"/>
<use xlink:href="#b" x="249.9999237060547"/>
</g>
<defs>
<path id="av" d="m48 5h-0.59c-4.61 0-5.71 1.094-5.71 5.7v34.3h-15.79v-1.7c6-0.39 7.39-1.21 7.39-6.5v-23.1c0-3.5-0.71-4.403-2.3-5.794-2.5-2.203-5.5-3.109-8.41-3.109-3.89 0-7.09 3.297-7.09 7.903v32.3h-14.59l-0.0038-1.41c4.797-0.29 6.188-1.68 6.188-6.68v-25.11c0-7.706 4.496-12.8 12.21-12.8 3.7 0 9.4 1.906 14.29 8.594h0.21v-8.188l0.5-0.3122c5 2 8.61 3.109 13.7 4.5z"/>
<path id="u" d="m1.594 66.2v-1.9c7.406-0.6 8.406-1.8 8.406-9.21v-42.89c0-8.606-0.594-9.7-8.406-10.29v-1.91h28v1.906c-8.09 0.391-9.39 1.688-9.39 9.294v17.89c2.71-0.18 4.3-0.29 6.89-0.29 10.71 0 15.61 0.9 21.41 6.11 3.7 3.29 5.7 7.79 5.7 13.09 0 5-1.7 9.09-5 11.91-4.5 3.79-11.7 6.29-21.7 6.29zm18.61-7.29c0 2.68 0.6 3.59 3.5 3.59 13.6 0 19.6-4 19.6-15 0-9-6-14.7-17-14.7-2 0-3.8 0.11-6.1 0.29z"/>
</defs>
<g transform="translate(23.07 119.9) rotate(-90) scale(.13 -.13)" fill="#262626">
<use xlink:href="#u"/>
<use xlink:href="#r" x="55.69999694824219"/>
<use xlink:href="#af" x="105.69998168945312"/>
<use xlink:href="#av" x="155.69996643066406"/>
<use xlink:href="#ah" x="205.699951171875"/>
<use xlink:href="#t" x="233.49993896484375"/>
<use xlink:href="#i" x="277.8999328613281"/>
<use xlink:href="#s" x="305.6999206542969"/>
<use xlink:href="#r" x="333.4999084472656"/>
<use xlink:href="#ag" x="383.49989318847656"/>
</g>
<path clip-path="url(#a)" fill="#fefeff" d="m67.89 169.2h13.96v-7.8h-13.96v7.8"/>
<g fill="#4c72b0">
<path clip-path="url(#a)" d="m81.85 169.2h13.95v-7.8h-13.95v7.8"/>
<path clip-path="url(#a)" d="m95.8 169.2h13.9v-7.8h-13.9v7.8"/>
<path clip-path="url(#a)" d="m109.7 169.2h14v-7.8h-14v7.8"/>
</g>
<path clip-path="url(#a)" fill="#fefeff" d="m123.7 169.2h14v-7.8h-14v7.8"/>
<g fill="#55a868">
<path clip-path="url(#a)" d="m137.7 169.2h13.9v-7.8h-13.9v7.8"/>
<path clip-path="url(#a)" d="m151.6 169.2h14v-7.8h-14v7.8"/>
<path clip-path="url(#a)" d="m165.6 169.2h13.9v-7.8h-13.9v7.8"/>
<path clip-path="url(#a)" d="m179.5 169.2h14v-7.8h-14v7.8"/>
<path clip-path="url(#a)" d="m193.5 169.2h13.9v-7.8h-13.9v7.8"/>
<path clip-path="url(#a)" d="m207.4 169.2h14v-7.8h-14v7.8"/>
<path clip-path="url(#a)" d="m221.4 169.2h13.9v-7.8h-13.9v7.8"/>
<path clip-path="url(#a)" d="m235.3 169.2h14v-7.8h-14v7.8"/>
<path clip-path="url(#a)" d="m249.3 169.2h13.9v-7.8h-13.9v7.8"/>
<path clip-path="url(#a)" d="m263.2 169.2h14v-7.8h-14v7.8"/>
<path clip-path="url(#a)" d="m277.2 169.2h13.9v-7.8h-13.9v7.8"/>
<path clip-path="url(#a)" d="m291.1 169.2h14v-7.8h-14v7.8"/>
<path clip-path="url(#a)" d="m305.1 169.2h13.9v-7.8h-13.9v7.8"/>
<path clip-path="url(#a)" d="m319 169.2h14v-7.8h-14v7.8"/>
<path clip-path="url(#a)" d="m333 169.2h13.9v-7.8h-13.9v7.8"/>
<path clip-path="url(#a)" d="m346.9 169.2h14v-7.8h-14v7.8"/>
<path clip-path="url(#a)" d="m360.9 169.2h13.9v-7.8h-13.9v7.8"/>
<path clip-path="url(#a)" d="m374.8 169.2h14v-7.8h-14v7.8"/>
<path clip-path="url(#a)" d="m388.8 169.2h13.9v-7.8h-13.9v7.8"/>
<path clip-path="url(#a)" d="m402.7 169.2h14v-7.8h-14v7.8"/>
<path clip-path="url(#a)" d="m416.7 169.2h13.9v-7.8h-13.9v7.8"/>
<path clip-path="url(#a)" d="m430.6 169.2h14v-7.8h-14v7.8"/>
<path clip-path="url(#a)" d="m444.6 169.2h13.9v-7.8h-13.9v7.8"/>
<path clip-path="url(#a)" d="m458.5 169.2h14v-7.8h-14v7.8"/>
<path clip-path="url(#a)" d="m472.5 169.2h13.9v-7.8h-13.9v7.8"/>
</g>
<path clip-path="url(#a)" fill="#fefeff" d="m67.89 161.4h13.96v-7.7h-13.96v7.7"/>
<g fill="#4c72b0">
<path clip-path="url(#a)" d="m81.85 161.4h13.95v-7.7h-13.95v7.7"/>
<path clip-path="url(#a)" d="m95.8 161.4h13.9v-7.7h-13.9v7.7"/>
<path clip-path="url(#a)" d="m109.7 161.4h14v-7.7h-14v7.7"/>
</g>
<g fill="#fefeff">
<path clip-path="url(#a)" d="m123.7 161.4h14v-7.7h-14v7.7"/>
<path clip-path="url(#a)" d="m137.7 161.4h13.9v-7.7h-13.9v7.7"/>
<path clip-path="url(#a)" d="m151.6 161.4h14v-7.7h-14v7.7"/>
</g>
<g fill="#55a868">
<path clip-path="url(#a)" d="m165.6 161.4h13.9v-7.7h-13.9v7.7"/>
<path clip-path="url(#a)" d="m179.5 161.4h14v-7.7h-14v7.7"/>
<path clip-path="url(#a)" d="m193.5 161.4h13.9v-7.7h-13.9v7.7"/>
<path clip-path="url(#a)" d="m207.4 161.4h14v-7.7h-14v7.7"/>
<path clip-path="url(#a)" d="m221.4 161.4h13.9v-7.7h-13.9v7.7"/>
<path clip-path="url(#a)" d="m235.3 161.4h14v-7.7h-14v7.7"/>
<path clip-path="url(#a)" d="m249.3 161.4h13.9v-7.7h-13.9v7.7"/>
<path clip-path="url(#a)" d="m263.2 161.4h14v-7.7h-14v7.7"/>
<path clip-path="url(#a)" d="m277.2 161.4h13.9v-7.7h-13.9v7.7"/>
<path clip-path="url(#a)" d="m291.1 161.4h14v-7.7h-14v7.7"/>
<path clip-path="url(#a)" d="m305.1 161.4h13.9v-7.7h-13.9v7.7"/>
<path clip-path="url(#a)" d="m319 161.4h14v-7.7h-14v7.7"/>
<path clip-path="url(#a)" d="m333 161.4h13.9v-7.7h-13.9v7.7"/>
<path clip-path="url(#a)" d="m346.9 161.4h14v-7.7h-14v7.7"/>
<path clip-path="url(#a)" d="m360.9 161.4h13.9v-7.7h-13.9v7.7"/>
<path clip-path="url(#a)" d="m374.8 161.4h14v-7.7h-14v7.7"/>
<path clip-path="url(#a)" d="m388.8 161.4h13.9v-7.7h-13.9v7.7"/>
<path clip-path="url(#a)" d="m402.7 161.4h14v-7.7h-14v7.7"/>
<path clip-path="url(#a)" d="m416.7 161.4h13.9v-7.7h-13.9v7.7"/>
<path clip-path="url(#a)" d="m430.6 161.4h14v-7.7h-14v7.7"/>
<path clip-path="url(#a)" d="m444.6 161.4h13.9v-7.7h-13.9v7.7"/>
<path clip-path="url(#a)" d="m458.5 161.4h14v-7.7h-14v7.7"/>
<path clip-path="url(#a)" d="m472.5 161.4h13.9v-7.7h-13.9v7.7"/>
</g>
<path clip-path="url(#a)" fill="#fefeff" d="m67.89 153.7h13.96v-7.7h-13.96v7.7"/>
<g fill="#4c72b0">
<path clip-path="url(#a)" d="m81.85 153.7h13.95v-7.7h-13.95v7.7"/>
<path clip-path="url(#a)" d="m95.8 153.7h13.9v-7.7h-13.9v7.7"/>
<path clip-path="url(#a)" d="m109.7 153.7h14v-7.7h-14v7.7"/>
<path clip-path="url(#a)" d="m123.7 153.7h14v-7.7h-14v7.7"/>
<path clip-path="url(#a)" d="m137.7 153.7h13.9v-7.7h-13.9v7.7"/>
</g>
<path clip-path="url(#a)" fill="#fefeff" d="m151.6 153.7h14v-7.7h-14v7.7"/>
<path clip-path="url(#a)" fill="#fefeff" d="m165.6 153.7h13.9v-7.7h-13.9v7.7"/>
<g fill="#55a868">
<path clip-path="url(#a)" d="m179.5 153.7h14v-7.7h-14v7.7"/>
<path clip-path="url(#a)" d="m193.5 153.7h13.9v-7.7h-13.9v7.7"/>
<path clip-path="url(#a)" d="m207.4 153.7h14v-7.7h-14v7.7"/>
<path clip-path="url(#a)" d="m221.4 153.7h13.9v-7.7h-13.9v7.7"/>
<path clip-path="url(#a)" d="m235.3 153.7h14v-7.7h-14v7.7"/>
<path clip-path="url(#a)" d="m249.3 153.7h13.9v-7.7h-13.9v7.7"/>
<path clip-path="url(#a)" d="m263.2 153.7h14v-7.7h-14v7.7"/>
<path clip-path="url(#a)" d="m277.2 153.7h13.9v-7.7h-13.9v7.7"/>
<path clip-path="url(#a)" d="m291.1 153.7h14v-7.7h-14v7.7"/>
<path clip-path="url(#a)" d="m305.1 153.7h13.9v-7.7h-13.9v7.7"/>
<path clip-path="url(#a)" d="m319 153.7h14v-7.7h-14v7.7"/>
<path clip-path="url(#a)" d="m333 153.7h13.9v-7.7h-13.9v7.7"/>
<path clip-path="url(#a)" d="m346.9 153.7h14v-7.7h-14v7.7"/>
<path clip-path="url(#a)" d="m360.9 153.7h13.9v-7.7h-13.9v7.7"/>
<path clip-path="url(#a)" d="m374.8 153.7h14v-7.7h-14v7.7"/>
<path clip-path="url(#a)" d="m388.8 153.7h13.9v-7.7h-13.9v7.7"/>
<path clip-path="url(#a)" d="m402.7 153.7h14v-7.7h-14v7.7"/>
<path clip-path="url(#a)" d="m416.7 153.7h13.9v-7.7h-13.9v7.7"/>
<path clip-path="url(#a)" d="m430.6 153.7h14v-7.7h-14v7.7"/>
<path clip-path="url(#a)" d="m444.6 153.7h13.9v-7.7h-13.9v7.7"/>
<path clip-path="url(#a)" d="m458.5 153.7h14v-7.7h-14v7.7"/>
<path clip-path="url(#a)" d="m472.5 153.7h13.9v-7.7h-13.9v7.7"/>
</g>
<path clip-path="url(#a)" fill="#fefeff" d="m67.89 146h13.96v-7.8h-13.96v7.8"/>
<g fill="#4c72b0">
<path clip-path="url(#a)" d="m81.85 146h13.95v-7.8h-13.95v7.8"/>
<path clip-path="url(#a)" d="m95.8 146h13.9v-7.8h-13.9v7.8"/>
<path clip-path="url(#a)" d="m109.7 146h14v-7.8h-14v7.8"/>
<path clip-path="url(#a)" d="m123.7 146h14v-7.8h-14v7.8"/>
<path clip-path="url(#a)" d="m137.7 146h13.9v-7.8h-13.9v7.8"/>
<path clip-path="url(#a)" d="m151.6 146h14v-7.8h-14v7.8"/>
</g>
<path clip-path="url(#a)" fill="#fefeff" d="m165.6 146h13.9v-7.8h-13.9v7.8"/>
<path clip-path="url(#a)" fill="#fefeff" d="m179.5 146h14v-7.8h-14v7.8"/>
<g fill="#55a868">
<path clip-path="url(#a)" d="m193.5 146h13.9v-7.8h-13.9v7.8"/>
<path clip-path="url(#a)" d="m207.4 146h14v-7.8h-14v7.8"/>
<path clip-path="url(#a)" d="m221.4 146h13.9v-7.8h-13.9v7.8"/>
<path clip-path="url(#a)" d="m235.3 146h14v-7.8h-14v7.8"/>
<path clip-path="url(#a)" d="m249.3 146h13.9v-7.8h-13.9v7.8"/>
<path clip-path="url(#a)" d="m263.2 146h14v-7.8h-14v7.8"/>
<path clip-path="url(#a)" d="m277.2 146h13.9v-7.8h-13.9v7.8"/>
<path clip-path="url(#a)" d="m291.1 146h14v-7.8h-14v7.8"/>
<path clip-path="url(#a)" d="m305.1 146h13.9v-7.8h-13.9v7.8"/>
<path clip-path="url(#a)" d="m319 146h14v-7.8h-14v7.8"/>
<path clip-path="url(#a)" d="m333 146h13.9v-7.8h-13.9v7.8"/>
<path clip-path="url(#a)" d="m346.9 146h14v-7.8h-14v7.8"/>
<path clip-path="url(#a)" d="m360.9 146h13.9v-7.8h-13.9v7.8"/>
<path clip-path="url(#a)" d="m374.8 146h14v-7.8h-14v7.8"/>
<path clip-path="url(#a)" d="m388.8 146h13.9v-7.8h-13.9v7.8"/>
<path clip-path="url(#a)" d="m402.7 146h14v-7.8h-14v7.8"/>
<path clip-path="url(#a)" d="m416.7 146h13.9v-7.8h-13.9v7.8"/>
<path clip-path="url(#a)" d="m430.6 146h14v-7.8h-14v7.8"/>
<path clip-path="url(#a)" d="m444.6 146h13.9v-7.8h-13.9v7.8"/>
<path clip-path="url(#a)" d="m458.5 146h14v-7.8h-14v7.8"/>
<path clip-path="url(#a)" d="m472.5 146h13.9v-7.8h-13.9v7.8"/>
</g>
<path clip-path="url(#a)" fill="#fefeff" d="m67.89 138.2h13.96v-7.7h-13.96v7.7"/>
<g fill="#4c72b0">
<path clip-path="url(#a)" d="m81.85 138.2h13.95v-7.7h-13.95v7.7"/>
<path clip-path="url(#a)" d="m95.8 138.2h13.9v-7.7h-13.9v7.7"/>
<path clip-path="url(#a)" d="m109.7 138.2h14v-7.7h-14v7.7"/>
<path clip-path="url(#a)" d="m123.7 138.2h14v-7.7h-14v7.7"/>
<path clip-path="url(#a)" d="m137.7 138.2h13.9v-7.7h-13.9v7.7"/>
<path clip-path="url(#a)" d="m151.6 138.2h14v-7.7h-14v7.7"/>
</g>
<g fill="#fefeff">
<path clip-path="url(#a)" d="m165.6 138.2h13.9v-7.7h-13.9v7.7"/>
<path clip-path="url(#a)" d="m179.5 138.2h14v-7.7h-14v7.7"/>
<path clip-path="url(#a)" d="m193.5 138.2h13.9v-7.7h-13.9v7.7"/>
</g>
<g fill="#55a868">
<path clip-path="url(#a)" d="m207.4 138.2h14v-7.7h-14v7.7"/>
<path clip-path="url(#a)" d="m221.4 138.2h13.9v-7.7h-13.9v7.7"/>
<path clip-path="url(#a)" d="m235.3 138.2h14v-7.7h-14v7.7"/>
<path clip-path="url(#a)" d="m249.3 138.2h13.9v-7.7h-13.9v7.7"/>
<path clip-path="url(#a)" d="m263.2 138.2h14v-7.7h-14v7.7"/>
<path clip-path="url(#a)" d="m277.2 138.2h13.9v-7.7h-13.9v7.7"/>
<path clip-path="url(#a)" d="m291.1 138.2h14v-7.7h-14v7.7"/>
<path clip-path="url(#a)" d="m305.1 138.2h13.9v-7.7h-13.9v7.7"/>
<path clip-path="url(#a)" d="m319 138.2h14v-7.7h-14v7.7"/>
<path clip-path="url(#a)" d="m333 138.2h13.9v-7.7h-13.9v7.7"/>
<path clip-path="url(#a)" d="m346.9 138.2h14v-7.7h-14v7.7"/>
<path clip-path="url(#a)" d="m360.9 138.2h13.9v-7.7h-13.9v7.7"/>
<path clip-path="url(#a)" d="m374.8 138.2h14v-7.7h-14v7.7"/>
<path clip-path="url(#a)" d="m388.8 138.2h13.9v-7.7h-13.9v7.7"/>
<path clip-path="url(#a)" d="m402.7 138.2h14v-7.7h-14v7.7"/>
<path clip-path="url(#a)" d="m416.7 138.2h13.9v-7.7h-13.9v7.7"/>
<path clip-path="url(#a)" d="m430.6 138.2h14v-7.7h-14v7.7"/>
<path clip-path="url(#a)" d="m444.6 138.2h13.9v-7.7h-13.9v7.7"/>
<path clip-path="url(#a)" d="m458.5 138.2h14v-7.7h-14v7.7"/>
<path clip-path="url(#a)" d="m472.5 138.2h13.9v-7.7h-13.9v7.7"/>
</g>
<path clip-path="url(#a)" fill="#fefeff" d="m67.89 130.5h13.96v-7.8h-13.96v7.8"/>
<g fill="#4c72b0">
<path clip-path="url(#a)" d="m81.85 130.5h13.95v-7.8h-13.95v7.8"/>
<path clip-path="url(#a)" d="m95.8 130.5h13.9v-7.8h-13.9v7.8"/>
<path clip-path="url(#a)" d="m109.7 130.5h14v-7.8h-14v7.8"/>
<path clip-path="url(#a)" d="m123.7 130.5h14v-7.8h-14v7.8"/>
<path clip-path="url(#a)" d="m137.7 130.5h13.9v-7.8h-13.9v7.8"/>
<path clip-path="url(#a)" d="m151.6 130.5h14v-7.8h-14v7.8"/>
</g>
<g fill="#fefeff">
<path clip-path="url(#a)" d="m165.6 130.5h13.9v-7.8h-13.9v7.8"/>
<path clip-path="url(#a)" d="m179.5 130.5h14v-7.8h-14v7.8"/>
<path clip-path="url(#a)" d="m193.5 130.5h13.9v-7.8h-13.9v7.8"/>
</g>
<g fill="#55a868">
<path clip-path="url(#a)" d="m207.4 130.5h14v-7.8h-14v7.8"/>
<path clip-path="url(#a)" d="m221.4 130.5h13.9v-7.8h-13.9v7.8"/>
<path clip-path="url(#a)" d="m235.3 130.5h14v-7.8h-14v7.8"/>
<path clip-path="url(#a)" d="m249.3 130.5h13.9v-7.8h-13.9v7.8"/>
<path clip-path="url(#a)" d="m263.2 130.5h14v-7.8h-14v7.8"/>
<path clip-path="url(#a)" d="m277.2 130.5h13.9v-7.8h-13.9v7.8"/>
<path clip-path="url(#a)" d="m291.1 130.5h14v-7.8h-14v7.8"/>
<path clip-path="url(#a)" d="m305.1 130.5h13.9v-7.8h-13.9v7.8"/>
<path clip-path="url(#a)" d="m319 130.5h14v-7.8h-14v7.8"/>
<path clip-path="url(#a)" d="m333 130.5h13.9v-7.8h-13.9v7.8"/>
<path clip-path="url(#a)" d="m346.9 130.5h14v-7.8h-14v7.8"/>
<path clip-path="url(#a)" d="m360.9 130.5h13.9v-7.8h-13.9v7.8"/>
<path clip-path="url(#a)" d="m374.8 130.5h14v-7.8h-14v7.8"/>
<path clip-path="url(#a)" d="m388.8 130.5h13.9v-7.8h-13.9v7.8"/>
<path clip-path="url(#a)" d="m402.7 130.5h14v-7.8h-14v7.8"/>
<path clip-path="url(#a)" d="m416.7 130.5h13.9v-7.8h-13.9v7.8"/>
<path clip-path="url(#a)" d="m430.6 130.5h14v-7.8h-14v7.8"/>
<path clip-path="url(#a)" d="m444.6 130.5h13.9v-7.8h-13.9v7.8"/>
<path clip-path="url(#a)" d="m458.5 130.5h14v-7.8h-14v7.8"/>
<path clip-path="url(#a)" d="m472.5 130.5h13.9v-7.8h-13.9v7.8"/>
</g>
<path clip-path="url(#a)" fill="#fefeff" d="m67.89 122.7h13.96v-7.7h-13.96v7.7"/>
<g fill="#4c72b0">
<path clip-path="url(#a)" d="m81.85 122.7h13.95v-7.7h-13.95v7.7"/>
<path clip-path="url(#a)" d="m95.8 122.7h13.9v-7.7h-13.9v7.7"/>
<path clip-path="url(#a)" d="m109.7 122.7h14v-7.7h-14v7.7"/>
<path clip-path="url(#a)" d="m123.7 122.7h14v-7.7h-14v7.7"/>
<path clip-path="url(#a)" d="m137.7 122.7h13.9v-7.7h-13.9v7.7"/>
<path clip-path="url(#a)" d="m151.6 122.7h14v-7.7h-14v7.7"/>
<path clip-path="url(#a)" d="m165.6 122.7h13.9v-7.7h-13.9v7.7"/>
</g>
<g fill="#fefeff">
<path clip-path="url(#a)" d="m179.5 122.7h14v-7.7h-14v7.7"/>
<path clip-path="url(#a)" d="m193.5 122.7h13.9v-7.7h-13.9v7.7"/>
<path clip-path="url(#a)" d="m207.4 122.7h14v-7.7h-14v7.7"/>
</g>
<g fill="#55a868">
<path clip-path="url(#a)" d="m221.4 122.7h13.9v-7.7h-13.9v7.7"/>
<path clip-path="url(#a)" d="m235.3 122.7h14v-7.7h-14v7.7"/>
<path clip-path="url(#a)" d="m249.3 122.7h13.9v-7.7h-13.9v7.7"/>
<path clip-path="url(#a)" d="m263.2 122.7h14v-7.7h-14v7.7"/>
<path clip-path="url(#a)" d="m277.2 122.7h13.9v-7.7h-13.9v7.7"/>
<path clip-path="url(#a)" d="m291.1 122.7h14v-7.7h-14v7.7"/>
<path clip-path="url(#a)" d="m305.1 122.7h13.9v-7.7h-13.9v7.7"/>
<path clip-path="url(#a)" d="m319 122.7h14v-7.7h-14v7.7"/>
<path clip-path="url(#a)" d="m333 122.7h13.9v-7.7h-13.9v7.7"/>
<path clip-path="url(#a)" d="m346.9 122.7h14v-7.7h-14v7.7"/>
<path clip-path="url(#a)" d="m360.9 122.7h13.9v-7.7h-13.9v7.7"/>
<path clip-path="url(#a)" d="m374.8 122.7h14v-7.7h-14v7.7"/>
<path clip-path="url(#a)" d="m388.8 122.7h13.9v-7.7h-13.9v7.7"/>
<path clip-path="url(#a)" d="m402.7 122.7h14v-7.7h-14v7.7"/>
<path clip-path="url(#a)" d="m416.7 122.7h13.9v-7.7h-13.9v7.7"/>
<path clip-path="url(#a)" d="m430.6 122.7h14v-7.7h-14v7.7"/>
<path clip-path="url(#a)" d="m444.6 122.7h13.9v-7.7h-13.9v7.7"/>
<path clip-path="url(#a)" d="m458.5 122.7h14v-7.7h-14v7.7"/>
<path clip-path="url(#a)" d="m472.5 122.7h13.9v-7.7h-13.9v7.7"/>
</g>
<path clip-path="url(#a)" fill="#fefeff" d="m67.89 115h13.96v-7.8h-13.96v7.8"/>
<g fill="#4c72b0">
<path clip-path="url(#a)" d="m81.85 115h13.95v-7.8h-13.95v7.8"/>
<path clip-path="url(#a)" d="m95.8 115h13.9v-7.8h-13.9v7.8"/>
<path clip-path="url(#a)" d="m109.7 115h14v-7.8h-14v7.8"/>
<path clip-path="url(#a)" d="m123.7 115h14v-7.8h-14v7.8"/>
<path clip-path="url(#a)" d="m137.7 115h13.9v-7.8h-13.9v7.8"/>
<path clip-path="url(#a)" d="m151.6 115h14v-7.8h-14v7.8"/>
<path clip-path="url(#a)" d="m165.6 115h13.9v-7.8h-13.9v7.8"/>
</g>
<g fill="#fefeff">
<path clip-path="url(#a)" d="m179.5 115h14v-7.8h-14v7.8"/>
<path clip-path="url(#a)" d="m193.5 115h13.9v-7.8h-13.9v7.8"/>
<path clip-path="url(#a)" d="m207.4 115h14v-7.8h-14v7.8"/>
</g>
<g fill="#55a868">
<path clip-path="url(#a)" d="m221.4 115h13.9v-7.8h-13.9v7.8"/>
<path clip-path="url(#a)" d="m235.3 115h14v-7.8h-14v7.8"/>
<path clip-path="url(#a)" d="m249.3 115h13.9v-7.8h-13.9v7.8"/>
<path clip-path="url(#a)" d="m263.2 115h14v-7.8h-14v7.8"/>
<path clip-path="url(#a)" d="m277.2 115h13.9v-7.8h-13.9v7.8"/>
<path clip-path="url(#a)" d="m291.1 115h14v-7.8h-14v7.8"/>
<path clip-path="url(#a)" d="m305.1 115h13.9v-7.8h-13.9v7.8"/>
<path clip-path="url(#a)" d="m319 115h14v-7.8h-14v7.8"/>
<path clip-path="url(#a)" d="m333 115h13.9v-7.8h-13.9v7.8"/>
<path clip-path="url(#a)" d="m346.9 115h14v-7.8h-14v7.8"/>
<path clip-path="url(#a)" d="m360.9 115h13.9v-7.8h-13.9v7.8"/>
<path clip-path="url(#a)" d="m374.8 115h14v-7.8h-14v7.8"/>
<path clip-path="url(#a)" d="m388.8 115h13.9v-7.8h-13.9v7.8"/>
<path clip-path="url(#a)" d="m402.7 115h14v-7.8h-14v7.8"/>
<path clip-path="url(#a)" d="m416.7 115h13.9v-7.8h-13.9v7.8"/>
<path clip-path="url(#a)" d="m430.6 115h14v-7.8h-14v7.8"/>
<path clip-path="url(#a)" d="m444.6 115h13.9v-7.8h-13.9v7.8"/>
<path clip-path="url(#a)" d="m458.5 115h14v-7.8h-14v7.8"/>
<path clip-path="url(#a)" d="m472.5 115h13.9v-7.8h-13.9v7.8"/>
</g>
<path clip-path="url(#a)" fill="#fefeff" d="m67.89 107.2h13.96v-7.7h-13.96v7.7"/>
<g fill="#4c72b0">
<path clip-path="url(#a)" d="m81.85 107.2h13.95v-7.7h-13.95v7.7"/>
<path clip-path="url(#a)" d="m95.8 107.2h13.9v-7.7h-13.9v7.7"/>
<path clip-path="url(#a)" d="m109.7 107.2h14v-7.7h-14v7.7"/>
<path clip-path="url(#a)" d="m123.7 107.2h14v-7.7h-14v7.7"/>
<path clip-path="url(#a)" d="m137.7 107.2h13.9v-7.7h-13.9v7.7"/>
<path clip-path="url(#a)" d="m151.6 107.2h14v-7.7h-14v7.7"/>
<path clip-path="url(#a)" d="m165.6 107.2h13.9v-7.7h-13.9v7.7"/>
</g>
<g fill="#fefeff">
<path clip-path="url(#a)" d="m179.5 107.2h14v-7.7h-14v7.7"/>
<path clip-path="url(#a)" d="m193.5 107.2h13.9v-7.7h-13.9v7.7"/>
<path clip-path="url(#a)" d="m207.4 107.2h14v-7.7h-14v7.7"/>
</g>
<g fill="#55a868">
<path clip-path="url(#a)" d="m221.4 107.2h13.9v-7.7h-13.9v7.7"/>
<path clip-path="url(#a)" d="m235.3 107.2h14v-7.7h-14v7.7"/>
<path clip-path="url(#a)" d="m249.3 107.2h13.9v-7.7h-13.9v7.7"/>
<path clip-path="url(#a)" d="m263.2 107.2h14v-7.7h-14v7.7"/>
<path clip-path="url(#a)" d="m277.2 107.2h13.9v-7.7h-13.9v7.7"/>
<path clip-path="url(#a)" d="m291.1 107.2h14v-7.7h-14v7.7"/>
<path clip-path="url(#a)" d="m305.1 107.2h13.9v-7.7h-13.9v7.7"/>
<path clip-path="url(#a)" d="m319 107.2h14v-7.7h-14v7.7"/>
<path clip-path="url(#a)" d="m333 107.2h13.9v-7.7h-13.9v7.7"/>
<path clip-path="url(#a)" d="m346.9 107.2h14v-7.7h-14v7.7"/>
<path clip-path="url(#a)" d="m360.9 107.2h13.9v-7.7h-13.9v7.7"/>
<path clip-path="url(#a)" d="m374.8 107.2h14v-7.7h-14v7.7"/>
<path clip-path="url(#a)" d="m388.8 107.2h13.9v-7.7h-13.9v7.7"/>
<path clip-path="url(#a)" d="m402.7 107.2h14v-7.7h-14v7.7"/>
<path clip-path="url(#a)" d="m416.7 107.2h13.9v-7.7h-13.9v7.7"/>
<path clip-path="url(#a)" d="m430.6 107.2h14v-7.7h-14v7.7"/>
<path clip-path="url(#a)" d="m444.6 107.2h13.9v-7.7h-13.9v7.7"/>
<path clip-path="url(#a)" d="m458.5 107.2h14v-7.7h-14v7.7"/>
<path clip-path="url(#a)" d="m472.5 107.2h13.9v-7.7h-13.9v7.7"/>
</g>
<path clip-path="url(#a)" fill="#fefeff" d="m67.89 99.5h13.96v-7.74h-13.96v7.74"/>
<g fill="#4c72b0">
<path clip-path="url(#a)" d="m81.85 99.5h13.95v-7.74h-13.95v7.74"/>
<path clip-path="url(#a)" d="m95.8 99.5h13.9v-7.74h-13.9v7.74"/>
<path clip-path="url(#a)" d="m109.7 99.5h14v-7.74h-14v7.74"/>
<path clip-path="url(#a)" d="m123.7 99.5h14v-7.74h-14v7.74"/>
<path clip-path="url(#a)" d="m137.7 99.5h13.9v-7.74h-13.9v7.74"/>
<path clip-path="url(#a)" d="m151.6 99.5h14v-7.74h-14v7.74"/>
<path clip-path="url(#a)" d="m165.6 99.5h13.9v-7.74h-13.9v7.74"/>
<path clip-path="url(#a)" d="m179.5 99.5h14v-7.74h-14v7.74"/>
</g>
<g fill="#fefeff">
<path clip-path="url(#a)" d="m193.5 99.5h13.9v-7.74h-13.9v7.74"/>
<path clip-path="url(#a)" d="m207.4 99.5h14v-7.74h-14v7.74"/>
<path clip-path="url(#a)" d="m221.4 99.5h13.9v-7.74h-13.9v7.74"/>
<path clip-path="url(#a)" d="m235.3 99.5h14v-7.74h-14v7.74"/>
</g>
<g fill="#55a868">
<path clip-path="url(#a)" d="m249.3 99.5h13.9v-7.74h-13.9v7.74"/>
<path clip-path="url(#a)" d="m263.2 99.5h14v-7.74h-14v7.74"/>
<path clip-path="url(#a)" d="m277.2 99.5h13.9v-7.74h-13.9v7.74"/>
<path clip-path="url(#a)" d="m291.1 99.5h14v-7.74h-14v7.74"/>
<path clip-path="url(#a)" d="m305.1 99.5h13.9v-7.74h-13.9v7.74"/>
<path clip-path="url(#a)" d="m319 99.5h14v-7.74h-14v7.74"/>
<path clip-path="url(#a)" d="m333 99.5h13.9v-7.74h-13.9v7.74"/>
<path clip-path="url(#a)" d="m346.9 99.5h14v-7.74h-14v7.74"/>
<path clip-path="url(#a)" d="m360.9 99.5h13.9v-7.74h-13.9v7.74"/>
<path clip-path="url(#a)" d="m374.8 99.5h14v-7.74h-14v7.74"/>
<path clip-path="url(#a)" d="m388.8 99.5h13.9v-7.74h-13.9v7.74"/>
<path clip-path="url(#a)" d="m402.7 99.5h14v-7.74h-14v7.74"/>
<path clip-path="url(#a)" d="m416.7 99.5h13.9v-7.74h-13.9v7.74"/>
<path clip-path="url(#a)" d="m430.6 99.5h14v-7.74h-14v7.74"/>
<path clip-path="url(#a)" d="m444.6 99.5h13.9v-7.74h-13.9v7.74"/>
<path clip-path="url(#a)" d="m458.5 99.5h14v-7.74h-14v7.74"/>
<path clip-path="url(#a)" d="m472.5 99.5h13.9v-7.74h-13.9v7.74"/>
</g>
<path clip-path="url(#a)" fill="#fefeff" d="m67.89 91.76h13.96v-7.74h-13.96v7.74"/>
<g fill="#4c72b0">
<path clip-path="url(#a)" d="m81.85 91.76h13.95v-7.74h-13.95v7.74"/>
<path clip-path="url(#a)" d="m95.8 91.76h13.9v-7.74h-13.9v7.74"/>
<path clip-path="url(#a)" d="m109.7 91.76h14v-7.74h-14v7.74"/>
<path clip-path="url(#a)" d="m123.7 91.76h14v-7.74h-14v7.74"/>
<path clip-path="url(#a)" d="m137.7 91.76h13.9v-7.74h-13.9v7.74"/>
<path clip-path="url(#a)" d="m151.6 91.76h14v-7.74h-14v7.74"/>
<path clip-path="url(#a)" d="m165.6 91.76h13.9v-7.74h-13.9v7.74"/>
<path clip-path="url(#a)" d="m179.5 91.76h14v-7.74h-14v7.74"/>
</g>
<g fill="#fefeff">
<path clip-path="url(#a)" d="m193.5 91.76h13.9v-7.74h-13.9v7.74"/>
<path clip-path="url(#a)" d="m207.4 91.76h14v-7.74h-14v7.74"/>
<path clip-path="url(#a)" d="m221.4 91.76h13.9v-7.74h-13.9v7.74"/>
<path clip-path="url(#a)" d="m235.3 91.76h14v-7.74h-14v7.74"/>
</g>
<g fill="#55a868">
<path clip-path="url(#a)" d="m249.3 91.76h13.9v-7.74h-13.9v7.74"/>
<path clip-path="url(#a)" d="m263.2 91.76h14v-7.74h-14v7.74"/>
<path clip-path="url(#a)" d="m277.2 91.76h13.9v-7.74h-13.9v7.74"/>
<path clip-path="url(#a)" d="m291.1 91.76h14v-7.74h-14v7.74"/>
<path clip-path="url(#a)" d="m305.1 91.76h13.9v-7.74h-13.9v7.74"/>
<path clip-path="url(#a)" d="m319 91.76h14v-7.74h-14v7.74"/>
<path clip-path="url(#a)" d="m333 91.76h13.9v-7.74h-13.9v7.74"/>
<path clip-path="url(#a)" d="m346.9 91.76h14v-7.74h-14v7.74"/>
<path clip-path="url(#a)" d="m360.9 91.76h13.9v-7.74h-13.9v7.74"/>
<path clip-path="url(#a)" d="m374.8 91.76h14v-7.74h-14v7.74"/>
<path clip-path="url(#a)" d="m388.8 91.76h13.9v-7.74h-13.9v7.74"/>
<path clip-path="url(#a)" d="m402.7 91.76h14v-7.74h-14v7.74"/>
<path clip-path="url(#a)" d="m416.7 91.76h13.9v-7.74h-13.9v7.74"/>
<path clip-path="url(#a)" d="m430.6 91.76h14v-7.74h-14v7.74"/>
<path clip-path="url(#a)" d="m444.6 91.76h13.9v-7.74h-13.9v7.74"/>
<path clip-path="url(#a)" d="m458.5 91.76h14v-7.74h-14v7.74"/>
<path clip-path="url(#a)" d="m472.5 91.76h13.9v-7.74h-13.9v7.74"/>
</g>
<path clip-path="url(#a)" fill="#fefeff" d="m67.89 84.02h13.96v-7.74h-13.96v7.74"/>
<g fill="#4c72b0">
<path clip-path="url(#a)" d="m81.85 84.02h13.95v-7.74h-13.95v7.74"/>
<path clip-path="url(#a)" d="m95.8 84.02h13.9v-7.74h-13.9v7.74"/>
<path clip-path="url(#a)" d="m109.7 84.02h14v-7.74h-14v7.74"/>
<path clip-path="url(#a)" d="m123.7 84.02h14v-7.74h-14v7.74"/>
<path clip-path="url(#a)" d="m137.7 84.02h13.9v-7.74h-13.9v7.74"/>
<path clip-path="url(#a)" d="m151.6 84.02h14v-7.74h-14v7.74"/>
<path clip-path="url(#a)" d="m165.6 84.02h13.9v-7.74h-13.9v7.74"/>
<path clip-path="url(#a)" d="m179.5 84.02h14v-7.74h-14v7.74"/>
</g>
<g fill="#fefeff">
<path clip-path="url(#a)" d="m193.5 84.02h13.9v-7.74h-13.9v7.74"/>
<path clip-path="url(#a)" d="m207.4 84.02h14v-7.74h-14v7.74"/>
<path clip-path="url(#a)" d="m221.4 84.02h13.9v-7.74h-13.9v7.74"/>
<path clip-path="url(#a)" d="m235.3 84.02h14v-7.74h-14v7.74"/>
</g>
<g fill="#55a868">
<path clip-path="url(#a)" d="m249.3 84.02h13.9v-7.74h-13.9v7.74"/>
<path clip-path="url(#a)" d="m263.2 84.02h14v-7.74h-14v7.74"/>
<path clip-path="url(#a)" d="m277.2 84.02h13.9v-7.74h-13.9v7.74"/>
<path clip-path="url(#a)" d="m291.1 84.02h14v-7.74h-14v7.74"/>
<path clip-path="url(#a)" d="m305.1 84.02h13.9v-7.74h-13.9v7.74"/>
<path clip-path="url(#a)" d="m319 84.02h14v-7.74h-14v7.74"/>
<path clip-path="url(#a)" d="m333 84.02h13.9v-7.74h-13.9v7.74"/>
<path clip-path="url(#a)" d="m346.9 84.02h14v-7.74h-14v7.74"/>
<path clip-path="url(#a)" d="m360.9 84.02h13.9v-7.74h-13.9v7.74"/>
<path clip-path="url(#a)" d="m374.8 84.02h14v-7.74h-14v7.74"/>
<path clip-path="url(#a)" d="m388.8 84.02h13.9v-7.74h-13.9v7.74"/>
<path clip-path="url(#a)" d="m402.7 84.02h14v-7.74h-14v7.74"/>
<path clip-path="url(#a)" d="m416.7 84.02h13.9v-7.74h-13.9v7.74"/>
<path clip-path="url(#a)" d="m430.6 84.02h14v-7.74h-14v7.74"/>
<path clip-path="url(#a)" d="m444.6 84.02h13.9v-7.74h-13.9v7.74"/>
<path clip-path="url(#a)" d="m458.5 84.02h14v-7.74h-14v7.74"/>
<path clip-path="url(#a)" d="m472.5 84.02h13.9v-7.74h-13.9v7.74"/>
</g>
<path clip-path="url(#a)" fill="#fefeff" d="m67.89 76.28h13.96v-7.75h-13.96v7.75"/>
<g fill="#4c72b0">
<path clip-path="url(#a)" d="m81.85 76.28h13.95v-7.75h-13.95v7.75"/>
<path clip-path="url(#a)" d="m95.8 76.28h13.9v-7.75h-13.9v7.75"/>
<path clip-path="url(#a)" d="m109.7 76.28h14v-7.75h-14v7.75"/>
<path clip-path="url(#a)" d="m123.7 76.28h14v-7.75h-14v7.75"/>
<path clip-path="url(#a)" d="m137.7 76.28h13.9v-7.75h-13.9v7.75"/>
<path clip-path="url(#a)" d="m151.6 76.28h14v-7.75h-14v7.75"/>
<path clip-path="url(#a)" d="m165.6 76.28h13.9v-7.75h-13.9v7.75"/>
<path clip-path="url(#a)" d="m179.5 76.28h14v-7.75h-14v7.75"/>
<path clip-path="url(#a)" d="m193.5 76.28h13.9v-7.75h-13.9v7.75"/>
</g>
<g fill="#fefeff">
<path clip-path="url(#a)" d="m207.4 76.28h14v-7.75h-14v7.75"/>
<path clip-path="url(#a)" d="m221.4 76.28h13.9v-7.75h-13.9v7.75"/>
<path clip-path="url(#a)" d="m235.3 76.28h14v-7.75h-14v7.75"/>
<path clip-path="url(#a)" d="m249.3 76.28h13.9v-7.75h-13.9v7.75"/>
</g>
<g fill="#55a868">
<path clip-path="url(#a)" d="m263.2 76.28h14v-7.75h-14v7.75"/>
<path clip-path="url(#a)" d="m277.2 76.28h13.9v-7.75h-13.9v7.75"/>
<path clip-path="url(#a)" d="m291.1 76.28h14v-7.75h-14v7.75"/>
<path clip-path="url(#a)" d="m305.1 76.28h13.9v-7.75h-13.9v7.75"/>
<path clip-path="url(#a)" d="m319 76.28h14v-7.75h-14v7.75"/>
<path clip-path="url(#a)" d="m333 76.28h13.9v-7.75h-13.9v7.75"/>
<path clip-path="url(#a)" d="m346.9 76.28h14v-7.75h-14v7.75"/>
<path clip-path="url(#a)" d="m360.9 76.28h13.9v-7.75h-13.9v7.75"/>
<path clip-path="url(#a)" d="m374.8 76.28h14v-7.75h-14v7.75"/>
<path clip-path="url(#a)" d="m388.8 76.28h13.9v-7.75h-13.9v7.75"/>
<path clip-path="url(#a)" d="m402.7 76.28h14v-7.75h-14v7.75"/>
<path clip-path="url(#a)" d="m416.7 76.28h13.9v-7.75h-13.9v7.75"/>
<path clip-path="url(#a)" d="m430.6 76.28h14v-7.75h-14v7.75"/>
<path clip-path="url(#a)" d="m444.6 76.28h13.9v-7.75h-13.9v7.75"/>
<path clip-path="url(#a)" d="m458.5 76.28h14v-7.75h-14v7.75"/>
<path clip-path="url(#a)" d="m472.5 76.28h13.9v-7.75h-13.9v7.75"/>
</g>
<path clip-path="url(#a)" fill="#fefeff" d="m67.89 68.53h13.96v-7.74h-13.96v7.74"/>
<g fill="#4c72b0">
<path clip-path="url(#a)" d="m81.85 68.53h13.95v-7.74h-13.95v7.74"/>
<path clip-path="url(#a)" d="m95.8 68.53h13.9v-7.74h-13.9v7.74"/>
<path clip-path="url(#a)" d="m109.7 68.53h14v-7.74h-14v7.74"/>
<path clip-path="url(#a)" d="m123.7 68.53h14v-7.74h-14v7.74"/>
<path clip-path="url(#a)" d="m137.7 68.53h13.9v-7.74h-13.9v7.74"/>
<path clip-path="url(#a)" d="m151.6 68.53h14v-7.74h-14v7.74"/>
<path clip-path="url(#a)" d="m165.6 68.53h13.9v-7.74h-13.9v7.74"/>
<path clip-path="url(#a)" d="m179.5 68.53h14v-7.74h-14v7.74"/>
<path clip-path="url(#a)" d="m193.5 68.53h13.9v-7.74h-13.9v7.74"/>
</g>
<g fill="#fefeff">
<path clip-path="url(#a)" d="m207.4 68.53h14v-7.74h-14v7.74"/>
<path clip-path="url(#a)" d="m221.4 68.53h13.9v-7.74h-13.9v7.74"/>
<path clip-path="url(#a)" d="m235.3 68.53h14v-7.74h-14v7.74"/>
<path clip-path="url(#a)" d="m249.3 68.53h13.9v-7.74h-13.9v7.74"/>
</g>
<g fill="#55a868">
<path clip-path="url(#a)" d="m263.2 68.53h14v-7.74h-14v7.74"/>
<path clip-path="url(#a)" d="m277.2 68.53h13.9v-7.74h-13.9v7.74"/>
<path clip-path="url(#a)" d="m291.1 68.53h14v-7.74h-14v7.74"/>
<path clip-path="url(#a)" d="m305.1 68.53h13.9v-7.74h-13.9v7.74"/>
<path clip-path="url(#a)" d="m319 68.53h14v-7.74h-14v7.74"/>
<path clip-path="url(#a)" d="m333 68.53h13.9v-7.74h-13.9v7.74"/>
<path clip-path="url(#a)" d="m346.9 68.53h14v-7.74h-14v7.74"/>
<path clip-path="url(#a)" d="m360.9 68.53h13.9v-7.74h-13.9v7.74"/>
<path clip-path="url(#a)" d="m374.8 68.53h14v-7.74h-14v7.74"/>
<path clip-path="url(#a)" d="m388.8 68.53h13.9v-7.74h-13.9v7.74"/>
<path clip-path="url(#a)" d="m402.7 68.53h14v-7.74h-14v7.74"/>
<path clip-path="url(#a)" d="m416.7 68.53h13.9v-7.74h-13.9v7.74"/>
<path clip-path="url(#a)" d="m430.6 68.53h14v-7.74h-14v7.74"/>
<path clip-path="url(#a)" d="m444.6 68.53h13.9v-7.74h-13.9v7.74"/>
<path clip-path="url(#a)" d="m458.5 68.53h14v-7.74h-14v7.74"/>
<path clip-path="url(#a)" d="m472.5 68.53h13.9v-7.74h-13.9v7.74"/>
</g>
<path clip-path="url(#a)" fill="#fefeff" d="m67.89 60.79h13.96v-7.74h-13.96v7.74"/>
<g fill="#4c72b0">
<path clip-path="url(#a)" d="m81.85 60.79h13.95v-7.74h-13.95v7.74"/>
<path clip-path="url(#a)" d="m95.8 60.79h13.9v-7.74h-13.9v7.74"/>
<path clip-path="url(#a)" d="m109.7 60.79h14v-7.74h-14v7.74"/>
<path clip-path="url(#a)" d="m123.7 60.79h14v-7.74h-14v7.74"/>
<path clip-path="url(#a)" d="m137.7 60.79h13.9v-7.74h-13.9v7.74"/>
<path clip-path="url(#a)" d="m151.6 60.79h14v-7.74h-14v7.74"/>
<path clip-path="url(#a)" d="m165.6 60.79h13.9v-7.74h-13.9v7.74"/>
<path clip-path="url(#a)" d="m179.5 60.79h14v-7.74h-14v7.74"/>
<path clip-path="url(#a)" d="m193.5 60.79h13.9v-7.74h-13.9v7.74"/>
</g>
<g fill="#fefeff">
<path clip-path="url(#a)" d="m207.4 60.79h14v-7.74h-14v7.74"/>
<path clip-path="url(#a)" d="m221.4 60.79h13.9v-7.74h-13.9v7.74"/>
<path clip-path="url(#a)" d="m235.3 60.79h14v-7.74h-14v7.74"/>
<path clip-path="url(#a)" d="m249.3 60.79h13.9v-7.74h-13.9v7.74"/>
</g>
<g fill="#55a868">
<path clip-path="url(#a)" d="m263.2 60.79h14v-7.74h-14v7.74"/>
<path clip-path="url(#a)" d="m277.2 60.79h13.9v-7.74h-13.9v7.74"/>
<path clip-path="url(#a)" d="m291.1 60.79h14v-7.74h-14v7.74"/>
<path clip-path="url(#a)" d="m305.1 60.79h13.9v-7.74h-13.9v7.74"/>
<path clip-path="url(#a)" d="m319 60.79h14v-7.74h-14v7.74"/>
<path clip-path="url(#a)" d="m333 60.79h13.9v-7.74h-13.9v7.74"/>
<path clip-path="url(#a)" d="m346.9 60.79h14v-7.74h-14v7.74"/>
<path clip-path="url(#a)" d="m360.9 60.79h13.9v-7.74h-13.9v7.74"/>
<path clip-path="url(#a)" d="m374.8 60.79h14v-7.74h-14v7.74"/>
<path clip-path="url(#a)" d="m388.8 60.79h13.9v-7.74h-13.9v7.74"/>
<path clip-path="url(#a)" d="m402.7 60.79h14v-7.74h-14v7.74"/>
<path clip-path="url(#a)" d="m416.7 60.79h13.9v-7.74h-13.9v7.74"/>
<path clip-path="url(#a)" d="m430.6 60.79h14v-7.74h-14v7.74"/>
<path clip-path="url(#a)" d="m444.6 60.79h13.9v-7.74h-13.9v7.74"/>
<path clip-path="url(#a)" d="m458.5 60.79h14v-7.74h-14v7.74"/>
<path clip-path="url(#a)" d="m472.5 60.79h13.9v-7.74h-13.9v7.74"/>
</g>
<path clip-path="url(#a)" fill="#fefeff" d="m67.89 53.05h13.96v-7.74h-13.96v7.74"/>
<g fill="#4c72b0">
<path clip-path="url(#a)" d="m81.85 53.05h13.95v-7.74h-13.95v7.74"/>
<path clip-path="url(#a)" d="m95.8 53.05h13.9v-7.74h-13.9v7.74"/>
<path clip-path="url(#a)" d="m109.7 53.05h14v-7.74h-14v7.74"/>
<path clip-path="url(#a)" d="m123.7 53.05h14v-7.74h-14v7.74"/>
<path clip-path="url(#a)" d="m137.7 53.05h13.9v-7.74h-13.9v7.74"/>
<path clip-path="url(#a)" d="m151.6 53.05h14v-7.74h-14v7.74"/>
<path clip-path="url(#a)" d="m165.6 53.05h13.9v-7.74h-13.9v7.74"/>
<path clip-path="url(#a)" d="m179.5 53.05h14v-7.74h-14v7.74"/>
<path clip-path="url(#a)" d="m193.5 53.05h13.9v-7.74h-13.9v7.74"/>
</g>
<g fill="#fefeff">
<path clip-path="url(#a)" d="m207.4 53.05h14v-7.74h-14v7.74"/>
<path clip-path="url(#a)" d="m221.4 53.05h13.9v-7.74h-13.9v7.74"/>
<path clip-path="url(#a)" d="m235.3 53.05h14v-7.74h-14v7.74"/>
<path clip-path="url(#a)" d="m249.3 53.05h13.9v-7.74h-13.9v7.74"/>
<path clip-path="url(#a)" d="m263.2 53.05h14v-7.74h-14v7.74"/>
</g>
<g fill="#55a868">
<path clip-path="url(#a)" d="m277.2 53.05h13.9v-7.74h-13.9v7.74"/>
<path clip-path="url(#a)" d="m291.1 53.05h14v-7.74h-14v7.74"/>
<path clip-path="url(#a)" d="m305.1 53.05h13.9v-7.74h-13.9v7.74"/>
<path clip-path="url(#a)" d="m319 53.05h14v-7.74h-14v7.74"/>
<path clip-path="url(#a)" d="m333 53.05h13.9v-7.74h-13.9v7.74"/>
<path clip-path="url(#a)" d="m346.9 53.05h14v-7.74h-14v7.74"/>
<path clip-path="url(#a)" d="m360.9 53.05h13.9v-7.74h-13.9v7.74"/>
<path clip-path="url(#a)" d="m374.8 53.05h14v-7.74h-14v7.74"/>
<path clip-path="url(#a)" d="m388.8 53.05h13.9v-7.74h-13.9v7.74"/>
<path clip-path="url(#a)" d="m402.7 53.05h14v-7.74h-14v7.74"/>
<path clip-path="url(#a)" d="m416.7 53.05h13.9v-7.74h-13.9v7.74"/>
<path clip-path="url(#a)" d="m430.6 53.05h14v-7.74h-14v7.74"/>
<path clip-path="url(#a)" d="m444.6 53.05h13.9v-7.74h-13.9v7.74"/>
<path clip-path="url(#a)" d="m458.5 53.05h14v-7.74h-14v7.74"/>
<path clip-path="url(#a)" d="m472.5 53.05h13.9v-7.74h-13.9v7.74"/>
</g>
<path clip-path="url(#a)" fill="#fefeff" d="m67.89 45.31h13.96v-7.74h-13.96v7.74"/>
<g fill="#4c72b0">
<path clip-path="url(#a)" d="m81.85 45.31h13.95v-7.74h-13.95v7.74"/>
<path clip-path="url(#a)" d="m95.8 45.31h13.9v-7.74h-13.9v7.74"/>
<path clip-path="url(#a)" d="m109.7 45.31h14v-7.74h-14v7.74"/>
<path clip-path="url(#a)" d="m123.7 45.31h14v-7.74h-14v7.74"/>
<path clip-path="url(#a)" d="m137.7 45.31h13.9v-7.74h-13.9v7.74"/>
<path clip-path="url(#a)" d="m151.6 45.31h14v-7.74h-14v7.74"/>
<path clip-path="url(#a)" d="m165.6 45.31h13.9v-7.74h-13.9v7.74"/>
<path clip-path="url(#a)" d="m179.5 45.31h14v-7.74h-14v7.74"/>
<path clip-path="url(#a)" d="m193.5 45.31h13.9v-7.74h-13.9v7.74"/>
</g>
<g fill="#fefeff">
<path clip-path="url(#a)" d="m207.4 45.31h14v-7.74h-14v7.74"/>
<path clip-path="url(#a)" d="m221.4 45.31h13.9v-7.74h-13.9v7.74"/>
<path clip-path="url(#a)" d="m235.3 45.31h14v-7.74h-14v7.74"/>
<path clip-path="url(#a)" d="m249.3 45.31h13.9v-7.74h-13.9v7.74"/>
</g>
<g fill="#55a868">
<path clip-path="url(#a)" d="m263.2 45.31h14v-7.74h-14v7.74"/>
<path clip-path="url(#a)" d="m277.2 45.31h13.9v-7.74h-13.9v7.74"/>
<path clip-path="url(#a)" d="m291.1 45.31h14v-7.74h-14v7.74"/>
<path clip-path="url(#a)" d="m305.1 45.31h13.9v-7.74h-13.9v7.74"/>
<path clip-path="url(#a)" d="m319 45.31h14v-7.74h-14v7.74"/>
<path clip-path="url(#a)" d="m333 45.31h13.9v-7.74h-13.9v7.74"/>
<path clip-path="url(#a)" d="m346.9 45.31h14v-7.74h-14v7.74"/>
<path clip-path="url(#a)" d="m360.9 45.31h13.9v-7.74h-13.9v7.74"/>
<path clip-path="url(#a)" d="m374.8 45.31h14v-7.74h-14v7.74"/>
<path clip-path="url(#a)" d="m388.8 45.31h13.9v-7.74h-13.9v7.74"/>
<path clip-path="url(#a)" d="m402.7 45.31h14v-7.74h-14v7.74"/>
<path clip-path="url(#a)" d="m416.7 45.31h13.9v-7.74h-13.9v7.74"/>
<path clip-path="url(#a)" d="m430.6 45.31h14v-7.74h-14v7.74"/>
<path clip-path="url(#a)" d="m444.6 45.31h13.9v-7.74h-13.9v7.74"/>
<path clip-path="url(#a)" d="m458.5 45.31h14v-7.74h-14v7.74"/>
<path clip-path="url(#a)" d="m472.5 45.31h13.9v-7.74h-13.9v7.74"/>
</g>
<path clip-path="url(#a)" fill="#fefeff" d="m67.89 37.57h13.96v-7.74h-13.96v7.74"/>
<g fill="#4c72b0">
<path clip-path="url(#a)" d="m81.85 37.57h13.95v-7.74h-13.95v7.74"/>
<path clip-path="url(#a)" d="m95.8 37.57h13.9v-7.74h-13.9v7.74"/>
<path clip-path="url(#a)" d="m109.7 37.57h14v-7.74h-14v7.74"/>
<path clip-path="url(#a)" d="m123.7 37.57h14v-7.74h-14v7.74"/>
<path clip-path="url(#a)" d="m137.7 37.57h13.9v-7.74h-13.9v7.74"/>
<path clip-path="url(#a)" d="m151.6 37.57h14v-7.74h-14v7.74"/>
<path clip-path="url(#a)" d="m165.6 37.57h13.9v-7.74h-13.9v7.74"/>
<path clip-path="url(#a)" d="m179.5 37.57h14v-7.74h-14v7.74"/>
<path clip-path="url(#a)" d="m193.5 37.57h13.9v-7.74h-13.9v7.74"/>
</g>
<g fill="#fefeff">
<path clip-path="url(#a)" d="m207.4 37.57h14v-7.74h-14v7.74"/>
<path clip-path="url(#a)" d="m221.4 37.57h13.9v-7.74h-13.9v7.74"/>
<path clip-path="url(#a)" d="m235.3 37.57h14v-7.74h-14v7.74"/>
<path clip-path="url(#a)" d="m249.3 37.57h13.9v-7.74h-13.9v7.74"/>
<path clip-path="url(#a)" d="m263.2 37.57h14v-7.74h-14v7.74"/>
<path clip-path="url(#a)" d="m277.2 37.57h13.9v-7.74h-13.9v7.74"/>
</g>
<g fill="#55a868">
<path clip-path="url(#a)" d="m291.1 37.57h14v-7.74h-14v7.74"/>
<path clip-path="url(#a)" d="m305.1 37.57h13.9v-7.74h-13.9v7.74"/>
<path clip-path="url(#a)" d="m319 37.57h14v-7.74h-14v7.74"/>
<path clip-path="url(#a)" d="m333 37.57h13.9v-7.74h-13.9v7.74"/>
<path clip-path="url(#a)" d="m346.9 37.57h14v-7.74h-14v7.74"/>
<path clip-path="url(#a)" d="m360.9 37.57h13.9v-7.74h-13.9v7.74"/>
<path clip-path="url(#a)" d="m374.8 37.57h14v-7.74h-14v7.74"/>
<path clip-path="url(#a)" d="m388.8 37.57h13.9v-7.74h-13.9v7.74"/>
<path clip-path="url(#a)" d="m402.7 37.57h14v-7.74h-14v7.74"/>
<path clip-path="url(#a)" d="m416.7 37.57h13.9v-7.74h-13.9v7.74"/>
<path clip-path="url(#a)" d="m430.6 37.57h14v-7.74h-14v7.74"/>
<path clip-path="url(#a)" d="m444.6 37.57h13.9v-7.74h-13.9v7.74"/>
<path clip-path="url(#a)" d="m458.5 37.57h14v-7.74h-14v7.74"/>
<path clip-path="url(#a)" d="m472.5 37.57h13.9v-7.74h-13.9v7.74"/>
</g>
<g fill="#4c72b0">
<path clip-path="url(#a)" d="m67.89 29.83h13.96v-7.75h-13.96v7.75"/>
<path clip-path="url(#a)" d="m81.85 29.83h13.95v-7.75h-13.95v7.75"/>
<path clip-path="url(#a)" d="m95.8 29.83h13.9v-7.75h-13.9v7.75"/>
<path clip-path="url(#a)" d="m109.7 29.83h14v-7.75h-14v7.75"/>
<path clip-path="url(#a)" d="m123.7 29.83h14v-7.75h-14v7.75"/>
<path clip-path="url(#a)" d="m137.7 29.83h13.9v-7.75h-13.9v7.75"/>
<path clip-path="url(#a)" d="m151.6 29.83h14v-7.75h-14v7.75"/>
<path clip-path="url(#a)" d="m165.6 29.83h13.9v-7.75h-13.9v7.75"/>
<path clip-path="url(#a)" d="m179.5 29.83h14v-7.75h-14v7.75"/>
<path clip-path="url(#a)" d="m193.5 29.83h13.9v-7.75h-13.9v7.75"/>
<path clip-path="url(#a)" d="m207.4 29.83h14v-7.75h-14v7.75"/>
</g>
<g fill="#fefeff">
<path clip-path="url(#a)" d="m221.4 29.83h13.9v-7.75h-13.9v7.75"/>
<path clip-path="url(#a)" d="m235.3 29.83h14v-7.75h-14v7.75"/>
<path clip-path="url(#a)" d="m249.3 29.83h13.9v-7.75h-13.9v7.75"/>
<path clip-path="url(#a)" d="m263.2 29.83h14v-7.75h-14v7.75"/>
</g>
<g fill="#55a868">
<path clip-path="url(#a)" d="m277.2 29.83h13.9v-7.75h-13.9v7.75"/>
<path clip-path="url(#a)" d="m291.1 29.83h14v-7.75h-14v7.75"/>
<path clip-path="url(#a)" d="m305.1 29.83h13.9v-7.75h-13.9v7.75"/>
<path clip-path="url(#a)" d="m319 29.83h14v-7.75h-14v7.75"/>
<path clip-path="url(#a)" d="m333 29.83h13.9v-7.75h-13.9v7.75"/>
<path clip-path="url(#a)" d="m346.9 29.83h14v-7.75h-14v7.75"/>
<path clip-path="url(#a)" d="m360.9 29.83h13.9v-7.75h-13.9v7.75"/>
<path clip-path="url(#a)" d="m374.8 29.83h14v-7.75h-14v7.75"/>
<path clip-path="url(#a)" d="m388.8 29.83h13.9v-7.75h-13.9v7.75"/>
<path clip-path="url(#a)" d="m402.7 29.83h14v-7.75h-14v7.75"/>
<path clip-path="url(#a)" d="m416.7 29.83h13.9v-7.75h-13.9v7.75"/>
<path clip-path="url(#a)" d="m430.6 29.83h14v-7.75h-14v7.75"/>
<path clip-path="url(#a)" d="m444.6 29.83h13.9v-7.75h-13.9v7.75"/>
<path clip-path="url(#a)" d="m458.5 29.83h14v-7.75h-14v7.75"/>
<path clip-path="url(#a)" d="m472.5 29.83h13.9v-7.75h-13.9v7.75"/>
</g>
<path clip-path="url(#a)" fill="#fefeff" d="m67.89 22.08h13.96v-7.74h-13.96v7.74"/>
<g fill="#4c72b0">
<path clip-path="url(#a)" d="m81.85 22.08h13.95v-7.74h-13.95v7.74"/>
<path clip-path="url(#a)" d="m95.8 22.08h13.9v-7.74h-13.9v7.74"/>
<path clip-path="url(#a)" d="m109.7 22.08h14v-7.74h-14v7.74"/>
<path clip-path="url(#a)" d="m123.7 22.08h14v-7.74h-14v7.74"/>
<path clip-path="url(#a)" d="m137.7 22.08h13.9v-7.74h-13.9v7.74"/>
<path clip-path="url(#a)" d="m151.6 22.08h14v-7.74h-14v7.74"/>
<path clip-path="url(#a)" d="m165.6 22.08h13.9v-7.74h-13.9v7.74"/>
<path clip-path="url(#a)" d="m179.5 22.08h14v-7.74h-14v7.74"/>
<path clip-path="url(#a)" d="m193.5 22.08h13.9v-7.74h-13.9v7.74"/>
<path clip-path="url(#a)" d="m207.4 22.08h14v-7.74h-14v7.74"/>
</g>
<g fill="#fefeff">
<path clip-path="url(#a)" d="m221.4 22.08h13.9v-7.74h-13.9v7.74"/>
<path clip-path="url(#a)" d="m235.3 22.08h14v-7.74h-14v7.74"/>
<path clip-path="url(#a)" d="m249.3 22.08h13.9v-7.74h-13.9v7.74"/>
<path clip-path="url(#a)" d="m263.2 22.08h14v-7.74h-14v7.74"/>
<path clip-path="url(#a)" d="m277.2 22.08h13.9v-7.74h-13.9v7.74"/>
</g>
<g fill="#55a868">
<path clip-path="url(#a)" d="m291.1 22.08h14v-7.74h-14v7.74"/>
<path clip-path="url(#a)" d="m305.1 22.08h13.9v-7.74h-13.9v7.74"/>
<path clip-path="url(#a)" d="m319 22.08h14v-7.74h-14v7.74"/>
<path clip-path="url(#a)" d="m333 22.08h13.9v-7.74h-13.9v7.74"/>
<path clip-path="url(#a)" d="m346.9 22.08h14v-7.74h-14v7.74"/>
<path clip-path="url(#a)" d="m360.9 22.08h13.9v-7.74h-13.9v7.74"/>
<path clip-path="url(#a)" d="m374.8 22.08h14v-7.74h-14v7.74"/>
<path clip-path="url(#a)" d="m388.8 22.08h13.9v-7.74h-13.9v7.74"/>
<path clip-path="url(#a)" d="m402.7 22.08h14v-7.74h-14v7.74"/>
<path clip-path="url(#a)" d="m416.7 22.08h13.9v-7.74h-13.9v7.74"/>
<path clip-path="url(#a)" d="m430.6 22.08h14v-7.74h-14v7.74"/>
<path clip-path="url(#a)" d="m444.6 22.08h13.9v-7.74h-13.9v7.74"/>
<path clip-path="url(#a)" d="m458.5 22.08h14v-7.74h-14v7.74"/>
<path clip-path="url(#a)" d="m472.5 22.08h13.9v-7.74h-13.9v7.74"/>
</g>
<path stroke-linecap="square" fill="none" stroke="#a6a6a6" d="m67.89 14.34h418.5"/>
<path stroke-linecap="square" fill="none" stroke="#a6a6a6" d="m67.89 169.2h418.5"/>
<path stroke-linecap="square" fill="none" stroke="#a6a6a6" d="m486.4 169.2v-154.9"/>
<path stroke-linecap="square" fill="none" stroke="#a6a6a6" d="m67.89 169.2v-154.9"/>
<defs>
<path id="ba" d="m42.2 34.91c5.21 1.29 7.21 2.09 9.6 4.18 2.5 2.21 4.11 6.32 4.11 10.41 0 10.59-8.91 16.7-26.21 16.7h-28l0.003-1.9c8.094-0.5 9.597-1.39 9.597-9.3v-43.7c0-7.597-1.706-9.206-9.597-9.394v-1.906h33.71c14.5 0 23.89 6.703 23.89 17.8 0 4.4-1.71 8.61-4.89 11.5-2.91 2.61-5.61 4.4-12.21 5.5zm-20.7 1.68v22.71c0 2.29 0.7 3.2 2.41 3.2h4.09c11.91 0 17.7-5.09 17.7-13.5 0-8.3-4.9-12.41-15-12.41zm0-4c11.8-0.39 15.59 0 21.59-4 3.32-2.18 4.71-5.89 4.71-10.68 0-4.32-1.3-7.71-3.8-9.91-4.41-3.906-7.91-4.297-16.3-4.297-4.61 0-6.2 1.094-6.2 4.5z"/>
<path id="bd" d="m5.906-2.203c13 1.797 19.5 4.203 28 11.91 8 7.293 12 18.2 12 29.7 0 8.39-2.41 15.59-6.41 20.59-3.91 4.8-9.3 7.59-15.7 7.59-11.89 0-20.8-10.09-20.8-23.59 0-12.2 7.2-20.3 18-20.3 5.91 0 10.7 1.5 15 5.71-4-16.41-15.2-26.91-30.41-29.61zm30.29 37.7c0-5.3-7.29-7.5-11.7-7.5-7.5 0-12.3 7.5-12.3 19.41 0 5.39 1.5 11.29 3.5 14 1.71 2.18 4.3 3.39 7.3 3.39 8.7 0 13.2-8.6 13.2-25.39z"/>
<path id="bc" d="m39.3 14.5c-4.89-6.797-9.89-10.5-17.3-10.5-5.2 0-10.5 3.094-10.5 8.91 0 6.29 6.3 8.79 10.7 8.79 2.1 0 2.71-0.61 4.39-0.61 3.21 0 4.82 1.32 4.82 2.61 0 1.1-1.21 2.1-3.82 2.1-2.5 0-3.09-0.89-6.09-0.89-5.59 0-8.41 3.89-8.41 8.5 0 5.18 3.61 9.68 9.32 9.68 5.59 0 8.68-1.29 8.68-4 0-1-0.39-1.5-0.39-3.39 0-2.5 2-4.2 4.39-4.2 2.21 0 4.71 1.41 4.71 4.2 0 7.8-8.89 10.3-15.6 10.3-12.61 0-19.4-6.3-19.4-13.09-0.003-4.21 2.903-8 7.7-9.41-5.5-0.91-10-5.91-10-11.3 0-3.903 1.703-13.2 19-13.2 7.5 0 14.7 4.094 19.2 14.59z"/>
<path id="am" d="m30.41-16.09c-14 11.68-17 23-17 41.59 0 19.3 3.09 28.59 17 40.5l-0.91 1.59c-16-9.5-24.7-23.89-24.7-42.39-0.003-17 8.61-33.9 24.4-42.9z"/>
<path id="al" d="m2.906 66c14.5-11.41 17-22.91 17-41.59 0-19.41-2.82-28.82-17-40.5l0.887-1.61c15.9 9.7 24.7 23.9 24.7 42.4 0 17-9.09 33.71-24.41 42.89z"/>
<path id="v" d="m63.7 32v6.59h-58.9l-0.003-6.59zm0-20v6.59h-58.9l-0.003-6.59z"/>
<path id="aj" d="m68.8 33.09c0 19.82-13.1 34.5-32.71 34.5-19.5 0-32.68-13.89-32.68-34.18-0.004-20.82 13.29-34.82 32.68-34.82 19.21 0.004 32.71 13.91 32.71 34.5m-11.39 0.61c0-12-2.82-21.4-8.32-26.7-3.5-3.297-7.89-4.797-12.89-4.797-4.61 0-9 1.391-12.4 4.5-6.1 5.597-9 14.6-9 26.5 0 9.5 2.61 19.21 6.9 24.1 3.89 4.5 8.89 6.7 14.3 6.7 4.7 0 8.7-1.7 12.3-4.7 5.7-4.8 9.11-14.21 9.11-25.6"/>
<path id="bb" d="m70.7 0v1.906c-5.2 0.594-6.61 2.688-9.4 9.184l-24.6 56.32h-2l-20.61-48.82c-5.887-14-6.793-16.09-12.59-16.68v-1.91h19.91v1.906c-4.82 0-7 1-7 4.094 0 1.203 0.39 2.906 0.89 4.2l4.61 11.39h26.18l4.11-9.39c1.21-2.794 1.89-5.497 1.89-6.997 0-0.906-0.59-2-1.39-2.406-1.2-0.703-1.9-0.891-5.5-0.891v-1.906zm-26 25.7h-23.11l11.5 27.5z"/>
<path id="x" d="m68.59 21.3c0 7.4-3.5 11.7-9.59 11.7-9.59 0-18.91-10.41-18.91-21.09 0-7.816 5.32-13.82 12.11-13.82 8.6 0.004 16.39 11.11 16.39 23.21m-2.29 0.2c0-10.59-6.5-20.7-13.39-20.7-3.21-0.0031-5.61 2.903-5.61 6.794 0 6.816 3.4 15.61 7.79 20.32 1.21 1.39 3.32 2.29 4.91 2.29 3.8 0 6.3-3.5 6.3-8.7m-4.21 49.09h-4.39c-9.2-8.89-10.5-9.68-16.7-9.68-3.7 0-6.09 1-9.59 3.89-2.71 2.2-3.91 2.79-6 2.79-10.21 0-19.32-10-19.32-21.29 0.004-7.8 5.11-13.71 11.82-13.71 3.29 0 5.89 1.11 8.59 3.71 4.8 4.5 8 12 8 19 0 1.61-0.09 2.7-0.41 4.4 3.21-1.11 5-1.4 7.61-1.4 5.3 0 8.39 1.4 12.1 5.7l-39.39-65.8 4.68 0.003zm-30-13.68c0-11.5-6.09-21.61-13.18-21.61-3.41 0-5.71 2.79-5.71 7 0 5.5 1.71 11.4 4.8 16.29 2 3.32 3.09 4.32 7.2 6.32 1.71-1.82 3-2.71 4.39-3.41 2.11-1 2.5-1.7 2.5-4.59"/>
<path id="k" d="m13.3-1.406v69h-6.597v-69z"/>
</defs>
<g transform="translate(67.89 12.17) scale(.1 -.1)" fill="#a6a6a6">
<use xlink:href="#u"/>
<use xlink:href="#am" x="55.69999694824219"/>
<use xlink:href="#aj" x="88.99998474121094"/>
<use xlink:href="#k" x="161.19996643066406"/>
<use xlink:href="#bb" x="181.199951171875"/>
<use xlink:href="#al" x="253.39993286132812"/>
<use xlink:href="#XITS-20" x="286.6999206542969"/>
<use xlink:href="#v" x="311.6999053955078"/>
<use xlink:href="#XITS-20" x="380.19989013671875"/>
<use xlink:href="#l" x="405.1998748779297"/>
<use xlink:href="#b" x="455.1998596191406"/>
<use xlink:href="#x" x="505.19984436035156"/>
<use xlink:href="#XITS-20" x="579.8998260498047"/>
<use xlink:href="#k" x="604.8998107910156"/>
<use xlink:href="#XITS-20" x="624.8997955322266"/>
<use xlink:href="#u" x="649.8997802734375"/>
<use xlink:href="#am" x="705.5997772216797"/>
<use xlink:href="#aj" x="738.8997650146484"/>
<use xlink:href="#k" x="811.0997467041016"/>
<use xlink:href="#ba" x="831.0997314453125"/>
<use xlink:href="#al" x="897.7997283935547"/>
<use xlink:href="#XITS-20" x="931.0997161865234"/>
<use xlink:href="#v" x="956.0997009277344"/>
<use xlink:href="#XITS-20" x="1024.5996856689453"/>
<use xlink:href="#l" x="1049.5996704101562"/>
<use xlink:href="#w" x="1099.5996551513672"/>
<use xlink:href="#x" x="1149.5996398925781"/>
<use xlink:href="#XITS-20" x="1224.2996215820312"/>
<use xlink:href="#k" x="1249.2996063232422"/>
<use xlink:href="#XITS-20" x="1269.2995910644531"/>
<use xlink:href="#bc" x="1294.299575805664"/>
<use xlink:href="#XITS-20" x="1338.1995697021484"/>
<use xlink:href="#v" x="1363.1995544433594"/>
<use xlink:href="#XITS-20" x="1431.6995391845703"/>
<use xlink:href="#bd" x="1456.6995239257812"/>
<use xlink:href="#b" x="1506.6995086669922"/>
<use xlink:href="#x" x="1556.6994934082031"/>
</g>
<defs>
<path id="n" d="m81.41 0v2.406c-3.91 0.188-5 1.594-5 5.891v24.79c0 8.91-5.32 14.21-13.5 14.21-5.71 0-9.5-2.3-14.71-8.71-3 6.32-6.5 8.71-12.79 8.71-6.41 0-10.61-2.6-14.41-8.71h-0.3v7.5h-19.2v-2.39c4.406-0.61 5.594-1.7 5.594-6.4v-28.71c0-4.09-1.094-5.387-5.5-6.184v-2.406h23.91v2.406c-3.5 0.5-4.5 2.094-4.5 5.891v26.11c0 2.39 6.09 6.18 8.41 6.18 3.89 0 5.39-2.29 5.39-8.29v-24c0-4.097-1-5.597-4.71-5.894v-2.406h23.21v2.406c-3.5 0.391-4.6 2.094-4.6 5.891v26.5c0 0.5 1.39 2.29 2.71 3.29 2.09 1.82 4 2.5 5.79 2.5 3.8 0 5.3-3.29 5.3-9.5v-22.79c0-4.206-1-5.597-4.8-5.894v-2.406z"/>
<path id="ac" d="m53.41 2v2.297c-4.61 0.297-5.91 1.609-5.91 5.793v57.5h-21.5v-2.39c6.7-0.5 7.59-1.2 7.59-5.79v-18.32c-4.29 4.61-7.29 6.21-11.89 6.21-11 0-19.2-10.71-19.2-25.21 0-13.68 7.59-23.5 18.09-23.5 5.32 0.004 8.61 1.613 13.32 6.613v-6.5c4.59 1.297 7.09 1.703 13.29 2.5zm-19.82 9.2c0-0.5-0.89-1.997-1.89-3.294-2-2.5-4.29-3.703-6.61-3.703-5.29 0-7.79 5.997-7.79 18.71 0 12.89 2.7 18.79 8.5 18.79 3.29 0 6.29-2.4 7.79-6.2z"/>
<path id="g" d="m47.3 6.406l-1-1c-0.3-0.312-0.6-0.406-1.1-0.406-1.4 0-2.11 1.094-2.11 2.797v26.11c0 8.59-7.39 13.39-19.59 13.39-11.3 0-19.09-4.6-19.09-12.6-0.004-4.2 2.387-6.79 6.5-6.79 4 0 6.79 2.59 6.79 6 0 1.39-0.61 2.59-1.9 4.18-0.89 1-1.1 1.71-1.1 2.32 0 2.39 2.89 3.68 6.5 3.68 5.89 0 8.1-2.89 8.1-9.29v-6.8c-11.6-3.3-16.3-5.09-20.1-7.59-4.497-3-6.7-6.82-6.7-11.21 0-7.403 4.594-10.61 11-10.61 5.8 0.004 10.41 1.91 15.91 6.91 1.09-5.094 3.29-6.906 8.18-6.906 4.32 0 7.41 1.609 11.21 5.703zm-18 3.297c-2.21-3.109-4.6-4-7-4-3 0-5.21 2.297-5.21 6.707 0 5.79 4.21 9.89 12.21 12.09z"/>
<path id="o" d="m25.59 0v2.406c-3.29 0.094-5 1.688-5 6.297v58.89h-19.09v-2.39c3.5-0.29 5.203-2.79 5.203-6.5v-50c0-4.403-1.703-5.997-5.109-6.294v-2.406z"/>
<path id="at" d="m28.7 17.09v11.61h-24.29l-0.004-11.61z"/>
<path id="z" d="m53.91 0v2.406c-3.91 0.297-4.91 1.5-4.91 6v24.68c0 8.71-5.3 14.21-13.5 14.21-6 0-10.8-2.71-14.2-8.71h-0.1v7.5h-19.11l0.004-2.39c4.406-0.7 5.312-1.79 5.312-6.11v-28.89c0-4.2-0.812-5.403-5.312-6.294v-2.406h24v2.406c-3.68 0.5-4.79 2.297-4.79 6v26.39c0 0.4 0.7 1.4 1.7 2.4 2.2 2.21 4.59 3.39 7 3.39 3.41 0 5.09-2.89 5.09-8.5v-23.68c0-4.004-1.18-5.613-4.59-6.004v-2.406z"/>
<path id="an" d="m53.8 2v2.297c-4.39 0.203-5.71 1.797-5.71 6.203v35.59h-20v-2.39c5-0.4 6.11-1.79 6.11-6.29v-27.61c-3.11-3.394-5.29-4.706-8.2-4.706-3.59 0-5.59 2-5.59 7.606v33.39h-18.82l0.004-2.39c4.109-0.79 4.906-1.9 4.906-6.5v-24.11c0-9.293 5-14.5 13.3-14.5 5.5 0.004 9.29 1.707 14.5 6.613v-6.5c4.29 1.5 6.7 1.891 13.2 2.594z"/>
<path id="m" d="m21.8 46.09h-19l-0.003-2.39c4.297-0.61 5.5-1.7 5.5-6.4v-28.89c0-4.113-1-5.207-5.391-6.004v-2.406h26.5v2.406c-6.11 0.391-7.21 1.797-7.21 8.184v17.71c0 5.9 2.6 10.4 6.1 10.4 0.79 0 1.7-0.5 2.79-2.29 1.71-2.82 3.41-3.82 6-3.82 3.71 0 6.32 2.82 6.32 6.82 0 4.59-3.41 7.89-8.11 7.89-5 0-8.8-2.6-13.5-9.39z"/>
<path id="f" d="m21.5 61.3c0 4.29-3.41 7.79-7.59 7.79-4.504 0-7.91-3.39-7.91-7.79 0-4.39 3.297-7.71 7.7-7.71 4.39 0 7.8 3.32 7.8 7.71m4.09-61.3v2.406c-3.5 0.5-4.79 1.797-4.79 6.094v37.59h-19.3v-2.39c4.406-0.9 5.406-1.9 5.406-6.4v-28.5c0-4.597-0.703-5.3-5.312-6.394v-2.406z"/>
<path id="d" d="m30.7 11.2c-2-3.794-3.61-5.294-5.7-5.294-2.8 0-3.91 2-3.91 6.004v29.79h9.5v4.39h-9.5v16.91h-2.5c-5.79-8.41-9.496-13.7-16.68-18.59l-0.004-2.71h5.297v-32.2c0-6.703 4.297-10.7 11.21-10.7 6.68-0.003 10.68 3.106 14.79 11.29z"/>
<path id="ap" d="m92.09 0v2.5c-8 0.703-8.79 2.797-8.79 10.09v42.82c0 7.5 1.5 9.18 8.79 9.68v2.5h-25.18l-20.11-47.18-19.89 47.18h-25.32l0.004-2.5c7.312-0.59 8.906-2 8.906-7.39v-46.9c0-6.503-1.297-7.503-9.094-8.3v-2.5h23.39v2.5c-8.21 0.594-10.1 2.797-10.1 10.41v46.5l25.21-59.41h2.68l25.21 60.5v-49.59c0-5.91-1.39-7.707-8.89-8.41v-2.5z"/>
<path id="e" d="m40.3 12.59c-4.1-4.887-7.21-6.793-11.5-6.793-9.8 0-11.3 9.203-11.89 18.7h25.18c-0.39 7.41-2.18 13.7-5.89 17.8-2.9 3.2-7 5-12.79 5-12.5 0-20.91-10-20.91-24.89 0-13.71 8.3-23.82 20.41-23.82 8.5 0.004 13.79 3.113 19.79 12.61zm-10.5 15.61h-13.39c0 12 2.39 16 7 16 2.89 0 4.09-1.7 5.5-4.7 0.89-1.91 0.89-4 0.89-9.2z"/>
<path id="p" d="m21.09 67.59h-19.39l0.003-2.39c4.594-0.9 5.5-1.79 5.5-5.79v-60.71l1.203 0.003 7.894 5.594c4.61-4.203 8.2-5.703 13.2-5.703 13.41 0 22.59 10.31 22.59 25.32 0 13.89-7.68 23.39-18.79 23.39-4.89 0-8.39-1.6-12.21-5.6zm0-31.59c1.82 4.3 3.71 5.91 7 5.91 6.21 0 9.32-6.61 9.32-19.82 0-13.89-3-20.29-9.41-20.29-4.2-0.003-6.91 3.106-6.91 7.903z"/>
</defs>
<g transform="translate(321.5 85.68) scale(.13 -.13)" fill="#fff">
<use xlink:href="#ap"/>
<use xlink:href="#an" x="94.39999389648438"/>
<use xlink:href="#o" x="149.99998474121094"/>
<use xlink:href="#d" x="177.7999725341797"/>
<use xlink:href="#f" x="211.09996032714844"/>
<use xlink:href="#at" x="238.8999481201172"/>
<use xlink:href="#g" x="272.19993591308594"/>
<use xlink:href="#m" x="322.1999206542969"/>
<use xlink:href="#n" x="366.59991455078125"/>
<use xlink:href="#e" x="449.89990234375"/>
<use xlink:href="#ac" x="494.2998962402344"/>
<use xlink:href="#XITS-Bold-20" x="549.8998870849609"/>
<use xlink:href="#p" x="574.8998718261719"/>
<use xlink:href="#g" x="630.4998626708984"/>
<use xlink:href="#z" x="680.4998474121094"/>
<use xlink:href="#ac" x="736.0998382568359"/>
<use xlink:href="#f" x="791.6998291015625"/>
<use xlink:href="#d" x="819.4998168945312"/>
</g>
<defs>
<path id="h" d="m34 32.59v14.5h-2.2c-0.6-1.5-1.21-2-2.5-2-0.6 0-1.5 0.21-3.1 0.71-3.2 1.11-5.5 1.5-7.79 1.5-9.113 0-15.71-6.21-15.71-14.6 0.003-6.61 4.097-11.2 14.21-15.5 6.89-3 9.59-5.5 9.59-8.7 0-3.906-3-6.5-7.5-6.5-7 0-11.59 4.5-13.7 13.2h-2.8v-16.5l2.5 0.003c1.094 2.094 1.703 2.797 2.594 2.797 0.5 0 1.312-0.203 2.312-0.5938 2.894-1.203 8.004-2.312 10.79-2.312 9.1 0 15.39 6.203 15.39 15.21 0 7.11-3.79 11.4-13.79 15.61-6.8 2.79-9.6 5.39-9.6 8.79 0 3.3 2.8 5.8 6.6 5.8 2.7 0 5.29-1.09 7.5-3.2 2.11-2 3.2-3.89 4.7-8.21z"/>
<path id="ae" d="m68.8 21.41c0 7.39-3.89 11.89-10.5 11.89-10.39 0-19.5-10-19.5-21.3 0-8.203 5.2-13.8 12.79-13.8 3.82 0.003 7.41 1.503 9.91 4.206 4.5 4.688 7.3 12 7.3 19m-2.5 0.59c0-5.09-2-11.59-4.8-15.91-2.41-3.496-4.91-5.09-7.91-5.09-3.29 0-5 2.297-5 6.594 0 5.316 2.41 13 5.61 17.82 2.1 3.09 4.1 4.59 6.21 4.59 3.39 0 5.89-3.41 5.89-8m-3.71 48.59h-4.79c-5.1-6.39-10-9.09-16.6-9.09-3.61 0-5.4 0.7-8.29 3-2.61 2.09-4.5 2.91-7.11 2.91-10.5 0-19.71-9.91-19.71-21.32 0.004-8.18 5.21-13.89 12.61-13.89 3.6 0 7.3 1.6 10.1 4.39 4.2 4.21 7 11.82 7 18.91 0 1.3-0.1 2.3-0.3 4.2 2.5-1 3.91-1.29 6-1.29 4 0 7.3 1.18 11.3 4.18l-38.8-65.5 4.8 0.004zm-29.39-14.59c0-10.7-6.11-20.8-12.5-20.8-3.2 0-5 2.39-5 6.6 0 8.9 6 21.61 10.21 21.61 0.5 0 0.89-0.21 2-0.91 1.09-0.7 1.39-0.8 2.09-1.09 2.59-1 3.2-2 3.2-5.41"/>
<path id="ad" d="m47 67.59h-32.2l-9.706-34.5c9.106-0.5 13.71-0.89 18-2.18 9.21-2.91 14.21-8.41 14.21-15.21 0-6.106-4.39-10.4-10-10.4-2.3-0.003-5.5 1.2-9 4.2-4.1 3.5-7.3 4.59-10 4.59-3.503 0-6.097-2.59-6.097-6.09 0-4.703 5.797-8.797 14.71-8.797 16.5 0.0001 28.18 9.594 28.18 24.21 0 10.39-6.39 18.29-17.29 21.39-3.8 1.11-6.89 1.5-15.1 2l2.21 8.11h27.59z"/>
</defs>
<g transform="translate(323.3 98.89) scale(.13 -.13)" fill="#fff">
<use xlink:href="#f"/>
<use xlink:href="#h" x="27.79998779296875"/>
<use xlink:href="#XITS-Bold-20" x="66.69998168945312"/>
<use xlink:href="#p" x="91.69996643066406"/>
<use xlink:href="#e" x="147.29995727539062"/>
<use xlink:href="#d" x="191.699951171875"/>
<use xlink:href="#d" x="224.99993896484375"/>
<use xlink:href="#e" x="258.2999267578125"/>
<use xlink:href="#m" x="302.6999206542969"/>
<use xlink:href="#XITS-Bold-20" x="347.09991455078125"/>
<use xlink:href="#g" x="372.0998992919922"/>
<use xlink:href="#d" x="422.0998840332031"/>
<use xlink:href="#XITS-Bold-20" x="455.3998718261719"/>
<use xlink:href="#o" x="480.3998565673828"/>
<use xlink:href="#e" x="508.19984436035156"/>
<use xlink:href="#g" x="552.5998382568359"/>
<use xlink:href="#h" x="602.5998229980469"/>
<use xlink:href="#d" x="641.4998168945312"/>
<use xlink:href="#XITS-Bold-20" x="674.7998046875"/>
<use xlink:href="#ad" x="699.7997894287109"/>
<use xlink:href="#ae" x="749.7997741699219"/>
</g>
<defs>
<path id="y" d="m47.59 22.91c0 14.18-9.59 24.39-22.18 24.39-13.21 0-22.91-9.89-22.91-24.5 0-14.21 10-24.21 22.5-24.21 12.91 0.004 22.59 10.21 22.59 24.32m-14.68-1.11c0-14.89-2-20.1-7.82-20.1-5.79 0.003-7.89 5.597-7.89 20.1 0 17.11 1.8 22.4 7.89 22.4 5.91 0 7.82-5.29 7.82-22.4"/>
<path id="ab" d="m1.406 46.09v-4.39h5.688v-33c0-4.497-1.094-5.794-5.688-6.294v-2.406h27.79v2.406c-7 0.188-8.2 1.797-8.2 8.294v31h8.59v4.39h-8.59v12c0 5.91 1.41 7.91 5 7.91 1.8 0 2.91-0.7 2.91-1.91 0-1.39-2.21-2.18-2.21-5.68 0-3.11 2.6-5.71 6-5.71 3.71 0 6.21 2.71 6.21 6.39 0 5.91-5.82 10-14.32 10-6.39 0-10.79-1.79-13.5-5.09-3.293-4-3.996-10-3.996-17.91z"/>
<path id="aa" d="m53.41 0v2.406c-3.5 0-4.91 1.688-4.91 6.297v25c0 7.89-4.8 13.6-13 13.6-5.3 0-9.8-1.89-14.7-7.71v28h-19.3v-2.39c4.594-0.9 5.406-1.29 5.406-6.11v-50.18c0-5.613-0.812-5.613-5.312-6.504v-2.406h24v2.406c-3.68 0.5-4.79 2-4.79 6.094v26.3c0 0.4 0.7 1.4 1.7 2.4 2.2 2.21 4.59 3.39 7 3.39 3.91 0 5.09-2.59 5.09-9.68v-22.41c0-4.094-1.18-5.703-4.59-6.094v-2.406z"/>
</defs>
<g transform="translate(347.4 112.1) scale(.13 -.13)" fill="#fff">
<use xlink:href="#y"/>
<use xlink:href="#ab" x="49.99998474121094"/>
<use xlink:href="#XITS-Bold-20" x="83.29997253417969"/>
<use xlink:href="#d" x="108.29995727539062"/>
<use xlink:href="#aa" x="141.59994506835938"/>
<use xlink:href="#e" x="197.19993591308594"/>
<use xlink:href="#XITS-Bold-20" x="241.5999298095703"/>
<use xlink:href="#d" x="266.59991455078125"/>
<use xlink:href="#f" x="299.89990234375"/>
<use xlink:href="#n" x="327.69989013671875"/>
<use xlink:href="#e" x="410.9998779296875"/>
</g>
<defs>
<path id="as" d="m30.2 69.09h-9l-23.61-71 9.004 0.004z"/>
<path id="aq" d="m42.59 36.5c11.71 2.41 15.91 7.5 15.91 15.09 0 10.32-9.09 16-25.2 16h-31.71l0.004-2.5c6.812-0.5 8.816-2.18 8.816-8.09v-46.7c0-5.597-1.504-7.003-8.816-7.8v-2.5h32.91c17.8 0 27.41 8.094 27.41 18.8 0 9.5-8.32 16.2-19.32 17.61zm-16.18 22.7c0 3.89 1.68 5.39 5.68 5.39 6.82 0 9.91-4.89 9.91-13.68 0-9.82-3.09-13.61-15.59-13.61zm0-24.9h2.59c10.59 0 15.7-5.3 15.7-15.5 0-10.1-4.2-15.6-12-15.6-4.4 0.003-6.29 1.8-6.29 6.597z"/>
<path id="ao" d="m25.41 6.797c-8 0-10.11 1-10.11 3.703 0 3 3 4.91 6.9 4.91 9.1 0 9.39 0 12.71 1.39 6.09 2.5 9.18 6.9 9.18 13.2 0 4-1.18 7.3-4 9.8h8v5.29h-12.89c-4.4 1.61-7.2 2.21-11.2 2.21-11.91 0-20.3-6.21-20.3-16.1 0.003-7.61 5.3-13.2 12.39-15.2-7.996-2.3-11.89-5.8-11.89-11.7 0.003-3.706 1.8-5.894 8.21-8.206-6.316-0.891-9.613-3.391-9.613-7.504 0-6 6.797-9.18 19.4-9.18 16.71 0 26.1 6 26.1 15.39 0 7.403-6.89 12-17.71 12zm5.18 24.4c0-9.4-1.79-13-6.59-13s-6.59 3.6-6.59 12.89c0 9.82 1.79 13.11 6.5 13.11 4.79 0 6.68-3.7 6.68-13m0.91-36.4c6.5 0 8.91-2.203 8.91-5.597 0-3.79-5.5-6.61-15.41-6.61-8.8 0-13.41 2.32-13.41 6.71 0 2.106 0.71 3.2 3.5 5.497z"/>
<path id="ar" d="m68.91 0v2.5c-4.11 0-5.91 2.203-11 14.3l-22.21 52.2h-2.79l-22.11-54.5c-3.8-9.406-5.3-11.2-9.894-12l0.0002-2.5h20.18v2.5c-5.89 0.406-8.09 1.5-8.09 4.094 0 2.406 1.91 6.606 3.09 9.706l1.32 3.4h22.5c3.39-7.9 4.59-11.4 4.59-13.61 0-2.184-1.3-2.996-4.59-3.293l-3.21-0.297v-2.5zm-30.5 23.59h-19.5l9.39 24.32z"/>
</defs>
<g fill="#fff">
<g transform="translate(106.9 41.14) scale(.13 -.13)">
<use xlink:href="#ar"/>
<use xlink:href="#as" x="72.19998168945312"/>
<use xlink:href="#aq" x="99.99996948242188"/>
<use xlink:href="#XITS-Bold-20" x="166.69996643066406"/>
<use xlink:href="#d" x="191.699951171875"/>
<use xlink:href="#e" x="224.99993896484375"/>
<use xlink:href="#h" x="269.3999328613281"/>
<use xlink:href="#d" x="308.2999267578125"/>
<use xlink:href="#f" x="341.59991455078125"/>
<use xlink:href="#z" x="369.39990234375"/>
<use xlink:href="#ao" x="424.99989318847656"/>
</g>
<g transform="translate(115.2 54.36) scale(.13 -.13)">
<use xlink:href="#f"/>
<use xlink:href="#h" x="27.79998779296875"/>
<use xlink:href="#XITS-Bold-20" x="66.69998168945312"/>
<use xlink:href="#p" x="91.69996643066406"/>
<use xlink:href="#e" x="147.29995727539062"/>
<use xlink:href="#d" x="191.699951171875"/>
<use xlink:href="#d" x="224.99993896484375"/>
<use xlink:href="#e" x="258.2999267578125"/>
<use xlink:href="#m" x="302.6999206542969"/>
</g>
<g transform="translate(108.3 67.57) scale(.13 -.13)">
<use xlink:href="#g"/>
<use xlink:href="#d" x="49.99998474121094"/>
<use xlink:href="#XITS-Bold-20" x="83.29997253417969"/>
<use xlink:href="#o" x="108.29995727539062"/>
<use xlink:href="#e" x="136.09994506835938"/>
<use xlink:href="#g" x="180.49993896484375"/>
<use xlink:href="#h" x="230.4999237060547"/>
<use xlink:href="#d" x="269.39991760253906"/>
<use xlink:href="#XITS-Bold-20" x="302.6999053955078"/>
<use xlink:href="#ad" x="327.69989013671875"/>
<use xlink:href="#ae" x="377.6998748779297"/>
</g>
<g transform="translate(108.1 80.78) scale(.13 -.13)">
<use xlink:href="#y"/>
<use xlink:href="#ab" x="49.99998474121094"/>
<use xlink:href="#XITS-Bold-20" x="83.29997253417969"/>
<use xlink:href="#d" x="108.29995727539062"/>
<use xlink:href="#aa" x="141.59994506835938"/>
<use xlink:href="#e" x="197.19993591308594"/>
<use xlink:href="#XITS-Bold-20" x="241.5999298095703"/>
<use xlink:href="#d" x="266.59991455078125"/>
<use xlink:href="#f" x="299.89990234375"/>
<use xlink:href="#n" x="327.69989013671875"/>
<use xlink:href="#e" x="410.9998779296875"/>
</g>
</g>
<defs>
<clipPath id="a">
<rect width="418.6" height="154.8" x="67.89" y="14.34"/>
</clipPath>
</defs>
</svg>
