<?xml version="1.0" encoding="UTF-8" standalone="no"?>
<svg xmlns:xlink="http://www.w3.org/1999/xlink" viewBox="0 0 772.44079 375.28519" version="1.1" xmlns:dc="http://purl.org/dc/elements/1.1/" xmlns:rdf="http://www.w3.org/1999/02/22-rdf-syntax-ns#" xmlns="http://www.w3.org/2000/svg" xmlns:cc="http://creativecommons.org/ns#">
<defs>
<linearGradient id="a" y2="22.09" gradientTransform="matrix(1 0 0 .8487 -.02723 6.329)" x1="61.25" x2="61.25" gradientUnits="userSpaceOnUse" y1="34.15">
<stop offset="0" stop-color="#76f04c"/>
<stop offset="1" stop-color="#b9f7a2"/>
</linearGradient>
<linearGradient id="f" y2="390.1" gradientTransform="matrix(.7301 0 0 .6037 63.36 45)" xlink:href="#a" x1="-234.9" x2="-234.9" gradientUnits="userSpaceOnUse" y1="416.2"/>
<linearGradient id="e" y2="390.1" gradientTransform="matrix(.7301 0 0 .6037 63.36 235.7)" xlink:href="#b" x1="-234.9" x2="-234.9" gradientUnits="userSpaceOnUse" y1="416.2"/>
<linearGradient id="b" y2="22.09" gradientTransform="matrix(1 0 0 .8487 -.02723 6.329)" x1="61.25" x2="61.25" gradientUnits="userSpaceOnUse" y1="34.15">
<stop offset="0" stop-color="#f0c04c"/>
<stop offset="1" stop-color="#f7dea2"/>
</linearGradient>
<linearGradient id="d" xlink:href="#a" gradientUnits="userSpaceOnUse" gradientTransform="matrix(.7301 0 0 .6037 333.3 -2.201)" y2="390.1" x1="-234.9" y1="416.2" x2="-234.9"/>
<linearGradient id="c" xlink:href="#b" gradientUnits="userSpaceOnUse" gradientTransform="matrix(.7301 0 0 .6037 333.3 197.8)" y2="390.1" x1="-234.9" y1="416.2" x2="-234.9"/>
</defs>
<metadata>
<rdf:RDF>
<cc:Work rdf:about="">
<dc:format>image/svg+xml</dc:format>
<dc:type rdf:resource="http://purl.org/dc/dcmitype/StillImage"/>
<dc:title/>
</cc:Work>
</rdf:RDF>
</metadata>
<g transform="translate(538.5 -98.49)">
<g font-family="sans-serif" fill="#000000">
<text xml:space="preserve" font-size="15px" y="342.25021" style="letter-spacing:0px;word-spacing:0px" line-height="125%" x="381.66089"><tspan y="342.25021" x="381.66089"/></text>
<text xml:space="preserve" font-size="7.5px" y="355.17471" style="letter-spacing:0px;word-spacing:0px" line-height="125%" x="616.8125"><tspan y="355.17471" x="616.8125"/></text>
<text xml:space="preserve" font-size="15px" y="773.63092" style="letter-spacing:0px;word-spacing:0px" line-height="125%" x="535.05396"><tspan y="773.63092" x="535.05396"/></text>
<text xml:space="preserve" font-size="7.5px" y="786.55542" style="letter-spacing:0px;word-spacing:0px" line-height="125%" x="770.20557"><tspan y="786.55542" x="770.20557"/></text>
</g>
<g>
<rect height="142.1" y="165" width="217.1" fill="#4d4d4d" ry="4.21" x="-276.1"/>
<rect height="125.2" y="178.8" width="211.4" fill="#fff" ry="4.007" x="-273.3"/>
<rect width="79.51" stroke="#52a834" height="16.43" fill="url(#f)" ry=".9456" y="280.2" stroke-linejoin="round" stroke-linecap="round" stroke-width=".4608" x="-147.8"/>
<g fill="#bbb">
<g transform="translate(20 1.414)">
<rect width="110" y="184.4" height="77.78" ry="4.582" x="-288"/>
<rect height="26.87" y="268.6" width="110" ry="4.582" x="-288"/>
</g>
<rect height="26.87" y="185.9" width="80" ry="4.582" x="-148"/>
<rect width="80" y="220.6" height="51.62" ry="4.582" x="-148"/>
</g>
</g>
<path d="m-354.3 198.9 36.82 36.82c0.1659 0.1659 0.1659 0.433 0 0.5989l-36.82 36.82h-0.5989v-74.24z" fill="#bbb"/>
<path d="m-14.33 198.9 36.82 36.82c0.1659 0.1659 0.1659 0.433 0 0.5989l-36.82 36.82h-0.5989v-74.24z" fill="#bbb"/>
<g transform="translate(20 -5.168)">
<g stroke="#4d4d4d" transform="translate(-20)" stroke-linecap="round">
<path stroke-width="1.246" d="m104.9 229.7 17.13 15.99-8.279 0.7138 4.711 10.42-3.14 1.427-4.568-10.56-5.853 5.567v-23.55" stroke-linejoin="round" fill="#fff"/>
<g stroke-width=".8305" fill="none">
<path d="m110.8 229.6h-3.034m-5.552 0h-2.964"/>
<path d="m100.8 225.4 2.275 2.275m4.083 4.083 2.109 2.109"/>
<path d="m100.8 233.8 2.275-2.275m4.083-4.083 2.109-2.109"/>
<path d="m105 235.4v-3.034m0-5.552v-2.964"/>
</g>
</g>
<g fill="#4d4d4d">
<path d="m35.98 224.7v0.95c3.7 0.3 4.2 0.9 4.2 4.6v21.45c0 4.3-0.3 4.85-4.2 5.15v0.95h14v-0.95c-4.05-0.2-4.7-0.85-4.7-4.65v-8.95c1.35 0.1 2.15 0.15 3.45 0.15 5.35 0 7.8-0.45 10.7-3.05 1.85-1.65 2.85-3.9 2.85-6.55 0-2.5-0.85-4.55-2.5-5.95-2.25-1.9-5.85-3.15-10.85-3.15h-12.95zm9.3 3.65c0-1.35 0.3-1.8 1.75-1.8 6.8 0 9.8 2 9.8 7.5 0 4.5-3 7.35-8.5 7.35-1 0-1.9-0.05-3.05-0.15v-12.9z"/>
<path d="m80.21 261.8c-7-5.85-8.5-11.5-8.5-20.8 0-9.65 1.55-14.3 8.5-20.25l-0.45-0.8c-8 4.75-12.35 11.95-12.35 21.2 0 8.5 4.3 16.95 12.2 21.45l0.6-0.8z"/>
<path d="m112.4 263.2v-43.95h-3.3v43.95h3.3z"/>
<path d="m201.2 220.8c7.25 5.7 8.5 11.45 8.5 20.8 0 9.7-1.4 14.4-8.5 20.25l0.45 0.8c7.95-4.85 12.35-11.95 12.35-21.2 0-8.5-4.55-16.85-12.2-21.45l-0.6 0.8z"/>
</g>
<rect height="16.43" stroke="#52a834" width="79.51" fill="url(#d)" ry=".9456" y="233" stroke-linejoin="round" stroke-linecap="round" stroke-width=".4608" x="122.2"/>
</g>
<g transform="translate(0 -24)">
<rect width="217.1" y="355.6" height="142.1" fill="#4d4d4d" ry="4.21" x="-276.1"/>
<rect width="211.4" y="369.4" height="125.2" fill="#fff" ry="4.007" x="-273.3"/>
<rect height="16.43" stroke="#a88734" width="79.51" fill="url(#e)" ry=".9456" y="470.8" stroke-linejoin="round" stroke-linecap="round" stroke-width=".4608" x="-147.8"/>
<g fill="#bbb">
<g transform="translate(20 192.1)">
<rect height="77.78" y="184.4" width="110" ry="4.582" x="-288"/>
<rect width="110" y="268.6" height="26.87" ry="4.582" x="-288"/>
</g>
<rect width="80" y="376.5" height="26.87" ry="4.582" x="-148"/>
<rect height="51.62" y="411.2" width="80" ry="4.582" x="-148"/>
</g>
</g>
<path d="m-354.3 365.6 36.82 36.82c0.1659 0.1659 0.1659 0.433 0 0.5989l-36.82 36.82h-0.5989v-74.24z" fill="#bbb"/>
<path d="m-14.33 365.6 36.82 36.82c0.1659 0.1659 0.1659 0.433 0 0.5989l-36.82 36.82h-0.5989v-74.24z" fill="#bbb"/>
<g transform="translate(20 -38.52)">
<rect width="79.51" stroke="#a88734" height="16.43" fill="url(#c)" ry=".9456" y="433" stroke-linejoin="round" stroke-linecap="round" stroke-width=".4608" x="122.2"/>
<g stroke="#4d4d4d" transform="translate(-20 200)" stroke-linecap="round">
<path stroke-width="1.246" d="m104.9 229.7 17.13 15.99-8.279 0.7138 4.711 10.42-3.14 1.427-4.568-10.56-5.853 5.567v-23.55" stroke-linejoin="round" fill="#fff"/>
<g stroke-width=".8305" fill="none">
<path d="m110.8 229.6h-3.034m-5.552 0h-2.964"/>
<path d="m100.8 225.4 2.275 2.275m4.083 4.083 2.109 2.109"/>
<path d="m100.8 233.8 2.275-2.275m4.083-4.083 2.109-2.109"/>
<path d="m105 235.4v-3.034m0-5.552v-2.964"/>
</g>
</g>
<g fill="#4d4d4d">
<path d="m35.98 424.7v0.95c3.7 0.3 4.2 0.9 4.2 4.6v21.45c0 4.3-0.3 4.85-4.2 5.15v0.95h14v-0.95c-4.05-0.2-4.7-0.85-4.7-4.65v-8.95c1.35 0.1 2.15 0.15 3.45 0.15 5.35 0 7.8-0.45 10.7-3.05 1.85-1.65 2.85-3.9 2.85-6.55 0-2.5-0.85-4.55-2.5-5.95-2.25-1.9-5.85-3.15-10.85-3.15h-12.95zm9.3 3.65c0-1.35 0.3-1.8 1.75-1.8 6.8 0 9.8 2 9.8 7.5 0 4.5-3 7.35-8.5 7.35-1 0-1.9-0.05-3.05-0.15v-12.9z"/>
<path d="m80.21 461.8c-7-5.85-8.5-11.5-8.5-20.8 0-9.65 1.55-14.3 8.5-20.25l-0.45-0.8c-8 4.75-12.35 11.95-12.35 21.2 0 8.5 4.3 16.95 12.2 21.45l0.6-0.8z"/>
<path d="m112.4 463.2v-43.95h-3.3v43.95h3.3z"/>
<path d="m201.2 420.8c7.25 5.7 8.5 11.45 8.5 20.8 0 9.7-1.4 14.4-8.5 20.25l0.45 0.8c7.95-4.85 12.35-11.95 12.35-21.2 0-8.5-4.55-16.85-12.2-21.45l-0.6 0.8z"/>
</g>
</g>
<g fill="#4d4d4d">
<g transform="translate(0,2)">
<path d="m-535.5 97.22v0.665c2.59 0.21 2.94 0.63 2.94 3.22v15.02c0 3.01-0.21 3.395-2.94 3.605v0.665h9.8v-0.665c-2.835-0.14-3.29-0.595-3.29-3.255v-6.265c0.945 0.07 1.505 0.105 2.415 0.105 3.745 0 5.46-0.315 7.49-2.135 1.295-1.155 1.995-2.73 1.995-4.585 0-1.75-0.595-3.185-1.75-4.165-1.575-1.33-4.095-2.205-7.595-2.205h-9.065zm6.51 2.555c0-0.945 0.21-1.26 1.225-1.26 4.76 0 6.86 1.4 6.86 5.25 0 3.15-2.1 5.145-5.95 5.145-0.7 0-1.33-0.035-2.135-0.105v-9.03z"/>
<path d="m-500.7 112.3c0-4.83-3.29-8.015-7.56-8.015-4.725 0-7.875 3.255-7.875 8.12s3.325 8.33 7.56 8.33c4.725 0 7.875-3.57 7.875-8.435zm-3.15 0.945c0 4.06-1.54 6.51-4.13 6.51-1.26 0-2.38-0.63-3.15-1.75-1.295-1.89-1.855-4.41-1.855-7.175 0-3.5 1.645-5.565 4.06-5.565 1.505 0 2.485 0.7 3.325 1.75 1.12 1.435 1.75 3.85 1.75 6.23z"/>
<path d="m-494 104.4-0.21-0.07c-1.855 0.735-3.115 1.19-5.04 1.785v0.56c0.315-0.035 0.56-0.035 0.875-0.035 1.19 0 1.435 0.35 1.435 1.995v16.38c0 1.82-0.385 2.205-2.45 2.415v0.595h8.47v-0.63c-2.625-0.035-3.08-0.42-3.08-2.625v-5.495c1.26 1.155 2.065 1.505 3.535 1.505 4.165 0 7.35-3.92 7.35-8.995 0-4.34-2.45-7.455-5.845-7.455-1.96 0-3.5 0.84-5.04 2.765v-2.695zm0 4.34c0-1.05 1.96-2.31 3.57-2.31 2.59 0 4.305 2.66 4.305 6.755 0 3.85-1.715 6.475-4.235 6.475-1.645 0-3.64-1.26-3.64-2.31v-8.61z"/>
<path d="m-465.3 118.6h-0.21c-1.61 0-1.995-0.385-1.995-1.995v-12h-5.53v0.595c2.1 0.14 2.59 0.42 2.59 2.275v8.085c0 1.225-0.245 1.54-0.805 2.03-0.875 0.77-1.925 1.085-2.94 1.085-1.365 0-2.485-1.155-2.485-2.765v-11.3h-5.11v0.49c1.68 0.105 2.17 0.595 2.17 2.345v8.785c0 2.695 1.575 4.48 4.27 4.48 1.295 0 3.29-0.665 5.005-3.01h0.07v2.87l0.175 0.105c1.75-0.7 3.01-1.085 4.795-1.575v-0.49z"/>
<path d="m-455.6 120.4v-0.525c-2.24-0.14-2.625-0.595-2.625-2.52v-20.72l-0.175-0.14c-1.82 0.595-3.115 0.945-5.53 1.54v0.56c0.56-0.07 1.015-0.07 1.295-0.07 1.12 0 1.47 0.56 1.47 2.24v16.42c0 1.925-0.49 2.52-2.695 2.695v0.525h8.26z"/>
<path d="m-439.4 118.1c-0.595 0.49-0.945 0.665-1.505 0.665-0.63 0-1.085-0.7-1.085-2.31v-6.685c0-2.135-0.14-2.87-0.98-3.885s-2.17-1.575-4.13-1.575c-1.575 0-3.045 0.42-4.025 1.05-1.225 0.77-1.785 1.89-1.785 2.8 0 0.945 0.77 1.61 1.505 1.61 0.91 0 1.61-0.77 1.61-1.435 0-0.735-0.21-0.84-0.21-1.47 0-0.945 1.05-1.715 2.45-1.715 1.575 0 2.73 0.98 2.73 3.15v1.89c-3.955 1.47-5.25 2.135-6.3 2.835-1.365 0.91-2.45 2.275-2.45 4.095 0 2.31 1.505 3.64 3.675 3.64 1.505 0 3.22-0.455 5.075-2.555h0.035c0.175 1.855 0.945 2.555 2.24 2.555 1.19 0 2.1-0.35 3.15-1.68v-0.98zm-5.425-2.135c0 1.015-0.21 1.505-1.225 2.205-0.595 0.385-1.33 0.56-2.03 0.56-1.365 0-2.415-0.84-2.415-2.695 0-1.085 0.35-1.925 1.19-2.695 0.875-0.805 2.31-1.54 4.48-2.31v4.935z"/>
<path d="m-430.1 117.7c-0.77 0.91-1.33 1.225-2.1 1.225-1.295 0-1.82-0.91-1.82-3.15v-10.01h3.535v-1.12h-3.535v-4.06c0-0.35-0.07-0.455-0.245-0.455-0.21 0.35-0.49 0.665-0.7 0.98-1.33 1.925-2.485 3.22-3.395 3.745-0.385 0.245-0.595 0.455-0.595 0.665 0 0.105 0.035 0.175 0.14 0.245h1.855v10.54c0 2.94 1.05 4.445 3.08 4.445 1.75 0 3.08-0.84 4.235-2.66l-0.455-0.385z"/>
<path d="m-423.4 98.27c0-0.98-0.77-1.785-1.785-1.785-0.98 0-1.785 0.805-1.785 1.785 0 1.015 0.77 1.785 1.75 1.785 1.05 0 1.82-0.77 1.82-1.785zm2.555 22.12v-0.525c-2.31-0.175-2.59-0.56-2.59-3.15v-12.28l-0.14-0.14-5.425 1.925v0.56c0.63-0.175 1.155-0.175 1.47-0.175 0.875 0 1.155 0.56 1.155 2.205v7.945c0 2.66-0.35 2.975-2.765 3.115v0.525h8.295z"/>
<path d="m-403.5 112.3c0-4.83-3.29-8.015-7.56-8.015-4.725 0-7.875 3.255-7.875 8.12s3.325 8.33 7.56 8.33c4.725 0 7.875-3.57 7.875-8.435zm-3.15 0.945c0 4.06-1.54 6.51-4.13 6.51-1.26 0-2.38-0.63-3.15-1.75-1.295-1.89-1.855-4.41-1.855-7.175 0-3.5 1.645-5.565 4.06-5.565 1.505 0 2.485 0.7 3.325 1.75 1.12 1.435 1.75 3.85 1.75 6.23z"/>
<path d="m-385.5 120.4v-0.525c-1.715-0.175-2.135-0.56-2.135-2.45v-7.735c0-3.465-1.47-5.39-4.13-5.39-1.61 0-3.22 0.77-5.04 2.835h-0.035v-2.73l-0.28-0.105c-1.715 0.63-2.87 1.015-4.795 1.575v0.595c0.245-0.105 0.63-0.14 1.015-0.14 0.98 0 1.225 0.56 1.225 2.275v8.505c0 2.065-0.385 2.625-2.17 2.765v0.525h7.385v-0.525c-1.785-0.14-2.275-0.63-2.275-1.995v-9.66c1.61-1.575 2.45-1.995 3.605-1.995 1.715 0 2.555 1.05 2.555 3.535v6.965c0 2.31-0.42 3.01-2.17 3.15l-0.035 0.525h7.28z"/>
</g>
<g transform="translate(0,2)">
<path d="m-187.4 113.7h-0.98c-1.575 3.71-3.08 4.62-8.085 4.62h-1.26c-2.59 0-3.535-0.175-3.535-1.645v-8.505h5.285c3.01 0 3.535 0.455 3.955 3.395h0.805v-8.19h-0.805c-0.42 2.765-0.945 3.36-3.955 3.36h-5.285v-7.7c0-1.12 0.245-1.26 1.225-1.26h4.585c4.06 0 4.865 0.525 5.39 3.675h0.875l-0.14-5.005h-18.55v0.665c2.625 0.14 3.045 0.665 3.045 3.255v15.26c0 2.695-0.35 3.15-3.045 3.325v0.665h18.86l1.61-5.915z"/>
<path d="m-170.2 103.9h-4.865v0.525c1.12 0.105 1.645 0.455 1.645 1.12 0 0.35-0.07 0.7-0.21 1.05l-3.465 9.065-3.57-8.96c-0.21-0.525-0.315-0.98-0.315-1.33 0-0.595 0.42-0.84 1.61-0.945v-0.525h-6.86v0.525c1.33 0.07 1.68 0.42 3.185 4.025l4.2 10.04c0.14 0.315 0.175 0.56 0.28 0.735 0.245 0.63 0.42 0.91 0.63 0.91s0.455-0.455 0.98-1.75l4.48-11.24c0.945-2.345 1.225-2.625 2.275-2.73v-0.525z"/>
<path d="m-155.9 113.9c-1.715 2.59-3.045 3.675-5.39 3.675-1.61 0-2.905-0.63-3.885-1.925-1.26-1.68-1.435-3.045-1.61-5.705h10.78c-0.14-1.89-0.49-3.01-1.19-3.99-1.12-1.575-2.695-2.415-4.865-2.415-4.41 0-7.245 3.57-7.245 8.505 0 4.83 2.52 7.945 6.65 7.945 3.5 0 5.95-2.03 7.315-5.845l-0.56-0.245zm-10.82-5.075c0.385-2.625 1.75-4.025 3.71-4.025 2.31 0 3.045 1.19 3.43 4.025h-7.14z"/>
<path d="m-137.7 119.7v-0.525c-1.715-0.175-2.135-0.56-2.135-2.45v-7.735c0-3.465-1.47-5.39-4.13-5.39-1.61 0-3.22 0.77-5.04 2.835h-0.035v-2.73l-0.28-0.105c-1.715 0.63-2.87 1.015-4.795 1.575v0.595c0.245-0.105 0.63-0.14 1.015-0.14 0.98 0 1.225 0.56 1.225 2.275v8.505c0 2.065-0.385 2.625-2.17 2.765v0.525h7.385v-0.525c-1.785-0.14-2.275-0.63-2.275-1.995v-9.66c1.61-1.575 2.45-1.995 3.605-1.995 1.715 0 2.555 1.05 2.555 3.535v6.965c0 2.31-0.42 3.01-2.17 3.15l-0.035 0.525h7.28z"/>
<path d="m-127.8 117c-0.77 0.91-1.33 1.225-2.1 1.225-1.295 0-1.82-0.91-1.82-3.15v-10.01h3.535v-1.12h-3.535v-4.06c0-0.35-0.07-0.455-0.245-0.455-0.21 0.35-0.49 0.665-0.7 0.98-1.33 1.925-2.485 3.22-3.395 3.745-0.385 0.245-0.595 0.455-0.595 0.665 0 0.105 0.035 0.175 0.14 0.245h1.855v10.54c0 2.94 1.05 4.445 3.08 4.445 1.75 0 3.08-0.84 4.235-2.66l-0.455-0.385z"/>
</g>
<g transform="translate(43.44 -4)">
<path d="m61.23 114.6c0-6.93-4.585-12.08-11.45-12.08-6.825 0-11.45 4.865-11.45 11.97 0 7.28 4.655 12.18 11.45 12.18 6.72 0 11.45-4.865 11.45-12.08zm-3.99-0.21c0 4.2-0.98 7.49-2.905 9.345-1.225 1.155-2.765 1.68-4.515 1.68-1.61 0-3.15-0.49-4.34-1.575-2.135-1.96-3.15-5.11-3.15-9.275 0-3.325 0.91-6.72 2.415-8.435 1.365-1.575 3.115-2.345 5.005-2.345 1.645 0 3.045 0.595 4.305 1.645 1.995 1.68 3.185 4.97 3.185 8.96z"/>
<path d="m79.25 124.4h-0.21c-1.61 0-1.995-0.385-1.995-1.995v-12h-5.53v0.595c2.1 0.14 2.59 0.42 2.59 2.275v8.085c0 1.225-0.245 1.54-0.805 2.03-0.875 0.77-1.925 1.085-2.94 1.085-1.365 0-2.485-1.155-2.485-2.765v-11.3h-5.11v0.49c1.68 0.105 2.17 0.595 2.17 2.345v8.785c0 2.695 1.575 4.48 4.27 4.48 1.295 0 3.29-0.665 5.005-3.01h0.07v2.87l0.175 0.105c1.75-0.7 3.01-1.085 4.795-1.575v-0.49z"/>
<path d="m89.26 123.5c-0.77 0.91-1.33 1.225-2.1 1.225-1.295 0-1.82-0.91-1.82-3.15v-10.01h3.535v-1.12h-3.535v-4.06c0-0.35-0.07-0.455-0.245-0.455-0.21 0.35-0.49 0.665-0.7 0.98-1.33 1.925-2.485 3.22-3.395 3.745-0.385 0.245-0.595 0.455-0.595 0.665 0 0.105 0.035 0.175 0.14 0.245h1.855v10.54c0 2.94 1.05 4.445 3.08 4.445 1.75 0 3.08-0.84 4.235-2.66l-0.455-0.385z"/>
<path d="m103.6 120.7c-1.68 2.45-2.94 3.29-4.935 3.29-3.22 0-5.425-2.8-5.425-6.825 0-3.64 1.925-6.09 4.76-6.09 1.26 0 1.715 0.385 2.065 1.68l0.21 0.77c0.28 1.015 0.91 1.61 1.68 1.61 0.91 0 1.645-0.665 1.645-1.47 0-1.96-2.45-3.605-5.39-3.605-1.645 0-3.325 0.63-4.725 1.785-1.89 1.575-2.94 3.99-2.94 6.895 0 4.515 2.765 7.77 6.65 7.77 1.505 0 2.835-0.49 4.025-1.47 1.05-0.84 1.75-1.855 2.87-4.025l-0.49-0.315z"/>
<path d="m121.6 118.1c0-4.83-3.29-8.015-7.56-8.015-4.725 0-7.875 3.255-7.875 8.12s3.325 8.33 7.56 8.33c4.725 0 7.875-3.57 7.875-8.435zm-3.15 0.945c0 4.06-1.54 6.51-4.13 6.51-1.26 0-2.38-0.63-3.15-1.75-1.295-1.89-1.855-4.41-1.855-7.175 0-3.5 1.645-5.565 4.06-5.565 1.505 0 2.485 0.7 3.325 1.75 1.12 1.435 1.75 3.85 1.75 6.23z"/>
<path d="m149.8 126.1v-0.525l-0.91-0.07c-1.05-0.07-1.505-0.525-1.505-2.1v-7.105c0-4.13-1.225-6.3-4.06-6.3-2.03 0-3.815 0.91-5.705 2.94-0.63-1.995-1.82-2.94-3.71-2.94-1.575 0-3.045 0.315-5.355 2.695h-0.07v-2.59l-0.28-0.105c-1.785 0.665-2.94 1.05-4.865 1.575v0.595c0.455-0.105 0.735-0.14 1.12-0.14 0.91 0 1.225 0.595 1.225 2.31v8.68c0 2.03-0.49 2.52-2.45 2.555v0.525h7.77v-0.525c-1.855-0.07-2.38-0.42-2.38-1.925v-9.73c0-0.07 0.21-0.315 0.455-0.595 0.7-0.84 2.415-1.505 3.71-1.505 1.505 0 2.275 1.47 2.275 3.885v7.385c0 2.135-0.385 2.345-2.38 2.485v0.525h7.84v-0.525c-1.995-0.035-2.52-0.525-2.52-2.8v-8.82c1.05-1.505 2.1-2.135 3.745-2.135 1.995 0 2.695 1.155 2.695 3.92v7.21c0 2.03-0.315 2.415-2.275 2.625v0.525h7.63z"/>
<path d="m164.2 120.4c-1.715 2.59-3.045 3.675-5.39 3.675-1.61 0-2.905-0.63-3.885-1.925-1.26-1.68-1.435-3.045-1.61-5.705h10.78c-0.14-1.89-0.49-3.01-1.19-3.99-1.12-1.575-2.695-2.415-4.865-2.415-4.41 0-7.245 3.57-7.245 8.505 0 4.83 2.52 7.945 6.65 7.945 3.5 0 5.95-2.03 7.315-5.845l-0.56-0.245zm-10.82-5.075c0.385-2.625 1.75-4.025 3.71-4.025 2.31 0 3.045 1.19 3.43 4.025h-7.14z"/>
</g>
</g>
<g fill="#bbb" transform="translate(43.44 -2)">
<path d="m24.82 152.3c-3.5-2.925-4.25-5.75-4.25-10.4 0-4.825 0.775-7.15 4.25-10.12l-0.225-0.4c-4 2.375-6.175 5.975-6.175 10.6 0 4.25 2.15 8.475 6.1 10.73l0.3-0.4z"/>
<path d="m35.52 144.4c-1.2 1.75-2.1 2.35-3.525 2.35-2.3 0-3.875-2-3.875-4.875 0-2.6 1.375-4.35 3.4-4.35 0.9 0 1.225 0.275 1.475 1.2l0.15 0.55c0.2 0.725 0.65 1.15 1.2 1.15 0.65 0 1.175-0.475 1.175-1.05 0-1.4-1.75-2.575-3.85-2.575-1.175 0-2.375 0.45-3.375 1.275-1.35 1.125-2.1 2.85-2.1 4.925 0 3.225 1.975 5.55 4.75 5.55 1.075 0 2.025-0.35 2.875-1.05 0.75-0.6 1.25-1.325 2.05-2.875l-0.35-0.225z"/>
<path d="m48.4 142.5c0-3.45-2.35-5.725-5.4-5.725-3.375 0-5.625 2.325-5.625 5.8s2.375 5.95 5.4 5.95c3.375 0 5.625-2.55 5.625-6.025zm-2.25 0.675c0 2.9-1.1 4.65-2.95 4.65-0.9 0-1.7-0.45-2.25-1.25-0.925-1.35-1.325-3.15-1.325-5.125 0-2.5 1.175-3.975 2.9-3.975 1.075 0 1.775 0.5 2.375 1.25 0.8 1.025 1.25 2.75 1.25 4.45z"/>
<path d="m61.27 148.3v-0.375c-1.225-0.125-1.525-0.4-1.525-1.75v-5.525c0-2.475-1.05-3.85-2.95-3.85-1.15 0-2.3 0.55-3.6 2.025h-0.025v-1.95l-0.2-0.075c-1.225 0.45-2.05 0.725-3.425 1.125v0.425c0.175-0.075 0.45-0.1 0.725-0.1 0.7 0 0.875 0.4 0.875 1.625v6.075c0 1.475-0.275 1.875-1.55 1.975v0.375h5.275v-0.375c-1.275-0.1-1.625-0.45-1.625-1.425v-6.9c1.15-1.125 1.75-1.425 2.575-1.425 1.225 0 1.825 0.75 1.825 2.525v4.975c0 1.65-0.3 2.15-1.55 2.25l-0.025 0.375h5.2z"/>
<path d="m72.79 137h-3.475v0.375c0.8 0.075 1.175 0.325 1.175 0.8 0 0.25-0.05 0.5-0.15 0.75l-2.475 6.475-2.55-6.4c-0.15-0.375-0.225-0.7-0.225-0.95 0-0.425 0.3-0.6 1.15-0.675v-0.375h-4.9v0.375c0.95 0.05 1.2 0.3 2.275 2.875l3 7.175c0.1 0.225 0.125 0.4 0.2 0.525 0.175 0.45 0.3 0.65 0.45 0.65s0.325-0.325 0.7-1.25l3.2-8.025c0.675-1.675 0.875-1.875 1.625-1.95v-0.375z"/>
<path d="m82.98 144.2c-1.225 1.85-2.175 2.625-3.85 2.625-1.15 0-2.075-0.45-2.775-1.375-0.9-1.2-1.025-2.175-1.15-4.075h7.7c-0.1-1.35-0.35-2.15-0.85-2.85-0.8-1.125-1.925-1.725-3.475-1.725-3.15 0-5.175 2.55-5.175 6.075 0 3.45 1.8 5.675 4.75 5.675 2.5 0 4.25-1.45 5.225-4.175l-0.4-0.175zm-7.725-3.625c0.275-1.875 1.25-2.875 2.65-2.875 1.65 0 2.175 0.85 2.45 2.875h-5.1z"/>
<path d="m87.87 136.8-0.125-0.05c-1.325 0.525-2.225 0.875-3.7 1.35v0.4c0.35-0.075 0.575-0.1 0.875-0.1 0.625 0 0.85 0.4 0.85 1.5v6.25c0 1.25-0.175 1.425-1.775 1.725v0.375h6v-0.375c-1.7-0.075-2.125-0.45-2.125-1.875v-5.625c0-0.8 1.05-2.05 1.75-2.05 0.15 0 0.375 0.125 0.65 0.375 0.4 0.375 0.675 0.5 1 0.5 0.6 0 0.975-0.425 0.975-1.125 0-0.825-0.525-1.325-1.375-1.325-1.05 0-1.75 0.55-3 2.35v-2.3z"/>
<path d="m96.12 140.7c-0.7-0.425-1.075-1.15-1.075-1.7 0-1.175 0.8-1.7 1.875-1.7 1.5 0 2.25 0.825 2.825 3.075h0.375l-0.125-3.4h-0.275c-0.2 0.225-0.3 0.25-0.4 0.25-0.175 0-0.425-0.075-0.7-0.2-0.525-0.25-1.075-0.275-1.675-0.275-2.05 0-3.45 1.1-3.45 3.075 0 1.275 0.925 2.475 3 3.625l1.35 0.75c0.825 0.45 1.325 1.1 1.325 1.875 0 1.025-0.8 1.85-2.075 1.85-1.725 0-2.65-1.1-3.175-3.525h-0.4v3.925h0.325c0.15-0.25 0.3-0.3 0.6-0.3 0.275 0 0.55 0.025 1.15 0.225 0.575 0.2 1.3 0.225 1.825 0.225 1.9 0 3.5-1.45 3.5-3.125 0-1.425-0.6-2.1-2.2-3.075l-2.6-1.575z"/>
<path d="m106.4 132.5c0-0.7-0.55-1.275-1.275-1.275-0.7 0-1.275 0.575-1.275 1.275 0 0.725 0.55 1.275 1.25 1.275 0.75 0 1.3-0.55 1.3-1.275zm1.825 15.8v-0.375c-1.65-0.125-1.85-0.4-1.85-2.25v-8.775l-0.1-0.1-3.875 1.375v0.4c0.45-0.125 0.825-0.125 1.05-0.125 0.625 0 0.825 0.4 0.825 1.575v5.675c0 1.9-0.25 2.125-1.975 2.225v0.375h5.925z"/>
<path d="m120.6 142.5c0-3.45-2.35-5.725-5.4-5.725-3.375 0-5.625 2.325-5.625 5.8s2.375 5.95 5.4 5.95c3.375 0 5.625-2.55 5.625-6.025zm-2.25 0.675c0 2.9-1.1 4.65-2.95 4.65-0.9 0-1.7-0.45-2.25-1.25-0.925-1.35-1.325-3.15-1.325-5.125 0-2.5 1.175-3.975 2.9-3.975 1.075 0 1.775 0.5 2.375 1.25 0.8 1.025 1.25 2.75 1.25 4.45z"/>
<path d="m133.5 148.3v-0.375c-1.225-0.125-1.525-0.4-1.525-1.75v-5.525c0-2.475-1.05-3.85-2.95-3.85-1.15 0-2.3 0.55-3.6 2.025h-0.025v-1.95l-0.2-0.075c-1.225 0.45-2.05 0.725-3.425 1.125v0.425c0.175-0.075 0.45-0.1 0.725-0.1 0.7 0 0.875 0.4 0.875 1.625v6.075c0 1.475-0.275 1.875-1.55 1.975v0.375h5.275v-0.375c-1.275-0.1-1.625-0.45-1.625-1.425v-6.9c1.15-1.125 1.75-1.425 2.575-1.425 1.225 0 1.825 0.75 1.825 2.525v4.975c0 1.65-0.3 2.15-1.55 2.25l-0.025 0.375h5.2z"/>
<path d="m144.1 136.8-0.125-0.05c-1.325 0.525-2.225 0.875-3.7 1.35v0.4c0.35-0.075 0.575-0.1 0.875-0.1 0.625 0 0.85 0.4 0.85 1.5v6.25c0 1.25-0.175 1.425-1.775 1.725v0.375h6v-0.375c-1.7-0.075-2.125-0.45-2.125-1.875v-5.625c0-0.8 1.05-2.05 1.75-2.05 0.15 0 0.375 0.125 0.65 0.375 0.4 0.375 0.675 0.5 1 0.5 0.6 0 0.975-0.425 0.975-1.125 0-0.825-0.525-1.325-1.375-1.325-1.05 0-1.75 0.55-3 2.35v-2.3z"/>
<path d="m159.5 146.6c-0.425 0.35-0.675 0.475-1.075 0.475-0.45 0-0.775-0.5-0.775-1.65v-4.775c0-1.525-0.1-2.05-0.7-2.775s-1.55-1.125-2.95-1.125c-1.125 0-2.175 0.3-2.875 0.75-0.875 0.55-1.275 1.35-1.275 2 0 0.675 0.55 1.15 1.075 1.15 0.65 0 1.15-0.55 1.15-1.025 0-0.525-0.15-0.6-0.15-1.05 0-0.675 0.75-1.225 1.75-1.225 1.125 0 1.95 0.7 1.95 2.25v1.35c-2.825 1.05-3.75 1.525-4.5 2.025-0.975 0.65-1.75 1.625-1.75 2.925 0 1.65 1.075 2.6 2.625 2.6 1.075 0 2.3-0.325 3.625-1.825h0.025c0.125 1.325 0.675 1.825 1.6 1.825 0.85 0 1.5-0.25 2.25-1.2v-0.7zm-3.875-1.525c0 0.725-0.15 1.075-0.875 1.575-0.425 0.275-0.95 0.4-1.45 0.4-0.975 0-1.725-0.6-1.725-1.925 0-0.775 0.25-1.375 0.85-1.925 0.625-0.575 1.65-1.1 3.2-1.65v3.525z"/>
<path d="m166.2 146.3c-0.55 0.65-0.95 0.875-1.5 0.875-0.925 0-1.3-0.65-1.3-2.25v-7.15h2.525v-0.8h-2.525v-2.9c0-0.25-0.05-0.325-0.175-0.325-0.15 0.25-0.35 0.475-0.5 0.7-0.95 1.375-1.775 2.3-2.425 2.675-0.275 0.175-0.425 0.325-0.425 0.475 0 0.075 0.025 0.125 0.1 0.175h1.325v7.525c0 2.1 0.75 3.175 2.2 3.175 1.25 0 2.2-0.6 3.025-1.9l-0.325-0.275z"/>
<path d="m176.6 144.2c-1.225 1.85-2.175 2.625-3.85 2.625-1.15 0-2.075-0.45-2.775-1.375-0.9-1.2-1.025-2.175-1.15-4.075h7.7c-0.1-1.35-0.35-2.15-0.85-2.85-0.8-1.125-1.925-1.725-3.475-1.725-3.15 0-5.175 2.55-5.175 6.075 0 3.45 1.8 5.675 4.75 5.675 2.5 0 4.25-1.45 5.225-4.175l-0.4-0.175zm-7.725-3.625c0.275-1.875 1.25-2.875 2.65-2.875 1.65 0 2.175 0.85 2.45 2.875h-5.1z"/>
<path d="m178.2 131.8c3.625 2.85 4.25 5.725 4.25 10.4 0 4.85-0.7 7.2-4.25 10.13l0.225 0.4c3.975-2.425 6.175-5.975 6.175-10.6 0-4.25-2.275-8.425-6.1-10.72l-0.3 0.4z"/>
</g>
<g stroke="#fff" stroke-width="13.5" stroke-linejoin="round" fill="#4d4d4d" stroke-linecap="round">
<g transform="matrix(.1833 0 0 .1833 -409.6 156.9)">
<path d="m-195.5 242.4c-47.8 0-86.28 38.48-86.28 86.28v78.64a267 106.8 0 0 0 114.2 10.42 267 106.8 0 0 0 114.2 -10.39v-78.66c0-47.8-38.48-86.28-86.28-86.28h-55.91z"/>
<circle cy="182.7" cx="-167.5" r="73.19"/>
</g>
<g transform="matrix(.1833 0 0 .1833 -387.6 182.2)">
<path d="m-195.5 242.4c-47.8 0-86.28 38.48-86.28 86.28v78.64a267 106.8 0 0 0 114.2 10.42 267 106.8 0 0 0 114.2 -10.39v-78.66c0-47.8-38.48-86.28-86.28-86.28h-55.91z"/>
<circle cy="182.7" cx="-167.5" r="73.19"/>
</g>
<g transform="matrix(.1833 0 0 .1833 -453.6 156.9)">
<path d="m-195.5 242.4c-47.8 0-86.28 38.48-86.28 86.28v78.64a267 106.8 0 0 0 114.2 10.42 267 106.8 0 0 0 114.2 -10.39v-78.66c0-47.8-38.48-86.28-86.28-86.28h-55.91z"/>
<circle cy="182.7" cx="-167.5" r="73.19"/>
</g>
<g transform="matrix(.1833 0 0 .1833 -431.6 171.2)">
<path d="m-195.5 242.4c-47.8 0-86.28 38.48-86.28 86.28v78.64a267 106.8 0 0 0 114.2 10.42 267 106.8 0 0 0 114.2 -10.39v-78.66c0-47.8-38.48-86.28-86.28-86.28h-55.91z"/>
<circle cy="182.7" cx="-167.5" r="73.19"/>
</g>
<g transform="matrix(.1833 0 0 .1833 -471.9 182.2)">
<path d="m-195.5 242.4c-47.8 0-86.28 38.48-86.28 86.28v78.64a267 106.8 0 0 0 114.2 10.42 267 106.8 0 0 0 114.2 -10.39v-78.66c0-47.8-38.48-86.28-86.28-86.28h-55.91z"/>
<circle cy="182.7" cx="-167.5" r="73.19"/>
</g>
<g transform="matrix(.1833 0 0 .1833 -453.6 196.9)">
<path d="m-195.5 242.4c-47.8 0-86.28 38.48-86.28 86.28v78.64a267 106.8 0 0 0 114.2 10.42 267 106.8 0 0 0 114.2 -10.39v-78.66c0-47.8-38.48-86.28-86.28-86.28h-55.91z"/>
<circle cy="182.7" cx="-167.5" r="73.19"/>
</g>
<g transform="matrix(.1833 0 0 .1833 -409.6 196.9)">
<path d="m-195.5 242.4c-47.8 0-86.28 38.48-86.28 86.28v78.64a267 106.8 0 0 0 114.2 10.42 267 106.8 0 0 0 114.2 -10.39v-78.66c0-47.8-38.48-86.28-86.28-86.28h-55.91z"/>
<circle cy="182.7" cx="-167.5" r="73.19"/>
</g>
<g transform="matrix(.1833 0 0 .1833 -431.6 204.2)">
<path d="m-195.5 242.4c-47.8 0-86.28 38.48-86.28 86.28v78.64a267 106.8 0 0 0 114.2 10.42 267 106.8 0 0 0 114.2 -10.39v-78.66c0-47.8-38.48-86.28-86.28-86.28h-55.91z"/>
<circle cy="182.7" cx="-167.5" r="73.19"/>
</g>
</g>
<g stroke="#fff" stroke-width="13.5" stroke-linejoin="round" fill="#4d4d4d" stroke-linecap="round">
<g transform="matrix(.1833 0 0 .1833 -453.6 330.6)">
<path d="m-195.5 242.4c-47.8 0-86.28 38.48-86.28 86.28v78.64a267 106.8 0 0 0 114.2 10.42 267 106.8 0 0 0 114.2 -10.39v-78.66c0-47.8-38.48-86.28-86.28-86.28h-55.91z"/>
<circle cy="182.7" cx="-167.5" r="73.19"/>
</g>
<g transform="matrix(.1833 0 0 .1833 -409.6 330.6)">
<path d="m-195.5 242.4c-47.8 0-86.28 38.48-86.28 86.28v78.64a267 106.8 0 0 0 114.2 10.42 267 106.8 0 0 0 114.2 -10.39v-78.66c0-47.8-38.48-86.28-86.28-86.28h-55.91z"/>
<circle cy="182.7" cx="-167.5" r="73.19"/>
</g>
<g transform="matrix(.1833 0 0 .1833 -387.6 355.9)">
<path d="m-195.5 242.4c-47.8 0-86.28 38.48-86.28 86.28v78.64a267 106.8 0 0 0 114.2 10.42 267 106.8 0 0 0 114.2 -10.39v-78.66c0-47.8-38.48-86.28-86.28-86.28h-55.91z"/>
<circle cy="182.7" cx="-167.5" r="73.19"/>
</g>
<g transform="matrix(.1833 0 0 .1833 -431.6 345)">
<path d="m-195.5 242.4c-47.8 0-86.28 38.48-86.28 86.28v78.64a267 106.8 0 0 0 114.2 10.42 267 106.8 0 0 0 114.2 -10.39v-78.66c0-47.8-38.48-86.28-86.28-86.28h-55.91z"/>
<circle cy="182.7" cx="-167.5" r="73.19"/>
</g>
<g transform="matrix(.1833 0 0 .1833 -471.9 355.9)">
<path d="m-195.5 242.4c-47.8 0-86.28 38.48-86.28 86.28v78.64a267 106.8 0 0 0 114.2 10.42 267 106.8 0 0 0 114.2 -10.39v-78.66c0-47.8-38.48-86.28-86.28-86.28h-55.91z"/>
<circle cy="182.7" cx="-167.5" r="73.19"/>
</g>
<g transform="matrix(.1833 0 0 .1833 -453.6 370.6)">
<path d="m-195.5 242.4c-47.8 0-86.28 38.48-86.28 86.28v78.64a267 106.8 0 0 0 114.2 10.42 267 106.8 0 0 0 114.2 -10.39v-78.66c0-47.8-38.48-86.28-86.28-86.28h-55.91z"/>
<circle cy="182.7" cx="-167.5" r="73.19"/>
</g>
<g transform="matrix(.1833 0 0 .1833 -409.6 370.6)">
<path d="m-195.5 242.4c-47.8 0-86.28 38.48-86.28 86.28v78.64a267 106.8 0 0 0 114.2 10.42 267 106.8 0 0 0 114.2 -10.39v-78.66c0-47.8-38.48-86.28-86.28-86.28h-55.91z"/>
<circle cy="182.7" cx="-167.5" r="73.19"/>
</g>
<g transform="matrix(.1833 0 0 .1833 -431.6 377.9)">
<path d="m-195.5 242.4c-47.8 0-86.28 38.48-86.28 86.28v78.64a267 106.8 0 0 0 114.2 10.42 267 106.8 0 0 0 114.2 -10.39v-78.66c0-47.8-38.48-86.28-86.28-86.28h-55.91z"/>
<circle cy="182.7" cx="-167.5" r="73.19"/>
</g>
</g>
<g fill="#bbb" transform="translate(0,6)">
<path d="m-532.1 144.3c-3.5-2.925-4.25-5.75-4.25-10.4 0-4.825 0.775-7.15 4.25-10.12l-0.225-0.4c-4 2.375-6.175 5.975-6.175 10.6 0 4.25 2.15 8.475 6.1 10.72l0.3-0.4z"/>
<path d="m-520.3 138.6c-0.425 0.35-0.675 0.475-1.075 0.475-0.45 0-0.775-0.5-0.775-1.65v-4.775c0-1.525-0.1-2.05-0.7-2.775s-1.55-1.125-2.95-1.125c-1.125 0-2.175 0.3-2.875 0.75-0.875 0.55-1.275 1.35-1.275 2 0 0.675 0.55 1.15 1.075 1.15 0.65 0 1.15-0.55 1.15-1.025 0-0.525-0.15-0.6-0.15-1.05 0-0.675 0.75-1.225 1.75-1.225 1.125 0 1.95 0.7 1.95 2.25v1.35c-2.825 1.05-3.75 1.525-4.5 2.025-0.975 0.65-1.75 1.625-1.75 2.925 0 1.65 1.075 2.6 2.625 2.6 1.075 0 2.3-0.325 3.625-1.825h0.025c0.125 1.325 0.675 1.825 1.6 1.825 0.85 0 1.5-0.25 2.25-1.2v-0.7zm-3.875-1.525c0 0.725-0.15 1.075-0.875 1.575-0.425 0.275-0.95 0.4-1.45 0.4-0.975 0-1.725-0.6-1.725-1.925 0-0.775 0.25-1.375 0.85-1.925 0.625-0.575 1.65-1.1 3.2-1.65v3.525z"/>
<path d="m-513.8 140.3v-0.375c-1.6-0.1-1.875-0.425-1.875-1.8v-14.8l-0.125-0.1c-1.3 0.425-2.225 0.675-3.95 1.1v0.4c0.4-0.05 0.725-0.05 0.925-0.05 0.8 0 1.05 0.4 1.05 1.6v11.72c0 1.375-0.35 1.8-1.925 1.925v0.375h5.9z"/>
<path d="m-506.9 140.3v-0.375c-1.6-0.1-1.875-0.425-1.875-1.8v-14.8l-0.125-0.1c-1.3 0.425-2.225 0.675-3.95 1.1v0.4c0.4-0.05 0.725-0.05 0.925-0.05 0.8 0 1.05 0.4 1.05 1.6v11.72c0 1.375-0.35 1.8-1.925 1.925v0.375h5.9z"/>
<path d="m-493.5 138.3c-0.55 0.65-0.95 0.875-1.5 0.875-0.925 0-1.3-0.65-1.3-2.25v-7.15h2.525v-0.8h-2.525v-2.9c0-0.25-0.05-0.325-0.175-0.325-0.15 0.25-0.35 0.475-0.5 0.7-0.95 1.375-1.775 2.3-2.425 2.675-0.275 0.175-0.425 0.325-0.425 0.475 0 0.075 0.025 0.125 0.1 0.175h1.325v7.525c0 2.1 0.75 3.175 2.2 3.175 1.25 0 2.2-0.6 3.025-1.9l-0.325-0.275z"/>
<path d="m-480.8 140.3v-0.375c-1.35-0.25-1.5-0.45-1.5-2.175v-4.975c0-2.625-1.025-3.975-3.075-3.975-1.475 0-2.525 0.6-3.675 2.1v-7.6l-0.125-0.075c-0.875 0.3-1.45 0.475-2.875 0.9l-0.675 0.2v0.4c0.075-0.025 0.2-0.025 0.3-0.025 1.075 0 1.275 0.2 1.275 1.275v11.78c0 1.75-0.15 1.975-1.6 2.175v0.375h5.4v-0.375c-1.45-0.15-1.7-0.45-1.7-2.175v-6.025c1.05-1.15 1.8-1.575 2.8-1.575 1.225 0 1.85 0.9 1.85 2.65v4.95c0 1.725-0.25 2.025-1.7 2.175v0.375h5.3z"/>
<path d="m-470.3 136.2c-1.225 1.85-2.175 2.625-3.85 2.625-1.15 0-2.075-0.45-2.775-1.375-0.9-1.2-1.025-2.175-1.15-4.075h7.7c-0.1-1.35-0.35-2.15-0.85-2.85-0.8-1.125-1.925-1.725-3.475-1.725-3.15 0-5.175 2.55-5.175 6.075 0 3.45 1.8 5.675 4.75 5.675 2.5 0 4.25-1.45 5.225-4.175l-0.4-0.175zm-7.725-3.625c0.275-1.875 1.25-2.875 2.65-2.875 1.65 0 2.175 0.85 2.45 2.875h-5.1z"/>
<path d="m-451.2 129h-3.475v0.375c0.8 0.075 1.175 0.325 1.175 0.8 0 0.25-0.05 0.5-0.15 0.75l-2.475 6.475-2.55-6.4c-0.15-0.375-0.225-0.7-0.225-0.95 0-0.425 0.3-0.6 1.15-0.675v-0.375h-4.9v0.375c0.95 0.05 1.2 0.3 2.275 2.875l3 7.175c0.1 0.225 0.125 0.4 0.2 0.525 0.175 0.45 0.3 0.65 0.45 0.65s0.325-0.325 0.7-1.25l3.2-8.025c0.675-1.675 0.875-1.875 1.625-1.95v-0.375z"/>
<path d="m-446.2 124.5c0-0.7-0.55-1.275-1.275-1.275-0.7 0-1.275 0.575-1.275 1.275 0 0.725 0.55 1.275 1.25 1.275 0.75 0 1.3-0.55 1.3-1.275zm1.825 15.8v-0.375c-1.65-0.125-1.85-0.4-1.85-2.25v-8.775l-0.1-0.1-3.875 1.375v0.4c0.45-0.125 0.825-0.125 1.05-0.125 0.625 0 0.825 0.4 0.825 1.575v5.675c0 1.9-0.25 2.125-1.975 2.225v0.375h5.925z"/>
<path d="m-439.8 132.7c-0.7-0.425-1.075-1.15-1.075-1.7 0-1.175 0.8-1.7 1.875-1.7 1.5 0 2.25 0.825 2.825 3.075h0.375l-0.125-3.4h-0.275c-0.2 0.225-0.3 0.25-0.4 0.25-0.175 0-0.425-0.075-0.7-0.2-0.525-0.25-1.075-0.275-1.675-0.275-2.05 0-3.45 1.1-3.45 3.075 0 1.275 0.925 2.475 3 3.625l1.35 0.75c0.825 0.45 1.325 1.1 1.325 1.875 0 1.025-0.8 1.85-2.075 1.85-1.725 0-2.65-1.1-3.175-3.525h-0.4v3.925h0.325c0.15-0.25 0.3-0.3 0.6-0.3 0.275 0 0.55 0.025 1.15 0.225 0.575 0.2 1.3 0.225 1.825 0.225 1.9 0 3.5-1.45 3.5-3.125 0-1.425-0.6-2.1-2.2-3.075l-2.6-1.575z"/>
<path d="m-429.5 124.5c0-0.7-0.55-1.275-1.275-1.275-0.7 0-1.275 0.575-1.275 1.275 0 0.725 0.55 1.275 1.25 1.275 0.75 0 1.3-0.55 1.3-1.275zm1.825 15.8v-0.375c-1.65-0.125-1.85-0.4-1.85-2.25v-8.775l-0.1-0.1-3.875 1.375v0.4c0.45-0.125 0.825-0.125 1.05-0.125 0.625 0 0.825 0.4 0.825 1.575v5.675c0 1.9-0.25 2.125-1.975 2.225v0.375h5.925z"/>
<path d="m-420.4 138.3c-0.55 0.65-0.95 0.875-1.5 0.875-0.925 0-1.3-0.65-1.3-2.25v-7.15h2.525v-0.8h-2.525v-2.9c0-0.25-0.05-0.325-0.175-0.325-0.15 0.25-0.35 0.475-0.5 0.7-0.95 1.375-1.775 2.3-2.425 2.675-0.275 0.175-0.425 0.325-0.425 0.475 0 0.075 0.025 0.125 0.1 0.175h1.325v7.525c0 2.1 0.75 3.175 2.2 3.175 1.25 0 2.2-0.6 3.025-1.9l-0.325-0.275z"/>
<path d="m-408.4 134.5c0-3.45-2.35-5.725-5.4-5.725-3.375 0-5.625 2.325-5.625 5.8s2.375 5.95 5.4 5.95c3.375 0 5.625-2.55 5.625-6.025zm-2.25 0.675c0 2.9-1.1 4.65-2.95 4.65-0.9 0-1.7-0.45-2.25-1.25-0.925-1.35-1.325-3.15-1.325-5.125 0-2.5 1.175-3.975 2.9-3.975 1.075 0 1.775 0.5 2.375 1.25 0.8 1.025 1.25 2.75 1.25 4.45z"/>
<path d="m-403.7 128.8-0.125-0.05c-1.325 0.525-2.225 0.875-3.7 1.35v0.4c0.35-0.075 0.575-0.1 0.875-0.1 0.625 0 0.85 0.4 0.85 1.5v6.25c0 1.25-0.175 1.425-1.775 1.725v0.375h6v-0.375c-1.7-0.075-2.125-0.45-2.125-1.875v-5.625c0-0.8 1.05-2.05 1.75-2.05 0.15 0 0.375 0.125 0.65 0.375 0.4 0.375 0.675 0.5 1 0.5 0.6 0 0.975-0.425 0.975-1.125 0-0.825-0.525-1.325-1.375-1.325-1.05 0-1.75 0.55-3 2.35v-2.3z"/>
<path d="m-395.4 132.7c-0.7-0.425-1.075-1.15-1.075-1.7 0-1.175 0.8-1.7 1.875-1.7 1.5 0 2.25 0.825 2.825 3.075h0.375l-0.125-3.4h-0.275c-0.2 0.225-0.3 0.25-0.4 0.25-0.175 0-0.425-0.075-0.7-0.2-0.525-0.25-1.075-0.275-1.675-0.275-2.05 0-3.45 1.1-3.45 3.075 0 1.275 0.925 2.475 3 3.625l1.35 0.75c0.825 0.45 1.325 1.1 1.325 1.875 0 1.025-0.8 1.85-2.075 1.85-1.725 0-2.65-1.1-3.175-3.525h-0.4v3.925h0.325c0.15-0.25 0.3-0.3 0.6-0.3 0.275 0 0.55 0.025 1.15 0.225 0.575 0.2 1.3 0.225 1.825 0.225 1.9 0 3.5-1.45 3.5-3.125 0-1.425-0.6-2.1-2.2-3.075l-2.6-1.575z"/>
<path d="m-388.9 123.8c3.625 2.85 4.25 5.725 4.25 10.4 0 4.85-0.7 7.2-4.25 10.12l0.225 0.4c3.975-2.425 6.175-5.975 6.175-10.6 0-4.25-2.275-8.425-6.1-10.72l-0.3 0.4z"/>
</g>
<g fill="#bbb" transform="translate(0,6)">
<path d="m-259.7 143.8c-3.5-2.925-4.25-5.75-4.25-10.4 0-4.825 0.775-7.15 4.25-10.12l-0.225-0.4c-4 2.375-6.175 5.975-6.175 10.6 0 4.25 2.15 8.475 6.1 10.72l0.3-0.4z"/>
<path d="m-247.2 130v-0.975h-1.925c-0.5 0-0.875-0.075-1.375-0.25l-0.55-0.2c-0.675-0.25-1.35-0.375-2-0.375-2.325 0-4.175 1.8-4.175 4.075 0 1.575 0.65 2.525 2.325 3.35-0.35 0.35-0.7 0.675-1.075 1-0.825 0.725-1.15 1.225-1.15 1.725 0 0.55 0.275 0.825 1.325 1.325-1.8 1.3-2.45 2.125-2.45 3.05 0 1.325 1.925 2.425 4.325 2.425 1.8 0 3.7-0.6 5-1.6 1.025-0.8 1.5-1.625 1.5-2.625 0-1.55-1.175-2.6-3.025-2.675l-3.225-0.15c-1.35-0.075-1.95-0.275-1.95-0.675 0-0.5 0.825-1.375 1.5-1.575l0.475 0.05c0.45 0.05 0.8 0.075 0.95 0.075 0.875 0 1.8-0.375 2.6-0.975 0.9-0.675 1.3-1.6 1.3-2.9 0-0.725-0.125-1.3-0.475-2.1h2.075zm-7.95 1.25c0-1.475 0.7-2.35 1.85-2.35 0.775 0 1.425 0.425 1.825 1.175 0.475 0.875 0.75 2 0.75 3.025 0 1.375-0.725 2.25-1.85 2.25-1.55 0-2.575-1.625-2.575-4.025v-0.075zm7.025 10.05c0 1.45-1.9 2.425-4.75 2.425-2.2 0-3.625-0.725-3.625-1.825 0-0.575 0.225-0.95 1.225-2.15 0.85 0.175 2.825 0.325 4.05 0.325 2.275 0 3.1 0.3 3.1 1.225z"/>
<path d="m-241.9 123.9c0-0.7-0.55-1.275-1.275-1.275-0.7 0-1.275 0.575-1.275 1.275 0 0.725 0.55 1.275 1.25 1.275 0.75 0 1.3-0.55 1.3-1.275zm1.825 15.8v-0.375c-1.65-0.125-1.85-0.4-1.85-2.25v-8.775l-0.1-0.1-3.875 1.375v0.4c0.45-0.125 0.825-0.125 1.05-0.125 0.625 0 0.825 0.4 0.825 1.575v5.675c0 1.9-0.25 2.125-1.975 2.225v0.375h5.925z"/>
<path d="m-227.5 128.5h-3.475v0.375c0.8 0.075 1.175 0.325 1.175 0.8 0 0.25-0.05 0.5-0.15 0.75l-2.475 6.475-2.55-6.4c-0.15-0.375-0.225-0.7-0.225-0.95 0-0.425 0.3-0.6 1.15-0.675v-0.375h-4.9v0.375c0.95 0.05 1.2 0.3 2.275 2.875l3 7.175c0.1 0.225 0.125 0.4 0.2 0.525 0.175 0.45 0.3 0.65 0.45 0.65s0.325-0.325 0.7-1.25l3.2-8.025c0.675-1.675 0.875-1.875 1.625-1.95v-0.375z"/>
<path d="m-217.4 135.6c-1.225 1.85-2.175 2.625-3.85 2.625-1.15 0-2.075-0.45-2.775-1.375-0.9-1.2-1.025-2.175-1.15-4.075h7.7c-0.1-1.35-0.35-2.15-0.85-2.85-0.8-1.125-1.925-1.725-3.475-1.725-3.15 0-5.175 2.55-5.175 6.075 0 3.45 1.8 5.675 4.75 5.675 2.5 0 4.25-1.45 5.225-4.175l-0.4-0.175zm-7.725-3.625c0.275-1.875 1.25-2.875 2.65-2.875 1.65 0 2.175 0.85 2.45 2.875h-5.1z"/>
<path d="m-204.3 139.7v-0.375c-1.225-0.125-1.525-0.4-1.525-1.75v-5.525c0-2.475-1.05-3.85-2.95-3.85-1.15 0-2.3 0.55-3.6 2.025h-0.025v-1.95l-0.2-0.075c-1.225 0.45-2.05 0.725-3.425 1.125v0.425c0.175-0.075 0.45-0.1 0.725-0.1 0.7 0 0.875 0.4 0.875 1.625v6.075c0 1.475-0.275 1.875-1.55 1.975v0.375h5.275v-0.375c-1.275-0.1-1.625-0.45-1.625-1.425v-6.9c1.15-1.125 1.75-1.425 2.575-1.425 1.225 0 1.825 0.75 1.825 2.525v4.975c0 1.65-0.3 2.15-1.55 2.25l-0.025 0.375h5.2z"/>
<path d="m-193.9 122.7-0.125-0.05c-1.05 0.375-1.7 0.525-2.875 0.875l-0.75 0.225v0.425c0.125-0.025 0.25-0.05 0.425-0.05 1.025 0 1.225 0.2 1.225 1.45v12.75c0 0.85 2.1 1.65 4.125 1.65 3.3 0 5.85-2.55 5.85-6.25 0-3.1-1.825-5.5-4.5-5.5-1.525 0-2.85 0.825-3.375 2.1v-7.625zm0 9.075c0-1.05 1.15-1.975 2.475-1.975 0.9 0 1.7 0.425 2.225 1.175 0.625 0.875 0.975 2.325 0.975 3.825 0 1.45-0.325 2.55-0.925 3.3-0.55 0.7-1.35 1.075-2.325 1.075-1.3 0-2.425-0.5-2.425-1.3v-6.1z"/>
<path d="m-173.2 138.5h-0.15c-1.15 0-1.425-0.275-1.425-1.425v-8.575h-3.95v0.425c1.5 0.1 1.85 0.3 1.85 1.625v5.775c0 0.875-0.175 1.1-0.575 1.45-0.625 0.55-1.375 0.775-2.1 0.775-0.975 0-1.775-0.825-1.775-1.975v-8.075h-3.65v0.35c1.2 0.075 1.55 0.425 1.55 1.675v6.275c0 1.925 1.125 3.2 3.05 3.2 0.925 0 2.35-0.475 3.575-2.15h0.05v2.05l0.125 0.075c1.25-0.5 2.15-0.775 3.425-1.125v-0.35z"/>
<path d="m-166.1 137.8c-0.55 0.65-0.95 0.875-1.5 0.875-0.925 0-1.3-0.65-1.3-2.25v-7.15h2.525v-0.8h-2.525v-2.9c0-0.25-0.05-0.325-0.175-0.325-0.15 0.25-0.35 0.475-0.5 0.7-0.95 1.375-1.775 2.3-2.425 2.675-0.275 0.175-0.425 0.325-0.425 0.475 0 0.075 0.025 0.125 0.1 0.175h1.325v7.525c0 2.1 0.75 3.175 2.2 3.175 1.25 0 2.2-0.6 3.025-1.9l-0.325-0.275z"/>
<path d="m-159.1 137.8c-0.55 0.65-0.95 0.875-1.5 0.875-0.925 0-1.3-0.65-1.3-2.25v-7.15h2.525v-0.8h-2.525v-2.9c0-0.25-0.05-0.325-0.175-0.325-0.15 0.25-0.35 0.475-0.5 0.7-0.95 1.375-1.775 2.3-2.425 2.675-0.275 0.175-0.425 0.325-0.425 0.475 0 0.075 0.025 0.125 0.1 0.175h1.325v7.525c0 2.1 0.75 3.175 2.2 3.175 1.25 0 2.2-0.6 3.025-1.9l-0.325-0.275z"/>
<path d="m-147.2 134c0-3.45-2.35-5.725-5.4-5.725-3.375 0-5.625 2.325-5.625 5.8s2.375 5.95 5.4 5.95c3.375 0 5.625-2.55 5.625-6.025zm-2.25 0.675c0 2.9-1.1 4.65-2.95 4.65-0.9 0-1.7-0.45-2.25-1.25-0.925-1.35-1.325-3.15-1.325-5.125 0-2.5 1.175-3.975 2.9-3.975 1.075 0 1.775 0.5 2.375 1.25 0.8 1.025 1.25 2.75 1.25 4.45z"/>
<path d="m-134.3 139.7v-0.375c-1.225-0.125-1.525-0.4-1.525-1.75v-5.525c0-2.475-1.05-3.85-2.95-3.85-1.15 0-2.3 0.55-3.6 2.025h-0.025v-1.95l-0.2-0.075c-1.225 0.45-2.05 0.725-3.425 1.125v0.425c0.175-0.075 0.45-0.1 0.725-0.1 0.7 0 0.875 0.4 0.875 1.625v6.075c0 1.475-0.275 1.875-1.55 1.975v0.375h5.275v-0.375c-1.275-0.1-1.625-0.45-1.625-1.425v-6.9c1.15-1.125 1.75-1.425 2.575-1.425 1.225 0 1.825 0.75 1.825 2.525v4.975c0 1.65-0.3 2.15-1.55 2.25l-0.025 0.375h5.2z"/>
<path d="m-117.7 135.8c-1.2 1.75-2.1 2.35-3.525 2.35-2.3 0-3.875-2-3.875-4.875 0-2.6 1.375-4.35 3.4-4.35 0.9 0 1.225 0.275 1.475 1.2l0.15 0.55c0.2 0.725 0.65 1.15 1.2 1.15 0.65 0 1.175-0.475 1.175-1.05 0-1.4-1.75-2.575-3.85-2.575-1.175 0-2.375 0.45-3.375 1.275-1.35 1.125-2.1 2.85-2.1 4.925 0 3.225 1.975 5.55 4.75 5.55 1.075 0 2.025-0.35 2.875-1.05 0.75-0.6 1.25-1.325 2.05-2.875l-0.35-0.225z"/>
<path d="m-104.8 134c0-3.45-2.35-5.725-5.4-5.725-3.375 0-5.625 2.325-5.625 5.8s2.375 5.95 5.4 5.95c3.375 0 5.625-2.55 5.625-6.025zm-2.25 0.675c0 2.9-1.1 4.65-2.95 4.65-0.9 0-1.7-0.45-2.25-1.25-0.925-1.35-1.325-3.15-1.325-5.125 0-2.5 1.175-3.975 2.9-3.975 1.075 0 1.775 0.5 2.375 1.25 0.8 1.025 1.25 2.75 1.25 4.45z"/>
<path d="m-97.65 139.7v-0.375c-1.6-0.1-1.875-0.425-1.875-1.8v-14.8l-0.125-0.1c-1.3 0.425-2.225 0.675-3.95 1.1v0.4c0.4-0.05 0.725-0.05 0.925-0.05 0.8 0 1.05 0.4 1.05 1.6v11.72c0 1.375-0.35 1.8-1.925 1.925v0.375h5.9z"/>
<path d="m-85.39 134c0-3.45-2.35-5.725-5.4-5.725-3.375 0-5.625 2.325-5.625 5.8s2.375 5.95 5.4 5.95c3.375 0 5.625-2.55 5.625-6.025zm-2.25 0.675c0 2.9-1.1 4.65-2.95 4.65-0.9 0-1.7-0.45-2.25-1.25-0.925-1.35-1.325-3.15-1.325-5.125 0-2.5 1.175-3.975 2.9-3.975 1.075 0 1.775 0.5 2.375 1.25 0.8 1.025 1.25 2.75 1.25 4.45z"/>
<path d="m-80.64 128.3-0.125-0.05c-1.325 0.525-2.225 0.875-3.7 1.35v0.4c0.35-0.075 0.575-0.1 0.875-0.1 0.625 0 0.85 0.4 0.85 1.5v6.25c0 1.25-0.175 1.425-1.775 1.725v0.375h6v-0.375c-1.7-0.075-2.125-0.45-2.125-1.875v-5.625c0-0.8 1.05-2.05 1.75-2.05 0.15 0 0.375 0.125 0.65 0.375 0.4 0.375 0.675 0.5 1 0.5 0.6 0 0.975-0.425 0.975-1.125 0-0.825-0.525-1.325-1.375-1.325-1.05 0-1.75 0.55-3 2.35v-2.3z"/>
<path d="m-75.56 123.2c3.625 2.85 4.25 5.725 4.25 10.4 0 4.85-0.7 7.2-4.25 10.12l0.225 0.4c3.975-2.425 6.175-5.975 6.175-10.6 0-4.25-2.275-8.425-6.1-10.72l-0.3 0.4z"/>
</g>
<g transform="translate(0,-12)">
<g transform="matrix(.3579 0 0 .3579 -351.1 211.9)">
<text font-size="15px" fill="#000000" y="342.25021" style="letter-spacing:0px;word-spacing:0px" font-family="sans-serif" line-height="125%" x="381.66089" xml:space="preserve"><tspan y="342.25021" x="381.66089"/></text>
<text font-size="7.5px" fill="#000000" y="355.17471" style="letter-spacing:0px;word-spacing:0px" font-family="sans-serif" line-height="125%" x="616.8125" xml:space="preserve"><tspan y="355.17471" x="616.8125"/></text>
<g transform="matrix(.5182 0 0 .5182 -742.7 48.43)">
<path stroke="#000" stroke-linecap="round" fill="#3e4c71" stroke-width="0.4" d="m502.5 287.9c-0.8302-0.1552 0.0657-0.6738 0.2308-1.039 2.247-1.532 4.519-2.999 8.437-0.1531 0.1922 0.4088 1.604 0.9919 0.3327 1.192v7.375h-9z" stroke-linejoin="round"/>
<path stroke-width="0.4" stroke="#000" d="m502.5 287.8c3.745-1.865 6.502-1.112 9.082 0.1105" fill="none"/>
<g>
<path stroke="#000" stroke-linecap="round" fill="#f5f5d1" stroke-width=".1" d="m503 288.4c1.852-1.16 3.306-1.088 4.75-0.9844v6.687l-4.75 0.4688z" stroke-linejoin="round"/>
<path stroke="#000" stroke-linecap="round" fill="#f5f5d1" stroke-width=".1" d="m508.8 287.6c0.8367 0.1859 1.748 0.2235 2.391 0.7969v5.406l-2.422 0.2344z" stroke-linejoin="round"/>
<path d="m466.2 299.9 54.33-8.045 0.0371 7.251-54.32 6.77z" fill="#1c3456"/>
<path d="m520.5 291.8 24.2 14.59 0.0808 4.825-24.24-12.17z"/>
<path d="m521.8 297.4 26.68 15.14-0.0442 3.137-26.6-13.66z" fill="#000002"/>
<path d="m523.4 301.3 29.2 15.71-0.3536 111.7-28.2 10.61z"/>
<path d="m461.7 305.8 60.16-8.466 0.0322 4.62-60.24 8.088z" fill="#1a2f4b"/>
<path d="m457.3 310.3 66.08-8.996 0.6509 138-67.43-6.91z" fill="#30527d"/>
<path stroke="#000" stroke-linecap="round" fill="#2f4f78" stroke-width="0.4" d="m490.9 318.5 26.34-2.812v123.8l-26.34-2.5z" stroke-linejoin="round"/>
<path stroke="#000" stroke-linecap="round" fill="#2f4f78" stroke-width="0.4" d="m465.2 321 22.38-2.188v117.3l-22.38-2.188z" stroke-linejoin="round"/>
<path d="m452.7 434.1 72.91 8.531v4.066l-72.91-8.927z" fill="#11161c"/>
<path d="m555.9 429.7-30.26 12.93v4.066l30.26-13.31z" fill="#11161c"/>
<path d="m456.9 432.1 67.01 6.922 1.648 3.692-72.89-8.673z" fill="#172736"/>
<path d="m551.9 428.6-27.99 10.43 1.648 3.692 30.28-12.9z" fill="#020202"/>
<path stroke="#000" stroke-linecap="round" fill="#58759d" stroke-width="0.6" d="m469.4 351.2 16-0.9281v22.55l-16 0.7071z" stroke-linejoin="round"/>
<path d="m470.8 353.2 13.08-0.9281v18.61l-13.08 0.2652z" fill="#e3e2db"/>
<path d="m459.9 311.3 57.89-7.226v6.887l-57.89 6.751z"/>
<path d="m527.5 304.9 23.6 13.52v4.552l-23.6-11.38z"/>
</g>
<g stroke="#000" stroke-width="0.6" stroke-linejoin="round" fill="#58759d" stroke-linecap="round">
<path d="m494.7 349.8 17.95-1.149v23.96l-17.95 0.3094z"/>
<path d="m494.7 378.4 17.92-0.149v23.62l-17.92-0.6594z"/>
<path d="m494.8 407.2 17.7 0.726v23.46l-17.7-1.503z"/>
<path d="m469.3 378 16.11 0.0697v22.5l-16.11-0.6906z"/>
<path d="m469.4 405.4 16.02 0.7532v22.28l-16.02-0.8116z"/>
</g>
<g fill="#fdfffe">
<path d="m470.4 324.9 4.419-0.375v9.771l-4.419 0.2812z"/>
<path d="m475.6 324.4 4.419-0.375v9.771l-4.419 0.2812z"/>
<path d="m480.8 324 4.419-0.375v9.771l-4.419 0.2812z"/>
<path d="m470.3 335.6 4.419-0.375v9.771l-4.419 0.2812z"/>
<path d="m475.5 335.1 4.419-0.375v9.771l-4.419 0.2812z"/>
<path d="m480.7 334.7 4.419-0.375v9.771l-4.419 0.2812z"/>
<g transform="matrix(1.134 0 0 1.062 -60.84 -22.66)">
<path d="m490.4 324.9 4.419-0.375v9.771l-4.419 0.2812z"/>
<path d="m495.6 324.4 4.419-0.375v9.771l-4.419 0.2812z"/>
<path d="m500.8 324 4.419-0.375v9.771l-4.419 0.2812z"/>
<path d="m490.3 335.6 4.419-0.375v9.771l-4.419 0.2812z"/>
<path d="m495.5 335.1 4.419-0.375v9.771l-4.419 0.2812z"/>
<path d="m500.7 334.7 4.419-0.375v9.771l-4.419 0.2812z"/>
</g>
<g transform="matrix(.4555 .2758 0 .9724 303.3 -129.2)">
<path d="m490.4 324.9 4.419-0.375v9.771l-4.419 0.2812z"/>
<path d="m495.6 324.4 4.419-0.375v9.771l-4.419 0.2812z"/>
<path d="m500.8 324 4.419-0.375v9.771l-4.419 0.2812z"/>
<path d="m490.3 335.6 4.419-0.375v9.771l-4.419 0.2812z"/>
<path d="m495.5 335.1 4.419-0.375v9.771l-4.419 0.2812z"/>
<path d="m500.7 334.7 4.419-0.375v9.771l-4.419 0.2812z"/>
</g>
<g transform="matrix(.4555 .2743 0 .9670 315.3 -122.1)">
<path d="m490.4 324.9 4.419-0.375v9.771l-4.419 0.2812z"/>
<path d="m495.6 324.4 4.419-0.375v9.771l-4.419 0.2812z"/>
<path d="m500.8 324 4.419-0.375v9.771l-4.419 0.2812z"/>
<path d="m490.3 335.6 4.419-0.375v9.771l-4.419 0.2812z"/>
<path d="m495.5 335.1 4.419-0.375v9.771l-4.419 0.2812z"/>
<path d="m500.7 334.7 4.419-0.375v9.771l-4.419 0.2812z"/>
</g>
</g>
<g>
<g fill="#f6f8f6" transform="matrix(.4546 -.03020 0 .7666 298.9 109.4)">
<g transform="matrix(.3083 .1053 0 .4039 321.8 86.75)" fill="#f6f8f6" font-family="sans-serif">
<text xml:space="preserve" font-size="15px" y="329.69907" style="letter-spacing:0px;word-spacing:0px" line-height="125%" x="608.11182"><tspan y="329.69907" x="608.11182">POLICE</tspan></text>
<text xml:space="preserve" transform="scale(1.223 .8179)" font-size="7.985px" y="396.01776" style="text-align:center;letter-spacing:0px;text-anchor:middle;word-spacing:0px" line-height="82.99999833%" x="562.06213"><tspan y="396.01776" x="562.06213">PUBLIC</tspan><tspan y="402.64517" x="562.06213">CALL</tspan></text>
<text xml:space="preserve" font-size="15px" y="329.69907" style="letter-spacing:0px;word-spacing:0px" line-height="125%" x="712.58691"><tspan y="329.69907" font-size="13.75px" fill="#f6f8f6" x="712.58691">BOX</tspan></text>
</g>
</g>
<g transform="matrix(.2949 -.03885 0 .2949 287.7 241.9)" fill="#f6f8f6" font-family="sans-serif">
<text xml:space="preserve" font-size="15px" y="329.69907" style="letter-spacing:0px;word-spacing:0px" line-height="125%" x="608.11182"><tspan y="329.69907" x="608.11182">POLICE</tspan></text>
<text xml:space="preserve" transform="scale(1.223 .8179)" font-size="7.985px" y="396.01776" style="text-align:center;letter-spacing:0px;text-anchor:middle;word-spacing:0px" line-height="82.99999833%" x="562.06213"><tspan y="396.01776" x="562.06213">PUBLIC</tspan><tspan y="402.64517" x="562.06213">CALL</tspan></text>
<text xml:space="preserve" font-size="15px" y="329.69907" style="letter-spacing:0px;word-spacing:0px" line-height="125%" x="712.58691"><tspan y="329.69907" font-size="16.95px" fill="#f6f8f6" x="712.58691">BOX</tspan></text>
</g>
<ellipse cx="492.6" ry="1.149" fill="#a8ac9c" cy="375.8" rx=".9060"/>
</g>
</g>
</g>
<g fill="#4d4d4d">
<path d="m-491.7 299.5-0.175-4.25h-14.05l-0.175 4.25h0.6c0.5-2.75 1.175-3.2 3.825-3.2h1.5v12.42c0 2.2-0.275 2.475-2.35 2.6v0.475h7.3v-0.475c-2.05-0.1-2.4-0.4-2.4-2.3v-12.72h1.475c2.65 0 3.3 0.45 3.85 3.2h0.6z"/>
<path d="m-486.9 296c0-0.7-0.55-1.275-1.275-1.275-0.7 0-1.275 0.575-1.275 1.275 0 0.725 0.55 1.275 1.25 1.275 0.75 0 1.3-0.55 1.3-1.275zm1.825 15.8v-0.375c-1.65-0.125-1.85-0.4-1.85-2.25v-8.775l-0.1-0.1-3.875 1.375v0.4c0.45-0.125 0.825-0.125 1.05-0.125 0.625 0 0.825 0.4 0.825 1.575v5.675c0 1.9-0.25 2.125-1.975 2.225v0.375h5.925z"/>
<path d="m-465.1 311.8v-0.375l-0.65-0.05c-0.75-0.05-1.075-0.375-1.075-1.5v-5.075c0-2.95-0.875-4.5-2.9-4.5-1.45 0-2.725 0.65-4.075 2.1-0.45-1.425-1.3-2.1-2.65-2.1-1.125 0-2.175 0.225-3.825 1.925h-0.05v-1.85l-0.2-0.075c-1.275 0.475-2.1 0.75-3.475 1.125v0.425c0.325-0.075 0.525-0.1 0.8-0.1 0.65 0 0.875 0.425 0.875 1.65v6.2c0 1.45-0.35 1.8-1.75 1.825v0.375h5.55v-0.375c-1.325-0.05-1.7-0.3-1.7-1.375v-6.95c0-0.05 0.15-0.225 0.325-0.425 0.5-0.6 1.725-1.075 2.65-1.075 1.075 0 1.625 1.05 1.625 2.775v5.275c0 1.525-0.275 1.675-1.7 1.775v0.375h5.6v-0.375c-1.425-0.025-1.8-0.375-1.8-2v-6.3c0.75-1.075 1.5-1.525 2.675-1.525 1.425 0 1.925 0.825 1.925 2.8v5.15c0 1.45-0.225 1.725-1.625 1.875v0.375h5.45z"/>
<path d="m-454.9 307.7c-1.225 1.85-2.175 2.625-3.85 2.625-1.15 0-2.075-0.45-2.775-1.375-0.9-1.2-1.025-2.175-1.15-4.075h7.7c-0.1-1.35-0.35-2.15-0.85-2.85-0.8-1.125-1.925-1.725-3.475-1.725-3.15 0-5.175 2.55-5.175 6.075 0 3.45 1.8 5.675 4.75 5.675 2.5 0 4.25-1.45 5.225-4.175l-0.4-0.175zm-7.725-3.625c0.275-1.875 1.25-2.875 2.65-2.875 1.65 0 2.175 0.85 2.45 2.875h-5.1z"/>
<path d="m-447.6 311.8v-0.375c-1.6-0.1-1.875-0.425-1.875-1.8v-14.8l-0.125-0.1c-1.3 0.425-2.225 0.675-3.95 1.1v0.4c0.4-0.05 0.725-0.05 0.925-0.05 0.8 0 1.05 0.4 1.05 1.6v11.72c0 1.375-0.35 1.8-1.925 1.925v0.375h5.9z"/>
<path d="m-442.6 296c0-0.7-0.55-1.275-1.275-1.275-0.7 0-1.275 0.575-1.275 1.275 0 0.725 0.55 1.275 1.25 1.275 0.75 0 1.3-0.55 1.3-1.275zm1.825 15.8v-0.375c-1.65-0.125-1.85-0.4-1.85-2.25v-8.775l-0.1-0.1-3.875 1.375v0.4c0.45-0.125 0.825-0.125 1.05-0.125 0.625 0 0.825 0.4 0.825 1.575v5.675c0 1.9-0.25 2.125-1.975 2.225v0.375h5.925z"/>
<path d="m-428 311.8v-0.375c-1.225-0.125-1.525-0.4-1.525-1.75v-5.525c0-2.475-1.05-3.85-2.95-3.85-1.15 0-2.3 0.55-3.6 2.025h-0.025v-1.95l-0.2-0.075c-1.225 0.45-2.05 0.725-3.425 1.125v0.425c0.175-0.075 0.45-0.1 0.725-0.1 0.7 0 0.875 0.4 0.875 1.625v6.075c0 1.475-0.275 1.875-1.55 1.975v0.375h5.275v-0.375c-1.275-0.1-1.625-0.45-1.625-1.425v-6.9c1.15-1.125 1.75-1.425 2.575-1.425 1.225 0 1.825 0.75 1.825 2.525v4.975c0 1.65-0.3 2.15-1.55 2.25l-0.025 0.375h5.2z"/>
<path d="m-417.4 307.7c-1.225 1.85-2.175 2.625-3.85 2.625-1.15 0-2.075-0.45-2.775-1.375-0.9-1.2-1.025-2.175-1.15-4.075h7.7c-0.1-1.35-0.35-2.15-0.85-2.85-0.8-1.125-1.925-1.725-3.475-1.725-3.15 0-5.175 2.55-5.175 6.075 0 3.45 1.8 5.675 4.75 5.675 2.5 0 4.25-1.45 5.225-4.175l-0.4-0.175zm-7.725-3.625c0.275-1.875 1.25-2.875 2.65-2.875 1.65 0 2.175 0.85 2.45 2.875h-5.1z"/>
<path d="m-397.9 301.7v-1.375h-2.4l0.75-5.05h-1.45l-0.75 5.05h-3.325l0.775-5.05h-1.45l-0.775 5.05h-2.925v1.375h2.725l-0.525 3.35h-2.875v1.375h2.65l-0.825 5.4h1.45l0.825-5.4h3.35l-0.775 5.4h1.45l0.775-5.4h2.7v-1.375h-2.475l0.5-3.35h2.6zm-4.05 0-0.5 3.35h-3.35l0.525-3.35h3.325z"/>
<path d="m-387.9 311.8v-0.375c-1.875 0-2.375-0.45-2.375-1.525v-14.92l-0.225-0.075-4.475 2.275v0.35l0.675-0.25c0.45-0.175 0.875-0.3 1.125-0.3 0.525 0 0.75 0.375 0.75 1.225v11.22c0 1.375-0.525 1.9-2.375 2v0.375h6.9z"/>
</g>
</g>
<g transform="translate(0 .3421)">
<g transform="matrix(.3579 0 0 .3579 -351.1 373.2)">
<text xml:space="preserve" font-size="15px" fill="#000000" y="342.25021" style="letter-spacing:0px;word-spacing:0px" font-family="sans-serif" line-height="125%" x="381.66089"><tspan y="342.25021" x="381.66089"/></text>
<text xml:space="preserve" font-size="7.5px" fill="#000000" y="355.17471" style="letter-spacing:0px;word-spacing:0px" font-family="sans-serif" line-height="125%" x="616.8125"><tspan y="355.17471" x="616.8125"/></text>
<g transform="matrix(.5182 0 0 .5182 -742.7 48.43)">
<path stroke="#000" stroke-linecap="round" fill="#3e4c71" stroke-width="0.4" d="m502.5 287.9c-0.8302-0.1552 0.0657-0.6738 0.2308-1.039 2.247-1.532 4.519-2.999 8.437-0.1531 0.1922 0.4088 1.604 0.9919 0.3327 1.192v7.375h-9z" stroke-linejoin="round"/>
<path stroke-width="0.4" stroke="#000" d="m502.5 287.8c3.745-1.865 6.502-1.112 9.082 0.1105" fill="none"/>
<g>
<path stroke="#000" stroke-linecap="round" fill="#f5f5d1" stroke-width=".1" d="m503 288.4c1.852-1.16 3.306-1.088 4.75-0.9844v6.687l-4.75 0.4688z" stroke-linejoin="round"/>
<path stroke="#000" stroke-linecap="round" fill="#f5f5d1" stroke-width=".1" d="m508.8 287.6c0.8367 0.1859 1.748 0.2235 2.391 0.7969v5.406l-2.422 0.2344z" stroke-linejoin="round"/>
<path d="m466.2 299.9 54.33-8.045 0.0371 7.251-54.32 6.77z" fill="#1c3456"/>
<path d="m520.5 291.8 24.2 14.59 0.0808 4.825-24.24-12.17z"/>
<path d="m521.8 297.4 26.68 15.14-0.0442 3.137-26.6-13.66z" fill="#000002"/>
<path d="m523.4 301.3 29.2 15.71-0.3536 111.7-28.2 10.61z"/>
<path d="m461.7 305.8 60.16-8.466 0.0322 4.62-60.24 8.088z" fill="#1a2f4b"/>
<path d="m457.3 310.3 66.08-8.996 0.6509 138-67.43-6.91z" fill="#30527d"/>
<path stroke="#000" stroke-linecap="round" fill="#2f4f78" stroke-width="0.4" d="m490.9 318.5 26.34-2.812v123.8l-26.34-2.5z" stroke-linejoin="round"/>
<path stroke="#000" stroke-linecap="round" fill="#2f4f78" stroke-width="0.4" d="m465.2 321 22.38-2.188v117.3l-22.38-2.188z" stroke-linejoin="round"/>
<path d="m452.7 434.1 72.91 8.531v4.066l-72.91-8.927z" fill="#11161c"/>
<path d="m555.9 429.7-30.26 12.93v4.066l30.26-13.31z" fill="#11161c"/>
<path d="m456.9 432.1 67.01 6.922 1.648 3.692-72.89-8.673z" fill="#172736"/>
<path d="m551.9 428.6-27.99 10.43 1.648 3.692 30.28-12.9z" fill="#020202"/>
<path stroke="#000" stroke-linecap="round" fill="#58759d" stroke-width="0.6" d="m469.4 351.2 16-0.9281v22.55l-16 0.7071z" stroke-linejoin="round"/>
<path d="m470.8 353.2 13.08-0.9281v18.61l-13.08 0.2652z" fill="#e3e2db"/>
<path d="m459.9 311.3 57.89-7.226v6.887l-57.89 6.751z"/>
<path d="m527.5 304.9 23.6 13.52v4.552l-23.6-11.38z"/>
</g>
<g stroke="#000" stroke-width="0.6" stroke-linejoin="round" fill="#58759d" stroke-linecap="round">
<path d="m494.7 349.8 17.95-1.149v23.96l-17.95 0.3094z"/>
<path d="m494.7 378.4 17.92-0.149v23.62l-17.92-0.6594z"/>
<path d="m494.8 407.2 17.7 0.726v23.46l-17.7-1.503z"/>
<path d="m469.3 378 16.11 0.0697v22.5l-16.11-0.6906z"/>
<path d="m469.4 405.4 16.02 0.7532v22.28l-16.02-0.8116z"/>
</g>
<g fill="#fdfffe">
<path d="m470.4 324.9 4.419-0.375v9.771l-4.419 0.2812z"/>
<path d="m475.6 324.4 4.419-0.375v9.771l-4.419 0.2812z"/>
<path d="m480.8 324 4.419-0.375v9.771l-4.419 0.2812z"/>
<path d="m470.3 335.6 4.419-0.375v9.771l-4.419 0.2812z"/>
<path d="m475.5 335.1 4.419-0.375v9.771l-4.419 0.2812z"/>
<path d="m480.7 334.7 4.419-0.375v9.771l-4.419 0.2812z"/>
<g transform="matrix(1.134 0 0 1.062 -60.84 -22.66)">
<path d="m490.4 324.9 4.419-0.375v9.771l-4.419 0.2812z"/>
<path d="m495.6 324.4 4.419-0.375v9.771l-4.419 0.2812z"/>
<path d="m500.8 324 4.419-0.375v9.771l-4.419 0.2812z"/>
<path d="m490.3 335.6 4.419-0.375v9.771l-4.419 0.2812z"/>
<path d="m495.5 335.1 4.419-0.375v9.771l-4.419 0.2812z"/>
<path d="m500.7 334.7 4.419-0.375v9.771l-4.419 0.2812z"/>
</g>
<g transform="matrix(.4555 .2758 0 .9724 303.3 -129.2)">
<path d="m490.4 324.9 4.419-0.375v9.771l-4.419 0.2812z"/>
<path d="m495.6 324.4 4.419-0.375v9.771l-4.419 0.2812z"/>
<path d="m500.8 324 4.419-0.375v9.771l-4.419 0.2812z"/>
<path d="m490.3 335.6 4.419-0.375v9.771l-4.419 0.2812z"/>
<path d="m495.5 335.1 4.419-0.375v9.771l-4.419 0.2812z"/>
<path d="m500.7 334.7 4.419-0.375v9.771l-4.419 0.2812z"/>
</g>
<g transform="matrix(.4555 .2743 0 .9670 315.3 -122.1)">
<path d="m490.4 324.9 4.419-0.375v9.771l-4.419 0.2812z"/>
<path d="m495.6 324.4 4.419-0.375v9.771l-4.419 0.2812z"/>
<path d="m500.8 324 4.419-0.375v9.771l-4.419 0.2812z"/>
<path d="m490.3 335.6 4.419-0.375v9.771l-4.419 0.2812z"/>
<path d="m495.5 335.1 4.419-0.375v9.771l-4.419 0.2812z"/>
<path d="m500.7 334.7 4.419-0.375v9.771l-4.419 0.2812z"/>
</g>
</g>
<g>
<g fill="#f6f8f6" transform="matrix(.4546 -.03020 0 .7666 298.9 109.4)">
<g transform="matrix(.3083 .1053 0 .4039 321.8 86.75)" fill="#f6f8f6" font-family="sans-serif">
<text font-size="15px" y="329.69907" style="letter-spacing:0px;word-spacing:0px" line-height="125%" x="608.11182" xml:space="preserve"><tspan y="329.69907" x="608.11182">POLICE</tspan></text>
<text transform="scale(1.223 .8179)" font-size="7.985px" y="396.01776" style="text-align:center;letter-spacing:0px;text-anchor:middle;word-spacing:0px" line-height="82.99999833%" x="562.06213" xml:space="preserve"><tspan y="396.01776" x="562.06213">PUBLIC</tspan><tspan y="402.64517" x="562.06213">CALL</tspan></text>
<text font-size="15px" y="329.69907" style="letter-spacing:0px;word-spacing:0px" line-height="125%" x="712.58691" xml:space="preserve"><tspan y="329.69907" font-size="13.75px" fill="#f6f8f6" x="712.58691">BOX</tspan></text>
</g>
</g>
<g transform="matrix(.2949 -.03885 0 .2949 287.7 241.9)" fill="#f6f8f6" font-family="sans-serif">
<text font-size="15px" y="329.69907" style="letter-spacing:0px;word-spacing:0px" line-height="125%" x="608.11182" xml:space="preserve"><tspan y="329.69907" x="608.11182">POLICE</tspan></text>
<text transform="scale(1.223 .8179)" font-size="7.985px" y="396.01776" style="text-align:center;letter-spacing:0px;text-anchor:middle;word-spacing:0px" line-height="82.99999833%" x="562.06213" xml:space="preserve"><tspan y="396.01776" x="562.06213">PUBLIC</tspan><tspan y="402.64517" x="562.06213">CALL</tspan></text>
<text font-size="15px" y="329.69907" style="letter-spacing:0px;word-spacing:0px" line-height="125%" x="712.58691" xml:space="preserve"><tspan y="329.69907" font-size="16.95px" fill="#f6f8f6" x="712.58691">BOX</tspan></text>
</g>
<ellipse cx="492.6" ry="1.149" fill="#a8ac9c" cy="375.8" rx=".9060"/>
</g>
</g>
</g>
<g fill="#4d4d4d">
<path d="m-491.7 460.9-0.175-4.25h-14.05l-0.175 4.25h0.6c0.5-2.75 1.175-3.2 3.825-3.2h1.5v12.42c0 2.2-0.275 2.475-2.35 2.6v0.475h7.3v-0.475c-2.05-0.1-2.4-0.4-2.4-2.3v-12.72h1.475c2.65 0 3.3 0.45 3.85 3.2h0.6z"/>
<path d="m-486.9 457.4c0-0.7-0.55-1.275-1.275-1.275-0.7 0-1.275 0.575-1.275 1.275 0 0.725 0.55 1.275 1.25 1.275 0.75 0 1.3-0.55 1.3-1.275zm1.825 15.8v-0.375c-1.65-0.125-1.85-0.4-1.85-2.25v-8.775l-0.1-0.1-3.875 1.375v0.4c0.45-0.125 0.825-0.125 1.05-0.125 0.625 0 0.825 0.4 0.825 1.575v5.675c0 1.9-0.25 2.125-1.975 2.225v0.375h5.925z"/>
<path d="m-465.1 473.2v-0.375l-0.65-0.05c-0.75-0.05-1.075-0.375-1.075-1.5v-5.075c0-2.95-0.875-4.5-2.9-4.5-1.45 0-2.725 0.65-4.075 2.1-0.45-1.425-1.3-2.1-2.65-2.1-1.125 0-2.175 0.225-3.825 1.925h-0.05v-1.85l-0.2-0.075c-1.275 0.475-2.1 0.75-3.475 1.125v0.425c0.325-0.075 0.525-0.1 0.8-0.1 0.65 0 0.875 0.425 0.875 1.65v6.2c0 1.45-0.35 1.8-1.75 1.825v0.375h5.55v-0.375c-1.325-0.05-1.7-0.3-1.7-1.375v-6.95c0-0.05 0.15-0.225 0.325-0.425 0.5-0.6 1.725-1.075 2.65-1.075 1.075 0 1.625 1.05 1.625 2.775v5.275c0 1.525-0.275 1.675-1.7 1.775v0.375h5.6v-0.375c-1.425-0.025-1.8-0.375-1.8-2v-6.3c0.75-1.075 1.5-1.525 2.675-1.525 1.425 0 1.925 0.825 1.925 2.8v5.15c0 1.45-0.225 1.725-1.625 1.875v0.375h5.45z"/>
<path d="m-454.9 469.1c-1.225 1.85-2.175 2.625-3.85 2.625-1.15 0-2.075-0.45-2.775-1.375-0.9-1.2-1.025-2.175-1.15-4.075h7.7c-0.1-1.35-0.35-2.15-0.85-2.85-0.8-1.125-1.925-1.725-3.475-1.725-3.15 0-5.175 2.55-5.175 6.075 0 3.45 1.8 5.675 4.75 5.675 2.5 0 4.25-1.45 5.225-4.175l-0.4-0.175zm-7.725-3.625c0.275-1.875 1.25-2.875 2.65-2.875 1.65 0 2.175 0.85 2.45 2.875h-5.1z"/>
<path d="m-447.6 473.2v-0.375c-1.6-0.1-1.875-0.425-1.875-1.8v-14.8l-0.125-0.1c-1.3 0.425-2.225 0.675-3.95 1.1v0.4c0.4-0.05 0.725-0.05 0.925-0.05 0.8 0 1.05 0.4 1.05 1.6v11.72c0 1.375-0.35 1.8-1.925 1.925v0.375h5.9z"/>
<path d="m-442.6 457.4c0-0.7-0.55-1.275-1.275-1.275-0.7 0-1.275 0.575-1.275 1.275 0 0.725 0.55 1.275 1.25 1.275 0.75 0 1.3-0.55 1.3-1.275zm1.825 15.8v-0.375c-1.65-0.125-1.85-0.4-1.85-2.25v-8.775l-0.1-0.1-3.875 1.375v0.4c0.45-0.125 0.825-0.125 1.05-0.125 0.625 0 0.825 0.4 0.825 1.575v5.675c0 1.9-0.25 2.125-1.975 2.225v0.375h5.925z"/>
<path d="m-428 473.2v-0.375c-1.225-0.125-1.525-0.4-1.525-1.75v-5.525c0-2.475-1.05-3.85-2.95-3.85-1.15 0-2.3 0.55-3.6 2.025h-0.025v-1.95l-0.2-0.075c-1.225 0.45-2.05 0.725-3.425 1.125v0.425c0.175-0.075 0.45-0.1 0.725-0.1 0.7 0 0.875 0.4 0.875 1.625v6.075c0 1.475-0.275 1.875-1.55 1.975v0.375h5.275v-0.375c-1.275-0.1-1.625-0.45-1.625-1.425v-6.9c1.15-1.125 1.75-1.425 2.575-1.425 1.225 0 1.825 0.75 1.825 2.525v4.975c0 1.65-0.3 2.15-1.55 2.25l-0.025 0.375h5.2z"/>
<path d="m-417.4 469.1c-1.225 1.85-2.175 2.625-3.85 2.625-1.15 0-2.075-0.45-2.775-1.375-0.9-1.2-1.025-2.175-1.15-4.075h7.7c-0.1-1.35-0.35-2.15-0.85-2.85-0.8-1.125-1.925-1.725-3.475-1.725-3.15 0-5.175 2.55-5.175 6.075 0 3.45 1.8 5.675 4.75 5.675 2.5 0 4.25-1.45 5.225-4.175l-0.4-0.175zm-7.725-3.625c0.275-1.875 1.25-2.875 2.65-2.875 1.65 0 2.175 0.85 2.45 2.875h-5.1z"/>
<path d="m-397.9 463v-1.375h-2.4l0.75-5.05h-1.45l-0.75 5.05h-3.325l0.775-5.05h-1.45l-0.775 5.05h-2.925v1.375h2.725l-0.525 3.35h-2.875v1.375h2.65l-0.825 5.4h1.45l0.825-5.4h3.35l-0.775 5.4h1.45l0.775-5.4h2.7v-1.375h-2.475l0.5-3.35h2.6zm-4.05 0-0.5 3.35h-3.35l0.525-3.35h3.325z"/>
<path d="m-385.9 469.7-0.35-0.15c-0.825 1.4-1.35 1.675-2.4 1.675h-5.85l4.125-4.4c2.225-2.35 3.2-4.225 3.2-6.2 0-2.475-1.8-4.4-4.625-4.4-3.075 0-4.675 2.05-5.2 4.975l0.525 0.125c1-2.45 1.875-3.25 3.675-3.25 2.125 0 3.475 1.25 3.475 3.525 0 2.125-0.9 4.025-3.25 6.5l-4.45 4.725v0.3h9.775l1.35-3.425z"/>
</g>
</g>
</g>
</svg>
