<?xml version="1.0" encoding="UTF-8" standalone="no"?>
<svg xmlns:xlink="http://www.w3.org/1999/xlink" version="1.1" xmlns:rdf="http://www.w3.org/1999/02/22-rdf-syntax-ns#" xmlns="http://www.w3.org/2000/svg" width="152mm" xmlns:dc="http://purl.org/dc/elements/1.1/" viewBox="0 0 538.45227 143.26523" height="40.43mm" xmlns:cc="http://creativecommons.org/ns#">
<defs>
<linearGradient id="c" x2="61.25" y2="22.09" gradientUnits="userSpaceOnUse" gradientTransform="matrix(1 0 0 .8487 -.02723 6.329)" y1="34.15" x1="61.25">
<stop offset="0" stop-color="#76f04c"/>
<stop offset="1" stop-color="#b9f7a2"/>
</linearGradient>
<linearGradient id="d" x2="61.25" y2="22.09" gradientUnits="userSpaceOnUse" y1="34.15" x1="61.25" gradientTransform="matrix(1 0 0 .8487 -.02723 6.329)">
<stop stop-color="#f0c14c" offset="0"/>
<stop stop-color="#f7dea2" offset="1"/>
</linearGradient>
<linearGradient id="b" gradientTransform="matrix(1.223 0 0 .9363 674.1 -103.1)" y2="390.1" gradientUnits="userSpaceOnUse" x2="-234.9" y1="416.2" x1="-234.9" xlink:href="#c"/>
<linearGradient id="a" gradientTransform="matrix(1.223 0 0 .9363 214.1 -103.1)" y2="390.1" gradientUnits="userSpaceOnUse" x2="-234.9" y1="416.2" x1="-234.9" xlink:href="#d"/>
</defs>
<metadata>
<rdf:RDF>
<cc:Work rdf:about="">
<dc:format>image/svg+xml</dc:format>
<dc:type rdf:resource="http://purl.org/dc/dcmitype/StillImage"/>
<dc:title/>
</cc:Work>
</rdf:RDF>
</metadata>
<g transform="translate(304.6 -158.9)">
<g font-family="sans-serif">
<text line-height="125%" xml:space="preserve" y="342.25021" font-size="15px" x="381.66089" style="letter-spacing:0px;word-spacing:0px" fill="#000000"><tspan y="342.25021" x="381.66089"/></text>
<text line-height="125%" xml:space="preserve" y="355.17471" font-size="7.5px" x="616.8125" style="letter-spacing:0px;word-spacing:0px" fill="#000000"><tspan y="355.17471" x="616.8125"/></text>
<text line-height="125%" xml:space="preserve" fill="#808080" y="178.38855" font-size="12.5px" x="-298.41266" font-style="italic" style="letter-spacing:0px;word-spacing:0px"><tspan fill="#808080" y="178.38855" font-size="10px" x="-298.41266">Visitor #1</tspan></text>
</g>
<g transform="translate(51.97 -79.9)">
<g transform="matrix(.5479 0 0 .5479 -212.6 104.2)">
<rect stroke-width=".7427" ry="1.467" stroke-linejoin="round" stroke-linecap="round" width="133.2" x="-139.5" y="261.6" stroke="#a88734" fill="url(#a)" height="25.49"/>
<text line-height="125%" xml:space="preserve" fill="#000000" y="276.97717" font-size="10px" x="-96.720024" style="letter-spacing:0px;word-spacing:0px" font-family="&apos;DejaVu Sans&apos;"><tspan y="276.97717" x="-96.720024">Buy Now!</tspan></text>
</g>
<g stroke="#000" stroke-linecap="round">
<path stroke-linejoin="round" stroke-width=".5065" fill="#fff" d="m-230 253.1 6.964 6.499-3.366 0.2902 1.915 4.236-1.277 0.5803-1.857-4.294-2.379 2.263v-9.575"/>
<g fill="none" stroke-width="0.4" transform="matrix(.8441 0 0 .8441 -67.47 39.97)">
<path d="m-189.7 252.4h-1.461m-2.674 0h-1.428"/>
<path d="m-194.5 250.4 1.096 1.096m1.967 1.967 1.016 1.016"/>
<path d="m-194.5 254.5 1.096-1.096m1.967-1.967 1.016-1.016"/>
<path d="m-192.5 255.2v-1.461m0-2.674v-1.428"/>
</g>
</g>
</g>
<g transform="translate(51.97 -79.9)">
<g transform="matrix(.5479 0 0 .5479 -212.6 128.9)">
<rect stroke-width=".7427" y="261.6" ry="1.467" stroke-linejoin="round" stroke-linecap="round" width="133.2" x="-139.5" stroke="#a88734" fill="url(#a)" height="25.49"/>
<text line-height="125%" xml:space="preserve" fill="#000000" style="letter-spacing:0px;word-spacing:0px" font-size="10px" x="-96.720024" y="276.97717" font-family="&apos;DejaVu Sans&apos;"><tspan y="276.97717" x="-96.720024">Buy Now!</tspan></text>
</g>
<g>
<path stroke-linejoin="round" stroke-linecap="round" stroke-width=".5065" stroke="#000" fill="#fff" d="m-228 277.8 6.964 6.499-3.366 0.2902 1.915 4.236-1.277 0.5803-1.857-4.294-2.379 2.263v-9.575"/>
<g transform="translate(0 .6667)" stroke-width="1.2" stroke="#ff2a2a" fill="none">
<path d="m-229.2 286.7 7.557-7.557"/>
<circle r="5.387" stroke-linejoin="round" stroke-linecap="round" cx="-225.4" cy="283"/>
</g>
</g>
</g>
<g transform="translate(51.97 -79.9)">
<g transform="matrix(.5479 0 0 .5479 -212.6 153.6)">
<rect stroke-width=".7427" ry="1.467" stroke-linejoin="round" stroke-linecap="round" width="133.2" x="-139.5" y="261.6" stroke="#a88734" fill="url(#a)" height="25.49"/>
<text line-height="125%" xml:space="preserve" fill="#000000" y="276.97717" font-size="10px" x="-96.720024" style="letter-spacing:0px;word-spacing:0px" font-family="&apos;DejaVu Sans&apos;"><tspan y="276.97717" x="-96.720024">Buy Now!</tspan></text>
</g>
<g>
<path stroke-linejoin="round" stroke-linecap="round" stroke-width=".5065" stroke="#000" fill="#fff" d="m-228 302.4 6.964 6.499-3.366 0.2902 1.915 4.236-1.277 0.5803-1.857-4.294-2.379 2.263v-9.575"/>
<g transform="translate(0 25.33)" stroke-width="1.2" stroke="#ff2a2a" fill="none">
<path d="m-229.2 286.7 7.557-7.557"/>
<circle r="5.387" stroke-linejoin="round" stroke-linecap="round" cx="-225.4" cy="283"/>
</g>
</g>
</g>
<g transform="translate(51.97 -79.9)">
<g transform="matrix(.5479 0 0 .5479 -212.6 178.2)">
<rect stroke-width=".7427" y="261.6" ry="1.467" stroke-linejoin="round" stroke-linecap="round" width="133.2" x="-139.5" stroke="#a88734" fill="url(#a)" height="25.49"/>
<text line-height="125%" xml:space="preserve" fill="#000000" style="letter-spacing:0px;word-spacing:0px" font-size="10px" x="-96.720024" y="276.97717" font-family="&apos;DejaVu Sans&apos;"><tspan y="276.97717" x="-96.720024">Buy Now!</tspan></text>
</g>
<g>
<path stroke-linejoin="round" stroke-linecap="round" stroke-width=".5065" stroke="#000" fill="#fff" d="m-228 327.1 6.964 6.499-3.366 0.2902 1.915 4.236-1.277 0.5803-1.857-4.294-2.379 2.263v-9.575"/>
<g transform="translate(0 50)" stroke-width="1.2" stroke="#ff2a2a" fill="none">
<path d="m-229.2 286.7 7.557-7.557"/>
<circle r="5.387" stroke-linejoin="round" stroke-linecap="round" cx="-225.4" cy="283"/>
</g>
</g>
</g>
<g font-size="12.5px" font-family="sans-serif" fill="#808080" font-style="italic">
<text line-height="125%" xml:space="preserve" style="letter-spacing:0px;word-spacing:0px" x="-298.41266" y="204.66608"><tspan fill="#808080" x="-298.41266" font-size="10px" y="204.66608">Visitor #2</tspan></text>
<text line-height="125%" xml:space="preserve" y="227.72186" x="-298.41266" style="letter-spacing:0px;word-spacing:0px"><tspan fill="#808080" y="227.72186" font-size="10px" x="-298.41266">Visitor #3</tspan></text>
<text line-height="125%" xml:space="preserve" style="letter-spacing:0px;word-spacing:0px" x="-298.41266" y="252.38855"><tspan fill="#808080" x="-298.41266" font-size="10px" y="252.38855">Visitor #4</tspan></text>
</g>
<g transform="matrix(1.098 0 0 .9805 47.02 -96.69)" stroke-width="1px" stroke="#a88734" fill="none">
<path stroke-width="1.206px" stroke="#a88734" fill="none" d="m-185.7 365c3.888 0 6.416-0.8742 7.582-2.622 1.194-1.748 1.791-5.53 1.791-11.34v-15.12c0-6.343 0.6249-10.96 1.875-13.84 1.25-2.887 3.416-4.879 6.499-5.977-3.083-1.016-5.249-2.968-6.499-5.855s-1.875-7.522-1.875-13.91v-15.12c0-5.773-0.5972-9.534-1.791-11.28-1.167-1.789-3.694-2.683-7.582-2.683"/>
</g>
<text line-height="125%" xml:space="preserve" y="217.76631" font-size="5.629px" x="-120.05649" style="letter-spacing:0px;word-spacing:0px" fill="#000000" font-family="sans-serif"><tspan y="217.76631" font-size="15.48px" x="-120.05649" font-style="italic" font-family="sans-serif">P(    |            ) =          =<tspan font-family="sans-serif" font-style="normal"> 25% of clicks</tspan></tspan></text>
<g stroke-linecap="round" transform="matrix(1.357 0 0 1.357 214.1 -137.6)" stroke="#000">
<path stroke-linejoin="round" stroke-width=".5065" fill="#fff" d="m-230 253.1 6.964 6.499-3.366 0.2902 1.915 4.236-1.277 0.5803-1.857-4.294-2.379 2.263v-9.575"/>
<g fill="none" stroke-width="0.4" transform="matrix(.8441 0 0 .8441 -67.47 39.97)">
<path d="m-189.7 252.4h-1.461m-2.674 0h-1.428"/>
<path d="m-194.5 250.4 1.096 1.096m1.967 1.967 1.016 1.016"/>
<path d="m-194.5 254.5 1.096-1.096m1.967-1.967 1.016-1.016"/>
<path d="m-192.5 255.2v-1.461m0-2.674v-1.428"/>
</g>
</g>
<g transform="matrix(1.126 0 0 1.126 -187.7 -27.2)">
<path fill="#a88734" d="m199.9 226.4c-1.026-1.608-2.444-2.986-4.154-3.849 1.17 1.917 0.7668 4.617-0.9502 6.078-1.81 1.747-5.002 1.666-6.72-0.1736-1.577-1.484-1.886-4.063-0.7687-5.904-1.71 0.8633-3.128 2.241-4.154 3.849 1.797 2.824 4.95 4.939 8.374 4.885 3.434 0.0539 6.567-2.059 8.374-4.885zm-7.85-4.187c-0.2261-0.9892-1.621-0.3804-2.214-0.0621-1.021 0.6238-1.766 1.84-1.585 3.055 0.4993 0.8122 1.244-0.1032 1.073-0.7611 0.2438-1.022 1.261-1.769 2.308-1.718 0.2378-0.0431 0.4261-0.2713 0.4184-0.5138zm9.246 4.187c-0.0807 0.9419-0.8603 1.636-1.392 2.358-2.464 2.84-6.395 4.457-10.14 3.774-3.267-0.5822-6.244-2.686-7.882-5.57-0.4192-0.8797 0.3329-1.695 0.8136-2.36 2.395-3.126 6.481-5.014 10.42-4.363 3.336 0.5338 6.389 2.665 8.056 5.598 0.0768 0.177 0.123 0.3687 0.1227 0.5622z"/>
<path stroke-linejoin="round" stroke-linecap="round" stroke-width=".6105" stroke="#a88734" fill="#fff" d="m188.6 194.1 8.394 7.835-4.057 0.3498 2.308 5.106-1.539 0.6995-2.238-5.176-2.868 2.728v-11.54"/>
<g fill="none">
<g stroke-linecap="round" stroke-width=".4070" stroke="#a88734">
<path d="m191.5 194h-1.487m-2.72 0h-1.453"/>
<path d="m186.6 191.9 1.115 1.115m2.001 2.001 1.034 1.034"/>
<path d="m186.6 196.1 1.115-1.115m2.001-2.001 1.034-1.034"/>
<path d="m188.7 196.8v-1.487m0-2.72v-1.453"/>
</g>
<path stroke-width="1.5" stroke="#000" d="m178 213.3h27"/>
</g>
</g>
<g transform="matrix(.3701 0 0 .3701 -23.27 111.4)">
<rect stroke-width=".7427" ry="1.467" stroke-linejoin="round" stroke-linecap="round" width="133.2" x="-139.5" y="261.6" stroke="#a88734" fill="url(#a)" height="25.49"/>
<text line-height="125%" xml:space="preserve" fill="#000000" y="276.97717" font-size="10px" x="-96.720024" style="letter-spacing:0px;word-spacing:0px" font-family="&apos;DejaVu Sans&apos;"><tspan y="276.97717" x="-96.720024">Buy Now!</tspan></text>
</g>
<text line-height="125%" xml:space="preserve" y="231.92188" font-size="10px" x="145.31142" style="text-anchor:middle;text-align:center;letter-spacing:0px;word-spacing:0px" fill="#000000" font-family="sans-serif"><tspan style="text-anchor:middle;text-align:center" y="231.92188" font-size="10px" x="145.31142" font-style="italic" font-family="sans-serif">(<tspan font-family="sans-serif" font-style="normal">i.e.</tspan> click-through rate of 25%)</tspan></text>
<text line-height="125%" xml:space="preserve" fill="#808080" style="letter-spacing:0px;word-spacing:0px" font-size="12.5px" x="-298.41266" font-style="italic" y="318.38855" font-family="sans-serif"><tspan fill="#808080" x="-298.41266" font-size="10px" y="318.38855">Visitor #1</tspan></text>
<g transform="matrix(.5477 0 0 .5434 -412.6 165.6)">
<rect stroke-width=".7427" y="261.6" ry="1.467" stroke-linejoin="round" stroke-linecap="round" width="133.2" x="320.5" stroke="#52a834" fill="url(#b)" height="25.49"/>
<text line-height="125%" xml:space="preserve" fill="#000000" style="letter-spacing:0px;word-spacing:0px" font-size="10px" x="363.28" y="276.97717" font-family="&apos;DejaVu Sans&apos;"><tspan y="276.97717" x="363.28">Buy Now!</tspan></text>
</g>
<g stroke-linecap="round" transform="translate(51.97 60.1)" stroke="#000">
<path stroke-linejoin="round" stroke-width=".5065" fill="#fff" d="m-230 253.1 6.964 6.499-3.366 0.2902 1.915 4.236-1.277 0.5803-1.857-4.294-2.379 2.263v-9.575"/>
<g fill="none" stroke-width="0.4" transform="matrix(.8441 0 0 .8441 -67.47 39.97)">
<path d="m-189.7 252.4h-1.461m-2.674 0h-1.428"/>
<path d="m-194.5 250.4 1.096 1.096m1.967 1.967 1.016 1.016"/>
<path d="m-194.5 254.5 1.096-1.096m1.967-1.967 1.016-1.016"/>
<path d="m-192.5 255.2v-1.461m0-2.674v-1.428"/>
</g>
</g>
<g transform="matrix(.5477 0 0 .5434 -412.6 190.2)">
<rect stroke-width=".7427" ry="1.467" stroke-linejoin="round" stroke-linecap="round" width="133.2" x="320.5" y="261.6" stroke="#52a834" fill="url(#b)" height="25.49"/>
<text line-height="125%" xml:space="preserve" fill="#000000" y="276.97717" font-size="10px" x="363.28" style="letter-spacing:0px;word-spacing:0px" font-family="&apos;DejaVu Sans&apos;"><tspan y="276.97717" x="363.28">Buy Now!</tspan></text>
</g>
<g transform="translate(51.97 60.1)">
<path stroke-linejoin="round" stroke-linecap="round" stroke-width=".5065" stroke="#000" fill="#fff" d="m-228 277.8 6.964 6.499-3.366 0.2902 1.915 4.236-1.277 0.5803-1.857-4.294-2.379 2.263v-9.575"/>
<g transform="translate(0 .6667)" stroke-width="1.2" stroke="#ff2a2a" fill="none">
<path d="m-229.2 286.7 7.557-7.557"/>
<circle r="5.387" stroke-linejoin="round" stroke-linecap="round" cx="-225.4" cy="283"/>
</g>
</g>
<g transform="translate(.000006197 24.64)">
<g transform="matrix(.5477 0 0 .5434 -412.6 190.2)">
<rect stroke-width=".7427" y="261.6" ry="1.467" stroke-linejoin="round" stroke-linecap="round" width="133.2" x="320.5" stroke="#52a834" fill="url(#b)" height="25.49"/>
<text line-height="125%" xml:space="preserve" fill="#000000" style="letter-spacing:0px;word-spacing:0px" font-size="10px" x="363.28" y="276.97717" font-family="&apos;DejaVu Sans&apos;"><tspan y="276.97717" x="363.28">Buy Now!</tspan></text>
</g>
<g transform="translate(51.97 60.1)">
<path stroke-linejoin="round" stroke-linecap="round" stroke-width=".5065" stroke="#000" fill="#fff" d="m-228 277.8 6.964 6.499-3.366 0.2902 1.915 4.236-1.277 0.5803-1.857-4.294-2.379 2.263v-9.575"/>
<g transform="translate(0 .6667)" stroke-width="1.2" stroke="#ff2a2a" fill="none">
<path d="m-229.2 286.7 7.557-7.557"/>
<circle r="5.387" stroke-linejoin="round" stroke-linecap="round" cx="-225.4" cy="283"/>
</g>
</g>
</g>
<g font-size="12.5px" font-family="sans-serif" fill="#808080" font-style="italic">
<text line-height="125%" xml:space="preserve" y="344.66608" x="-298.41266" style="letter-spacing:0px;word-spacing:0px"><tspan fill="#808080" y="344.66608" font-size="10px" x="-298.41266">Visitor #2</tspan></text>
<text line-height="125%" xml:space="preserve" style="letter-spacing:0px;word-spacing:0px" x="-298.41266" y="367.72186"><tspan fill="#808080" x="-298.41266" font-size="10px" y="367.72186">Visitor #3</tspan></text>
<text line-height="125%" xml:space="preserve" y="392.38855" x="-298.41266" style="letter-spacing:0px;word-spacing:0px"><tspan fill="#808080" y="392.38855" font-size="10px" x="-298.41266">Visitor #4</tspan></text>
</g>
<g transform="matrix(1.098 0 0 .9805 47.02 43.31)" stroke-width="1px" stroke="#52a834" fill="none">
<path stroke-width="1.206px" stroke="#52a834" fill="none" d="m-185.7 365c3.888 0 6.416-0.8742 7.582-2.622 1.194-1.748 1.791-5.53 1.791-11.34v-15.12c0-6.343 0.6249-10.96 1.875-13.84 1.25-2.887 3.416-4.879 6.499-5.977-3.083-1.016-5.249-2.968-6.499-5.855s-1.875-7.522-1.875-13.91v-15.12c0-5.773-0.5972-9.534-1.791-11.28-1.167-1.789-3.694-2.683-7.582-2.683"/>
</g>
<text line-height="125%" xml:space="preserve" style="letter-spacing:0px;word-spacing:0px" font-size="5.629px" x="-120.05649" y="357.76633" fill="#000000" font-family="sans-serif"><tspan x="-120.05649" font-size="15.48px" y="357.76633" font-style="italic" font-family="sans-serif">P(    |            ) =          =<tspan font-family="sans-serif" font-style="normal"> 50% of clicks</tspan></tspan></text>
<g stroke-linecap="round" transform="matrix(1.357 0 0 1.357 214.1 2.375)" stroke="#000">
<path stroke-linejoin="round" stroke-width=".5065" fill="#fff" d="m-230 253.1 6.964 6.499-3.366 0.2902 1.915 4.236-1.277 0.5803-1.857-4.294-2.379 2.263v-9.575"/>
<g fill="none" stroke-width="0.4" transform="matrix(.8441 0 0 .8441 -67.47 39.97)">
<path d="m-189.7 252.4h-1.461m-2.674 0h-1.428"/>
<path d="m-194.5 250.4 1.096 1.096m1.967 1.967 1.016 1.016"/>
<path d="m-194.5 254.5 1.096-1.096m1.967-1.967 1.016-1.016"/>
<path d="m-192.5 255.2v-1.461m0-2.674v-1.428"/>
</g>
</g>
<path fill="#52a834" d="m37.3 367.7c-1.156-1.81-2.751-3.361-4.677-4.333 1.317 2.158 0.8633 5.198-1.07 6.842-2.038 1.967-5.632 1.876-7.566-0.1955-1.775-1.67-2.123-4.574-0.8654-6.647-1.925 0.9719-3.521 2.523-4.677 4.333 2.023 3.179 5.573 5.56 9.427 5.499 3.866 0.0607 7.394-2.319 9.427-5.499zm-8.838-4.714c-0.2546-1.114-1.825-0.4282-2.493-0.0699-1.149 0.7024-1.988 2.071-1.785 3.439 0.5621 0.9144 1.4-0.1161 1.209-0.8569 0.2745-1.15 1.42-1.992 2.598-1.934 0.2677-0.0485 0.4797-0.3054 0.471-0.5785zm10.41 4.714c-0.09085 1.06-0.9685 1.842-1.567 2.655-2.774 3.197-7.199 5.018-11.42 4.249-3.678-0.6554-7.03-3.024-8.874-6.271-0.4719-0.9904 0.3747-1.909 0.9159-2.657 2.697-3.519 7.297-5.645 11.73-4.912 3.755 0.6009 7.192 3 9.07 6.302 0.08646 0.1993 0.1385 0.4151 0.1381 0.6329z"/>
<g stroke="#52a834" stroke-linecap="round">
<path stroke-linejoin="round" stroke-width=".6873" fill="#fff" d="m24.67 331.3 9.45 8.82-4.568 0.3938 2.599 5.749-1.733 0.7875-2.52-5.828-3.229 3.071v-12.99"/>
<g stroke-width=".4582" fill="none">
<path d="m27.89 331.2h-1.674m-3.063 0h-1.635"/>
<path d="m22.37 328.9 1.255 1.255m2.253 2.253 1.164 1.164"/>
<path d="m22.37 333.6 1.255-1.255m2.253-2.253 1.164-1.164"/>
<path d="m24.7 334.4v-1.674m0-3.063v-1.635"/>
</g>
</g>
<path stroke-width="1.689" stroke="#000" fill="none" d="m12.68 352.9h30.4"/>
<g transform="matrix(.3701 0 0 .3672 -193.5 252.2)">
<rect stroke-width=".7427" y="261.6" ry="1.467" stroke-linejoin="round" stroke-linecap="round" width="133.2" x="320.5" stroke="#52a834" fill="url(#b)" height="25.49"/>
<text line-height="125%" xml:space="preserve" fill="#000000" style="letter-spacing:0px;word-spacing:0px" font-size="10px" x="363.28" y="276.97717" font-family="&apos;DejaVu Sans&apos;"><tspan y="276.97717" x="363.28">Buy Now!</tspan></text>
</g>
<text line-height="125%" xml:space="preserve" style="text-anchor:middle;text-align:center;letter-spacing:0px;word-spacing:0px" font-size="10px" x="145.31142" y="371.92188" fill="#000000" font-family="sans-serif"><tspan x="145.31142" style="text-anchor:middle;text-align:center" font-size="10px" y="371.92188" font-style="italic" font-family="sans-serif">(<tspan font-family="sans-serif" font-style="normal">i.e.</tspan> click-through rate of 50%)</tspan></text>
<g transform="translate(.000006197 73.97)">
<g transform="matrix(.5477 0 0 .5434 -412.6 165.6)">
<rect stroke-width=".7427" ry="1.467" stroke-linejoin="round" stroke-linecap="round" width="133.2" x="320.5" y="261.6" stroke="#52a834" fill="url(#b)" height="25.49"/>
<text line-height="125%" xml:space="preserve" fill="#000000" y="276.97717" font-size="10px" x="363.28" style="letter-spacing:0px;word-spacing:0px" font-family="&apos;DejaVu Sans&apos;"><tspan y="276.97717" x="363.28">Buy Now!</tspan></text>
</g>
<g stroke-linecap="round" transform="translate(51.97 60.1)" stroke="#000">
<path stroke-linejoin="round" stroke-width=".5065" fill="#fff" d="m-230 253.1 6.964 6.499-3.366 0.2902 1.915 4.236-1.277 0.5803-1.857-4.294-2.379 2.263v-9.575"/>
<g fill="none" stroke-width="0.4" transform="matrix(.8441 0 0 .8441 -67.47 39.97)">
<path d="m-189.7 252.4h-1.461m-2.674 0h-1.428"/>
<path d="m-194.5 250.4 1.096 1.096m1.967 1.967 1.016 1.016"/>
<path d="m-194.5 254.5 1.096-1.096m1.967-1.967 1.016-1.016"/>
<path d="m-192.5 255.2v-1.461m0-2.674v-1.428"/>
</g>
</g>
</g>
</g>
</svg>
