<?xml version="1.0" encoding="UTF-8" standalone="no"?>
<!DOCTYPE svg  PUBLIC '-//W3C//DTD SVG 1.1//EN'  'http://www.w3.org/Graphics/SVG/1.1/DTD/svg11.dtd'>
<svg height="216pt" xmlns="http://www.w3.org/2000/svg" width="504pt" version="1.1" xmlns:xlink="http://www.w3.org/1999/xlink" viewBox="0 0 504 216">
<defs>
<style type="text/css">*{stroke-linecap:butt;stroke-linejoin:round;stroke-miterlimit:100000;}</style>
</defs>
<path d="m0 216h504v-216h-504z" fill="#fff"/>
<path d="m54.27 168.3h425.6v-154.3l-425.6 0.04z" fill="#fff"/>
<defs>
<path id="a" d="m0 0" stroke="#262626"/>
</defs>
<use fill="#262626" xlink:href="#a" y="168.26625" x="120.421418919" stroke="#262626"/>
<use fill="#262626" xlink:href="#a" y="14.04" x="120.421418919" stroke="#262626"/>
<defs>
<path id="h" d="m43.8 68.09l-0.89 0.71c-1.61-2.1-2.5-2.6-4.82-2.6h-20.68l-10.91-23.7s-0.094-0.3-0.094-0.5c0-0.59 0.297-0.8 1.188-0.8 9.606 0 16.61-3.2 21.32-7 4.5-3.61 6.68-8.61 6.68-15 0-8.61-6.5-16.9-13.5-16.9-2-0.003-4.29 0.903-7.09 3.2-3.2 2.594-5.094 3.094-7.406 3.094-2.797 0-4.5-1.297-4.5-3.797 0-3.797 5.203-6.203 12.71-6.203 6.79 0 12.29 1.5 17 4.906 6.79 5 9.79 11.2 9.79 20.8 0 5.29-0.89 9.11-3.5 12.7-5.68 7.91-10.68 10.09-25 12.8l4 8.5h19.41c1.59 0 2.41 0.61 2.7 1.29z"/>
<path id="b" d="m47.59 33c0 20.5-9.09 34.59-22.18 34.59-16.11 0-23-16.29-23-34-0.004-16.39 5.496-35 22.59-35 16.3 0.004 22.59 17.21 22.59 34.41m-9.59-0.5c0-19.8-4.5-31.3-13-31.3-8.59 0.003-13 11.39-13 31.71 0 20.29 4.5 32.09 12.8 32.09 8.79 0 13.2-11.7 13.2-32.5"/>
</defs>
<g transform="translate(112.9 182.1) scale(.1 -.1)" fill="#262626">
<use xlink:href="#h"/>
<use x="49.99998474121094" xlink:href="#b"/>
<use x="99.99996948242188" xlink:href="#b"/>
</g>
<use fill="#262626" xlink:href="#a" y="168.26625" x="192.325135135" stroke="#262626"/>
<use fill="#262626" xlink:href="#a" y="14.04" x="192.325135135" stroke="#262626"/>
<defs>
<path id="i" d="m39.41 0v1.5c-7.5 0-9.5 1.797-9.5 6.094v59.71l-0.91 0.29-17.91-9.09v-1.41l2.71 1c1.79 0.71 3.5 1.21 4.5 1.21 2.11 0 3-1.5 3-4.89v-44.91c0-5.5-2.1-7.594-9.5-8v-1.5z"/>
</defs>
<g transform="translate(182.3 182.1) scale(.1 -.1)" fill="#262626">
<use xlink:href="#i"/>
<use x="49.99998474121094" xlink:href="#b"/>
<use x="99.99996948242188" xlink:href="#b"/>
<use x="149.9999542236328" xlink:href="#b"/>
</g>
<use fill="#262626" xlink:href="#a" y="168.26625" x="264.228851351" stroke="#262626"/>
<use fill="#262626" xlink:href="#a" y="14.04" x="264.228851351" stroke="#262626"/>
<g transform="translate(254.2 182.1) scale(.1 -.1)" fill="#262626">
<use xlink:href="#i"/>
<use x="49.99998474121094" xlink:href="#h"/>
<use x="99.99996948242188" xlink:href="#b"/>
<use x="149.9999542236328" xlink:href="#b"/>
</g>
<use fill="#262626" xlink:href="#a" y="168.26625" x="336.132567568" stroke="#262626"/>
<use fill="#262626" xlink:href="#a" y="14.04" x="336.132567568" stroke="#262626"/>
<defs>
<path id="ad" d="m47.41 13.7l-1.41 0.6c-3.3-5.597-5.41-6.706-9.59-6.706h-23.41l16.5 17.61c8.91 9.39 12.8 16.89 12.8 24.8 0 9.91-7.21 17.59-18.5 17.59-12.3 0-18.71-8.18-20.8-19.89l2.094-0.5c4 9.8 7.496 13 14.71 13 8.5 0 13.9-5 13.9-14.11 0-8.5-3.61-16.09-13-26l-17.79-18.89-0.004-1.2h39.09z"/>
</defs>
<g transform="translate(326.1 182.1) scale(.1 -.1)" fill="#262626">
<use xlink:href="#ad"/>
<use x="49.99998474121094" xlink:href="#b"/>
<use x="99.99996948242188" xlink:href="#b"/>
<use x="149.9999542236328" xlink:href="#b"/>
</g>
<use fill="#262626" xlink:href="#a" y="168.26625" x="408.036283784" stroke="#262626"/>
<use fill="#262626" xlink:href="#a" y="14.04" x="408.036283784" stroke="#262626"/>
<g transform="translate(398 182.1) scale(.1 -.1)" fill="#262626">
<use xlink:href="#ad"/>
<use x="49.99998474121094" xlink:href="#h"/>
<use x="99.99996948242188" xlink:href="#b"/>
<use x="149.9999542236328" xlink:href="#b"/>
</g>
<use fill="#262626" xlink:href="#a" y="168.26625" x="479.94" stroke="#262626"/>
<use fill="#262626" xlink:href="#a" y="14.04" x="479.94" stroke="#262626"/>
<defs>
<path id="ar" d="m6.094 51c4.106 7.41 8.706 10.59 14.91 10.59 6.59 0 10.8-3.39 10.8-10.18 0-6.11-3.21-10.61-8.1-13.41-2-1.2-4.61-2.3-8.4-3.59v-1.41c5.7 0 8-0.3 10.2-1 6.91-2 10.41-6.91 10.41-14.5 0-8.5-5.61-15.3-13-15.3-2.82 0.003-4.91 0.503-8.61 3.097-2.8 2-4.394 2.609-6.097 2.609-2.297 0-4.109-1.5-4.109-3.609 0-3.594 3.906-5.703 11.21-5.703 8.9 0 18.4 2.906 23.2 9.312 2.91 3.794 4.59 8.684 4.59 14 0 5.18-1.59 9.79-4.39 12.89-2.11 2.2-3.9 3.4-8.29 5.29 6.68 4 9.29 9 9.29 13.82 0 8.18-6.29 13.68-15.61 13.68-10.39 0-16.68-6.68-19.59-16.18z"/>
</defs>
<g transform="translate(469.9 182.1) scale(.1 -.1)" fill="#262626">
<use xlink:href="#ar"/>
<use x="49.99998474121094" xlink:href="#b"/>
<use x="99.99996948242188" xlink:href="#b"/>
<use x="149.9999542236328" xlink:href="#b"/>
</g>
<defs>
<path id="ag" d="m41.8 13.59l-1.8 0.41c-1-5-1.3-6.594-2.7-8.297-1.39-1.703-4.8-2.703-10.6-2.703h-13.29l26.89 40.5v1.5h-34.6l-0.403-11.8h1.797c0.906 7.3 2.406 8.8 8.706 8.8h13.5l-26.6-40.5 0.003-1.5h37.6z"/>
<path id="u" d="m77.5 0v1.5l-2.59 0.203c-3 0.203-4.32 1.5-4.32 6v20.3c0 11.8-3.5 18-11.59 18-5.8 0-10.91-2.59-16.3-8.41-1.79 5.71-5.2 8.41-10.61 8.41-4.5 0-8.68-0.91-15.29-7.7h-0.21v7.4l-0.79 0.3c-5.1-1.91-8.394-3-13.89-4.5l-0.004-1.7c1.297 0.29 2.094 0.4 3.188 0.4 2.609 0 3.5-1.7 3.5-6.61v-24.79c0-5.8-1.391-7.206-7-7.3v-1.5h22.21v1.5c-5.3 0.203-6.8 1.203-6.8 5.5v27.8c0 0.2 0.59 0.9 1.3 1.7 2 2.41 6.9 4.3 10.61 4.3 4.29 0 6.5-4.21 6.5-11.1v-21.11c0-6.09-1.11-6.684-6.82-7.09v-1.5h22.41v1.5c-5.7 0.094-7.2 1.5-7.2 8v25.2c3 4.3 6 6.1 10.7 6.1 5.7 0 7.7-3.3 7.7-11.21v-20.59c0-5.797-0.9-6.906-6.5-7.5v-1.5z"/>
<path id="ak" d="m46.91 46.3l-2.21 21.29h-2.11c-0.39-2.18-1.5-3.39-3.18-3.39-1 0-2.61 0.39-4.41 1.21-3.8 1.59-6.41 2.18-10.5 2.18-9.91 0-17.41-6.59-17.41-17.5 0.004-6.18 3.21-12.39 12.21-17.18 6.4-3.41 13.29-7.82 16.79-11.61 1.91-2.1 2.91-4.39 2.91-7.89 0-6.613-4.91-11.21-11.91-11.21-9.5 0.003-16 5.597-20.59 17.71h-2.203l2.906-21.21 2.203 0.003c0 2.094 1.294 3.297 2.794 3.297 1.1 0 2.8-0.297 4.71-1.094 3.68-1.609 7.59-2.312 11.79-2.312 11.6 0 20.39 7.5 20.39 18.71 0 7.61-4.89 13.4-15.5 19.61-10.5 6.09-17.89 10.29-17.89 17.09 0 5.5 3.89 9.5 10.1 9.5 6 0 11-3.3 14.5-7.8 1.79-2.4 2.9-5 4.11-9.4z"/>
<path id="v" d="m25.7 0v1.5c-6.4 0.406-7.5 1.703-7.5 7.203v59.21l-0.5 0.39c-5.2-1.71-8.903-2.71-15.79-4.39l-0.004-1.61c1.594 0.2 2.891 0.2 3.688 0.2 3.203 0 4.203-1.59 4.203-6.41v-46.89c0-5.497-1.391-7.2-7.703-7.7v-1.5z"/>
<path id="ai" d="m15.91 45.8l-0.61 0.2c-5.3-2.09-8.894-3.41-14.39-5.09l-0.0038-1.61c0.8908 0.11 1.594 0.11 2.5 0.11 3.391 0 4.094-1 4.094-5.71v-46.79c0-5.21-1.094-6.32-7-6.91v-1.7h24.2v1.79c-7.5 0.11-8.79 1.21-8.79 7.5v15.71c3.59-3.3 5.89-4.3 10.09-4.3 11.91 0 21 11.2 21 25.7 0 12.39-7 21.3-16.7 21.3-5.6 0-10-2.41-14.39-7.91zm0-12.39c0 3 5.59 6.59 10.18 6.59 7.41 0 12.32-7.59 12.32-19.3 0-11-4.91-18.5-12.11-18.5-4.71 0.003-10.39 3.597-10.39 6.597z"/>
<path id="e" d="m15.59 30.09c-2.79 1.71-4.29 4.61-4.29 6.82 0 4.68 3.2 6.79 7.5 6.79 6 0 9-3.29 11.29-12.29h1.5l-0.5 13.59h-1.09c-0.8-0.91-1.2-1-1.59-1-0.71 0-1.71 0.3-2.82 0.8-2.09 1-4.29 1.11-6.68 1.11-8.21 0-13.82-4.41-13.82-12.32 0.004-5.09 3.707-9.89 12-14.5l5.41-3c3.3-1.79 5.3-4.39 5.3-7.496 0-4.094-3.21-7.391-8.3-7.391-6.91 0-10.59 4.391-12.7 14.1h-1.597v-15.71l1.297 0.0038c0.594 1 1.203 1.203 2.406 1.203 1.094 0.0001 2.184-0.0937 4.594-0.8906 2.3-0.8124 5.2-0.9062 7.3-0.9062 7.61 0 14 5.797 14 12.5 0 5.7-2.39 8.41-8.8 12.3z"/>
<path id="l" d="m18 63.2c0 2.8-2.2 5.1-5.09 5.1-2.82 0-5.113-2.3-5.113-5.1 0-2.9 2.203-5.11 5.003-5.11 3 0 5.2 2.21 5.2 5.11m7.3-63.2v1.5c-6.6 0.5-7.39 1.594-7.39 9v35.09l-0.41 0.41-15.5-5.5v-1.59c1.797 0.5 3.297 0.5 4.203 0.5 2.5 0 3.297-1.61 3.297-6.32v-22.68c0-7.613-1-8.504-7.906-8.91v-1.5z"/>
<path id="g" d="m44.2 6.594c-1.7-1.391-2.7-1.891-4.29-1.891-1.82 0-3.11 2-3.11 6.597v19.11c0 6.09-0.39 8.18-2.8 11.09s-6.2 4.5-11.8 4.5c-4.5 0-8.7-1.2-11.5-3-3.497-2.2-5.106-5.41-5.106-8 0-2.7 2.203-4.59 4.312-4.59 2.594 0 4.594 2.18 4.594 4.09 0 2.09-0.59 2.41-0.59 4.2 0 2.71 3 4.89 7 4.89 4.5 0 7.79-2.79 7.79-9v-5.39c-11.29-4.2-15-6.11-18-8.11-3.903-2.59-6.997-6.5-6.997-11.68 0-6.613 4.297-10.41 10.5-10.41 4.3 0 9.21 1.297 14.5 7.297h0.1c0.5-5.297 2.7-7.297 6.4-7.297 3.39 0 6 1 9 4.797zm-15.5 6.106c0-2.903-0.61-4.294-3.5-6.294-1.7-1.109-3.79-1.609-5.79-1.609-3.91 0-6.91 2.406-6.91 7.703 0 3.09 1 5.5 3.41 7.7 2.5 2.3 6.59 4.39 12.79 6.6z"/>
<path id="c" d="m40.8 16.41c-4.89-7.41-8.71-10.5-15.39-10.5-4.61-0.004-8.32 1.793-11.11 5.5-3.6 4.79-4.1 8.68-4.597 16.29h30.8c-0.41 5.39-1.41 8.6-3.41 11.39-3.18 4.5-7.68 6.91-13.89 6.91-12.61 0-20.7-10.2-20.7-24.3 0-13.79 7.203-22.7 19-22.7 10 0 17 5.797 20.91 16.7zm-30.89 14.5c1.094 7.5 5.004 11.5 10.59 11.5 6.59 0 8.7-3.41 9.8-11.5z"/>
</defs>
<g transform="translate(233.5 198.8) scale(.14 -.14)" fill="#262626">
<use xlink:href="#ak"/>
<use x="55.59999084472656" xlink:href="#g"/>
<use x="99.99998474121094" xlink:href="#u"/>
<use x="177.7999725341797" xlink:href="#ai"/>
<use x="227.79995727539062" xlink:href="#v"/>
<use x="255.59994506835938" xlink:href="#c"/>
<use x="299.99993896484375" xlink:href="#XITS-20"/>
<use x="324.9999237060547" xlink:href="#e"/>
<use x="363.89991760253906" xlink:href="#l"/>
<use x="391.6999053955078" xlink:href="#ag"/>
<use x="436.0998992919922" xlink:href="#c"/>
</g>
<use fill="#262626" xlink:href="#a" y="168.26625" x="54.27" stroke="#262626"/>
<use fill="#262626" xlink:href="#a" y="168.26625" x="479.94" stroke="#262626"/>
<defs>
<path id="aq" d="m44.59 68.41c-13.79-1.5-21.68-3.91-30.29-12.91-7.097-7.3-10.89-16.8-10.89-27.59-0.004-7 1.887-14.11 4.684-19.21 3.496-6.403 9.816-10.11 17.71-10.11 6.61 0.004 12.2 2.707 15.9 7.316 3.3 4 5.1 9.594 5.1 16 0 12.89-7.21 20.89-18.89 20.89-4.41 0-7.82-0.71-12.71-4.5 2.71 15.11 13.89 25.9 29.6 28.5zm-6.79-49.61c0-10.21-3.71-17.39-10.89-17.39-9.41-0.004-14.21 10-14.21 25.18 0 9.21 5.89 11.61 11.6 11.61 9.29 0 13.5-6.61 13.5-19.4"/>
</defs>
<g transform="translate(37.27 170.6) scale(.1 -.1)" fill="#262626">
<use xlink:href="#aq"/>
<use x="49.99998474121094" xlink:href="#b"/>
</g>
<use fill="#262626" xlink:href="#a" y="133.99375" x="54.27" stroke="#262626"/>
<use fill="#262626" xlink:href="#a" y="133.99375" x="479.94" stroke="#262626"/>
<defs>
<path id="ap" d="m44.91 64.59v1.61h-36.91l-6-14.7 1.797-0.91c4.203 6.82 5.906 8.21 11.7 8.21h21.5l-19.8-59.6 6.5 0.0031z"/>
</defs>
<g transform="translate(37.27 136.3) scale(.1 -.1)" fill="#262626">
<use xlink:href="#ap"/>
<use x="49.99998474121094" xlink:href="#b"/>
</g>
<use fill="#262626" xlink:href="#a" y="99.72125" x="54.27" stroke="#262626"/>
<use fill="#262626" xlink:href="#a" y="99.72125" x="479.94" stroke="#262626"/>
<defs>
<path id="ao" d="m44.5 15.5c0 8-3.2 13.41-15.5 21.59 9.91 5.32 13.41 8.71 13.41 16.21 0 7.79-6.91 14.29-16.82 14.29-11.09 0-19.39-6-19.39-15.59 0.003-6.5 2.097-10.3 12.39-18.8-10.68-7.5-13-11.4-13-18.29 0.004-9.41 7.91-16.32 19.21-16.32 12 0.004 19.7 6.613 19.7 16.91m-9 37.8c0-6.21-2.59-10.39-9.41-14.39-8.79 5.18-12.5 9.79-12.5 16 0 6.18 4.32 9.89 11 9.89 6.82 0 10.91-4.6 10.91-11.5m-8.41-26.1c6.82-4.61 9.82-8.61 9.82-14.79 0-6.504-4.5-11-11-11-7.61-0.004-12.71 5.184-12.71 14.39 0 6.5 2.1 10.61 8 15.4z"/>
</defs>
<g transform="translate(37.27 102.1) scale(.1 -.1)" fill="#262626">
<use xlink:href="#ao"/>
<use x="49.99998474121094" xlink:href="#b"/>
</g>
<use fill="#262626" xlink:href="#a" y="65.44875" x="54.27" stroke="#262626"/>
<use fill="#262626" xlink:href="#a" y="65.44875" x="479.94" stroke="#262626"/>
<defs>
<path id="ac" d="m5.906-2.203c13 1.797 19.5 4.203 28 11.91 8 7.293 12 18.2 12 29.7 0 8.39-2.41 15.59-6.41 20.59-3.91 4.8-9.3 7.59-15.7 7.59-11.89 0-20.8-10.09-20.8-23.59 0-12.2 7.2-20.3 18-20.3 5.91 0 10.7 1.5 15 5.71-4-16.41-15.2-26.91-30.41-29.61zm30.29 37.7c0-5.3-7.29-7.5-11.7-7.5-7.5 0-12.3 7.5-12.3 19.41 0 5.39 1.5 11.29 3.5 14 1.71 2.18 4.3 3.39 7.3 3.39 8.7 0 13.2-8.6 13.2-25.39z"/>
</defs>
<g transform="translate(37.27 67.78) scale(.1 -.1)" fill="#262626">
<use xlink:href="#ac"/>
<use x="49.99998474121094" xlink:href="#b"/>
</g>
<use fill="#262626" xlink:href="#a" y="31.17625" x="54.27" stroke="#262626"/>
<use fill="#262626" xlink:href="#a" y="31.17625" x="479.94" stroke="#262626"/>
<g transform="translate(32.27 33.51) scale(.1 -.1)" fill="#262626">
<use xlink:href="#i"/>
<use x="49.99998474121094" xlink:href="#b"/>
<use x="99.99996948242188" xlink:href="#b"/>
</g>
<defs>
<path id="am" d="m61.41 13.09c-7.5-7.09-13-10.09-22-10.09-6.91 0-13.41 2.5-17.82 7.2-4.68 5.1-7.18 12.89-7.18 23.89 0 17.32 8.89 29.5 24 29.5 6.5 0 11.68-2.89 16.09-7.59 2.5-2.7 4-5.59 5.2-11.09h2.3l-0.91 22.68h-2c-0.59-2.09-2.29-3.29-4.18-3.29-1.71 0-4.82 1.2-6.91 1.79-4 1.11-8 1.5-11.91 1.5-9.29 0-17.89-3.29-24.29-10.39-5.706-6.4-9.003-14.7-9.003-24.7 0-9.91 3.5-19 9.613-25 5.79-5.703 14.5-8.906 23.59-8.906 11.8 0 21.5 4.406 27.3 12.71z"/>
<path id="t" d="m47 23.09c0 13.82-9.41 22.91-21.59 22.91-13.5 0-22.5-9.3-22.5-23.2-0.004-13.89 9.5-23.8 21.59-23.8 13.5 0 22.5 10.2 22.5 24.09m-9-2.68c0-11.61-4.41-18.61-11.8-18.61-3.61-0.003-6.79 1.794-9 4.997-3.7 5.403-5.29 12.61-5.29 20.5 0 10 4.68 15.9 11.59 15.9 4.3 0 7.09-2 9.5-5 3.2-4.11 5-11 5-17.79"/>
<path id="f" d="m16 45.8l-0.5 0.2c-5.3-2.09-8.906-3.5-14.8-5.41l0.0031-1.59c1.391 0.3 2.297 0.41 3.5 0.41 2.5 0 3.391-1.61 3.391-6v-25c0-5.004-0.688-5.707-7.094-6.91v-1.5h24v1.5c-6.8 0.297-8.5 1.797-8.5 7.5v22.5c0 3.2 4.2 8.2 7 8.2 0.59 0 1.5-0.5 2.59-1.5 1.61-1.5 2.71-2 4-2 2.41 0 3.91 1.71 3.91 4.5 0 3.3-2.09 5.3-5.5 5.3-4.2 0-7-2.2-12-9.41z"/>
<path id="o" d="m47 38.8v3.9h-7.7c-2 0-3.5 0.3-5.5 1l-2.21 0.8c-2.68 1-5.39 1.5-8 1.5-9.29 0-16.68-7.2-16.68-16.3-0.004-6.29 2.59-10.11 9.29-13.4-1.4-1.39-2.79-2.71-4.29-4-3.316-2.894-4.613-4.894-4.613-6.894 0-2.203 1.109-3.312 5.293-5.312-7.184-5.188-9.793-8.5-9.793-12.18 0-5.32 7.703-9.71 17.29-9.71 7.21 0 14.82 2.39 20 6.39 4.11 3.21 6 6.504 6 10.5 0 6.207-4.68 10.41-12.09 10.71l-12.91 0.606c-5.39 0.297-7.79 1.094-7.79 2.688 0 1.996 3.29 5.496 6 6.316l1.9-0.21c1.8-0.2 3.21-0.29 3.8-0.29 3.5 0 7.2 1.5 10.41 3.89 3.59 2.7 5.18 6.4 5.18 11.61 0 2.89-0.5 5.18-1.89 8.39zm-31.8-5c0 5.9 2.8 9.4 7.39 9.4 3.11 0 5.71-1.7 7.32-4.7 1.89-3.5 3-8 3-12.09 0-5.5-2.91-9-7.41-9-6.2 0-10.3 6.5-10.3 16.09zm28.1-40.21c0-5.794-7.6-9.684-19-9.684-8.8 0-14.5 2.89-14.5 7.293-0.003 2.297 0.9 3.797 4.9 8.594 3.39-0.7032 11.3-1.297 16.21-1.297 9.09 0 12.39-1.203 12.39-4.906"/>
<path id="q" d="m2.906 66c14.5-11.41 17-22.91 17-41.59 0-19.41-2.82-28.82-17-40.5l0.887-1.61c15.9 9.7 24.7 23.9 24.7 42.4 0 17-9.09 33.71-24.41 42.89z"/>
<path id="d" d="m26.59 7.703c-2.18-2.609-3.79-3.5-6-3.5-3.68 0-5.18 2.594-5.18 8.997v28.6h10.09v3.2h-10.09v11.59c0 1-0.21 1.32-0.71 1.32-0.61-1-1.4-1.91-2-2.82-3.794-5.5-7.106-9.18-9.7-10.68-1.094-0.71-1.703-1.32-1.703-1.91 0-0.3 0.109-0.5 0.406-0.7h5.297v-30.1c0-8.403 3-12.7 8.8-12.7 5 0 8.79 2.406 12.11 7.594z"/>
<path id="aj" d="m39.8 15.59c-4.8-6.996-8.39-9.387-14.1-9.387-9.2 0-15.5 7.997-15.5 19.5 0 10.39 5.5 17.39 13.6 17.39 3.61 0 4.9-1.09 5.9-4.79l0.6-2.21c0.79-2.89 2.61-4.59 4.79-4.59 2.61 0 4.71 1.91 4.71 4.2 0 5.6-7 10.3-15.39 10.3-4.71 0-9.5-1.8-13.5-5.09-5.41-4.5-8.41-11.41-8.41-19.71 0-12.9 7.91-22.2 19-22.2 4.3 0 8.09 1.406 11.5 4.203 3 2.391 5 5.297 8.2 11.5z"/>
<path id="r" d="m30.41-16.09c-14 11.68-17 23-17 41.59 0 19.3 3.09 28.59 17 40.5l-0.91 1.59c-16-9.5-24.7-23.89-24.7-42.39-0.003-17 8.61-33.9 24.4-42.9z"/>
<path id="m" d="m68.59 21.3c0 7.4-3.5 11.7-9.59 11.7-9.59 0-18.91-10.41-18.91-21.09 0-7.816 5.32-13.82 12.11-13.82 8.6 0.004 16.39 11.11 16.39 23.21m-2.29 0.2c0-10.59-6.5-20.7-13.39-20.7-3.21-0.0031-5.61 2.903-5.61 6.794 0 6.816 3.4 15.61 7.79 20.32 1.21 1.39 3.32 2.29 4.91 2.29 3.8 0 6.3-3.5 6.3-8.7m-4.21 49.09h-4.39c-9.2-8.89-10.5-9.68-16.7-9.68-3.7 0-6.09 1-9.59 3.89-2.71 2.2-3.91 2.79-6 2.79-10.21 0-19.32-10-19.32-21.29 0.004-7.8 5.11-13.71 11.82-13.71 3.29 0 5.89 1.11 8.59 3.71 4.8 4.5 8 12 8 19 0 1.61-0.09 2.7-0.41 4.4 3.21-1.11 5-1.4 7.61-1.4 5.3 0 8.39 1.4 12.1 5.7l-39.39-65.8 4.68 0.003zm-30-13.68c0-11.5-6.09-21.61-13.18-21.61-3.41 0-5.71 2.79-5.71 7 0 5.5 1.71 11.4 4.8 16.29 2 3.32 3.09 4.32 7.2 6.32 1.71-1.82 3-2.71 4.39-3.41 2.11-1 2.5-1.7 2.5-4.59"/>
<path id="s" d="m48 5h-0.59c-4.61 0-5.71 1.094-5.71 5.7v34.3h-15.79v-1.7c6-0.39 7.39-1.21 7.39-6.5v-23.1c0-3.5-0.71-4.403-2.3-5.794-2.5-2.203-5.5-3.109-8.41-3.109-3.89 0-7.09 3.297-7.09 7.903v32.3h-14.59l-0.0038-1.41c4.797-0.29 6.188-1.68 6.188-6.68v-25.11c0-7.706 4.496-12.8 12.21-12.8 3.7 0 9.4 1.906 14.29 8.594h0.21v-8.188l0.5-0.3122c5 2 8.61 3.109 13.7 4.5z"/>
</defs>
<g transform="translate(24.22 146.9) rotate(-90) scale(.14 -.14)" fill="#262626">
<use xlink:href="#am"/>
<use x="66.69999694824219" xlink:href="#t"/>
<use x="116.69998168945312" xlink:href="#f"/>
<use x="149.99996948242188" xlink:href="#f"/>
<use x="183.29995727539062" xlink:href="#c"/>
<use x="227.699951171875" xlink:href="#aj"/>
<use x="272.0999450683594" xlink:href="#d"/>
<use x="299.8999328613281" xlink:href="#XITS-20"/>
<use x="324.89991760253906" xlink:href="#o"/>
<use x="374.89990234375" xlink:href="#s"/>
<use x="424.89988708496094" xlink:href="#c"/>
<use x="469.2998809814453" xlink:href="#e"/>
<use x="508.1998748779297" xlink:href="#e"/>
<use x="547.0998687744141" xlink:href="#c"/>
<use x="591.4998626708984" xlink:href="#e"/>
<use x="630.3998565673828" xlink:href="#XITS-20"/>
<use x="655.3998413085938" xlink:href="#r"/>
<use x="688.6998291015625" xlink:href="#m"/>
<use x="763.3998107910156" xlink:href="#q"/>
</g>
<defs>
<path id="af" d="m54.27-76.31v14.19l14.67-51.48 14.67-28.2 14.67-9.6 14.62-13.3 14.7-6.4 14.7 0.6 14.6-8 14.7 1.4 14.7-3.1 14.7-0.8 14.6-0.9 14.7-0.2 14.7-0.7 14.6-0.5h14.8l14.7-0.9 14.7 0.3 14.6 0.3h14.7l14.7-0.6h14.6 14.7 14.7 14.7 14.6 14.7 14.7 14.6 14.8v-0.6h-14.8-14.6-14.7-14.7-14.6-14.7-14.7-14.7-14.6l-14.7 0.1h-14.7l-14.6-0.1h-14.7l-14.7 0.2h-14.8l-14.6 0.2-14.7 0.3-14.7 0.1-14.6 0.5-14.7 0.5-14.7 2.1-14.7-1-14.6 6-14.7-0.5-14.7 5.3-14.62 11.3-14.67 8.6-14.67 25.8-14.67 49.09z" stroke-width=".3" stroke="#ebebeb"/>
</defs>
<g clip-path="url(#j)">
<use fill="#ebebeb" xlink:href="#af" y="216.0" stroke-width=".3" x="0.0" stroke="#ebebeb"/>
</g>
<defs>
<path id="ae" d="m54.27-72.43v14.3l14.67-36.8 14.67-18.87 14.67-16 14.62-5.4 14.7-7 14.7-10.3 14.6-1.3 14.7-7.1 14.7 0.1 14.7 0.2 14.6-4.1 14.7-0.3 14.7-3.8 14.6-3 14.8-2 14.7 1.6 14.7 1.7 14.6-3.9h14.7l14.7-0.3 14.6-0.4 14.7-2 14.7-2h14.7l14.6 0.4 14.7 1.8 14.7-1.4 14.6-1.2h14.8v-3.1h-14.8l-14.6 0.8-14.7 1-14.7-1.2-14.6-0.3h-14.7l-14.7 1.4-14.7 1.4-14.6 0.3-14.7 0.3h-14.7l-14.6 3-14.7-1.4-14.7-1.1-14.8 1.4-14.6 2.5-14.7 3.1-14.7 0.3-14.6 3.4-14.7-0.2-14.7-0.1-14.7 6.2-14.6 1.1-14.7 9.1-14.7 6.4-14.62 4.9-14.67 14.7-14.67 17.8-14.67 35.37z" stroke-width=".3" stroke="#ebebeb"/>
</defs>
<g clip-path="url(#j)">
<use fill="#ebebeb" xlink:href="#ae" y="216.0" stroke-width=".3" x="0.0" stroke="#ebebeb"/>
</g>
<path fill="none" stroke-width="1.5" d="m54.27 146.7l14.67-50.41 14.67-27.07 14.67-9.08 14.62-12.34 14.7-5.83 14.7 0.52 14.6-7.03 14.7 1.2 14.7-2.57 14.7-0.69 14.6-0.68 14.7-0.17 14.7-0.52 14.6-0.34h14.8l14.7-0.51 14.7 0.17 14.6 0.17h14.7l14.7-0.34h14.6 14.7 14.7 14.7 14.6 14.7 14.7 14.6 14.8" stroke-linecap="round" clip-path="url(#j)" stroke="#4c72b0"/>
<path fill="none" stroke-width="1.5" d="m54.27 150.6l14.67-36.1 14.67-18.38 14.67-15.42 14.62-5.14 14.7-6.68 14.7-9.77 14.6-1.2 14.7-6.68 14.7 0.17 14.7 0.17 14.6-3.77 14.7-0.34 14.7-3.43 14.6-2.74 14.8-1.72 14.7 1.37 14.7 1.55 14.6-3.43h14.7l14.7-0.34 14.6-0.35 14.7-1.71 14.7-1.71h14.7l14.6 0.34 14.7 1.54 14.7-1.2 14.6-1.03h14.8" stroke-linecap="round" clip-path="url(#j)" stroke="#55a868"/>
<path fill="none" stroke-linecap="square" d="m54.27 168.3h425.6" stroke="#a6a6a6"/>
<path fill="none" stroke-linecap="square" d="m54.27 168.3v-154.3" stroke="#a6a6a6"/>
<path fill="none" stroke-linecap="square" d="m54.27 14.04h425.6" stroke="#a6a6a6"/>
<path fill="none" stroke-linecap="square" d="m479.9 168.3v-154.3" stroke="#a6a6a6"/>
<defs>
<path id="x" d="m1.594 66.2v-1.9c7.406-0.6 8.406-1.8 8.406-9.21v-42.89c0-8.606-0.594-9.7-8.406-10.29v-1.91h28v1.906c-8.09 0.391-9.39 1.688-9.39 9.294v17.89c2.71-0.18 4.3-0.29 6.89-0.29 10.71 0 15.61 0.9 21.41 6.11 3.7 3.29 5.7 7.79 5.7 13.09 0 5-1.7 9.09-5 11.91-4.5 3.79-11.7 6.29-21.7 6.29zm18.61-7.29c0 2.68 0.6 3.59 3.5 3.59 13.6 0 19.6-4 19.6-15 0-9-6-14.7-17-14.7-2 0-3.8 0.11-6.1 0.29z"/>
<path id="aa" d="m70.7 0v1.906c-5.2 0.594-6.61 2.688-9.4 9.184l-24.6 56.32h-2l-20.61-48.82c-5.887-14-6.793-16.09-12.59-16.68v-1.91h19.91v1.906c-4.82 0-7 1-7 4.094 0 1.203 0.39 2.906 0.89 4.2l4.61 11.39h26.18l4.11-9.39c1.21-2.794 1.89-5.497 1.89-6.997 0-0.906-0.59-2-1.39-2.406-1.2-0.703-1.9-0.891-5.5-0.891v-1.906zm-26 25.7h-23.11l11.5 27.5z"/>
<path id="p" d="m49.09 4.203v1.594c-1.68-0.094-1.79-0.094-2.29-0.094-3.6 0-4.39 1.094-4.39 5.707v56.68l-0.5 0.21c-4.82-1.71-8.32-2.71-14.71-4.39v-1.61c0.8 0.11 1.39 0.11 2.21 0.11 3.68 0 4.59-1 4.59-5.11v-15.6c-3.8 3.21-6.5 4.3-10.5 4.3-11.5 0-20.8-11.3-20.8-25.5 0.003-12.8 7.39-21.5 18.5-21.5 5.6 0 9.39 2 12.8 6.703v-6.406l0.41-0.297zm-15.09 5.997c0-0.7-0.59-1.794-1.5-2.794-1.8-2.109-4.3-3.203-7.41-3.203-8.39 0-13.79 7.997-13.79 20.3 0 11.3 4.9 18.7 12.5 18.7 5.4 0 10.2-4.7 10.2-10z"/>
<path id="k" d="m13.3-1.406v69h-6.597v-69z"/>
<path id="w" d="m15.3 68.09l-0.5 0.21c-4.21-1.5-6.8-2.1-11.5-3.5l-3.003-0.89-0.0001-1.71c0.5 0.1 1 0.21 1.703 0.21 4.094 0 4.906-0.82 4.906-5.82v-51c0-3.387 8.394-6.59 16.5-6.59 13.18 0 23.39 10.2 23.39 25 0 12.41-7.3 22-18 22-6.1 0-11.39-3.3-13.5-8.41zm0-36.29c0 4.2 4.61 7.9 9.9 7.9 3.6 0 6.8-1.7 8.89-4.7 2.5-3.5 3.91-9.3 3.91-15.3 0-5.79-1.3-10.2-3.7-13.2-2.21-2.797-5.39-4.297-9.3-4.297-5.2 0-9.7 2-9.7 5.203z"/>
<path id="y" d="m68.8 33.09c0 19.82-13.1 34.5-32.71 34.5-19.5 0-32.68-13.89-32.68-34.18-0.004-20.82 13.29-34.82 32.68-34.82 19.21 0.004 32.71 13.91 32.71 34.5m-11.39 0.61c0-12-2.82-21.4-8.32-26.7-3.5-3.297-7.89-4.797-12.89-4.797-4.61 0-9 1.391-12.4 4.5-6.1 5.597-9 14.6-9 26.5 0 9.5 2.61 19.21 6.9 24.1 3.89 4.5 8.89 6.7 14.3 6.7 4.7 0 8.7-1.7 12.3-4.7 5.7-4.8 9.11-14.21 9.11-25.6"/>
<path id="z" d="m42.2 34.91c5.21 1.29 7.21 2.09 9.6 4.18 2.5 2.21 4.11 6.32 4.11 10.41 0 10.59-8.91 16.7-26.21 16.7h-28l0.003-1.9c8.094-0.5 9.597-1.39 9.597-9.3v-43.7c0-7.597-1.706-9.206-9.597-9.394v-1.906h33.71c14.5 0 23.89 6.703 23.89 17.8 0 4.4-1.71 8.61-4.89 11.5-2.91 2.61-5.61 4.4-12.21 5.5zm-20.7 1.68v22.71c0 2.29 0.7 3.2 2.41 3.2h4.09c11.91 0 17.7-5.09 17.7-13.5 0-8.3-4.9-12.41-15-12.41zm0-4c11.8-0.39 15.59 0 21.59-4 3.32-2.18 4.71-5.89 4.71-10.68 0-4.32-1.3-7.71-3.8-9.91-4.41-3.906-7.91-4.297-16.3-4.297-4.61 0-6.2 1.094-6.2 4.5z"/>
<path id="an" d="m19.2 40.3c0 3-2.5 5.61-5.5 5.61-3.2 0-5.606-2.41-5.606-5.61 0-3 2.606-5.5 5.606-5.5s5.5 2.5 5.5 5.5m0-35.89c0 3-2.5 5.594-5.5 5.594-3.2 0-5.606-2.406-5.606-5.594 0-3 2.606-5.5 5.606-5.5s5.5 2.5 5.5 5.5"/>
<path id="n" d="m48.5 0v1.5c-4.91 0.5-6.09 1.594-6.09 7v22.09c0 9.91-4.21 15.41-11.82 15.41-4.59 0-9.18-2.2-14.39-8.09h-0.11v7.79l-0.79 0.3c-4.89-1.8-8.206-2.91-13.71-4.5l0.004-1.7c0.703 0.29 1.812 0.4 2.906 0.4 2.797 0 3.5-1.61 3.5-6.5v-24.29c0-5.91-1.094-7.504-6.203-7.91v-1.5h21.11v1.5c-5.11 0.406-6.5 1.797-6.5 5.703v27.6c4.59 4.5 7 5.7 10.29 5.7 4.89 0 7.3-3 7.3-10.09v-19.91c0-6.594-1.2-8.594-6.2-9l-0.1-1.5z"/>
<path id="ab" d="m63.7 32v6.59h-58.9l-0.003-6.59zm0-20v6.59h-58.9l-0.003-6.59z"/>
</defs>
<g transform="translate(54.27 11.87) scale(.1 -.1)" fill="#a6a6a6">
<use xlink:href="#x"/>
<use x="55.69999694824219" xlink:href="#r"/>
<use x="88.99998474121094" xlink:href="#y"/>
<use x="161.19996643066406" xlink:href="#k"/>
<use x="181.199951171875" xlink:href="#aa"/>
<use x="253.39993286132812" xlink:href="#q"/>
<use x="286.6999206542969" xlink:href="#XITS-20"/>
<use x="311.6999053955078" xlink:href="#ab"/>
<use x="380.19989013671875" xlink:href="#XITS-20"/>
<use x="405.1998748779297" xlink:href="#i"/>
<use x="455.1998596191406" xlink:href="#h"/>
<use x="505.19984436035156" xlink:href="#m"/>
<use x="579.8998260498047" xlink:href="#XITS-20"/>
<use x="604.8998107910156" xlink:href="#k"/>
<use x="624.8997955322266" xlink:href="#XITS-20"/>
<use x="649.8997802734375" xlink:href="#x"/>
<use x="705.5997772216797" xlink:href="#r"/>
<use x="738.8997650146484" xlink:href="#y"/>
<use x="811.0997467041016" xlink:href="#k"/>
<use x="831.0997314453125" xlink:href="#z"/>
<use x="897.7997283935547" xlink:href="#q"/>
<use x="931.0997161865234" xlink:href="#XITS-20"/>
<use x="956.0997009277344" xlink:href="#ab"/>
<use x="1024.5996856689453" xlink:href="#XITS-20"/>
<use x="1049.5996704101562" xlink:href="#i"/>
<use x="1099.5996551513672" xlink:href="#b"/>
<use x="1149.5996398925781" xlink:href="#m"/>
<use x="1224.2996215820312" xlink:href="#XITS-20"/>
<use x="1249.2996063232422" xlink:href="#k"/>
<use x="1269.2995910644531" xlink:href="#XITS-20"/>
<use x="1294.299575805664" xlink:href="#c"/>
<use x="1338.6995697021484" xlink:href="#f"/>
<use x="1371.9995574951172" xlink:href="#f"/>
<use x="1405.299545288086" xlink:href="#t"/>
<use x="1455.2995300292969" xlink:href="#f"/>
<use x="1488.5995178222656" xlink:href="#XITS-20"/>
<use x="1513.5995025634766" xlink:href="#w"/>
<use x="1563.5994873046875" xlink:href="#g"/>
<use x="1607.9994812011719" xlink:href="#n"/>
<use x="1657.9994659423828" xlink:href="#p"/>
<use x="1707.9994506835938" xlink:href="#e"/>
<use x="1746.8994445800781" xlink:href="#an"/>
<use x="1774.6994323730469" xlink:href="#XITS-20"/>
<use x="1799.6994171142578" xlink:href="#ac"/>
<use x="1849.6994018554688" xlink:href="#h"/>
<use x="1899.6993865966797" xlink:href="#m"/>
</g>
<defs>
<path id="as" d="m28.7 67.59h-6.7l-22.91-69 6.816 0.004z"/>
</defs>
<g transform="translate(62.9 31.18) scale(.13 -.13)" fill="#4c72b0">
<use xlink:href="#aa"/>
<use x="72.19998168945312" xlink:href="#as"/>
<use x="99.99996948242188" xlink:href="#z"/>
<use x="166.69996643066406" xlink:href="#XITS-20"/>
<use x="191.699951171875" xlink:href="#d"/>
<use x="219.49993896484375" xlink:href="#c"/>
<use x="263.8999328613281" xlink:href="#e"/>
<use x="302.7999267578125" xlink:href="#d"/>
<use x="330.59991455078125" xlink:href="#l"/>
<use x="358.39990234375" xlink:href="#n"/>
<use x="408.39988708496094" xlink:href="#o"/>
</g>
<defs>
<path id="al" d="m86.41 0v1.906c-7.32 0.5-8.82 2.188-8.82 9.294v43.8c0 7.5 1.5 9.2 8.71 9.3v1.9h-19.89l-22.11-50.2-23.1 50.2h-19.79l-0.004-1.9c8.188-0.5 9.504-1.8 9.504-9.39v-39.82c0-11.18-1.41-12.59-9.707-13.18v-1.91h23.39v1.906c-7.68 0.391-9.29 2.188-9.29 13.18v39.82l25.2-54.91h1.41l25.5 57.2v-44.9c0-8.3-1.11-9.894-9-10.39v-1.91z"/>
<path id="ah" d="m47.5 45h-13.3v-1.5c3.1 0 4.6-0.8 4.6-2.41 0-0.39-0.1-1.09-0.39-1.79l-9.71-27.6-11.2 25c-0.59 1.39-1.3 3-1.3 4.1 0 1.79 1.39 2.5 5.71 2.7v1.5h-20.5l-0.004-1.41c2.594-0.39 4.297-1.29 5.297-3.5l13.21-28.18c1.89-4.004 4.18-8.613 4.18-10.11 0-1.597-2-7.894-4-10.8-1.59-2.41-3.59-4.41-5-4.41-0.59 0-1.5 0.11-2.59 0.71-1.8 1-3.406 1.29-5.203 1.29-2.391 0-4.297-2.09-4.297-4.59 0-3.3 2.703-5.8 7-5.8 7.59 0 12.3 5.1 17.5 19.3l15 40.91c1.41 3.68 2.59 4.79 5 5.09z"/>
<path id="at" d="m28.5 19.41v6.29h-24.59l-0.004-6.29z"/>
</defs>
<g transform="translate(134.8 96.29) scale(.13 -.13)" fill="#55a868">
<use xlink:href="#al"/>
<use x="88.89999389648438" xlink:href="#s"/>
<use x="138.8999786376953" xlink:href="#v"/>
<use x="166.69996643066406" xlink:href="#d"/>
<use x="194.4999542236328" xlink:href="#l"/>
<use x="222.29994201660156" xlink:href="#at"/>
<use x="255.5999298095703" xlink:href="#g"/>
<use x="299.9999237060547" xlink:href="#f"/>
<use x="333.29991149902344" xlink:href="#u"/>
<use x="411.0998992919922" xlink:href="#c"/>
<use x="455.49989318847656" xlink:href="#p"/>
<use x="505.4998779296875" xlink:href="#XITS-20"/>
<use x="530.4998626708984" xlink:href="#w"/>
<use x="580.4998474121094" xlink:href="#g"/>
<use x="624.8998413085938" xlink:href="#n"/>
<use x="674.8998260498047" xlink:href="#p"/>
<use x="724.8998107910156" xlink:href="#l"/>
<use x="752.6997985839844" xlink:href="#d"/>
<use x="780.4997863769531" xlink:href="#XITS-20"/>
<use x="805.4997711181641" xlink:href="#e"/>
<use x="844.3997650146484" xlink:href="#d"/>
<use x="872.1997528076172" xlink:href="#f"/>
<use x="905.4997406005859" xlink:href="#g"/>
<use x="949.8997344970703" xlink:href="#d"/>
<use x="977.6997222900391" xlink:href="#c"/>
<use x="1022.0997161865234" xlink:href="#o"/>
<use x="1072.0997009277344" xlink:href="#ah"/>
</g>
<defs>
<clipPath id="j">
<rect y="14.04" height="154.2" x="54.27" width="425.7"/>
</clipPath>
</defs>
</svg>
