<?xml version="1.0" encoding="UTF-8" standalone="no"?>
<svg xmlns="http://www.w3.org/2000/svg" xmlns:rdf="http://www.w3.org/1999/02/22-rdf-syntax-ns#" xmlns:dc="http://purl.org/dc/elements/1.1/" viewBox="0 0 538.45227 118.46206" version="1.1" xmlns:cc="http://creativecommons.org/ns#" height="33.43mm" width="152mm">
<metadata>
<rdf:RDF>
<cc:Work rdf:about="">
<dc:format>image/svg+xml</dc:format>
<dc:type rdf:resource="http://purl.org/dc/dcmitype/StillImage"/>
<dc:title/>
</cc:Work>
</rdf:RDF>
</metadata>
<g transform="translate(304.6 -183.7)">
<g fill="#000000" font-family="sans-serif">
<text y="342.25021" x="381.66089" style="letter-spacing:0px;word-spacing:0px" font-size="15px" line-height="125%" xml:space="preserve"><tspan y="342.25021" x="381.66089"/></text>
<text y="355.17471" x="616.8125" style="letter-spacing:0px;word-spacing:0px" font-size="7.5px" line-height="125%" xml:space="preserve"><tspan y="355.17471" x="616.8125"/></text>
<text y="256.90442" x="-62.201832" style="letter-spacing:0px;word-spacing:0px" font-size="49.7px" line-height="125%" xml:space="preserve"><tspan y="256.90442" x="-62.201832">or</tspan></text>
</g>
<g transform="matrix(.5176 0 0 .5176 45.48 139.7)" stroke-width="3" stroke="#000" fill="#52a834">
<path d="m-330.4 140.3c-4.283-7.564-11-13.96-20.18-17.17-3.871-1.362-7.936-2.051-11.97-2.083-0.103-0.004-0.206 0-0.271 0-10.88 0.002-20.94 4.449-29.06 11.23-8.211 6.884-14.76 16.36-18.71 27.56l-1 2.829h0.073c-1.876 6.137-2.799 12.27-2.858 18.2-0.005 0.191-0.005 0.382-0.005 0.566 0.005 9.228 2.091 17.98 6.301 25.41 4.283 7.573 11.01 13.97 20.18 17.18l0.722-2-0.722 2.006c3.854 1.348 7.906 2.032 11.93 2.069h0.039 0.051c0.048-0.005 0.129 0 0.228 0 10.88-0.005 20.94-4.447 29.04-11.23 8.185-6.871 14.72-16.31 18.69-27.48l0.017-0.034 0.026-0.075c2.477-7.058 3.69-14.16 3.768-21v-0.54c0-9.237-2.085-17.99-6.296-25.44zm-65.78 40.74c0.043-5.307 0.995-10.94 2.974-16.54l0.005-0.018 0.013-0.036 0.009-0.016c3.133-8.941 8.339-16.2 14.03-20.95 5.635-4.719 11.51-6.833 16.23-6.826h0.21c1.829 0.023 3.523 0.305 5.279 0.918 4.064 1.412 7.841 4.549 10.7 9.56 2.76 4.839 4.455 11.32 4.446 18.45v0.538c-0.043 5.279-0.996 10.9-2.957 16.49l-0.004 0.017-0.026 0.061-0.013 0.039c-3.133 8.929-8.339 16.19-14.03 20.92-5.635 4.721-11.52 6.841-16.23 6.834h-0.231c-1.803-0.021-3.511-0.311-5.283-0.916-4.043-1.407-7.82-4.554-10.67-9.554-2.769-4.856-4.459-11.34-4.455-18.48v-0.489l-2.146-0.03 2.155 0.021z"/>
<path d="m-386.3 242.9c9.309-40.18 11.36-84.04 11.36-135.6 0-2.477-0.617-4.907-1.699-6.651-1.081-1.769-2.566-2.776-4.095-2.776h-210.1c-1.534 0-3.025 1.007-4.101 2.758-1.086 1.761-1.7 4.192-1.7 6.667 0.006 51.76 2.829 97.65 12.51 138.8 4.728 20.13 11.14 39.02 19.57 56.68h157.1c9.421-19.08 16.28-38.85 21.13-59.81z"/>
</g>
<g transform="matrix(.5176 0 0 .5176 360.3 5.105)" stroke-width="3" stroke="#000" fill="#a88734">
<path d="m-330.4 400.3c-4.283-7.564-11-13.96-20.18-17.17-3.871-1.362-7.936-2.051-11.97-2.083-0.103-0.004-0.206 0-0.271 0-10.88 0.002-20.94 4.449-29.06 11.23-8.211 6.884-14.76 16.36-18.71 27.56l-1 2.829h0.073c-1.876 6.137-2.799 12.27-2.858 18.2-0.005 0.191-0.005 0.382-0.005 0.566 0.005 9.228 2.091 17.98 6.301 25.41 4.283 7.573 11.01 13.97 20.18 17.18l0.722-2-0.722 2.006c3.854 1.348 7.906 2.032 11.93 2.069h0.039 0.051c0.048-0.005 0.129 0 0.228 0 10.88-0.005 20.94-4.447 29.04-11.23 8.185-6.871 14.72-16.31 18.69-27.48l0.017-0.034 0.026-0.075c2.477-7.058 3.69-14.16 3.768-21v-0.54c0-9.237-2.085-17.99-6.296-25.44zm-65.78 40.74c0.043-5.307 0.995-10.94 2.974-16.54l0.005-0.018 0.013-0.036 0.009-0.016c3.133-8.941 8.339-16.2 14.03-20.95 5.635-4.719 11.51-6.833 16.23-6.826h0.21c1.829 0.023 3.523 0.305 5.279 0.918 4.064 1.412 7.841 4.549 10.7 9.56 2.76 4.839 4.455 11.32 4.446 18.45v0.538c-0.043 5.279-0.996 10.9-2.957 16.49l-0.004 0.017-0.026 0.061-0.013 0.039c-3.133 8.929-8.339 16.19-14.03 20.92-5.635 4.721-11.52 6.841-16.23 6.834h-0.231c-1.803-0.021-3.511-0.311-5.283-0.916-4.043-1.407-7.82-4.554-10.67-9.554-2.769-4.856-4.459-11.34-4.455-18.48v-0.489l-2.146-0.03 2.155 0.021z"/>
<path d="m-386.3 502.9c9.309-40.18 11.36-84.04 11.36-135.6 0-2.477-0.617-4.907-1.699-6.651-1.081-1.769-2.566-2.776-4.095-2.776h-210.1c-1.534 0-3.025 1.007-4.101 2.758-1.086 1.761-1.7 4.192-1.7 6.667 0.006 51.76 2.829 97.65 12.51 138.8 4.728 20.13 11.14 39.02 19.57 56.68h157.1c9.421-19.08 16.28-38.85 21.13-59.81z"/>
</g>
<g transform="matrix(.5176 0 0 .5176 45.48 -40.31)" stroke-width="3" stroke="#000" fill="#fff">
<path d="m-330.4 140.3c-4.283-7.564-11-13.96-20.18-17.17-3.871-1.362-7.936-2.051-11.97-2.083-0.103-0.004-0.206 0-0.271 0-10.88 0.002-20.94 4.449-29.06 11.23-8.211 6.884-14.76 16.36-18.71 27.56l-1 2.829h0.073c-1.876 6.137-2.799 12.27-2.858 18.2-0.005 0.191-0.005 0.382-0.005 0.566 0.005 9.228 2.091 17.98 6.301 25.41 4.283 7.573 11.01 13.97 20.18 17.18l0.722-2-0.722 2.006c3.854 1.348 7.906 2.032 11.93 2.069h0.039 0.051c0.048-0.005 0.129 0 0.228 0 10.88-0.005 20.94-4.447 29.04-11.23 8.185-6.871 14.72-16.31 18.69-27.48l0.017-0.034 0.026-0.075c2.477-7.058 3.69-14.16 3.768-21v-0.54c0-9.237-2.085-17.99-6.296-25.44zm-65.78 40.74c0.043-5.307 0.995-10.94 2.974-16.54l0.005-0.018 0.013-0.036 0.009-0.016c3.133-8.941 8.339-16.2 14.03-20.95 5.635-4.719 11.51-6.833 16.23-6.826h0.21c1.829 0.023 3.523 0.305 5.279 0.918 4.064 1.412 7.841 4.549 10.7 9.56 2.76 4.839 4.455 11.32 4.446 18.45v0.538c-0.043 5.279-0.996 10.9-2.957 16.49l-0.004 0.017-0.026 0.061-0.013 0.039c-3.133 8.929-8.339 16.19-14.03 20.92-5.635 4.721-11.52 6.841-16.23 6.834h-0.231c-1.803-0.021-3.511-0.311-5.283-0.916-4.043-1.407-7.82-4.554-10.67-9.554-2.769-4.856-4.459-11.34-4.455-18.48v-0.489l-2.146-0.03 2.155 0.021z"/>
<path d="m-386.3 242.9c9.309-40.18 11.36-84.04 11.36-135.6 0-2.477-0.617-4.907-1.699-6.651-1.081-1.769-2.566-2.776-4.095-2.776h-210.1c-1.534 0-3.025 1.007-4.101 2.758-1.086 1.761-1.7 4.192-1.7 6.667 0.006 51.76 2.829 97.65 12.51 138.8 4.728 20.13 11.14 39.02 19.57 56.68h157.1c9.421-19.08 16.28-38.85 21.13-59.81z"/>
</g>
<g transform="matrix(.5176 0 0 .5176 360.3 -174.9)" stroke-width="3" stroke="#000" fill="#fff">
<path d="m-330.4 400.3c-4.283-7.564-11-13.96-20.18-17.17-3.871-1.362-7.936-2.051-11.97-2.083-0.103-0.004-0.206 0-0.271 0-10.88 0.002-20.94 4.449-29.06 11.23-8.211 6.884-14.76 16.36-18.71 27.56l-1 2.829h0.073c-1.876 6.137-2.799 12.27-2.858 18.2-0.005 0.191-0.005 0.382-0.005 0.566 0.005 9.228 2.091 17.98 6.301 25.41 4.283 7.573 11.01 13.97 20.18 17.18l0.722-2-0.722 2.006c3.854 1.348 7.906 2.032 11.93 2.069h0.039 0.051c0.048-0.005 0.129 0 0.228 0 10.88-0.005 20.94-4.447 29.04-11.23 8.185-6.871 14.72-16.31 18.69-27.48l0.017-0.034 0.026-0.075c2.477-7.058 3.69-14.16 3.768-21v-0.54c0-9.237-2.085-17.99-6.296-25.44zm-65.78 40.74c0.043-5.307 0.995-10.94 2.974-16.54l0.005-0.018 0.013-0.036 0.009-0.016c3.133-8.941 8.339-16.2 14.03-20.95 5.635-4.719 11.51-6.833 16.23-6.826h0.21c1.829 0.023 3.523 0.305 5.279 0.918 4.064 1.412 7.841 4.549 10.7 9.56 2.76 4.839 4.455 11.32 4.446 18.45v0.538c-0.043 5.279-0.996 10.9-2.957 16.49l-0.004 0.017-0.026 0.061-0.013 0.039c-3.133 8.929-8.339 16.19-14.03 20.92-5.635 4.721-11.52 6.841-16.23 6.834h-0.231c-1.803-0.021-3.511-0.311-5.283-0.916-4.043-1.407-7.82-4.554-10.67-9.554-2.769-4.856-4.459-11.34-4.455-18.48v-0.489l-2.146-0.03 2.155 0.021z"/>
<path d="m-386.3 502.9c9.309-40.18 11.36-84.04 11.36-135.6 0-2.477-0.617-4.907-1.699-6.651-1.081-1.769-2.566-2.776-4.095-2.776h-210.1c-1.534 0-3.025 1.007-4.101 2.758-1.086 1.761-1.7 4.192-1.7 6.667 0.006 51.76 2.829 97.65 12.51 138.8 4.728 20.13 11.14 39.02 19.57 56.68h157.1c9.421-19.08 16.28-38.85 21.13-59.81z"/>
</g>
</g>
</svg>
