<?xml version="1.0" encoding="UTF-8" standalone="no"?>
<!DOCTYPE svg  PUBLIC '-//W3C//DTD SVG 1.1//EN'  'http://www.w3.org/Graphics/SVG/1.1/DTD/svg11.dtd'>
<svg xmlns:xlink="http://www.w3.org/1999/xlink" version="1.1" xmlns="http://www.w3.org/2000/svg" viewBox="0 0 432 216">
<defs>
<style type="text/css">*{stroke-linecap:butt;stroke-linejoin:round;stroke-miterlimit:100000;}</style>
</defs>
<path fill="#fff" d="m0 216h432v-216h-432z"/>
<path fill="#fff" d="m50.66 169.2h367.3v-155.2l-367.3 0.04z"/>
<defs>
<path id="a" stroke="#888" d="m0 0"/>
</defs>
<use fill="#888888" y="169.1925" x="81.2671875" xlink:href="#a" stroke="#888888"/>
<use fill="#888888" y="14.04" x="81.2671875" xlink:href="#a" stroke="#888888"/>
<defs>
<path id="l" d="m39.41 0v1.5c-7.5 0-9.5 1.797-9.5 6.094v59.71l-0.91 0.29-17.91-9.09v-1.41l2.71 1c1.79 0.71 3.5 1.21 4.5 1.21 2.11 0 3-1.5 3-4.89v-44.91c0-5.5-2.1-7.594-9.5-8v-1.5z"/>
</defs>
<g transform="translate(78.77 183) scale(.1 -.1)" fill="#888">
<use xlink:href="#l"/>
</g>
<use fill="#888888" y="169.1925" x="142.4840625" xlink:href="#a" stroke="#888888"/>
<use fill="#888888" y="14.04" x="142.4840625" xlink:href="#a" stroke="#888888"/>
<defs>
<path id="ab" d="m47.41 13.7l-1.41 0.6c-3.3-5.597-5.41-6.706-9.59-6.706h-23.41l16.5 17.61c8.91 9.39 12.8 16.89 12.8 24.8 0 9.91-7.21 17.59-18.5 17.59-12.3 0-18.71-8.18-20.8-19.89l2.094-0.5c4 9.8 7.496 13 14.71 13 8.5 0 13.9-5 13.9-14.11 0-8.5-3.61-16.09-13-26l-17.79-18.89-0.004-1.2h39.09z"/>
</defs>
<g transform="translate(140 183) scale(.1 -.1)" fill="#888">
<use xlink:href="#ab"/>
</g>
<use fill="#888888" y="169.1925" x="203.7009375" xlink:href="#a" stroke="#888888"/>
<use fill="#888888" y="14.04" x="203.7009375" xlink:href="#a" stroke="#888888"/>
<defs>
<path id="aa" d="m6.094 51c4.106 7.41 8.706 10.59 14.91 10.59 6.59 0 10.8-3.39 10.8-10.18 0-6.11-3.21-10.61-8.1-13.41-2-1.2-4.61-2.3-8.4-3.59v-1.41c5.7 0 8-0.3 10.2-1 6.91-2 10.41-6.91 10.41-14.5 0-8.5-5.61-15.3-13-15.3-2.82 0.003-4.91 0.503-8.61 3.097-2.8 2-4.394 2.609-6.097 2.609-2.297 0-4.109-1.5-4.109-3.609 0-3.594 3.906-5.703 11.21-5.703 8.9 0 18.4 2.906 23.2 9.312 2.91 3.794 4.59 8.684 4.59 14 0 5.18-1.59 9.79-4.39 12.89-2.11 2.2-3.9 3.4-8.29 5.29 6.68 4 9.29 9 9.29 13.82 0 8.18-6.29 13.68-15.61 13.68-10.39 0-16.68-6.68-19.59-16.18z"/>
</defs>
<g transform="translate(201.2 183) scale(.1 -.1)" fill="#888">
<use xlink:href="#aa"/>
</g>
<use fill="#888888" y="169.1925" x="264.9178125" xlink:href="#a" stroke="#888888"/>
<use fill="#888888" y="14.04" x="264.9178125" xlink:href="#a" stroke="#888888"/>
<defs>
<path id="z" d="m47.3 16.7v6.39h-10.3v44.5h-4.41l-31.39-44.5 0.003-6.39h28v-16.7h7.8v16.7zm-18.1 6.39h-24l24 34.32z"/>
</defs>
<g transform="translate(262.4 183) scale(.1 -.1)" fill="#888">
<use xlink:href="#z"/>
</g>
<use fill="#888888" y="169.1925" x="326.1346875" xlink:href="#a" stroke="#888888"/>
<use fill="#888888" y="14.04" x="326.1346875" xlink:href="#a" stroke="#888888"/>
<defs>
<path id="y" d="m43.8 68.09l-0.89 0.71c-1.61-2.1-2.5-2.6-4.82-2.6h-20.68l-10.91-23.7s-0.094-0.3-0.094-0.5c0-0.59 0.297-0.8 1.188-0.8 9.606 0 16.61-3.2 21.32-7 4.5-3.61 6.68-8.61 6.68-15 0-8.61-6.5-16.9-13.5-16.9-2-0.003-4.29 0.903-7.09 3.2-3.2 2.594-5.094 3.094-7.406 3.094-2.797 0-4.5-1.297-4.5-3.797 0-3.797 5.203-6.203 12.71-6.203 6.79 0 12.29 1.5 17 4.906 6.79 5 9.79 11.2 9.79 20.8 0 5.29-0.89 9.11-3.5 12.7-5.68 7.91-10.68 10.09-25 12.8l4 8.5h19.41c1.59 0 2.41 0.61 2.7 1.29z"/>
</defs>
<g transform="translate(323.6 183) scale(.1 -.1)" fill="#888">
<use xlink:href="#y"/>
</g>
<use fill="#888888" y="169.1925" x="387.3515625" xlink:href="#a" stroke="#888888"/>
<use fill="#888888" y="14.04" x="387.3515625" xlink:href="#a" stroke="#888888"/>
<defs>
<path id="k" d="m44.59 68.41c-13.79-1.5-21.68-3.91-30.29-12.91-7.097-7.3-10.89-16.8-10.89-27.59-0.004-7 1.887-14.11 4.684-19.21 3.496-6.403 9.816-10.11 17.71-10.11 6.61 0.004 12.2 2.707 15.9 7.316 3.3 4 5.1 9.594 5.1 16 0 12.89-7.21 20.89-18.89 20.89-4.41 0-7.82-0.71-12.71-4.5 2.71 15.11 13.89 25.9 29.6 28.5zm-6.79-49.61c0-10.21-3.71-17.39-10.89-17.39-9.41-0.004-14.21 10-14.21 25.18 0 9.21 5.89 11.61 11.6 11.61 9.29 0 13.5-6.61 13.5-19.4"/>
</defs>
<g transform="translate(384.9 183) scale(.1 -.1)" fill="#888">
<use xlink:href="#k"/>
</g>
<defs>
<path id="f" d="m40.8 16.41c-4.89-7.41-8.71-10.5-15.39-10.5-4.61-0.004-8.32 1.793-11.11 5.5-3.6 4.79-4.1 8.68-4.597 16.29h30.8c-0.41 5.39-1.41 8.6-3.41 11.39-3.18 4.5-7.68 6.91-13.89 6.91-12.61 0-20.7-10.2-20.7-24.3 0-13.79 7.203-22.7 19-22.7 10 0 17 5.797 20.91 16.7zm-30.89 14.5c1.094 7.5 5.004 11.5 10.59 11.5 6.59 0 8.7-3.41 9.8-11.5z"/>
<path id="u" d="m2.094 45v-3.2h8.206v-31.39c0-7.316-1.097-8.504-8.3-8.91v-1.5h26v1.5c-8.2 0.297-9.3 1.406-9.3 8.91v31.39h12.21v3.2h-12.21v11.59c0 5.91 1.8 8.91 5.6 8.91 2.2 0 3.5-1 5.29-3.91 1.61-2.68 2.82-3.59 4.5-3.59 2.41 0 4.21 1.8 4.21 4.09 0 3.61-4.39 6.21-10.39 6.21-6.32 0-11.5-2.71-14.11-7.21-2.6-4.5-3.39-8.09-3.5-16.09z"/>
<path id="ad" d="m28.5 19.41v6.29h-24.59l-0.004-6.29z"/>
<path id="d" d="m18 63.2c0 2.8-2.2 5.1-5.09 5.1-2.82 0-5.113-2.3-5.113-5.1 0-2.9 2.203-5.11 5.003-5.11 3 0 5.2 2.21 5.2 5.11m7.3-63.2v1.5c-6.6 0.5-7.39 1.594-7.39 9v35.09l-0.41 0.41-15.5-5.5v-1.59c1.797 0.5 3.297 0.5 4.203 0.5 2.5 0 3.297-1.61 3.297-6.32v-22.68c0-7.613-1-8.504-7.906-8.91v-1.5z"/>
<path id="m" d="m15.59 30.09c-2.79 1.71-4.29 4.61-4.29 6.82 0 4.68 3.2 6.79 7.5 6.79 6 0 9-3.29 11.29-12.29h1.5l-0.5 13.59h-1.09c-0.8-0.91-1.2-1-1.59-1-0.71 0-1.71 0.3-2.82 0.8-2.09 1-4.29 1.11-6.68 1.11-8.21 0-13.82-4.41-13.82-12.32 0.004-5.09 3.707-9.89 12-14.5l5.41-3c3.3-1.79 5.3-4.39 5.3-7.496 0-4.094-3.21-7.391-8.3-7.391-6.91 0-10.59 4.391-12.7 14.1h-1.597v-15.71l1.297 0.0038c0.594 1 1.203 1.203 2.406 1.203 1.094 0.0001 2.184-0.0937 4.594-0.8906 2.3-0.8124 5.2-0.9062 7.3-0.9062 7.61 0 14 5.797 14 12.5 0 5.7-2.39 8.41-8.8 12.3z"/>
<path id="o" d="m48.7 0v1.5c-5.4 1-6 1.797-6 8.7v19.89c0 10.5-4.11 15.91-12.29 15.91-5.91 0-10.11-2.41-14.71-8.41v30.41l-0.5 0.3c-3.5-1.21-5.794-1.89-11.5-3.6l-2.7-0.79v-1.61c0.297 0.11 0.797 0.11 1.203 0.11 4.297 0 5.094-0.82 5.094-5.11v-47.1c0-6.997-0.594-7.903-6.391-8.7l0.0002-1.5h21.59v1.5c-5.8 0.594-6.8 1.797-6.8 8.7v24.1c4.21 4.61 7.21 6.29 11.21 6.29 4.89 0 7.39-3.59 7.39-10.59v-19.8c0-6.903-1-8.106-6.8-8.7v-1.5z"/>
<path id="v" d="m39.8 15.59c-4.8-6.996-8.39-9.387-14.1-9.387-9.2 0-15.5 7.997-15.5 19.5 0 10.39 5.5 17.39 13.6 17.39 3.61 0 4.9-1.09 5.9-4.79l0.6-2.21c0.79-2.89 2.61-4.59 4.79-4.59 2.61 0 4.71 1.91 4.71 4.2 0 5.6-7 10.3-15.39 10.3-4.71 0-9.5-1.8-13.5-5.09-5.41-4.5-8.41-11.41-8.41-19.71 0-12.9 7.91-22.2 19-22.2 4.3 0 8.09 1.406 11.5 4.203 3 2.391 5 5.297 8.2 11.5z"/>
<path id="j" d="m44.2 6.594c-1.7-1.391-2.7-1.891-4.29-1.891-1.82 0-3.11 2-3.11 6.597v19.11c0 6.09-0.39 8.18-2.8 11.09s-6.2 4.5-11.8 4.5c-4.5 0-8.7-1.2-11.5-3-3.497-2.2-5.106-5.41-5.106-8 0-2.7 2.203-4.59 4.312-4.59 2.594 0 4.594 2.18 4.594 4.09 0 2.09-0.59 2.41-0.59 4.2 0 2.71 3 4.89 7 4.89 4.5 0 7.79-2.79 7.79-9v-5.39c-11.29-4.2-15-6.11-18-8.11-3.903-2.59-6.997-6.5-6.997-11.68 0-6.613 4.297-10.41 10.5-10.41 4.3 0 9.21 1.297 14.5 7.297h0.1c0.5-5.297 2.7-7.297 6.4-7.297 3.39 0 6 1 9 4.797zm-15.5 6.106c0-2.903-0.61-4.294-3.5-6.294-1.7-1.109-3.79-1.609-5.79-1.609-3.91 0-6.91 2.406-6.91 7.703 0 3.09 1 5.5 3.41 7.7 2.5 2.3 6.59 4.39 12.79 6.6z"/>
<path id="s" d="m48 5h-0.59c-4.61 0-5.71 1.094-5.71 5.7v34.3h-15.79v-1.7c6-0.39 7.39-1.21 7.39-6.5v-23.1c0-3.5-0.71-4.403-2.3-5.794-2.5-2.203-5.5-3.109-8.41-3.109-3.89 0-7.09 3.297-7.09 7.903v32.3h-14.59l-0.0038-1.41c4.797-0.29 6.188-1.68 6.188-6.68v-25.11c0-7.706 4.496-12.8 12.21-12.8 3.7 0 9.4 1.906 14.29 8.594h0.21v-8.188l0.5-0.3122c5 2 8.61 3.109 13.7 4.5z"/>
<path id="i" d="m49.09 4.203v1.594c-1.68-0.094-1.79-0.094-2.29-0.094-3.6 0-4.39 1.094-4.39 5.707v56.68l-0.5 0.21c-4.82-1.71-8.32-2.71-14.71-4.39v-1.61c0.8 0.11 1.39 0.11 2.21 0.11 3.68 0 4.59-1 4.59-5.11v-15.6c-3.8 3.21-6.5 4.3-10.5 4.3-11.5 0-20.8-11.3-20.8-25.5 0.003-12.8 7.39-21.5 18.5-21.5 5.6 0 9.39 2 12.8 6.703v-6.406l0.41-0.297zm-15.09 5.997c0-0.7-0.59-1.794-1.5-2.794-1.8-2.109-4.3-3.203-7.41-3.203-8.39 0-13.79 7.997-13.79 20.3 0 11.3 4.9 18.7 12.5 18.7 5.4 0 10.2-4.7 10.2-10z"/>
<path id="w" d="m69.7 66.2h-20.4v-1.9c4-0.39 7.2-0.21 7.2-4.1 0-1.7-0.7-4.2-1.91-7.2l-14.68-36.91-15.21 34.21c-3 6.7-3.9 9.11-3.9 10.7 0 2 1.29 2.91 4.5 3.09l2.79 0.21v1.9h-26.5l0.004-1.9c5-0.1 6.5-1.3 10.82-11l24.39-54.39 1.5-0.004 22.2 56.29c2.91 7.39 5.2 9 9.2 9.1z"/>
<path id="h" d="m25.7 0v1.5c-6.4 0.406-7.5 1.703-7.5 7.203v59.21l-0.5 0.39c-5.2-1.71-8.903-2.71-15.79-4.39l-0.004-1.61c1.594 0.2 2.891 0.2 3.688 0.2 3.203 0 4.203-1.59 4.203-6.41v-46.89c0-5.497-1.391-7.2-7.703-7.7v-1.5z"/>
<path id="e" d="m47 23.09c0 13.82-9.41 22.91-21.59 22.91-13.5 0-22.5-9.3-22.5-23.2-0.004-13.89 9.5-23.8 21.59-23.8 13.5 0 22.5 10.2 22.5 24.09m-9-2.68c0-11.61-4.41-18.61-11.8-18.61-3.61-0.003-6.79 1.794-9 4.997-3.7 5.403-5.29 12.61-5.29 20.5 0 10 4.68 15.9 11.59 15.9 4.3 0 7.09-2 9.5-5 3.2-4.11 5-11 5-17.79"/>
<path id="c" d="m26.59 7.703c-2.18-2.609-3.79-3.5-6-3.5-3.68 0-5.18 2.594-5.18 8.997v28.6h10.09v3.2h-10.09v11.59c0 1-0.21 1.32-0.71 1.32-0.61-1-1.4-1.91-2-2.82-3.794-5.5-7.106-9.18-9.7-10.68-1.094-0.71-1.703-1.32-1.703-1.91 0-0.3 0.109-0.5 0.406-0.7h5.297v-30.1c0-8.403 3-12.7 8.8-12.7 5 0 8.79 2.406 12.11 7.594z"/>
</defs>
<g transform="translate(169 199.1) scale(.13 -.13)" fill="#888">
<use xlink:href="#w"/>
<use x="72.19998168945312" xlink:href="#j"/>
<use x="116.5999755859375" xlink:href="#h"/>
<use x="144.39996337890625" xlink:href="#s"/>
<use x="194.3999481201172" xlink:href="#f"/>
<use x="238.79994201660156" xlink:href="#XITS-20"/>
<use x="263.7999267578125" xlink:href="#e"/>
<use x="313.79991149902344" xlink:href="#u"/>
<use x="347.0998992919922" xlink:href="#XITS-20"/>
<use x="372.0998840332031" xlink:href="#c"/>
<use x="399.8998718261719" xlink:href="#o"/>
<use x="449.8998565673828" xlink:href="#f"/>
<use x="494.2998504638672" xlink:href="#XITS-20"/>
<use x="519.2998352050781" xlink:href="#k"/>
<use x="569.2998199462891" xlink:href="#ad"/>
<use x="602.5998077392578" xlink:href="#m"/>
<use x="641.4998016357422" xlink:href="#d"/>
<use x="669.2997894287109" xlink:href="#i"/>
<use x="719.2997741699219" xlink:href="#f"/>
<use x="763.6997680664062" xlink:href="#i"/>
<use x="813.6997528076172" xlink:href="#XITS-20"/>
<use x="838.6997375488281" xlink:href="#i"/>
<use x="888.6997222900391" xlink:href="#d"/>
<use x="916.4997100830078" xlink:href="#v"/>
<use x="960.8997039794922" xlink:href="#f"/>
</g>
<use fill="#888888" y="169.1925" x="50.65875" xlink:href="#a" stroke="#888888"/>
<use fill="#888888" y="169.1925" x="417.96" xlink:href="#a" stroke="#888888"/>
<defs>
<path id="g" d="m47.59 33c0 20.5-9.09 34.59-22.18 34.59-16.11 0-23-16.29-23-34-0.004-16.39 5.496-35 22.59-35 16.3 0.004 22.59 17.21 22.59 34.41m-9.59-0.5c0-19.8-4.5-31.3-13-31.3-8.59 0.003-13 11.39-13 31.71 0 20.29 4.5 32.09 12.8 32.09 8.79 0 13.2-11.7 13.2-32.5"/>
</defs>
<g transform="translate(38.66 171.5) scale(.1 -.1)" fill="#888">
<use xlink:href="#g"/>
</g>
<use fill="#888888" y="35.8999742268" x="50.65875" xlink:href="#a" stroke="#888888"/>
<use fill="#888888" y="35.8999742268" x="417.96" xlink:href="#a" stroke="#888888"/>
<defs>
<path id="ac" d="m28.7 67.59h-6.7l-22.91-69 6.816 0.004z"/>
</defs>
<g transform="translate(30.88 38.23) scale(.1 -.1)" fill="#4d4d4d">
<use xlink:href="#l"/>
<use x="49.99998474121094" xlink:href="#ac"/>
<use x="77.79997253417969" xlink:href="#k"/>
</g>
<defs>
<path id="p" d="m15.3 68.09l-0.5 0.21c-4.21-1.5-6.8-2.1-11.5-3.5l-3.003-0.89-0.0001-1.71c0.5 0.1 1 0.21 1.703 0.21 4.094 0 4.906-0.82 4.906-5.82v-51c0-3.387 8.394-6.59 16.5-6.59 13.18 0 23.39 10.2 23.39 25 0 12.41-7.3 22-18 22-6.1 0-11.39-3.3-13.5-8.41zm0-36.29c0 4.2 4.61 7.9 9.9 7.9 3.6 0 6.8-1.7 8.89-4.7 2.5-3.5 3.91-9.3 3.91-15.3 0-5.79-1.3-10.2-3.7-13.2-2.21-2.797-5.39-4.297-9.3-4.297-5.2 0-9.7 2-9.7 5.203z"/>
<path id="x" d="m1.594 66.2v-1.9c7.406-0.6 8.406-1.8 8.406-9.21v-42.89c0-8.606-0.594-9.7-8.406-10.29v-1.91h28v1.906c-8.09 0.391-9.39 1.688-9.39 9.294v17.89c2.71-0.18 4.3-0.29 6.89-0.29 10.71 0 15.61 0.9 21.41 6.11 3.7 3.29 5.7 7.79 5.7 13.09 0 5-1.7 9.09-5 11.91-4.5 3.79-11.7 6.29-21.7 6.29zm18.61-7.29c0 2.68 0.6 3.59 3.5 3.59 13.6 0 19.6-4 19.6-15 0-9-6-14.7-17-14.7-2 0-3.8 0.11-6.1 0.29z"/>
<path id="n" d="m16 45.8l-0.5 0.2c-5.3-2.09-8.906-3.5-14.8-5.41l0.0031-1.59c1.391 0.3 2.297 0.41 3.5 0.41 2.5 0 3.391-1.61 3.391-6v-25c0-5.004-0.688-5.707-7.094-6.91v-1.5h24v1.5c-6.8 0.297-8.5 1.797-8.5 7.5v22.5c0 3.2 4.2 8.2 7 8.2 0.59 0 1.5-0.5 2.59-1.5 1.61-1.5 2.71-2 4-2 2.41 0 3.91 1.71 3.91 4.5 0 3.3-2.09 5.3-5.5 5.3-4.2 0-7-2.2-12-9.41z"/>
<path id="q" d="m47.5 45h-13.3v-1.5c3.1 0 4.6-0.8 4.6-2.41 0-0.39-0.1-1.09-0.39-1.79l-9.71-27.6-11.2 25c-0.59 1.39-1.3 3-1.3 4.1 0 1.79 1.39 2.5 5.71 2.7v1.5h-20.5l-0.004-1.41c2.594-0.39 4.297-1.29 5.297-3.5l13.21-28.18c1.89-4.004 4.18-8.613 4.18-10.11 0-1.597-2-7.894-4-10.8-1.59-2.41-3.59-4.41-5-4.41-0.59 0-1.5 0.11-2.59 0.71-1.8 1-3.406 1.29-5.203 1.29-2.391 0-4.297-2.09-4.297-4.59 0-3.3 2.703-5.8 7-5.8 7.59 0 12.3 5.1 17.5 19.3l15 40.91c1.41 3.68 2.59 4.79 5 5.09z"/>
</defs>
<g transform="translate(23.05 120.5) rotate(-90) scale(.13 -.13)" fill="#888">
<use xlink:href="#x"/>
<use x="55.69999694824219" xlink:href="#n"/>
<use x="88.99998474121094" xlink:href="#e"/>
<use x="138.99996948242188" xlink:href="#p"/>
<use x="188.9999542236328" xlink:href="#j"/>
<use x="233.3999481201172" xlink:href="#p"/>
<use x="283.3999328613281" xlink:href="#d"/>
<use x="311.1999206542969" xlink:href="#h"/>
<use x="338.9999084472656" xlink:href="#d"/>
<use x="366.7998962402344" xlink:href="#c"/>
<use x="394.5998840332031" xlink:href="#q"/>
</g>
<path stroke-width=".3" fill="#4c72b0" clip-path="url(#b)" stroke="#000" d="m50.66 169.2h61.24v-138.4l-61.24 0.03z"/>
<path stroke-width=".3" fill="#4c72b0" clip-path="url(#b)" stroke="#000" d="m111.9 169.2h61.2v-130.4l-61.2 0.03z"/>
<path stroke-width=".3" fill="#4c72b0" clip-path="url(#b)" stroke="#000" d="m173.1 169.2h61.2v-133.6l-61.2 0.03z"/>
<path stroke-width=".3" fill="#4c72b0" clip-path="url(#b)" stroke="#000" d="m234.3 169.2h61.2v-155.2l-61.2 0.04z"/>
<path stroke-width=".3" fill="#4c72b0" clip-path="url(#b)" stroke="#000" d="m295.5 169.2h61.2v-127.2l-61.2 0.03z"/>
<path stroke-width=".3" fill="#4c72b0" clip-path="url(#b)" stroke="#000" d="m356.7 169.2h61.3v-115.2l-61.3 0.03z"/>
<path stroke-width="1.5" fill="none" stroke-dasharray="6.000000,6.000000" clip-path="url(#b)" stroke="#4d4d4d" d="m50.66 35.9h367.3"/>
<defs>
<path id="r" d="m69.41 45h-12.32v-1.5c3.41-0.7 4.41-1.41 4.41-3s-0.59-4-1.7-6.7l-9-22.21-8.39 22.41c-1.21 3.09-1.71 4.3-1.71 6 0 2.09 1.1 2.8 5.8 3.5v1.5h-20.3v-1.5c3.71-0.41 5-1.5 6.89-6.91l2-5.59-9.09-19.91-9.91 26.11c-0.39 1-0.59 2-0.59 3 0 2.1 1.09 2.89 4.59 3.3v1.5h-18l0.004-1.5c2.312-0.2 3.203-0.91 5.312-6.3l13.5-34.2c1.18-3.094 2-4.406 2.59-4.406 0.5 0 1.3 1.312 2.5 3.906l11.2 24 9.1-23.59c1.5-3.816 1.7-4.316 2.4-4.316 0.71 0 1.21 0.906 2.8 4.906l13.8 34.59c1.61 4 2.11 4.71 4.11 5.41z"/>
<path id="t" d="m48.5 0v1.5c-4.91 0.5-6.09 1.594-6.09 7v22.09c0 9.91-4.21 15.41-11.82 15.41-4.59 0-9.18-2.2-14.39-8.09h-0.11v7.79l-0.79 0.3c-4.89-1.8-8.206-2.91-13.71-4.5l0.004-1.7c0.703 0.29 1.812 0.4 2.906 0.4 2.797 0 3.5-1.61 3.5-6.5v-24.29c0-5.91-1.094-7.504-6.203-7.91v-1.5h21.11v1.5c-5.11 0.406-6.5 1.797-6.5 5.703v27.6c4.59 4.5 7 5.7 10.29 5.7 4.89 0 7.3-3 7.3-10.09v-19.91c0-6.594-1.2-8.594-6.2-9l-0.1-1.5z"/>
</defs>
<g transform="translate(50.66 11.87) scale(.1 -.1)" fill="#888">
<use xlink:href="#l"/>
<use x="49.99998474121094" xlink:href="#g"/>
<use x="99.99996948242188" xlink:href="#g"/>
<use x="149.9999542236328" xlink:href="#g"/>
<use x="199.99993896484375" xlink:href="#XITS-20"/>
<use x="224.9999237060547" xlink:href="#c"/>
<use x="252.79991149902344" xlink:href="#o"/>
<use x="302.7998962402344" xlink:href="#n"/>
<use x="336.0998840332031" xlink:href="#e"/>
<use x="386.09986877441406" xlink:href="#r"/>
<use x="458.2998504638672" xlink:href="#m"/>
<use x="497.19984436035156" xlink:href="#XITS-20"/>
<use x="522.1998291015625" xlink:href="#d"/>
<use x="549.9998168945312" xlink:href="#t"/>
<use x="599.9998016357422" xlink:href="#XITS-20"/>
<use x="624.9997863769531" xlink:href="#c"/>
<use x="652.7997741699219" xlink:href="#e"/>
<use x="702.7997589111328" xlink:href="#c"/>
<use x="730.5997467041016" xlink:href="#j"/>
<use x="774.9997406005859" xlink:href="#h"/>
</g>
<defs>
<clipPath id="b">
<rect x="50.66" height="155.2" y="14.04" width="367.3"/>
</clipPath>
</defs>
</svg>
