<?xml version="1.0" encoding="UTF-8" standalone="no"?>
<!DOCTYPE svg  PUBLIC '-//W3C//DTD SVG 1.1//EN'  'http://www.w3.org/Graphics/SVG/1.1/DTD/svg11.dtd'>
<svg viewBox="0 0 504 216" width="504pt" version="1.1" height="216pt" xmlns:xlink="http://www.w3.org/1999/xlink" xmlns="http://www.w3.org/2000/svg">
<defs>
<style type="text/css">*{stroke-linecap:butt;stroke-linejoin:round;stroke-miterlimit:100000;}</style>
</defs>
<path d="m0 216h504v-216h-504z" fill="#fff"/>
<path d="m30.85 169.2h218.4v-155.2l-218.4 0.04z" fill="#fff"/>
<defs>
<path id="a" d="m0 0" stroke="#262626"/>
</defs>
<use xlink:href="#a" stroke="#262626" fill="#262626" x="140.0090625" y="169.1925"/>
<use xlink:href="#a" stroke="#262626" fill="#262626" x="140.0090625" y="14.04"/>
<defs>
<path id="f" d="m47.59 33c0 20.5-9.09 34.59-22.18 34.59-16.11 0-23-16.29-23-34-0.004-16.39 5.496-35 22.59-35 16.3 0.004 22.59 17.21 22.59 34.41m-9.59-0.5c0-19.8-4.5-31.3-13-31.3-8.59 0.003-13 11.39-13 31.71 0 20.29 4.5 32.09 12.8 32.09 8.79 0 13.2-11.7 13.2-32.5"/>
</defs>
<g fill="#262626" transform="translate(137.5 183) scale(.1 -.1)">
<use xlink:href="#f"/>
</g>
<defs>
<path id="e" d="m1.594 66.2v-1.9c7.406-0.6 8.406-1.8 8.406-9.21v-42.89c0-8.606-0.594-9.7-8.406-10.29v-1.91h28v1.906c-8.09 0.391-9.39 1.688-9.39 9.294v17.89c2.71-0.18 4.3-0.29 6.89-0.29 10.71 0 15.61 0.9 21.41 6.11 3.7 3.29 5.7 7.79 5.7 13.09 0 5-1.7 9.09-5 11.91-4.5 3.79-11.7 6.29-21.7 6.29zm18.61-7.29c0 2.68 0.6 3.59 3.5 3.59 13.6 0 19.6-4 19.6-15 0-9-6-14.7-17-14.7-2 0-3.8 0.11-6.1 0.29z"/>
<path id="b" d="m13.3-1.406v69h-6.597v-69z"/>
<path id="p" d="m70.7 0v1.906c-5.2 0.594-6.61 2.688-9.4 9.184l-24.6 56.32h-2l-20.61-48.82c-5.887-14-6.793-16.09-12.59-16.68v-1.91h19.91v1.906c-4.82 0-7 1-7 4.094 0 1.203 0.39 2.906 0.89 4.2l4.61 11.39h26.18l4.11-9.39c1.21-2.794 1.89-5.497 1.89-6.997 0-0.906-0.59-2-1.39-2.406-1.2-0.703-1.9-0.891-5.5-0.891v-1.906zm-26 25.7h-23.11l11.5 27.5z"/>
<path id="j" d="m68.59 21.3c0 7.4-3.5 11.7-9.59 11.7-9.59 0-18.91-10.41-18.91-21.09 0-7.816 5.32-13.82 12.11-13.82 8.6 0.004 16.39 11.11 16.39 23.21m-2.29 0.2c0-10.59-6.5-20.7-13.39-20.7-3.21-0.0031-5.61 2.903-5.61 6.794 0 6.816 3.4 15.61 7.79 20.32 1.21 1.39 3.32 2.29 4.91 2.29 3.8 0 6.3-3.5 6.3-8.7m-4.21 49.09h-4.39c-9.2-8.89-10.5-9.68-16.7-9.68-3.7 0-6.09 1-9.59 3.89-2.71 2.2-3.91 2.79-6 2.79-10.21 0-19.32-10-19.32-21.29 0.004-7.8 5.11-13.71 11.82-13.71 3.29 0 5.89 1.11 8.59 3.71 4.8 4.5 8 12 8 19 0 1.61-0.09 2.7-0.41 4.4 3.21-1.11 5-1.4 7.61-1.4 5.3 0 8.39 1.4 12.1 5.7l-39.39-65.8 4.68 0.003zm-30-13.68c0-11.5-6.09-21.61-13.18-21.61-3.41 0-5.71 2.79-5.71 7 0 5.5 1.71 11.4 4.8 16.29 2 3.32 3.09 4.32 7.2 6.32 1.71-1.82 3-2.71 4.39-3.41 2.11-1 2.5-1.7 2.5-4.59"/>
<path id="h" d="m68.8 33.09c0 19.82-13.1 34.5-32.71 34.5-19.5 0-32.68-13.89-32.68-34.18-0.004-20.82 13.29-34.82 32.68-34.82 19.21 0.004 32.71 13.91 32.71 34.5m-11.39 0.61c0-12-2.82-21.4-8.32-26.7-3.5-3.297-7.89-4.797-12.89-4.797-4.61 0-9 1.391-12.4 4.5-6.1 5.597-9 14.6-9 26.5 0 9.5 2.61 19.21 6.9 24.1 3.89 4.5 8.89 6.7 14.3 6.7 4.7 0 8.7-1.7 12.3-4.7 5.7-4.8 9.11-14.21 9.11-25.6"/>
<path id="o" d="m42.2 34.91c5.21 1.29 7.21 2.09 9.6 4.18 2.5 2.21 4.11 6.32 4.11 10.41 0 10.59-8.91 16.7-26.21 16.7h-28l0.003-1.9c8.094-0.5 9.597-1.39 9.597-9.3v-43.7c0-7.597-1.706-9.206-9.597-9.394v-1.906h33.71c14.5 0 23.89 6.703 23.89 17.8 0 4.4-1.71 8.61-4.89 11.5-2.91 2.61-5.61 4.4-12.21 5.5zm-20.7 1.68v22.71c0 2.29 0.7 3.2 2.41 3.2h4.09c11.91 0 17.7-5.09 17.7-13.5 0-8.3-4.9-12.41-15-12.41zm0-4c11.8-0.39 15.59 0 21.59-4 3.32-2.18 4.71-5.89 4.71-10.68 0-4.32-1.3-7.71-3.8-9.91-4.41-3.906-7.91-4.297-16.3-4.297-4.61 0-6.2 1.094-6.2 4.5z"/>
<path id="c" d="m2.906 66c14.5-11.41 17-22.91 17-41.59 0-19.41-2.82-28.82-17-40.5l0.887-1.61c15.9 9.7 24.7 23.9 24.7 42.4 0 17-9.09 33.71-24.41 42.89z"/>
<path id="d" d="m30.41-16.09c-14 11.68-17 23-17 41.59 0 19.3 3.09 28.59 17 40.5l-0.91 1.59c-16-9.5-24.7-23.89-24.7-42.39-0.003-17 8.61-33.9 24.4-42.9z"/>
<path id="ac" d="m28.5 19.41v6.29h-24.59l-0.004-6.29z"/>
</defs>
<g fill="#262626" transform="translate(86.87 199.1) scale(.13 -.13)">
<use xlink:href="#e"/>
<use xlink:href="#d" x="55.69999694824219"/>
<use xlink:href="#h" x="88.99998474121094"/>
<use xlink:href="#b" x="161.19996643066406"/>
<use xlink:href="#o" x="181.199951171875"/>
<use xlink:href="#c" x="247.8999481201172"/>
<use xlink:href="#XITS-20" x="281.19993591308594"/>
<use xlink:href="#ac" x="306.1999206542969"/>
<use xlink:href="#XITS-20" x="339.4999084472656"/>
<use xlink:href="#e" x="364.49989318847656"/>
<use xlink:href="#d" x="420.19989013671875"/>
<use xlink:href="#h" x="453.4998779296875"/>
<use xlink:href="#b" x="525.6998596191406"/>
<use xlink:href="#p" x="545.6998443603516"/>
<use xlink:href="#c" x="617.8998260498047"/>
<use xlink:href="#XITS-20" x="651.1998138427734"/>
<use xlink:href="#d" x="676.1997985839844"/>
<use xlink:href="#j" x="709.4997863769531"/>
<use xlink:href="#c" x="784.1997680664062"/>
</g>
<defs>
<path id="w" d="m47 23.09c0 13.82-9.41 22.91-21.59 22.91-13.5 0-22.5-9.3-22.5-23.2-0.004-13.89 9.5-23.8 21.59-23.8 13.5 0 22.5 10.2 22.5 24.09m-9-2.68c0-11.61-4.41-18.61-11.8-18.61-3.61-0.003-6.79 1.794-9 4.997-3.7 5.403-5.29 12.61-5.29 20.5 0 10 4.68 15.9 11.59 15.9 4.3 0 7.09-2 9.5-5 3.2-4.11 5-11 5-17.79"/>
<path id="v" d="m16 45.8l-0.5 0.2c-5.3-2.09-8.906-3.5-14.8-5.41l0.0031-1.59c1.391 0.3 2.297 0.41 3.5 0.41 2.5 0 3.391-1.61 3.391-6v-25c0-5.004-0.688-5.707-7.094-6.91v-1.5h24v1.5c-6.8 0.297-8.5 1.797-8.5 7.5v22.5c0 3.2 4.2 8.2 7 8.2 0.59 0 1.5-0.5 2.59-1.5 1.61-1.5 2.71-2 4-2 2.41 0 3.91 1.71 3.91 4.5 0 3.3-2.09 5.3-5.5 5.3-4.2 0-7-2.2-12-9.41z"/>
<path id="m" d="m15.59 30.09c-2.79 1.71-4.29 4.61-4.29 6.82 0 4.68 3.2 6.79 7.5 6.79 6 0 9-3.29 11.29-12.29h1.5l-0.5 13.59h-1.09c-0.8-0.91-1.2-1-1.59-1-0.71 0-1.71 0.3-2.82 0.8-2.09 1-4.29 1.11-6.68 1.11-8.21 0-13.82-4.41-13.82-12.32 0.004-5.09 3.707-9.89 12-14.5l5.41-3c3.3-1.79 5.3-4.39 5.3-7.496 0-4.094-3.21-7.391-8.3-7.391-6.91 0-10.59 4.391-12.7 14.1h-1.597v-15.71l1.297 0.0038c0.594 1 1.203 1.203 2.406 1.203 1.094 0.0001 2.184-0.0937 4.594-0.8906 2.3-0.8124 5.2-0.9062 7.3-0.9062 7.61 0 14 5.797 14 12.5 0 5.7-2.39 8.41-8.8 12.3z"/>
<path id="x" d="m25.7 0v1.5c-6.4 0.406-7.5 1.703-7.5 7.203v59.21l-0.5 0.39c-5.2-1.71-8.903-2.71-15.79-4.39l-0.004-1.61c1.594 0.2 2.891 0.2 3.688 0.2 3.203 0 4.203-1.59 4.203-6.41v-46.89c0-5.497-1.391-7.2-7.703-7.7v-1.5z"/>
<path id="ax" d="m48.5 0v1.5c-4.91 0.5-6.09 1.594-6.09 7v22.09c0 9.91-4.21 15.41-11.82 15.41-4.59 0-9.18-2.2-14.39-8.09h-0.11v7.79l-0.79 0.3c-4.89-1.8-8.206-2.91-13.71-4.5l0.004-1.7c0.703 0.29 1.812 0.4 2.906 0.4 2.797 0 3.5-1.61 3.5-6.5v-24.29c0-5.91-1.094-7.504-6.203-7.91v-1.5h21.11v1.5c-5.11 0.406-6.5 1.797-6.5 5.703v27.6c4.59 4.5 7 5.7 10.29 5.7 4.89 0 7.3-3 7.3-10.09v-19.91c0-6.594-1.2-8.594-6.2-9l-0.1-1.5z"/>
<path id="n" d="m15.3 68.09l-0.5 0.21c-4.21-1.5-6.8-2.1-11.5-3.5l-3.003-0.89-0.0001-1.71c0.5 0.1 1 0.21 1.703 0.21 4.094 0 4.906-0.82 4.906-5.82v-51c0-3.387 8.394-6.59 16.5-6.59 13.18 0 23.39 10.2 23.39 25 0 12.41-7.3 22-18 22-6.1 0-11.39-3.3-13.5-8.41zm0-36.29c0 4.2 4.61 7.9 9.9 7.9 3.6 0 6.8-1.7 8.89-4.7 2.5-3.5 3.91-9.3 3.91-15.3 0-5.79-1.3-10.2-3.7-13.2-2.21-2.797-5.39-4.297-9.3-4.297-5.2 0-9.7 2-9.7 5.203z"/>
<path id="z" d="m44.2 6.594c-1.7-1.391-2.7-1.891-4.29-1.891-1.82 0-3.11 2-3.11 6.597v19.11c0 6.09-0.39 8.18-2.8 11.09s-6.2 4.5-11.8 4.5c-4.5 0-8.7-1.2-11.5-3-3.497-2.2-5.106-5.41-5.106-8 0-2.7 2.203-4.59 4.312-4.59 2.594 0 4.594 2.18 4.594 4.09 0 2.09-0.59 2.41-0.59 4.2 0 2.71 3 4.89 7 4.89 4.5 0 7.79-2.79 7.79-9v-5.39c-11.29-4.2-15-6.11-18-8.11-3.903-2.59-6.997-6.5-6.997-11.68 0-6.613 4.297-10.41 10.5-10.41 4.3 0 9.21 1.297 14.5 7.297h0.1c0.5-5.297 2.7-7.297 6.4-7.297 3.39 0 6 1 9 4.797zm-15.5 6.106c0-2.903-0.61-4.294-3.5-6.294-1.7-1.109-3.79-1.609-5.79-1.609-3.91 0-6.91 2.406-6.91 7.703 0 3.09 1 5.5 3.41 7.7 2.5 2.3 6.59 4.39 12.79 6.6z"/>
<path id="az" d="m49.09 4.203v1.594c-1.68-0.094-1.79-0.094-2.29-0.094-3.6 0-4.39 1.094-4.39 5.707v56.68l-0.5 0.21c-4.82-1.71-8.32-2.71-14.71-4.39v-1.61c0.8 0.11 1.39 0.11 2.21 0.11 3.68 0 4.59-1 4.59-5.11v-15.6c-3.8 3.21-6.5 4.3-10.5 4.3-11.5 0-20.8-11.3-20.8-25.5 0.003-12.8 7.39-21.5 18.5-21.5 5.6 0 9.39 2 12.8 6.703v-6.406l0.41-0.297zm-15.09 5.997c0-0.7-0.59-1.794-1.5-2.794-1.8-2.109-4.3-3.203-7.41-3.203-8.39 0-13.79 7.997-13.79 20.3 0 11.3 4.9 18.7 12.5 18.7 5.4 0 10.2-4.7 10.2-10z"/>
<path id="g" d="m18 63.2c0 2.8-2.2 5.1-5.09 5.1-2.82 0-5.113-2.3-5.113-5.1 0-2.9 2.203-5.11 5.003-5.11 3 0 5.2 2.21 5.2 5.11m7.3-63.2v1.5c-6.6 0.5-7.39 1.594-7.39 9v35.09l-0.41 0.41-15.5-5.5v-1.59c1.797 0.5 3.297 0.5 4.203 0.5 2.5 0 3.297-1.61 3.297-6.32v-22.68c0-7.613-1-8.504-7.906-8.91v-1.5z"/>
<path id="l" d="m26.59 7.703c-2.18-2.609-3.79-3.5-6-3.5-3.68 0-5.18 2.594-5.18 8.997v28.6h10.09v3.2h-10.09v11.59c0 1-0.21 1.32-0.71 1.32-0.61-1-1.4-1.91-2-2.82-3.794-5.5-7.106-9.18-9.7-10.68-1.094-0.71-1.703-1.32-1.703-1.91 0-0.3 0.109-0.5 0.406-0.7h5.297v-30.1c0-8.403 3-12.7 8.8-12.7 5 0 8.79 2.406 12.11 7.594z"/>
<path id="av" d="m48 5h-0.59c-4.61 0-5.71 1.094-5.71 5.7v34.3h-15.79v-1.7c6-0.39 7.39-1.21 7.39-6.5v-23.1c0-3.5-0.71-4.403-2.3-5.794-2.5-2.203-5.5-3.109-8.41-3.109-3.89 0-7.09 3.297-7.09 7.903v32.3h-14.59l-0.0038-1.41c4.797-0.29 6.188-1.68 6.188-6.68v-25.11c0-7.706 4.496-12.8 12.21-12.8 3.7 0 9.4 1.906 14.29 8.594h0.21v-8.188l0.5-0.3122c5 2 8.61 3.109 13.7 4.5z"/>
<path id="au" d="m47.5 45h-13.3v-1.5c3.1 0 4.6-0.8 4.6-2.41 0-0.39-0.1-1.09-0.39-1.79l-9.71-27.6-11.2 25c-0.59 1.39-1.3 3-1.3 4.1 0 1.79 1.39 2.5 5.71 2.7v1.5h-20.5l-0.004-1.41c2.594-0.39 4.297-1.29 5.297-3.5l13.21-28.18c1.89-4.004 4.18-8.613 4.18-10.11 0-1.597-2-7.894-4-10.8-1.59-2.41-3.59-4.41-5-4.41-0.59 0-1.5 0.11-2.59 0.71-1.8 1-3.406 1.29-5.203 1.29-2.391 0-4.297-2.09-4.297-4.59 0-3.3 2.703-5.8 7-5.8 7.59 0 12.3 5.1 17.5 19.3l15 40.91c1.41 3.68 2.59 4.79 5 5.09z"/>
</defs>
<g fill="#262626" transform="translate(23.02 152.1) rotate(-90) scale(.13 -.13)">
<use xlink:href="#e"/>
<use xlink:href="#v" x="55.69999694824219"/>
<use xlink:href="#w" x="88.99998474121094"/>
<use xlink:href="#n" x="138.99996948242188"/>
<use xlink:href="#z" x="188.9999542236328"/>
<use xlink:href="#n" x="233.3999481201172"/>
<use xlink:href="#g" x="283.3999328613281"/>
<use xlink:href="#x" x="311.1999206542969"/>
<use xlink:href="#g" x="338.9999084472656"/>
<use xlink:href="#l" x="366.7998962402344"/>
<use xlink:href="#au" x="394.5998840332031"/>
<use xlink:href="#XITS-20" x="444.59986877441406"/>
<use xlink:href="#az" x="469.599853515625"/>
<use xlink:href="#g" x="519.5998382568359"/>
<use xlink:href="#m" x="547.3998260498047"/>
<use xlink:href="#l" x="586.2998199462891"/>
<use xlink:href="#v" x="614.0998077392578"/>
<use xlink:href="#g" x="647.3997955322266"/>
<use xlink:href="#n" x="675.1997833251953"/>
<use xlink:href="#av" x="725.1997680664062"/>
<use xlink:href="#l" x="775.1997528076172"/>
<use xlink:href="#g" x="802.9997406005859"/>
<use xlink:href="#w" x="830.7997283935547"/>
<use xlink:href="#ax" x="880.7997131347656"/>
</g>
<defs>
<path id="af" d="m30.85-46.81h1.83 1.84 1.83 1.84 1.83 1.84 1.83 1.84 1.83 1.84 1.83l1.83-0.02 1.84-0.01 1.83 0.02 1.84-0.01 1.83-0.06 1.84-0.07 1.83-0.02 1.84-0.01 1.83-0.06 1.84-0.19 1.83-0.31 1.84-0.29 1.83-0.27 1.83-0.11 1.84-0.17 1.83-0.55 1.84-0.86 1.83-0.9 1.84-1.09 1.83-0.9 1.84-1.04 1.83-2.22 1.84-2.45 1.83-1.96 1.84-2.63 1.83-3.67 1.87-4.21 1.8-3.65 1.8-4 1.9-5.93 1.8-6.9 1.8-6.58 1.9-6.57 1.8-6.7 1.8-7.3 1.9-7.3 1.8-6.1 1.8-6.3 1.9-9.5 1.8-9.6 1.8-7.3 1.9-5.4 1.8-5.3 1.9-5.1 1.8-3.8 1.8-3.4 1.9-2.9 1.8-0.3 1.8 0.5 1.9 0.5 1.8 3.2 1.8 2.4 1.9 1.1 1.8 4.7 1.8 6.5 1.9 6.9 1.8 8.8 1.8 7.7 1.9 6.2 1.8 8.1 1.8 8.9 1.9 7.7 1.8 6.6 1.8 7.2 1.9 7.38 1.8 7.11 1.8 5.98 1.9 5.39 1.8 4.78 1.9 3.94 1.8 3.28 1.8 2.49 1.9 2.49 1.8 2.5 1.8 2.39 1.9 2.29 1.8 1.49 1.8 0.88 1.9 0.93 1.8 0.74 1.8 0.48 1.9 0.54 1.8 0.46 1.8 0.3 1.9 0.36 1.8 0.34 1.8 0.15 1.9 0.06 1.8 0.07 1.8 0.08 1.9 0.02 1.8 0.02 1.8 0.02 1.9 0.01h1.8 1.9l1.8 0.01 1.8 0.01h1.9l1.8-0.01 1.8-0.02 1.9 0.01 1.8 0.02h1.8 1.9 1.8 1.8 1.9-1.9-1.8-1.8-1.9-1.8-1.8-1.9-1.8-1.8-1.9-1.8-1.8-1.9-1.8-1.9-1.8-1.8-1.9-1.8-1.8-1.9-1.8-1.8-1.9-1.8-1.8-1.9-1.8-1.8-1.9-1.8-1.8-1.9-1.8-1.8-1.9-1.8-1.8-1.9-1.8-1.9-1.8-1.8-1.9-1.8-1.8-1.9-1.8-1.8-1.9-1.8-1.8-1.9-1.8-1.8-1.9-1.8-1.8-1.9-1.8-1.8-1.9-1.8-1.8-1.9-1.8-1.9-1.8-1.8-1.9-1.8-1.8-1.9-1.8-1.8-1.9-1.8-1.8-1.9-1.8-1.8-1.87-1.83-1.84-1.83-1.84-1.83-1.84-1.83-1.84-1.83-1.84-1.83-1.84-1.83-1.83-1.84-1.83-1.84-1.83-1.84-1.83-1.84-1.83-1.84-1.83-1.84-1.83-1.83-1.84-1.83-1.84-1.83-1.84-1.83-1.84-1.83-1.84-1.83z" stroke="#4c72b0" stroke-width=".3"/>
</defs>
<g clip-path="url(#ae)">
<use xlink:href="#af" stroke-width=".3" stroke="#4c72b0" fill="#4c72b0" x="0.0" y="216.0"/>
</g>
<defs>
<path id="at" d="m41.8 13.59l-1.8 0.41c-1-5-1.3-6.594-2.7-8.297-1.39-1.703-4.8-2.703-10.6-2.703h-13.29l26.89 40.5v1.5h-34.6l-0.403-11.8h1.797c0.906 7.3 2.406 8.8 8.706 8.8h13.5l-26.6-40.5 0.003-1.5h37.6z"/>
<path id="ab" d="m39.41 0v1.5c-7.5 0-9.5 1.797-9.5 6.094v59.71l-0.91 0.29-17.91-9.09v-1.41l2.71 1c1.79 0.71 3.5 1.21 4.5 1.21 2.11 0 3-1.5 3-4.89v-44.91c0-5.5-2.1-7.594-9.5-8v-1.5z"/>
<path id="q" d="m43.8 68.09l-0.89 0.71c-1.61-2.1-2.5-2.6-4.82-2.6h-20.68l-10.91-23.7s-0.094-0.3-0.094-0.5c0-0.59 0.297-0.8 1.188-0.8 9.606 0 16.61-3.2 21.32-7 4.5-3.61 6.68-8.61 6.68-15 0-8.61-6.5-16.9-13.5-16.9-2-0.003-4.29 0.903-7.09 3.2-3.2 2.594-5.094 3.094-7.406 3.094-2.797 0-4.5-1.297-4.5-3.797 0-3.797 5.203-6.203 12.71-6.203 6.79 0 12.29 1.5 17 4.906 6.79 5 9.79 11.2 9.79 20.8 0 5.29-0.89 9.11-3.5 12.7-5.68 7.91-10.68 10.09-25 12.8l4 8.5h19.41c1.59 0 2.41 0.61 2.7 1.29z"/>
<path id="ay" d="m77.5 0v1.5l-2.59 0.203c-3 0.203-4.32 1.5-4.32 6v20.3c0 11.8-3.5 18-11.59 18-5.8 0-10.91-2.59-16.3-8.41-1.79 5.71-5.2 8.41-10.61 8.41-4.5 0-8.68-0.91-15.29-7.7h-0.21v7.4l-0.79 0.3c-5.1-1.91-8.394-3-13.89-4.5l-0.004-1.7c1.297 0.29 2.094 0.4 3.188 0.4 2.609 0 3.5-1.7 3.5-6.61v-24.79c0-5.8-1.391-7.206-7-7.3v-1.5h22.21v1.5c-5.3 0.203-6.8 1.203-6.8 5.5v27.8c0 0.2 0.59 0.9 1.3 1.7 2 2.41 6.9 4.3 10.61 4.3 4.29 0 6.5-4.21 6.5-11.1v-21.11c0-6.09-1.11-6.684-6.82-7.09v-1.5h22.41v1.5c-5.7 0.094-7.2 1.5-7.2 8v25.2c3 4.3 6 6.1 10.7 6.1 5.7 0 7.7-3.3 7.7-11.21v-20.59c0-5.797-0.9-6.906-6.5-7.5v-1.5z"/>
<path id="aw" d="m15.91 45.8l-0.61 0.2c-5.3-2.09-8.894-3.41-14.39-5.09l-0.0038-1.61c0.8908 0.11 1.594 0.11 2.5 0.11 3.391 0 4.094-1 4.094-5.71v-46.79c0-5.21-1.094-6.32-7-6.91v-1.7h24.2v1.79c-7.5 0.11-8.79 1.21-8.79 7.5v15.71c3.59-3.3 5.89-4.3 10.09-4.3 11.91 0 21 11.2 21 25.7 0 12.39-7 21.3-16.7 21.3-5.6 0-10-2.41-14.39-7.91zm0-12.39c0 3 5.59 6.59 10.18 6.59 7.41 0 12.32-7.59 12.32-19.3 0-11-4.91-18.5-12.11-18.5-4.71 0.003-10.39 3.597-10.39 6.597z"/>
<path id="ba" d="m19.2 40.3c0 3-2.5 5.61-5.5 5.61-3.2 0-5.606-2.41-5.606-5.61 0-3 2.606-5.5 5.606-5.5s5.5 2.5 5.5 5.5m0-35.89c0 3-2.5 5.594-5.5 5.594-3.2 0-5.606-2.406-5.606-5.594 0-3 2.606-5.5 5.606-5.5s5.5 2.5 5.5 5.5"/>
<path id="y" d="m40.8 16.41c-4.89-7.41-8.71-10.5-15.39-10.5-4.61-0.004-8.32 1.793-11.11 5.5-3.6 4.79-4.1 8.68-4.597 16.29h30.8c-0.41 5.39-1.41 8.6-3.41 11.39-3.18 4.5-7.68 6.91-13.89 6.91-12.61 0-20.7-10.2-20.7-24.3 0-13.79 7.203-22.7 19-22.7 10 0 17 5.797 20.91 16.7zm-30.89 14.5c1.094 7.5 5.004 11.5 10.59 11.5 6.59 0 8.7-3.41 9.8-11.5z"/>
<path id="aa" d="m63.7 32v6.59h-58.9l-0.003-6.59zm0-20v6.59h-58.9l-0.003-6.59z"/>
</defs>
<g fill="#a6a6a6" transform="translate(30.85 11.87) scale(.1 -.1)">
<use xlink:href="#e"/>
<use xlink:href="#d" x="55.69999694824219"/>
<use xlink:href="#h" x="88.99998474121094"/>
<use xlink:href="#b" x="161.19996643066406"/>
<use xlink:href="#p" x="181.199951171875"/>
<use xlink:href="#c" x="253.39993286132812"/>
<use xlink:href="#XITS-20" x="286.6999206542969"/>
<use xlink:href="#aa" x="311.6999053955078"/>
<use xlink:href="#XITS-20" x="380.19989013671875"/>
<use xlink:href="#ab" x="405.1998748779297"/>
<use xlink:href="#f" x="455.1998596191406"/>
<use xlink:href="#j" x="505.19984436035156"/>
<use xlink:href="#XITS-20" x="579.8998260498047"/>
<use xlink:href="#b" x="604.8998107910156"/>
<use xlink:href="#XITS-20" x="624.8997955322266"/>
<use xlink:href="#e" x="649.8997802734375"/>
<use xlink:href="#d" x="705.5997772216797"/>
<use xlink:href="#h" x="738.8997650146484"/>
<use xlink:href="#b" x="811.0997467041016"/>
<use xlink:href="#o" x="831.0997314453125"/>
<use xlink:href="#c" x="897.7997283935547"/>
<use xlink:href="#XITS-20" x="931.0997161865234"/>
<use xlink:href="#aa" x="956.0997009277344"/>
<use xlink:href="#XITS-20" x="1024.5996856689453"/>
<use xlink:href="#ab" x="1049.5996704101562"/>
<use xlink:href="#f" x="1099.5996551513672"/>
<use xlink:href="#j" x="1149.5996398925781"/>
<use xlink:href="#XITS-20" x="1224.2996215820312"/>
<use xlink:href="#b" x="1249.2996063232422"/>
<use xlink:href="#XITS-20" x="1269.2995910644531"/>
<use xlink:href="#m" x="1294.299575805664"/>
<use xlink:href="#z" x="1333.1995697021484"/>
<use xlink:href="#ay" x="1377.5995635986328"/>
<use xlink:href="#aw" x="1455.3995513916016"/>
<use xlink:href="#x" x="1505.3995361328125"/>
<use xlink:href="#y" x="1533.1995239257812"/>
<use xlink:href="#XITS-20" x="1577.5995178222656"/>
<use xlink:href="#m" x="1602.5995025634766"/>
<use xlink:href="#g" x="1641.499496459961"/>
<use xlink:href="#at" x="1669.2994842529297"/>
<use xlink:href="#y" x="1713.699478149414"/>
<use xlink:href="#ba" x="1758.0994720458984"/>
<use xlink:href="#XITS-20" x="1785.8994598388672"/>
<use xlink:href="#q" x="1810.8994445800781"/>
<use xlink:href="#f" x="1860.899429321289"/>
<use xlink:href="#f" x="1910.8994140625"/>
<use xlink:href="#f" x="1960.899398803711"/>
</g>
<defs>
<path id="s" d="m40.3 12.59c-4.1-4.887-7.21-6.793-11.5-6.793-9.8 0-11.3 9.203-11.89 18.7h25.18c-0.39 7.41-2.18 13.7-5.89 17.8-2.9 3.2-7 5-12.79 5-12.5 0-20.91-10-20.91-24.89 0-13.71 8.3-23.82 20.41-23.82 8.5 0.004 13.79 3.113 19.79 12.61zm-10.5 15.61h-13.39c0 12 2.39 16 7 16 2.89 0 4.09-1.7 5.5-4.7 0.89-1.91 0.89-4 0.89-9.2z"/>
<path id="i" d="m30.7 11.2c-2-3.794-3.61-5.294-5.7-5.294-2.8 0-3.91 2-3.91 6.004v29.79h9.5v4.39h-9.5v16.91h-2.5c-5.79-8.41-9.496-13.7-16.68-18.59l-0.004-2.71h5.297v-32.2c0-6.703 4.297-10.7 11.21-10.7 6.68-0.003 10.68 3.106 14.79 11.29z"/>
<path id="ai" d="m34 32.59v14.5h-2.2c-0.6-1.5-1.21-2-2.5-2-0.6 0-1.5 0.21-3.1 0.71-3.2 1.11-5.5 1.5-7.79 1.5-9.113 0-15.71-6.21-15.71-14.6 0.003-6.61 4.097-11.2 14.21-15.5 6.89-3 9.59-5.5 9.59-8.7 0-3.906-3-6.5-7.5-6.5-7 0-11.59 4.5-13.7 13.2h-2.8v-16.5l2.5 0.003c1.094 2.094 1.703 2.797 2.594 2.797 0.5 0 1.312-0.203 2.312-0.5938 2.894-1.203 8.004-2.312 10.79-2.312 9.1 0 15.39 6.203 15.39 15.21 0 7.11-3.79 11.4-13.79 15.61-6.8 2.79-9.6 5.39-9.6 8.79 0 3.3 2.8 5.8 6.6 5.8 2.7 0 5.29-1.09 7.5-3.2 2.11-2 3.2-3.89 4.7-8.21z"/>
<path id="aq" d="m68.91 0v2.5c-4.11 0-5.91 2.203-11 14.3l-22.21 52.2h-2.79l-22.11-54.5c-3.8-9.406-5.3-11.2-9.894-12l0.0002-2.5h20.18v2.5c-5.89 0.406-8.09 1.5-8.09 4.094 0 2.406 1.91 6.606 3.09 9.706l1.32 3.4h22.5c3.39-7.9 4.59-11.4 4.59-13.61 0-2.184-1.3-2.996-4.59-3.293l-3.21-0.297v-2.5zm-30.5 23.59h-19.5l9.39 24.32z"/>
<path id="ap" d="m42.59 36.5c11.71 2.41 15.91 7.5 15.91 15.09 0 10.32-9.09 16-25.2 16h-31.71l0.004-2.5c6.812-0.5 8.816-2.18 8.816-8.09v-46.7c0-5.597-1.504-7.003-8.816-7.8v-2.5h32.91c17.8 0 27.41 8.094 27.41 18.8 0 9.5-8.32 16.2-19.32 17.61zm-16.18 22.7c0 3.89 1.68 5.39 5.68 5.39 6.82 0 9.91-4.89 9.91-13.68 0-9.82-3.09-13.61-15.59-13.61zm0-24.9h2.59c10.59 0 15.7-5.3 15.7-15.5 0-10.1-4.2-15.6-12-15.6-4.4 0.003-6.29 1.8-6.29 6.597z"/>
<path id="ar" d="m30.2 69.09h-9l-23.61-71 9.004 0.004z"/>
<path id="r" d="m53.91 0v2.406c-3.91 0.297-4.91 1.5-4.91 6v24.68c0 8.71-5.3 14.21-13.5 14.21-6 0-10.8-2.71-14.2-8.71h-0.1v7.5h-19.11l0.004-2.39c4.406-0.7 5.312-1.79 5.312-6.11v-28.89c0-4.2-0.812-5.403-5.312-6.294v-2.406h24v2.406c-3.68 0.5-4.79 2.297-4.79 6v26.39c0 0.4 0.7 1.4 1.7 2.4 2.2 2.21 4.59 3.39 7 3.39 3.41 0 5.09-2.89 5.09-8.5v-23.68c0-4.004-1.18-5.613-4.59-6.004v-2.406z"/>
<path id="k" d="m21.5 61.3c0 4.29-3.41 7.79-7.59 7.79-4.504 0-7.91-3.39-7.91-7.79 0-4.39 3.297-7.71 7.7-7.71 4.39 0 7.8 3.32 7.8 7.71m4.09-61.3v2.406c-3.5 0.5-4.79 1.797-4.79 6.094v37.59h-19.3v-2.39c4.406-0.9 5.406-1.9 5.406-6.4v-28.5c0-4.597-0.703-5.3-5.312-6.394v-2.406z"/>
<path id="am" d="m25.41 6.797c-8 0-10.11 1-10.11 3.703 0 3 3 4.91 6.9 4.91 9.1 0 9.39 0 12.71 1.39 6.09 2.5 9.18 6.9 9.18 13.2 0 4-1.18 7.3-4 9.8h8v5.29h-12.89c-4.4 1.61-7.2 2.21-11.2 2.21-11.91 0-20.3-6.21-20.3-16.1 0.003-7.61 5.3-13.2 12.39-15.2-7.996-2.3-11.89-5.8-11.89-11.7 0.003-3.706 1.8-5.894 8.21-8.206-6.316-0.891-9.613-3.391-9.613-7.504 0-6 6.797-9.18 19.4-9.18 16.71 0 26.1 6 26.1 15.39 0 7.403-6.89 12-17.71 12zm5.18 24.4c0-9.4-1.79-13-6.59-13s-6.59 3.6-6.59 12.89c0 9.82 1.79 13.11 6.5 13.11 4.79 0 6.68-3.7 6.68-13m0.91-36.4c6.5 0 8.91-2.203 8.91-5.597 0-3.79-5.5-6.61-15.41-6.61-8.8 0-13.41 2.32-13.41 6.71 0 2.106 0.71 3.2 3.5 5.497z"/>
</defs>
<g fill="#fff" transform="translate(109.1 163) scale(.13 -.13)">
<use xlink:href="#aq"/>
<use xlink:href="#ar" x="72.19998168945312"/>
<use xlink:href="#ap" x="99.99996948242188"/>
<use xlink:href="#XITS-Bold-20" x="166.69996643066406"/>
<use xlink:href="#i" x="191.699951171875"/>
<use xlink:href="#s" x="224.99993896484375"/>
<use xlink:href="#ai" x="269.3999328613281"/>
<use xlink:href="#i" x="308.2999267578125"/>
<use xlink:href="#k" x="341.59991455078125"/>
<use xlink:href="#r" x="369.39990234375"/>
<use xlink:href="#am" x="424.99989318847656"/>
</g>
<path d="m269.1 169.2h218.4v-155.2l-218.4 0.04z" fill="#fff"/>
<use xlink:href="#a" stroke="#262626" fill="#262626" x="269.134375" y="169.1925"/>
<use xlink:href="#a" stroke="#262626" fill="#262626" x="269.134375" y="14.04"/>
<defs>
<path id="bb" d="m62.09 22v6.59h-55.68l-0.004-6.59z"/>
</defs>
<g fill="#262626" transform="translate(263.2 183) scale(.1 -.1)">
<use xlink:href="#bb"/>
<use xlink:href="#q" x="68.49998474121094"/>
</g>
<use xlink:href="#a" stroke="#262626" fill="#262626" x="378.2946875" y="169.1925"/>
<use xlink:href="#a" stroke="#262626" fill="#262626" x="378.2946875" y="14.04"/>
<g fill="#262626" transform="translate(375.8 183) scale(.1 -.1)">
<use xlink:href="#f"/>
</g>
<use xlink:href="#a" stroke="#262626" fill="#262626" x="487.455" y="169.1925"/>
<use xlink:href="#a" stroke="#262626" fill="#262626" x="487.455" y="14.04"/>
<g fill="#262626" transform="translate(485 183) scale(.1 -.1)">
<use xlink:href="#q"/>
</g>
<g fill="#262626" transform="translate(325.2 199.1) scale(.13 -.13)">
<use xlink:href="#e"/>
<use xlink:href="#d" x="55.69999694824219"/>
<use xlink:href="#h" x="88.99998474121094"/>
<use xlink:href="#b" x="161.19996643066406"/>
<use xlink:href="#o" x="181.199951171875"/>
<use xlink:href="#c" x="247.8999481201172"/>
<use xlink:href="#XITS-20" x="281.19993591308594"/>
<use xlink:href="#ac" x="306.1999206542969"/>
<use xlink:href="#XITS-20" x="339.4999084472656"/>
<use xlink:href="#e" x="364.49989318847656"/>
<use xlink:href="#d" x="420.19989013671875"/>
<use xlink:href="#h" x="453.4998779296875"/>
<use xlink:href="#b" x="525.6998596191406"/>
<use xlink:href="#p" x="545.6998443603516"/>
<use xlink:href="#c" x="617.8998260498047"/>
<use xlink:href="#XITS-20" x="651.1998138427734"/>
<use xlink:href="#d" x="676.1997985839844"/>
<use xlink:href="#j" x="709.4997863769531"/>
<use xlink:href="#c" x="784.1997680664062"/>
</g>
<defs>
<path id="ag" d="m280.1-46.81v-2.51l1.6-0.27 1.7-0.29 1.6-0.36 1.7-0.47 1.6-0.47 1.7-0.4 1.6-0.35 1.7-0.39 1.6-0.48 1.7-0.5 1.6-0.5 1.7-0.51 1.6-0.57 1.7-0.72 1.6-0.9 1.7-1.05 1.6-1.07 1.7-0.95 1.6-0.79 1.7-0.76 1.6-0.89 1.7-1.1 1.6-1.26 1.7-1.38 1.6-1.46 1.7-1.54 1.6-1.62 1.7-1.67 1.6-1.54 1.7-1.3 1.6-1.19 1.7-1.39 1.6-1.79 1.7-2.12 1.6-2.22 1.7-2.17 1.6-2.17 1.7-2.3 1.6-2.51 1.7-2.71 1.6-2.82 1.7-2.83 1.7-2.8 1.6-2.8 1.7-2.9 1.6-3 1.7-3.1 1.6-2.9 1.7-2.7 1.6-2.2 1.7-1.7 1.6-1.6 1.7-1.1h1.6l1.7 2.2 1.6 5.1 1.7 7.8 1.6 8.3 1.7 5.59 1.6-0.1 1.7-5.69 1.6-8.5 1.7-7.7 1.6-5 1.7-2 1.6 0.1 1.7 1.3 1.6 1.7 1.7 2.2 1.6 2.8 1.7 3.2 1.6 3.2 1.7 2.9 1.6 2.3 1.7 2.3 1.6 2.3 1.7 2.5 1.6 2.65 1.7 2.61 1.6 2.53 1.7 2.46 1.6 2.39 1.7 2.36 1.6 2.37 1.7 2.32 1.7 2.14 1.6 1.83 1.7 1.52 1.6 1.33 1.7 1.29 1.6 1.37 1.7 1.55 1.6 1.71 1.7 1.69 1.6 1.48 1.7 1.21 1.6 1.08 1.7 1.02 1.6 0.95 1.7 0.92 1.6 0.92 1.7 0.92 1.6 0.91 1.7 0.93 1.6 0.92 1.7 0.8 1.6 0.64 1.7 0.57 1.6 0.6 1.7 0.63 1.6 0.61 1.7 0.53 1.6 0.47 1.7 0.42 1.6 0.38 1.7 0.3 1.6 0.22 1.7 0.14 1.6 0.14v2.46h-1.6-1.7-1.6-1.7-1.6-1.7-1.6-1.7-1.6-1.7-1.6-1.7-1.6-1.7-1.6-1.7-1.6-1.7-1.6-1.7-1.6-1.7-1.6-1.7-1.6-1.7-1.6-1.7-1.6-1.7-1.6-1.7-1.6-1.7-1.7-1.6-1.7-1.6-1.7-1.6-1.7-1.6-1.7-1.6-1.7-1.6-1.7-1.6-1.7-1.6-1.7-1.6-1.7-1.6-1.7-1.6-1.7-1.6-1.7-1.6-1.7-1.6-1.7-1.6-1.7-1.6-1.7-1.6-1.7-1.6-1.7-1.6-1.7-1.6-1.7-1.6-1.7-1.7-1.6-1.7-1.6-1.7-1.6-1.7-1.6-1.7-1.6-1.7-1.6-1.7-1.6-1.7-1.6-1.7-1.6-1.7-1.6-1.7-1.6-1.7-1.6-1.7-1.6-1.7-1.6-1.7-1.6-1.7-1.6-1.7-1.6-1.7-1.6-1.7-1.6-1.7-1.6-1.7-1.6z" stroke="#55a868" stroke-width=".3"/>
</defs>
<g clip-path="url(#ad)">
<use xlink:href="#ag" stroke-width=".3" stroke="#55a868" fill="#55a868" x="0.0" y="216.0"/>
</g>
<defs>
<path id="al" d="m25.59 0v2.406c-3.29 0.094-5 1.688-5 6.297v58.89h-19.09v-2.39c3.5-0.29 5.203-2.79 5.203-6.5v-50c0-4.403-1.703-5.997-5.109-6.294v-2.406z"/>
<path id="ah" d="m53.8 2v2.297c-4.39 0.203-5.71 1.797-5.71 6.203v35.59h-20v-2.39c5-0.4 6.11-1.79 6.11-6.29v-27.61c-3.11-3.394-5.29-4.706-8.2-4.706-3.59 0-5.59 2-5.59 7.606v33.39h-18.82l0.004-2.39c4.109-0.79 4.906-1.9 4.906-6.5v-24.11c0-9.293 5-14.5 13.3-14.5 5.5 0.004 9.29 1.707 14.5 6.613v-6.5c4.29 1.5 6.7 1.891 13.2 2.594z"/>
<path id="ao" d="m92.09 0v2.5c-8 0.703-8.79 2.797-8.79 10.09v42.82c0 7.5 1.5 9.18 8.79 9.68v2.5h-25.18l-20.11-47.18-19.89 47.18h-25.32l0.004-2.5c7.312-0.59 8.906-2 8.906-7.39v-46.9c0-6.503-1.297-7.503-9.094-8.3v-2.5h23.39v2.5c-8.21 0.594-10.1 2.797-10.1 10.41v46.5l25.21-59.41h2.68l25.21 60.5v-49.59c0-5.91-1.39-7.707-8.89-8.41v-2.5z"/>
<path id="an" d="m21.09 67.59h-19.39l0.003-2.39c4.594-0.9 5.5-1.79 5.5-5.79v-60.71l1.203 0.003 7.894 5.594c4.61-4.203 8.2-5.703 13.2-5.703 13.41 0 22.59 10.31 22.59 25.32 0 13.89-7.68 23.39-18.79 23.39-4.89 0-8.39-1.6-12.21-5.6zm0-31.59c1.82 4.3 3.71 5.91 7 5.91 6.21 0 9.32-6.61 9.32-19.82 0-13.89-3-20.29-9.41-20.29-4.2-0.003-6.91 3.106-6.91 7.903z"/>
<path id="aj" d="m21.8 46.09h-19l-0.003-2.39c4.297-0.61 5.5-1.7 5.5-6.4v-28.89c0-4.113-1-5.207-5.391-6.004v-2.406h26.5v2.406c-6.11 0.391-7.21 1.797-7.21 8.184v17.71c0 5.9 2.6 10.4 6.1 10.4 0.79 0 1.7-0.5 2.79-2.29 1.71-2.82 3.41-3.82 6-3.82 3.71 0 6.32 2.82 6.32 6.82 0 4.59-3.41 7.89-8.11 7.89-5 0-8.8-2.6-13.5-9.39z"/>
<path id="t" d="m53.41 2v2.297c-4.61 0.297-5.91 1.609-5.91 5.793v57.5h-21.5v-2.39c6.7-0.5 7.59-1.2 7.59-5.79v-18.32c-4.29 4.61-7.29 6.21-11.89 6.21-11 0-19.2-10.71-19.2-25.21 0-13.68 7.59-23.5 18.09-23.5 5.32 0.004 8.61 1.613 13.32 6.613v-6.5c4.59 1.297 7.09 1.703 13.29 2.5zm-19.82 9.2c0-0.5-0.89-1.997-1.89-3.294-2-2.5-4.29-3.703-6.61-3.703-5.29 0-7.79 5.997-7.79 18.71 0 12.89 2.7 18.79 8.5 18.79 3.29 0 6.29-2.4 7.79-6.2z"/>
<path id="ak" d="m81.41 0v2.406c-3.91 0.188-5 1.594-5 5.891v24.79c0 8.91-5.32 14.21-13.5 14.21-5.71 0-9.5-2.3-14.71-8.71-3 6.32-6.5 8.71-12.79 8.71-6.41 0-10.61-2.6-14.41-8.71h-0.3v7.5h-19.2v-2.39c4.406-0.61 5.594-1.7 5.594-6.4v-28.71c0-4.09-1.094-5.387-5.5-6.184v-2.406h23.91v2.406c-3.5 0.5-4.5 2.094-4.5 5.891v26.11c0 2.39 6.09 6.18 8.41 6.18 3.89 0 5.39-2.29 5.39-8.29v-24c0-4.097-1-5.597-4.71-5.894v-2.406h23.21v2.406c-3.5 0.391-4.6 2.094-4.6 5.891v26.5c0 0.5 1.39 2.29 2.71 3.29 2.09 1.82 4 2.5 5.79 2.5 3.8 0 5.3-3.29 5.3-9.5v-22.79c0-4.206-1-5.597-4.8-5.894v-2.406z"/>
<path id="as" d="m28.7 17.09v11.61h-24.29l-0.004-11.61z"/>
<path id="u" d="m47.3 6.406l-1-1c-0.3-0.312-0.6-0.406-1.1-0.406-1.4 0-2.11 1.094-2.11 2.797v26.11c0 8.59-7.39 13.39-19.59 13.39-11.3 0-19.09-4.6-19.09-12.6-0.004-4.2 2.387-6.79 6.5-6.79 4 0 6.79 2.59 6.79 6 0 1.39-0.61 2.59-1.9 4.18-0.89 1-1.1 1.71-1.1 2.32 0 2.39 2.89 3.68 6.5 3.68 5.89 0 8.1-2.89 8.1-9.29v-6.8c-11.6-3.3-16.3-5.09-20.1-7.59-4.497-3-6.7-6.82-6.7-11.21 0-7.403 4.594-10.61 11-10.61 5.8 0.004 10.41 1.91 15.91 6.91 1.09-5.094 3.29-6.906 8.18-6.906 4.32 0 7.41 1.609 11.21 5.703zm-18 3.297c-2.21-3.109-4.6-4-7-4-3 0-5.21 2.297-5.21 6.707 0 5.79 4.21 9.89 12.21 12.09z"/>
</defs>
<g fill="#fff" transform="translate(322.9 163) scale(.13 -.13)">
<use xlink:href="#ao"/>
<use xlink:href="#ah" x="94.39999389648438"/>
<use xlink:href="#al" x="149.99998474121094"/>
<use xlink:href="#i" x="177.7999725341797"/>
<use xlink:href="#k" x="211.09996032714844"/>
<use xlink:href="#as" x="238.8999481201172"/>
<use xlink:href="#u" x="272.19993591308594"/>
<use xlink:href="#aj" x="322.1999206542969"/>
<use xlink:href="#ak" x="366.59991455078125"/>
<use xlink:href="#s" x="449.89990234375"/>
<use xlink:href="#t" x="494.2998962402344"/>
<use xlink:href="#XITS-Bold-20" x="549.8998870849609"/>
<use xlink:href="#an" x="574.8998718261719"/>
<use xlink:href="#u" x="630.4998626708984"/>
<use xlink:href="#r" x="680.4998474121094"/>
<use xlink:href="#t" x="736.0998382568359"/>
<use xlink:href="#k" x="791.6998291015625"/>
<use xlink:href="#i" x="819.4998168945312"/>
</g>
<defs>
<clipPath id="ae">
<rect y="14.04" width="218.3" x="30.85" height="155.2"/>
</clipPath>
<clipPath id="ad">
<rect y="14.04" width="218.3" x="269.1" height="155.2"/>
</clipPath>
</defs>
</svg>
