<?xml version="1.0" encoding="UTF-8" standalone="no"?>
<!DOCTYPE svg  PUBLIC '-//W3C//DTD SVG 1.1//EN'  'http://www.w3.org/Graphics/SVG/1.1/DTD/svg11.dtd'>
<svg width="504pt" height="216pt" viewBox="0 0 504 216" xmlns:xlink="http://www.w3.org/1999/xlink" version="1.1" xmlns="http://www.w3.org/2000/svg">
<defs>
<style type="text/css">*{stroke-linecap:butt;stroke-linejoin:round;stroke-miterlimit:100000;}</style>
</defs>
<path fill="#fff" d="m0 216h504v-216h-504z"/>
<path fill="#fff" d="m30.85 169.2h459.2v-155.2l-459.2 0.04z"/>
<defs>
<path id="i" stroke="#262626" d="m0 0"/>
</defs>
<use y="169.1925" stroke="#262626" xlink:href="#i" x="107.367291667" fill="#262626"/>
<use y="14.04" stroke="#262626" xlink:href="#i" x="107.367291667" fill="#262626"/>
<defs>
<path id="u" d="m39.41 0v1.5c-7.5 0-9.5 1.797-9.5 6.094v59.71l-0.91 0.29-17.91-9.09v-1.41l2.71 1c1.79 0.71 3.5 1.21 4.5 1.21 2.11 0 3-1.5 3-4.89v-44.91c0-5.5-2.1-7.594-9.5-8v-1.5z"/>
<path id="ad" d="m5.906-2.203c13 1.797 19.5 4.203 28 11.91 8 7.293 12 18.2 12 29.7 0 8.39-2.41 15.59-6.41 20.59-3.91 4.8-9.3 7.59-15.7 7.59-11.89 0-20.8-10.09-20.8-23.59 0-12.2 7.2-20.3 18-20.3 5.91 0 10.7 1.5 15 5.71-4-16.41-15.2-26.91-30.41-29.61zm30.29 37.7c0-5.3-7.29-7.5-11.7-7.5-7.5 0-12.3 7.5-12.3 19.41 0 5.39 1.5 11.29 3.5 14 1.71 2.18 4.3 3.39 7.3 3.39 8.7 0 13.2-8.6 13.2-25.39z"/>
<path id="b" d="m47.59 33c0 20.5-9.09 34.59-22.18 34.59-16.11 0-23-16.29-23-34-0.004-16.39 5.496-35 22.59-35 16.3 0.004 22.59 17.21 22.59 34.41m-9.59-0.5c0-19.8-4.5-31.3-13-31.3-8.59 0.003-13 11.39-13 31.71 0 20.29 4.5 32.09 12.8 32.09 8.79 0 13.2-11.7 13.2-32.5"/>
</defs>
<g transform="translate(97.37 183) scale(.1 -.1)" fill="#262626">
<use xlink:href="#u"/>
<use xlink:href="#ad" x="49.99998474121094"/>
<use xlink:href="#b" x="99.99996948242188"/>
<use xlink:href="#b" x="149.9999542236328"/>
</g>
<use y="169.1925" stroke="#262626" xlink:href="#i" x="260.404375" fill="#262626"/>
<use y="14.04" stroke="#262626" xlink:href="#i" x="260.404375" fill="#262626"/>
<defs>
<path id="t" d="m47.41 13.7l-1.41 0.6c-3.3-5.597-5.41-6.706-9.59-6.706h-23.41l16.5 17.61c8.91 9.39 12.8 16.89 12.8 24.8 0 9.91-7.21 17.59-18.5 17.59-12.3 0-18.71-8.18-20.8-19.89l2.094-0.5c4 9.8 7.496 13 14.71 13 8.5 0 13.9-5 13.9-14.11 0-8.5-3.61-16.09-13-26l-17.79-18.89-0.004-1.2h39.09z"/>
</defs>
<g transform="translate(250.4 183) scale(.1 -.1)" fill="#262626">
<use xlink:href="#t"/>
<use xlink:href="#b" x="49.99998474121094"/>
<use xlink:href="#b" x="99.99996948242188"/>
<use xlink:href="#b" x="149.9999542236328"/>
</g>
<use y="169.1925" stroke="#262626" xlink:href="#i" x="413.441458333" fill="#262626"/>
<use y="14.04" stroke="#262626" xlink:href="#i" x="413.441458333" fill="#262626"/>
<g transform="translate(403.4 183) scale(.1 -.1)" fill="#262626">
<use xlink:href="#t"/>
<use xlink:href="#u" x="49.99998474121094"/>
<use xlink:href="#b" x="99.99996948242188"/>
<use xlink:href="#b" x="149.9999542236328"/>
</g>
<defs>
<path id="o" d="m77.5 0v1.5l-2.59 0.203c-3 0.203-4.32 1.5-4.32 6v20.3c0 11.8-3.5 18-11.59 18-5.8 0-10.91-2.59-16.3-8.41-1.79 5.71-5.2 8.41-10.61 8.41-4.5 0-8.68-0.91-15.29-7.7h-0.21v7.4l-0.79 0.3c-5.1-1.91-8.394-3-13.89-4.5l-0.004-1.7c1.297 0.29 2.094 0.4 3.188 0.4 2.609 0 3.5-1.7 3.5-6.61v-24.79c0-5.8-1.391-7.206-7-7.3v-1.5h22.21v1.5c-5.3 0.203-6.8 1.203-6.8 5.5v27.8c0 0.2 0.59 0.9 1.3 1.7 2 2.41 6.9 4.3 10.61 4.3 4.29 0 6.5-4.21 6.5-11.1v-21.11c0-6.09-1.11-6.684-6.82-7.09v-1.5h22.41v1.5c-5.7 0.094-7.2 1.5-7.2 8v25.2c3 4.3 6 6.1 10.7 6.1 5.7 0 7.7-3.3 7.7-11.21v-20.59c0-5.797-0.9-6.906-6.5-7.5v-1.5z"/>
<path id="e" d="m47 23.09c0 13.82-9.41 22.91-21.59 22.91-13.5 0-22.5-9.3-22.5-23.2-0.004-13.89 9.5-23.8 21.59-23.8 13.5 0 22.5 10.2 22.5 24.09m-9-2.68c0-11.61-4.41-18.61-11.8-18.61-3.61-0.003-6.79 1.794-9 4.997-3.7 5.403-5.29 12.61-5.29 20.5 0 10 4.68 15.9 11.59 15.9 4.3 0 7.09-2 9.5-5 3.2-4.11 5-11 5-17.79"/>
<path id="l" d="m16 45.8l-0.5 0.2c-5.3-2.09-8.906-3.5-14.8-5.41l0.0031-1.59c1.391 0.3 2.297 0.41 3.5 0.41 2.5 0 3.391-1.61 3.391-6v-25c0-5.004-0.688-5.707-7.094-6.91v-1.5h24v1.5c-6.8 0.297-8.5 1.797-8.5 7.5v22.5c0 3.2 4.2 8.2 7 8.2 0.59 0 1.5-0.5 2.59-1.5 1.61-1.5 2.71-2 4-2 2.41 0 3.91 1.71 3.91 4.5 0 3.3-2.09 5.3-5.5 5.3-4.2 0-7-2.2-12-9.41z"/>
<path id="f" d="m25.7 0v1.5c-6.4 0.406-7.5 1.703-7.5 7.203v59.21l-0.5 0.39c-5.2-1.71-8.903-2.71-15.79-4.39l-0.004-1.61c1.594 0.2 2.891 0.2 3.688 0.2 3.203 0 4.203-1.59 4.203-6.41v-46.89c0-5.497-1.391-7.2-7.703-7.7v-1.5z"/>
<path id="j" d="m48.5 0v1.5c-4.91 0.5-6.09 1.594-6.09 7v22.09c0 9.91-4.21 15.41-11.82 15.41-4.59 0-9.18-2.2-14.39-8.09h-0.11v7.79l-0.79 0.3c-4.89-1.8-8.206-2.91-13.71-4.5l0.004-1.7c0.703 0.29 1.812 0.4 2.906 0.4 2.797 0 3.5-1.61 3.5-6.5v-24.29c0-5.91-1.094-7.504-6.203-7.91v-1.5h21.11v1.5c-5.11 0.406-6.5 1.797-6.5 5.703v27.6c4.59 4.5 7 5.7 10.29 5.7 4.89 0 7.3-3 7.3-10.09v-19.91c0-6.594-1.2-8.594-6.2-9l-0.1-1.5z"/>
<path id="m" d="m15.3 68.09l-0.5 0.21c-4.21-1.5-6.8-2.1-11.5-3.5l-3.003-0.89-0.0001-1.71c0.5 0.1 1 0.21 1.703 0.21 4.094 0 4.906-0.82 4.906-5.82v-51c0-3.387 8.394-6.59 16.5-6.59 13.18 0 23.39 10.2 23.39 25 0 12.41-7.3 22-18 22-6.1 0-11.39-3.3-13.5-8.41zm0-36.29c0 4.2 4.61 7.9 9.9 7.9 3.6 0 6.8-1.7 8.89-4.7 2.5-3.5 3.91-9.3 3.91-15.3 0-5.79-1.3-10.2-3.7-13.2-2.21-2.797-5.39-4.297-9.3-4.297-5.2 0-9.7 2-9.7 5.203z"/>
<path id="x" d="m39.8 15.59c-4.8-6.996-8.39-9.387-14.1-9.387-9.2 0-15.5 7.997-15.5 19.5 0 10.39 5.5 17.39 13.6 17.39 3.61 0 4.9-1.09 5.9-4.79l0.6-2.21c0.79-2.89 2.61-4.59 4.79-4.59 2.61 0 4.71 1.91 4.71 4.2 0 5.6-7 10.3-15.39 10.3-4.71 0-9.5-1.8-13.5-5.09-5.41-4.5-8.41-11.41-8.41-19.71 0-12.9 7.91-22.2 19-22.2 4.3 0 8.09 1.406 11.5 4.203 3 2.391 5 5.297 8.2 11.5z"/>
<path id="g" d="m44.2 6.594c-1.7-1.391-2.7-1.891-4.29-1.891-1.82 0-3.11 2-3.11 6.597v19.11c0 6.09-0.39 8.18-2.8 11.09s-6.2 4.5-11.8 4.5c-4.5 0-8.7-1.2-11.5-3-3.497-2.2-5.106-5.41-5.106-8 0-2.7 2.203-4.59 4.312-4.59 2.594 0 4.594 2.18 4.594 4.09 0 2.09-0.59 2.41-0.59 4.2 0 2.71 3 4.89 7 4.89 4.5 0 7.79-2.79 7.79-9v-5.39c-11.29-4.2-15-6.11-18-8.11-3.903-2.59-6.997-6.5-6.997-11.68 0-6.613 4.297-10.41 10.5-10.41 4.3 0 9.21 1.297 14.5 7.297h0.1c0.5-5.297 2.7-7.297 6.4-7.297 3.39 0 6 1 9 4.797zm-15.5 6.106c0-2.903-0.61-4.294-3.5-6.294-1.7-1.109-3.79-1.609-5.79-1.609-3.91 0-6.91 2.406-6.91 7.703 0 3.09 1 5.5 3.41 7.7 2.5 2.3 6.59 4.39 12.79 6.6z"/>
<path id="a" d="m18 63.2c0 2.8-2.2 5.1-5.09 5.1-2.82 0-5.113-2.3-5.113-5.1 0-2.9 2.203-5.11 5.003-5.11 3 0 5.2 2.21 5.2 5.11m7.3-63.2v1.5c-6.6 0.5-7.39 1.594-7.39 9v35.09l-0.41 0.41-15.5-5.5v-1.59c1.797 0.5 3.297 0.5 4.203 0.5 2.5 0 3.297-1.61 3.297-6.32v-22.68c0-7.613-1-8.504-7.906-8.91v-1.5z"/>
<path id="an" d="m59.3 49.2l-0.71 17h-56.18l-0.707-17h2.391c2 11 4.703 12.8 15.32 12.8h6v-49.7c0-8.8-1.11-9.894-9.41-10.39v-1.91h29.2v1.906c-8.2 0.391-9.61 1.594-9.61 9.184v50.91h5.91c10.59 0 13.2-1.8 15.41-12.8z"/>
<path id="am" d="m2.094 45v-3.2h8.206v-31.39c0-7.316-1.097-8.504-8.3-8.91v-1.5h26v1.5c-8.2 0.297-9.3 1.406-9.3 8.91v31.39h12.21v3.2h-12.21v11.59c0 5.91 1.8 8.91 5.6 8.91 2.2 0 3.5-1 5.29-3.91 1.61-2.68 2.82-3.59 4.5-3.59 2.41 0 4.21 1.8 4.21 4.09 0 3.61-4.39 6.21-10.39 6.21-6.32 0-11.5-2.71-14.11-7.21-2.6-4.5-3.39-8.09-3.5-16.09z"/>
<path id="ak" d="m50.5 0v1.5c-4.41 0.297-7.59 2.094-11.7 7.297l-15.3 19.4 2.91 2.71c12.29 11.39 15.18 12.59 21.59 12.59v1.5h-20.41v-1.41c3.91-0.09 5-0.5 5-1.79 0-0.89-0.89-2.21-2.29-3.5l-13.71-12.21v42l-0.39 0.21c-3.9-1.21-6.497-2-12.5-3.6l-2.997-0.79 0.0001-1.61c1.297 0.11 2.203 0.2 3.203 0.2 3.391 0 4.297-1.3 4.297-6.09v-48.21c0-5.2-0.297-5.497-7.5-6.7l0.0001-1.5h23.39v1.5l-2 0.094c-4 0.203-5.5 1.609-5.5 5.109v18.39l15-19.79c0.82-1.003 1.11-1.8 1.11-2.3 0-0.906-0.9-1.5-2.11-1.5h-1.89v-1.5z"/>
<path id="c" d="m26.59 7.703c-2.18-2.609-3.79-3.5-6-3.5-3.68 0-5.18 2.594-5.18 8.997v28.6h10.09v3.2h-10.09v11.59c0 1-0.21 1.32-0.71 1.32-0.61-1-1.4-1.91-2-2.82-3.794-5.5-7.106-9.18-9.7-10.68-1.094-0.71-1.703-1.32-1.703-1.91 0-0.3 0.109-0.5 0.406-0.7h5.297v-30.1c0-8.403 3-12.7 8.8-12.7 5 0 8.79 2.406 12.11 7.594z"/>
<path id="q" d="m48 5h-0.59c-4.61 0-5.71 1.094-5.71 5.7v34.3h-15.79v-1.7c6-0.39 7.39-1.21 7.39-6.5v-23.1c0-3.5-0.71-4.403-2.3-5.794-2.5-2.203-5.5-3.109-8.41-3.109-3.89 0-7.09 3.297-7.09 7.903v32.3h-14.59l-0.0038-1.41c4.797-0.29 6.188-1.68 6.188-6.68v-25.11c0-7.706 4.496-12.8 12.21-12.8 3.7 0 9.4 1.906 14.29 8.594h0.21v-8.188l0.5-0.3122c5 2 8.61 3.109 13.7 4.5z"/>
<path id="d" d="m40.8 16.41c-4.89-7.41-8.71-10.5-15.39-10.5-4.61-0.004-8.32 1.793-11.11 5.5-3.6 4.79-4.1 8.68-4.597 16.29h30.8c-0.41 5.39-1.41 8.6-3.41 11.39-3.18 4.5-7.68 6.91-13.89 6.91-12.61 0-20.7-10.2-20.7-24.3 0-13.79 7.203-22.7 19-22.7 10 0 17 5.797 20.91 16.7zm-30.89 14.5c1.094 7.5 5.004 11.5 10.59 11.5 6.59 0 8.7-3.41 9.8-11.5z"/>
<path id="h" d="m15.59 30.09c-2.79 1.71-4.29 4.61-4.29 6.82 0 4.68 3.2 6.79 7.5 6.79 6 0 9-3.29 11.29-12.29h1.5l-0.5 13.59h-1.09c-0.8-0.91-1.2-1-1.59-1-0.71 0-1.71 0.3-2.82 0.8-2.09 1-4.29 1.11-6.68 1.11-8.21 0-13.82-4.41-13.82-12.32 0.004-5.09 3.707-9.89 12-14.5l5.41-3c3.3-1.79 5.3-4.39 5.3-7.496 0-4.094-3.21-7.391-8.3-7.391-6.91 0-10.59 4.391-12.7 14.1h-1.597v-15.71l1.297 0.0038c0.594 1 1.203 1.203 2.406 1.203 1.094 0.0001 2.184-0.0937 4.594-0.8906 2.3-0.8124 5.2-0.9062 7.3-0.9062 7.61 0 14 5.797 14 12.5 0 5.7-2.39 8.41-8.8 12.3z"/>
</defs>
<g transform="translate(201.4 199.1) scale(.13 -.13)" fill="#262626">
<use xlink:href="#an"/>
<use xlink:href="#e" x="61.09999084472656"/>
<use xlink:href="#c" x="111.0999755859375"/>
<use xlink:href="#g" x="138.89996337890625"/>
<use xlink:href="#f" x="183.29995727539062"/>
<use xlink:href="#XITS-20" x="211.09994506835938"/>
<use xlink:href="#j" x="236.0999298095703"/>
<use xlink:href="#q" x="286.09991455078125"/>
<use xlink:href="#o" x="336.0998992919922"/>
<use xlink:href="#m" x="413.89988708496094"/>
<use xlink:href="#d" x="463.8998718261719"/>
<use xlink:href="#l" x="508.29986572265625"/>
<use xlink:href="#XITS-20" x="541.599853515625"/>
<use xlink:href="#e" x="566.5998382568359"/>
<use xlink:href="#am" x="616.5998229980469"/>
<use xlink:href="#XITS-20" x="649.8998107910156"/>
<use xlink:href="#x" x="674.8997955322266"/>
<use xlink:href="#f" x="719.2997894287109"/>
<use xlink:href="#a" x="747.0997772216797"/>
<use xlink:href="#x" x="774.8997650146484"/>
<use xlink:href="#ak" x="819.2997589111328"/>
<use xlink:href="#h" x="869.2997436523438"/>
</g>
<defs>
<path id="s" d="m1.594 66.2v-1.9c7.406-0.6 8.406-1.8 8.406-9.21v-42.89c0-8.606-0.594-9.7-8.406-10.29v-1.91h28v1.906c-8.09 0.391-9.39 1.688-9.39 9.294v17.89c2.71-0.18 4.3-0.29 6.89-0.29 10.71 0 15.61 0.9 21.41 6.11 3.7 3.29 5.7 7.79 5.7 13.09 0 5-1.7 9.09-5 11.91-4.5 3.79-11.7 6.29-21.7 6.29zm18.61-7.29c0 2.68 0.6 3.59 3.5 3.59 13.6 0 19.6-4 19.6-15 0-9-6-14.7-17-14.7-2 0-3.8 0.11-6.1 0.29z"/>
<path id="aj" d="m47.5 45h-13.3v-1.5c3.1 0 4.6-0.8 4.6-2.41 0-0.39-0.1-1.09-0.39-1.79l-9.71-27.6-11.2 25c-0.59 1.39-1.3 3-1.3 4.1 0 1.79 1.39 2.5 5.71 2.7v1.5h-20.5l-0.004-1.41c2.594-0.39 4.297-1.29 5.297-3.5l13.21-28.18c1.89-4.004 4.18-8.613 4.18-10.11 0-1.597-2-7.894-4-10.8-1.59-2.41-3.59-4.41-5-4.41-0.59 0-1.5 0.11-2.59 0.71-1.8 1-3.406 1.29-5.203 1.29-2.391 0-4.297-2.09-4.297-4.59 0-3.3 2.703-5.8 7-5.8 7.59 0 12.3 5.1 17.5 19.3l15 40.91c1.41 3.68 2.59 4.79 5 5.09z"/>
<path id="r" d="m49.09 4.203v1.594c-1.68-0.094-1.79-0.094-2.29-0.094-3.6 0-4.39 1.094-4.39 5.707v56.68l-0.5 0.21c-4.82-1.71-8.32-2.71-14.71-4.39v-1.61c0.8 0.11 1.39 0.11 2.21 0.11 3.68 0 4.59-1 4.59-5.11v-15.6c-3.8 3.21-6.5 4.3-10.5 4.3-11.5 0-20.8-11.3-20.8-25.5 0.003-12.8 7.39-21.5 18.5-21.5 5.6 0 9.39 2 12.8 6.703v-6.406l0.41-0.297zm-15.09 5.997c0-0.7-0.59-1.794-1.5-2.794-1.8-2.109-4.3-3.203-7.41-3.203-8.39 0-13.79 7.997-13.79 20.3 0 11.3 4.9 18.7 12.5 18.7 5.4 0 10.2-4.7 10.2-10z"/>
</defs>
<g transform="translate(23.02 152.1) rotate(-90) scale(.13 -.13)" fill="#262626">
<use xlink:href="#s"/>
<use xlink:href="#l" x="55.69999694824219"/>
<use xlink:href="#e" x="88.99998474121094"/>
<use xlink:href="#m" x="138.99996948242188"/>
<use xlink:href="#g" x="188.9999542236328"/>
<use xlink:href="#m" x="233.3999481201172"/>
<use xlink:href="#a" x="283.3999328613281"/>
<use xlink:href="#f" x="311.1999206542969"/>
<use xlink:href="#a" x="338.9999084472656"/>
<use xlink:href="#c" x="366.7998962402344"/>
<use xlink:href="#aj" x="394.5998840332031"/>
<use xlink:href="#XITS-20" x="444.59986877441406"/>
<use xlink:href="#r" x="469.599853515625"/>
<use xlink:href="#a" x="519.5998382568359"/>
<use xlink:href="#h" x="547.3998260498047"/>
<use xlink:href="#c" x="586.2998199462891"/>
<use xlink:href="#l" x="614.0998077392578"/>
<use xlink:href="#a" x="647.3997955322266"/>
<use xlink:href="#m" x="675.1997833251953"/>
<use xlink:href="#q" x="725.1997680664062"/>
<use xlink:href="#c" x="775.1997528076172"/>
<use xlink:href="#a" x="802.9997406005859"/>
<use xlink:href="#e" x="830.7997283935547"/>
<use xlink:href="#j" x="880.7997131347656"/>
</g>
<defs>
<path id="ah" stroke-width=".3" stroke="#4c72b0" d="m30.85-46.81v-1.69l2.31-0.18 2.3-0.18 2.31-0.19 2.31-0.19 2.3-0.2 2.31-0.19 2.31-0.21 2.31-0.23 2.3-0.27 2.31-0.32 2.31-0.39 2.3-0.46 2.31-0.53 2.31-0.59 2.31-0.62 2.3-0.65 2.31-0.66 2.31-0.66 2.3-0.67 2.31-0.67 2.31-0.71 2.3-0.77 2.31-0.85 2.31-0.96 2.31-1.07 2.3-1.18 2.31-1.28 2.31-1.35 2.3-1.41 2.35-1.45 2.3-1.47 2.3-1.5 2.3-1.51 2.3-1.56 2.3-1.61 2.3-1.67 2.3-1.75 2.3-1.84 2.3-1.93 2.3-2.01 2.3-2.09 2.3-2.16 2.4-2.23 2.3-2.29 2.3-2.38 2.3-2.45 2.3-2.56 2.3-2.6 2.3-2.6 2.3-2.7 2.3-2.7 2.3-2.7 2.3-2.6 2.3-2.6 2.3-2.5 2.3-2.5 2.4-2.5 2.3-2.5 2.3-2.6 2.3-2.6 2.3-2.7 2.3-2.7 2.3-2.7 2.3-2.7 2.3-2.7 2.3-2.6 2.3-2.3 2.3-2.2 2.3-1.9 2.3-1.6 2.4-1.4 2.3-1.2 2.3-1 2.3-0.8 2.3-0.7 2.3-0.5 2.3-0.4 2.3-0.3 2.3-0.2 2.3-0.1h2.3l2.3 0.1 2.3 0.1 2.3 0.2 2.4 0.3 2.3 0.4 2.3 0.7 2.3 1 2.3 1.2 2.3 1.4 2.3 1.7 2.3 1.9 2.3 2.1 2.3 2.1 2.3 2.2 2.3 2.3 2.3 2.2 2.3 2.3 2.4 2.2 2.3 2.3 2.3 2.3 2.3 2.4 2.3 2.5 2.3 2.7 2.3 2.8 2.3 2.9 2.3 3.1 2.3 3.2 2.3 3.2 2.3 3.1 2.3 3 2.3 2.8 2.4 2.6 2.3 2.48 2.3 2.37 2.3 2.32 2.3 2.34 2.3 2.39 2.3 2.46 2.3 2.49 2.3 2.48 2.3 2.41 2.3 2.27 2.3 2.1 2.3 1.89 2.3 1.7 2.3 1.53 2.4 1.4 2.3 1.32 2.3 1.3 2.3 1.3 2.3 1.33 2.3 1.36 2.3 1.36 2.3 1.33 2.3 1.28 2.3 1.17 2.3 1.05 2.3 0.92 2.3 0.78 2.3 0.66 2.4 0.57 2.3 0.49 2.3 0.45 2.3 0.41 2.3 0.4 2.3 0.39 2.3 0.38 2.3 0.36 2.3 0.35 2.3 0.32 2.3 0.28 2.3 0.26 2.3 0.22 2.3 0.18 2.4 0.16 2.3 0.13 2.3 0.11 2.3 0.09 2.3 0.09 2.3 0.09 2.3 0.1 2.3 0.1 2.3 0.1 2.3 0.1 2.3 0.11 2.3 0.11 2.3 0.09 2.3 0.1 2.4 0.08 2.3 0.07 2.3 0.07 2.3 0.06 2.3 0.05 2.3 0.05 2.3 0.05 2.3 0.03 2.3 0.03 2.3 0.02 2.3 0.02 2.3 0.01 2.3 0.01 2.3 0.01h2.4 2.3 2.3 2.3 2.3 2.3 2.3 2.3 2.3 2.3 2.3 2.3 2.3 2.3 2.4 2.3-2.3-2.4-2.3-2.3-2.3-2.3-2.3-2.3-2.3-2.3-2.3-2.3-2.3-2.3-2.3-2.4-2.3-2.3-2.3-2.3-2.3-2.3-2.3-2.3-2.3-2.3-2.3-2.3-2.3-2.4-2.3-2.3-2.3-2.3-2.3-2.3-2.3-2.3-2.3-2.3-2.3-2.3-2.3-2.4-2.3-2.3-2.3-2.3-2.3-2.3-2.3-2.3-2.3-2.3-2.3-2.3-2.3-2.4-2.3-2.3-2.3-2.3-2.3-2.3-2.3-2.3-2.3-2.3-2.3-2.3-2.3-2.4-2.3-2.3-2.3-2.3-2.3-2.3-2.3-2.3-2.3-2.3-2.3-2.3-2.3-2.3-2.4-2.3-2.3-2.3-2.3-2.3-2.3-2.3-2.3-2.3-2.3-2.3-2.3-2.3-2.4-2.3-2.3-2.3-2.3-2.3-2.3-2.3-2.3-2.3-2.3-2.3-2.3-2.3-2.4-2.3-2.3-2.3-2.3-2.3-2.3-2.3-2.3-2.3-2.3-2.3-2.3-2.3-2.4-2.3-2.3-2.3-2.3-2.3-2.3-2.3-2.3-2.3-2.3-2.3-2.3-2.3-2.4-2.3-2.3-2.3-2.3-2.3-2.3-2.3-2.3-2.3-2.3-2.3-2.3-2.3-2.4-2.3-2.3-2.3-2.3-2.3-2.3-2.3-2.3-2.3-2.3-2.3-2.3-2.35-2.3-2.31-2.31-2.3-2.31-2.31-2.31-2.3-2.31-2.31-2.3-2.31-2.31-2.3-2.31-2.31-2.31-2.3-2.31-2.31-2.3-2.31-2.31-2.31-2.3-2.31-2.31-2.3-2.31z"/>
</defs>
<g clip-path="url(#p)">
<use y="216.0" stroke="#4c72b0" xlink:href="#ah" stroke-width=".3" x="0.0" fill="#4c72b0"/>
</g>
<defs>
<path id="ai" stroke-width=".3" stroke="#55a868" d="m30.85-46.81v-0.77l2.31-0.08 2.3-0.09 2.31-0.09 2.31-0.1 2.3-0.11 2.31-0.12 2.31-0.13 2.31-0.14 2.3-0.15 2.31-0.16 2.31-0.18 2.3-0.2 2.31-0.21 2.31-0.22 2.31-0.25 2.3-0.26 2.31-0.28 2.31-0.31 2.3-0.33 2.31-0.35 2.31-0.37 2.3-0.4 2.31-0.43 2.31-0.46 2.31-0.49 2.3-0.52 2.31-0.56 2.31-0.59 2.3-0.62 2.35-0.67 2.3-0.7 2.3-0.74 2.3-0.79 2.3-0.83 2.3-0.87 2.3-0.92 2.3-0.97 2.3-1.02 2.3-1.07 2.3-1.11 2.3-1.17 2.3-1.22 2.4-1.28 2.3-1.32 2.3-1.38 2.3-1.43 2.3-1.48 2.3-1.54 2.3-1.58 2.3-1.64 2.3-1.68 2.3-1.73 2.3-1.77 2.3-1.81 2.3-1.85 2.3-1.89 2.4-1.92 2.3-1.95 2.3-1.98 2.3-2 2.3-2.01 2.3-2.1 2.3-2 2.3-2.1 2.3-2 2.3-2.1 2.3-2.1 2.3-2 2.3-2.1 2.3-2 2.4-2 2.3-2 2.3-2 2.3-1.9 2.3-1.9 2.3-1.8 2.3-1.8 2.3-1.8 2.3-1.7 2.3-1.6 2.3-1.5 2.3-1.5 2.3-1.5 2.3-1.3 2.4-1.2 2.3-1.2 2.3-1.1 2.3-0.9 2.3-0.9 2.3-0.8 2.3-0.6 2.3-0.6 2.3-0.4 2.3-0.3 2.3-0.2 2.3-0.1 2.3 0.1 2.3 0.2 2.4 0.3 2.3 0.4 2.3 0.5 2.3 0.7 2.3 0.7 2.3 0.9 2.3 1 2.3 1.1 2.3 1.2 2.3 1.3 2.3 1.4 2.3 1.4 2.3 1.6 2.3 1.6 2.4 1.7 2.3 1.7 2.3 1.8 2.3 1.8 2.3 1.9 2.3 2 2.3 1.9 2.3 2 2.3 2.1 2.3 2 2.3 2.1 2.3 2.1 2.3 2.1 2.3 2.1 2.3 2.1 2.4 2.1 2.3 2.1 2.3 2 2.3 2.12 2.3 2.06 2.3 2.04 2.3 2.02 2.3 1.99 2.3 1.96 2.3 1.93 2.3 1.9 2.3 1.86 2.3 1.82 2.3 1.78 2.4 1.73 2.3 1.68 2.3 1.63 2.3 1.58 2.3 1.52 2.3 1.47 2.3 1.41 2.3 1.36 2.3 1.3 2.3 1.24 2.3 1.18 2.3 1.13 2.3 1.06 2.3 1.02 2.4 0.96 2.3 0.9 2.3 0.85 2.3 0.81 2.3 0.75 2.3 0.71 2.3 0.66 2.3 0.61 2.3 0.58 2.3 0.54 2.3 0.49 2.3 0.47 2.3 0.43 2.3 0.39 2.4 0.37 2.3 0.34 2.3 0.31 2.3 0.29 2.3 0.26 2.3 0.24 2.3 0.23 2.3 0.2 2.3 0.19 2.3 0.17 2.3 0.16 2.3 0.14 2.3 0.13 2.3 0.12 2.4 0.11 2.3 0.1 2.3 0.1 2.3 0.08 2.3 0.08 2.3 0.07 2.3 0.06 2.3 0.06 2.3 0.06 2.3 0.05 2.3 0.05 2.3 0.04 2.3 0.04 2.3 0.04 2.4 0.03 2.3 0.03v0.3h-2.3-2.4-2.3-2.3-2.3-2.3-2.3-2.3-2.3-2.3-2.3-2.3-2.3-2.3-2.3-2.4-2.3-2.3-2.3-2.3-2.3-2.3-2.3-2.3-2.3-2.3-2.3-2.3-2.3-2.4-2.3-2.3-2.3-2.3-2.3-2.3-2.3-2.3-2.3-2.3-2.3-2.3-2.3-2.4-2.3-2.3-2.3-2.3-2.3-2.3-2.3-2.3-2.3-2.3-2.3-2.3-2.3-2.4-2.3-2.3-2.3-2.3-2.3-2.3-2.3-2.3-2.3-2.3-2.3-2.3-2.3-2.4-2.3-2.3-2.3-2.3-2.3-2.3-2.3-2.3-2.3-2.3-2.3-2.3-2.3-2.3-2.4-2.3-2.3-2.3-2.3-2.3-2.3-2.3-2.3-2.3-2.3-2.3-2.3-2.3-2.4-2.3-2.3-2.3-2.3-2.3-2.3-2.3-2.3-2.3-2.3-2.3-2.3-2.3-2.4-2.3-2.3-2.3-2.3-2.3-2.3-2.3-2.3-2.3-2.3-2.3-2.3-2.3-2.4-2.3-2.3-2.3-2.3-2.3-2.3-2.3-2.3-2.3-2.3-2.3-2.3-2.3-2.4-2.3-2.3-2.3-2.3-2.3-2.3-2.3-2.3-2.3-2.3-2.3-2.3-2.3-2.4-2.3-2.3-2.3-2.3-2.3-2.3-2.3-2.3-2.3-2.3-2.3-2.3-2.35-2.3-2.31-2.31-2.3-2.31-2.31-2.31-2.3-2.31-2.31-2.3-2.31-2.31-2.3-2.31-2.31-2.31-2.3-2.31-2.31-2.3-2.31-2.31-2.31-2.3-2.31-2.31-2.3-2.31z"/>
</defs>
<g clip-path="url(#p)">
<use y="216.0" stroke="#55a868" xlink:href="#ai" stroke-width=".3" x="0.0" fill="#55a868"/>
</g>
<path fill="none" stroke="#4c72b0" stroke-linecap="round" d="m30.85 167.5l16.15-1.3 4.61-0.5 4.62-0.8 4.61-0.9 6.92-1.9 11.54-3.4 4.61-1.6 4.62-2 4.61-2.5 4.61-2.7 6.95-4.5 6.9-4.6 4.6-3.5 4.6-3.7 4.6-4.1 4.7-4.4 4.6-4.7 4.6-5 6.9-7.9 6.9-7.99 6.9-7.62 7-7.57 6.9-7.99 6.9-8.14 2.3-2.54 2.3-2.37 2.3-2.15 2.3-1.91 2.3-1.65 2.4-1.4 2.3-1.17 2.3-0.98 2.3-0.81 2.3-0.66 2.3-0.54 2.3-0.41 4.6-0.47 4.6-0.11 4.6 0.16 2.3 0.19 2.4 0.3 2.3 0.47 2.3 0.68 2.3 0.93 2.3 1.21 2.3 1.46 2.3 1.71 2.3 1.9 4.6 4.19 9.2 8.96 7 6.84 4.6 4.89 4.6 5.45 4.6 6.05 6.9 9.49 4.6 5.8 4.7 5.1 13.8 14.3 4.6 4.9 2.3 2.3 2.3 2.1 2.3 1.9 2.3 1.7 4.7 2.9 18.4 10.6 4.6 2.2 2.3 0.9 2.3 0.8 4.7 1.3 4.6 0.9 9.2 1.6 6.9 1 6.9 0.8 7 0.4 25.3 1.1 11.6 0.4 13.8 0.2 20.8 0.1h25.4v0" stroke-width=".9" clip-path="url(#p)"/>
<defs>
<path id="aa" d="m70.7 0v1.906c-5.2 0.594-6.61 2.688-9.4 9.184l-24.6 56.32h-2l-20.61-48.82c-5.887-14-6.793-16.09-12.59-16.68v-1.91h19.91v1.906c-4.82 0-7 1-7 4.094 0 1.203 0.39 2.906 0.89 4.2l4.61 11.39h26.18l4.11-9.39c1.21-2.794 1.89-5.497 1.89-6.997 0-0.906-0.59-2-1.39-2.406-1.2-0.703-1.9-0.891-5.5-0.891v-1.906zm-26 25.7h-23.11l11.5 27.5z"/>
<path id="v" d="m41.8 13.59l-1.8 0.41c-1-5-1.3-6.594-2.7-8.297-1.39-1.703-4.8-2.703-10.6-2.703h-13.29l26.89 40.5v1.5h-34.6l-0.403-11.8h1.797c0.906 7.3 2.406 8.8 8.706 8.8h13.5l-26.6-40.5 0.003-1.5h37.6z"/>
<path id="aq" d="m47.3 16.7v6.39h-10.3v44.5h-4.41l-31.39-44.5 0.003-6.39h28v-16.7h7.8v16.7zm-18.1 6.39h-24l24 34.32z"/>
<path id="ag" d="m68.59 21.3c0 7.4-3.5 11.7-9.59 11.7-9.59 0-18.91-10.41-18.91-21.09 0-7.816 5.32-13.82 12.11-13.82 8.6 0.004 16.39 11.11 16.39 23.21m-2.29 0.2c0-10.59-6.5-20.7-13.39-20.7-3.21-0.0031-5.61 2.903-5.61 6.794 0 6.816 3.4 15.61 7.79 20.32 1.21 1.39 3.32 2.29 4.91 2.29 3.8 0 6.3-3.5 6.3-8.7m-4.21 49.09h-4.39c-9.2-8.89-10.5-9.68-16.7-9.68-3.7 0-6.09 1-9.59 3.89-2.71 2.2-3.91 2.79-6 2.79-10.21 0-19.32-10-19.32-21.29 0.004-7.8 5.11-13.71 11.82-13.71 3.29 0 5.89 1.11 8.59 3.71 4.8 4.5 8 12 8 19 0 1.61-0.09 2.7-0.41 4.4 3.21-1.11 5-1.4 7.61-1.4 5.3 0 8.39 1.4 12.1 5.7l-39.39-65.8 4.68 0.003zm-30-13.68c0-11.5-6.09-21.61-13.18-21.61-3.41 0-5.71 2.79-5.71 7 0 5.5 1.71 11.4 4.8 16.29 2 3.32 3.09 4.32 7.2 6.32 1.71-1.82 3-2.71 4.39-3.41 2.11-1 2.5-1.7 2.5-4.59"/>
<path id="y" d="m68.8 33.09c0 19.82-13.1 34.5-32.71 34.5-19.5 0-32.68-13.89-32.68-34.18-0.004-20.82 13.29-34.82 32.68-34.82 19.21 0.004 32.71 13.91 32.71 34.5m-11.39 0.61c0-12-2.82-21.4-8.32-26.7-3.5-3.297-7.89-4.797-12.89-4.797-4.61 0-9 1.391-12.4 4.5-6.1 5.597-9 14.6-9 26.5 0 9.5 2.61 19.21 6.9 24.1 3.89 4.5 8.89 6.7 14.3 6.7 4.7 0 8.7-1.7 12.3-4.7 5.7-4.8 9.11-14.21 9.11-25.6"/>
<path id="z" d="m42.2 34.91c5.21 1.29 7.21 2.09 9.6 4.18 2.5 2.21 4.11 6.32 4.11 10.41 0 10.59-8.91 16.7-26.21 16.7h-28l0.003-1.9c8.094-0.5 9.597-1.39 9.597-9.3v-43.7c0-7.597-1.706-9.206-9.597-9.394v-1.906h33.71c14.5 0 23.89 6.703 23.89 17.8 0 4.4-1.71 8.61-4.89 11.5-2.91 2.61-5.61 4.4-12.21 5.5zm-20.7 1.68v22.71c0 2.29 0.7 3.2 2.41 3.2h4.09c11.91 0 17.7-5.09 17.7-13.5 0-8.3-4.9-12.41-15-12.41zm0-4c11.8-0.39 15.59 0 21.59-4 3.32-2.18 4.71-5.89 4.71-10.68 0-4.32-1.3-7.71-3.8-9.91-4.41-3.906-7.91-4.297-16.3-4.297-4.61 0-6.2 1.094-6.2 4.5z"/>
<path id="ac" d="m19.2 40.3c0 3-2.5 5.61-5.5 5.61-3.2 0-5.606-2.41-5.606-5.61 0-3 2.606-5.5 5.606-5.5s5.5 2.5 5.5 5.5m0-35.89c0 3-2.5 5.594-5.5 5.594-3.2 0-5.606-2.406-5.606-5.594 0-3 2.606-5.5 5.606-5.5s5.5 2.5 5.5 5.5"/>
<path id="af" d="m30.41-16.09c-14 11.68-17 23-17 41.59 0 19.3 3.09 28.59 17 40.5l-0.91 1.59c-16-9.5-24.7-23.89-24.7-42.39-0.003-17 8.61-33.9 24.4-42.9z"/>
<path id="k" d="m13.3-1.406v69h-6.597v-69z"/>
<path id="n" d="m15.91 45.8l-0.61 0.2c-5.3-2.09-8.894-3.41-14.39-5.09l-0.0038-1.61c0.8908 0.11 1.594 0.11 2.5 0.11 3.391 0 4.094-1 4.094-5.71v-46.79c0-5.21-1.094-6.32-7-6.91v-1.7h24.2v1.79c-7.5 0.11-8.79 1.21-8.79 7.5v15.71c3.59-3.3 5.89-4.3 10.09-4.3 11.91 0 21 11.2 21 25.7 0 12.39-7 21.3-16.7 21.3-5.6 0-10-2.41-14.39-7.91zm0-12.39c0 3 5.59 6.59 10.18 6.59 7.41 0 12.32-7.59 12.32-19.3 0-11-4.91-18.5-12.11-18.5-4.71 0.003-10.39 3.597-10.39 6.597z"/>
<path id="ap" d="m44.59 68.41c-13.79-1.5-21.68-3.91-30.29-12.91-7.097-7.3-10.89-16.8-10.89-27.59-0.004-7 1.887-14.11 4.684-19.21 3.496-6.403 9.816-10.11 17.71-10.11 6.61 0.004 12.2 2.707 15.9 7.316 3.3 4 5.1 9.594 5.1 16 0 12.89-7.21 20.89-18.89 20.89-4.41 0-7.82-0.71-12.71-4.5 2.71 15.11 13.89 25.9 29.6 28.5zm-6.79-49.61c0-10.21-3.71-17.39-10.89-17.39-9.41-0.004-14.21 10-14.21 25.18 0 9.21 5.89 11.61 11.6 11.61 9.29 0 13.5-6.61 13.5-19.4"/>
<path id="ae" d="m2.906 66c14.5-11.41 17-22.91 17-41.59 0-19.41-2.82-28.82-17-40.5l0.887-1.61c15.9 9.7 24.7 23.9 24.7 42.4 0 17-9.09 33.71-24.41 42.89z"/>
<path id="ab" d="m63.7 32v6.59h-58.9l-0.003-6.59zm0-20v6.59h-58.9l-0.003-6.59z"/>
<path id="w" d="m47.91 0v1.5c-3.11 0-5.41 1.703-8.21 6l-12.79 19.59 8.29 12c1.89 2.71 4.89 4.32 8.1 4.41v1.5h-15.8v-1.5c3-0.2 4-0.8 4-2.2 0-1.21-1.5-3-3.7-6.5-1-1.5-2-3.1-3-4.39-0.39 0.68-0.89 1.29-1.39 2-2.91 4.29-4.61 7.59-4.61 8.89 0 1.5 1.29 2.11 4.29 2.2v1.5h-20.68l-0.004-1.5h0.891c3 0 4.609-1.3 7.703-6l9.41-14.41-11.41-16.5c-2.797-4.09-4-4.793-7.297-5.09v-1.5h14.5v1.5c-2.9 0-4 0.5-4 1.797 0 0.703 0.6 1.906 2 4.109l7.89 12.29 9.11-14c0.39-0.606 0.6-1.106 0.6-1.794 0-1.812-0.71-2.203-4-2.406v-1.5z"/>
</defs>
<g transform="translate(30.85 11.87) scale(.1 -.1)" fill="#a6a6a6">
<use xlink:href="#s"/>
<use xlink:href="#af" x="55.69999694824219"/>
<use xlink:href="#y" x="88.99998474121094"/>
<use xlink:href="#k" x="161.19996643066406"/>
<use xlink:href="#aa" x="181.199951171875"/>
<use xlink:href="#ae" x="253.39993286132812"/>
<use xlink:href="#XITS-20" x="286.6999206542969"/>
<use xlink:href="#ab" x="311.6999053955078"/>
<use xlink:href="#XITS-20" x="380.19989013671875"/>
<use xlink:href="#u" x="405.1998748779297"/>
<use xlink:href="#b" x="455.1998596191406"/>
<use xlink:href="#ag" x="505.19984436035156"/>
<use xlink:href="#XITS-20" x="579.8998260498047"/>
<use xlink:href="#k" x="604.8998107910156"/>
<use xlink:href="#XITS-20" x="624.8997955322266"/>
<use xlink:href="#s" x="649.8997802734375"/>
<use xlink:href="#af" x="705.5997772216797"/>
<use xlink:href="#y" x="738.8997650146484"/>
<use xlink:href="#k" x="811.0997467041016"/>
<use xlink:href="#z" x="831.0997314453125"/>
<use xlink:href="#ae" x="897.7997283935547"/>
<use xlink:href="#XITS-20" x="931.0997161865234"/>
<use xlink:href="#ab" x="956.0997009277344"/>
<use xlink:href="#XITS-20" x="1024.5996856689453"/>
<use xlink:href="#t" x="1049.5996704101562"/>
<use xlink:href="#b" x="1099.5996551513672"/>
<use xlink:href="#ag" x="1149.5996398925781"/>
<use xlink:href="#XITS-20" x="1224.2996215820312"/>
<use xlink:href="#k" x="1249.2996063232422"/>
<use xlink:href="#XITS-20" x="1269.2995910644531"/>
<use xlink:href="#d" x="1294.299575805664"/>
<use xlink:href="#w" x="1338.6995697021484"/>
<use xlink:href="#n" x="1388.6995544433594"/>
<use xlink:href="#f" x="1438.6995391845703"/>
<use xlink:href="#e" x="1466.499526977539"/>
<use xlink:href="#l" x="1516.49951171875"/>
<use xlink:href="#g" x="1549.7994995117188"/>
<use xlink:href="#c" x="1594.1994934082031"/>
<use xlink:href="#a" x="1621.9994812011719"/>
<use xlink:href="#e" x="1649.7994689941406"/>
<use xlink:href="#j" x="1699.7994537353516"/>
<use xlink:href="#XITS-20" x="1749.7994384765625"/>
<use xlink:href="#h" x="1774.7994232177734"/>
<use xlink:href="#g" x="1813.6994171142578"/>
<use xlink:href="#o" x="1858.0994110107422"/>
<use xlink:href="#n" x="1935.899398803711"/>
<use xlink:href="#f" x="1985.8993835449219"/>
<use xlink:href="#d" x="2013.6993713378906"/>
<use xlink:href="#XITS-20" x="2058.099365234375"/>
<use xlink:href="#h" x="2083.099349975586"/>
<use xlink:href="#a" x="2121.9993438720703"/>
<use xlink:href="#v" x="2149.799331665039"/>
<use xlink:href="#d" x="2194.1993255615234"/>
<use xlink:href="#ac" x="2238.599319458008"/>
<use xlink:href="#XITS-20" x="2266.3993072509766"/>
<use xlink:href="#ap" x="2291.3992919921875"/>
<use xlink:href="#b" x="2341.3992767333984"/>
<use xlink:href="#b" x="2391.3992614746094"/>
<use xlink:href="#XITS-20" x="2441.3992462158203"/>
<use xlink:href="#k" x="2466.3992309570312"/>
<use xlink:href="#XITS-20" x="2486.399215698242"/>
<use xlink:href="#d" x="2511.399200439453"/>
<use xlink:href="#w" x="2555.7991943359375"/>
<use xlink:href="#n" x="2605.7991790771484"/>
<use xlink:href="#f" x="2655.7991638183594"/>
<use xlink:href="#e" x="2683.599151611328"/>
<use xlink:href="#a" x="2733.599136352539"/>
<use xlink:href="#c" x="2761.399124145508"/>
<use xlink:href="#g" x="2789.1991119384766"/>
<use xlink:href="#c" x="2833.599105834961"/>
<use xlink:href="#a" x="2861.3990936279297"/>
<use xlink:href="#e" x="2889.1990814208984"/>
<use xlink:href="#j" x="2939.1990661621094"/>
<use xlink:href="#XITS-20" x="2989.1990509033203"/>
<use xlink:href="#h" x="3014.1990356445312"/>
<use xlink:href="#g" x="3053.0990295410156"/>
<use xlink:href="#o" x="3097.4990234375"/>
<use xlink:href="#n" x="3175.2990112304688"/>
<use xlink:href="#f" x="3225.2989959716797"/>
<use xlink:href="#d" x="3253.0989837646484"/>
<use xlink:href="#XITS-20" x="3297.498977661133"/>
<use xlink:href="#h" x="3322.4989624023438"/>
<use xlink:href="#a" x="3361.398956298828"/>
<use xlink:href="#v" x="3389.198944091797"/>
<use xlink:href="#d" x="3433.5989379882812"/>
<use xlink:href="#ac" x="3477.9989318847656"/>
<use xlink:href="#XITS-20" x="3505.7989196777344"/>
<use xlink:href="#ad" x="3530.7989044189453"/>
<use xlink:href="#aq" x="3580.7988891601562"/>
<use xlink:href="#b" x="3630.798873901367"/>
<use xlink:href="#b" x="3680.798858642578"/>
</g>
<defs>
<path id="ar" d="m28.7 67.59h-6.7l-22.91-69 6.816 0.004z"/>
<path id="al" d="m47 38.8v3.9h-7.7c-2 0-3.5 0.3-5.5 1l-2.21 0.8c-2.68 1-5.39 1.5-8 1.5-9.29 0-16.68-7.2-16.68-16.3-0.004-6.29 2.59-10.11 9.29-13.4-1.4-1.39-2.79-2.71-4.29-4-3.316-2.894-4.613-4.894-4.613-6.894 0-2.203 1.109-3.312 5.293-5.312-7.184-5.188-9.793-8.5-9.793-12.18 0-5.32 7.703-9.71 17.29-9.71 7.21 0 14.82 2.39 20 6.39 4.11 3.21 6 6.504 6 10.5 0 6.207-4.68 10.41-12.09 10.71l-12.91 0.606c-5.39 0.297-7.79 1.094-7.79 2.688 0 1.996 3.29 5.496 6 6.316l1.9-0.21c1.8-0.2 3.21-0.29 3.8-0.29 3.5 0 7.2 1.5 10.41 3.89 3.59 2.7 5.18 6.4 5.18 11.61 0 2.89-0.5 5.18-1.89 8.39zm-31.8-5c0 5.9 2.8 9.4 7.39 9.4 3.11 0 5.71-1.7 7.32-4.7 1.89-3.5 3-8 3-12.09 0-5.5-2.91-9-7.41-9-6.2 0-10.3 6.5-10.3 16.09zm28.1-40.21c0-5.794-7.6-9.684-19-9.684-8.8 0-14.5 2.89-14.5 7.293-0.003 2.297 0.9 3.797 4.9 8.594 3.39-0.7032 11.3-1.297 16.21-1.297 9.09 0 12.39-1.203 12.39-4.906"/>
</defs>
<g transform="translate(92.06 85.65) scale(.13 -.13)" fill="#4c72b0">
<use xlink:href="#aa"/>
<use xlink:href="#ar" x="72.19998168945312"/>
<use xlink:href="#z" x="99.99996948242188"/>
<use xlink:href="#XITS-20" x="166.69996643066406"/>
<use xlink:href="#c" x="191.699951171875"/>
<use xlink:href="#d" x="219.49993896484375"/>
<use xlink:href="#h" x="263.8999328613281"/>
<use xlink:href="#c" x="302.7999267578125"/>
<use xlink:href="#a" x="330.59991455078125"/>
<use xlink:href="#j" x="358.39990234375"/>
<use xlink:href="#al" x="408.39988708496094"/>
</g>
<defs>
<path id="ao" d="m86.41 0v1.906c-7.32 0.5-8.82 2.188-8.82 9.294v43.8c0 7.5 1.5 9.2 8.71 9.3v1.9h-19.89l-22.11-50.2-23.1 50.2h-19.79l-0.004-1.9c8.188-0.5 9.504-1.8 9.504-9.39v-39.82c0-11.18-1.41-12.59-9.707-13.18v-1.91h23.39v1.906c-7.68 0.391-9.29 2.188-9.29 13.18v39.82l25.2-54.91h1.41l25.5 57.2v-44.9c0-8.3-1.11-9.894-9-10.39v-1.91z"/>
<path id="as" d="m28.5 19.41v6.29h-24.59l-0.004-6.29z"/>
</defs>
<g transform="translate(336.9 109.5) scale(.13 -.13)" fill="#55a868">
<use xlink:href="#ao"/>
<use xlink:href="#q" x="88.89999389648438"/>
<use xlink:href="#f" x="138.8999786376953"/>
<use xlink:href="#c" x="166.69996643066406"/>
<use xlink:href="#a" x="194.4999542236328"/>
<use xlink:href="#as" x="222.29994201660156"/>
<use xlink:href="#g" x="255.5999298095703"/>
<use xlink:href="#l" x="299.9999237060547"/>
<use xlink:href="#o" x="333.29991149902344"/>
<use xlink:href="#d" x="411.0998992919922"/>
<use xlink:href="#r" x="455.49989318847656"/>
<use xlink:href="#XITS-20" x="505.4998779296875"/>
<use xlink:href="#m" x="530.4998626708984"/>
<use xlink:href="#g" x="580.4998474121094"/>
<use xlink:href="#j" x="624.8998413085938"/>
<use xlink:href="#r" x="674.8998260498047"/>
<use xlink:href="#a" x="724.8998107910156"/>
<use xlink:href="#c" x="752.6997985839844"/>
</g>
<defs>
<clipPath id="p">
<rect width="459.1" y="14.04" height="155.2" x="30.85"/>
</clipPath>
</defs>
</svg>
