<?xml version="1.0" encoding="UTF-8" standalone="no"?>
<svg xmlns="http://www.w3.org/2000/svg" viewBox="0 0 758.77911 307.24399" version="1.1" xmlns:rdf="http://www.w3.org/1999/02/22-rdf-syntax-ns#" xmlns:xlink="http://www.w3.org/1999/xlink" xmlns:dc="http://purl.org/dc/elements/1.1/" xmlns:cc="http://creativecommons.org/ns#">
<defs>
<linearGradient id="a" gradientUnits="userSpaceOnUse" gradientTransform="matrix(1 0 0 .8487 -.02723 6.329)" y1="34.15" x2="61.25" x1="61.25" y2="22.09">
<stop offset="0" stop-color="#76f04c"/>
<stop offset="1" stop-color="#b9f7a2"/>
</linearGradient>
<linearGradient id="f" gradientUnits="userSpaceOnUse" xlink:href="#a" gradientTransform="matrix(.7301 0 0 .6037 63.36 45)" y1="416.2" y2="390.1" x2="-234.9" x1="-234.9"/>
<linearGradient id="e" gradientUnits="userSpaceOnUse" xlink:href="#b" gradientTransform="matrix(.7301 0 0 .6037 63.36 235.7)" y1="416.2" y2="390.1" x2="-234.9" x1="-234.9"/>
<linearGradient id="b" gradientUnits="userSpaceOnUse" gradientTransform="matrix(1 0 0 .8487 -.02723 6.329)" y1="34.15" x2="61.25" x1="61.25" y2="22.09">
<stop offset="0" stop-color="#f0c04c"/>
<stop offset="1" stop-color="#f7dea2"/>
</linearGradient>
<linearGradient id="d" gradientUnits="userSpaceOnUse" x2="-234.9" gradientTransform="matrix(.7301 0 0 .6037 353.3 -7.37)" y1="416.2" y2="390.1" xlink:href="#a" x1="-234.9"/>
<linearGradient id="c" gradientUnits="userSpaceOnUse" x2="-234.9" gradientTransform="matrix(.7301 0 0 .6037 353.3 159.3)" y1="416.2" y2="390.1" xlink:href="#b" x1="-234.9"/>
</defs>
<metadata>
<rdf:RDF>
<cc:Work rdf:about="">
<dc:format>image/svg+xml</dc:format>
<dc:type rdf:resource="http://purl.org/dc/dcmitype/StillImage"/>
<dc:title/>
</cc:Work>
</rdf:RDF>
</metadata>
<g transform="translate(524.8 -165)">
<g fill="#000000" font-family="sans-serif">
<text style="letter-spacing:0px;word-spacing:0px" x="381.66089" xml:space="preserve" line-height="125%" font-size="15px" y="342.25021"><tspan y="342.25021" x="381.66089"/></text>
<text style="letter-spacing:0px;word-spacing:0px" x="616.8125" xml:space="preserve" line-height="125%" font-size="7.5px" y="355.17471"><tspan y="355.17471" x="616.8125"/></text>
<text style="letter-spacing:0px;word-spacing:0px" x="535.05396" xml:space="preserve" line-height="125%" font-size="15px" y="773.63092"><tspan y="773.63092" x="535.05396"/></text>
<text style="letter-spacing:0px;word-spacing:0px" x="770.20557" xml:space="preserve" line-height="125%" font-size="7.5px" y="786.55542"><tspan y="786.55542" x="770.20557"/></text>
</g>
<g>
<rect x="-276.1" width="217.1" y="165" fill="#4d4d4d" ry="4.21" height="142.1"/>
<rect x="-273.3" width="211.4" y="178.8" fill="#fff" ry="4.007" height="125.2"/>
<rect stroke-linejoin="round" fill="url(#f)" stroke-linecap="round" height="16.43" stroke-width=".4608" x="-147.8" width="79.51" stroke="#52a834" ry=".9456" y="280.2"/>
<g fill="#bbb">
<g transform="translate(20 1.414)">
<rect x="-288" width="110" ry="4.582" y="184.4" height="77.78"/>
<rect x="-288" width="110" y="268.6" ry="4.582" height="26.87"/>
</g>
<rect x="-148" width="80" y="185.9" ry="4.582" height="26.87"/>
<rect x="-148" width="80" ry="4.582" y="220.6" height="51.62"/>
</g>
</g>
<path d="m-354.3 198.9 36.82 36.82c0.1659 0.1659 0.1659 0.433 0 0.5989l-36.82 36.82h-0.5989v-74.24z" fill="#bbb"/>
<path d="m-14.33 198.9 36.82 36.82c0.1659 0.1659 0.1659 0.433 0 0.5989l-36.82 36.82h-0.5989v-74.24z" fill="#bbb"/>
<g transform="translate(0 -30)">
<rect x="-276.1" width="217.1" fill="#4d4d4d" ry="4.21" y="355.6" height="142.1"/>
<rect x="-273.3" width="211.4" fill="#fff" ry="4.007" y="369.4" height="125.2"/>
<rect stroke-linejoin="round" fill="url(#e)" stroke-linecap="round" height="16.43" y="470.8" stroke-width=".4608" x="-147.8" width="79.51" stroke="#a88734" ry=".9456"/>
<g fill="#bbb">
<g transform="translate(20 192.1)">
<rect x="-288" width="110" y="184.4" ry="4.582" height="77.78"/>
<rect x="-288" width="110" ry="4.582" y="268.6" height="26.87"/>
</g>
<rect x="-148" width="80" ry="4.582" y="376.5" height="26.87"/>
<rect x="-148" width="80" y="411.2" ry="4.582" height="51.62"/>
</g>
</g>
<path d="m-354.3 359.6 36.82 36.82c0.1659 0.1659 0.1659 0.433 0 0.5989l-36.82 36.82h-0.5989v-74.24z" fill="#bbb"/>
<path d="m-14.33 359.6 36.82 36.82c0.1659 0.1659 0.1659 0.433 0 0.5989l-36.82 36.82h-0.5989v-74.24z" fill="#bbb"/>
<g stroke-linejoin="round" stroke-width="13.5" stroke-linecap="round" stroke="#fff">
<g fill="#bbb">
<g transform="matrix(.1833 0 0 .1833 -409.6 156.9)">
<path d="m-195.5 242.4c-47.8 0-86.28 38.48-86.28 86.28v78.64a267 106.8 0 0 0 114.2 10.42 267 106.8 0 0 0 114.2 -10.39v-78.66c0-47.8-38.48-86.28-86.28-86.28h-55.91z"/>
<circle cy="182.7" r="73.19" cx="-167.5"/>
</g>
<g transform="matrix(.1833 0 0 .1833 -387.6 182.2)">
<path d="m-195.5 242.4c-47.8 0-86.28 38.48-86.28 86.28v78.64a267 106.8 0 0 0 114.2 10.42 267 106.8 0 0 0 114.2 -10.39v-78.66c0-47.8-38.48-86.28-86.28-86.28h-55.91z"/>
<circle cy="182.7" r="73.19" cx="-167.5"/>
</g>
<g transform="matrix(.1833 0 0 .1833 -453.6 156.9)">
<path d="m-195.5 242.4c-47.8 0-86.28 38.48-86.28 86.28v78.64a267 106.8 0 0 0 114.2 10.42 267 106.8 0 0 0 114.2 -10.39v-78.66c0-47.8-38.48-86.28-86.28-86.28h-55.91z"/>
<circle cy="182.7" r="73.19" cx="-167.5"/>
</g>
<g transform="matrix(.1833 0 0 .1833 -431.6 171.2)">
<path d="m-195.5 242.4c-47.8 0-86.28 38.48-86.28 86.28v78.64a267 106.8 0 0 0 114.2 10.42 267 106.8 0 0 0 114.2 -10.39v-78.66c0-47.8-38.48-86.28-86.28-86.28h-55.91z"/>
<circle r="73.19" cx="-167.5" cy="182.7"/>
</g>
<g transform="matrix(.1833 0 0 .1833 -471.9 182.2)">
<path d="m-195.5 242.4c-47.8 0-86.28 38.48-86.28 86.28v78.64a267 106.8 0 0 0 114.2 10.42 267 106.8 0 0 0 114.2 -10.39v-78.66c0-47.8-38.48-86.28-86.28-86.28h-55.91z"/>
<circle cy="182.7" r="73.19" cx="-167.5"/>
</g>
</g>
<g transform="matrix(.1833 0 0 .1833 -453.6 196.9)" fill="#4d4d4d">
<path d="m-195.5 242.4c-47.8 0-86.28 38.48-86.28 86.28v78.64a267 106.8 0 0 0 114.2 10.42 267 106.8 0 0 0 114.2 -10.39v-78.66c0-47.8-38.48-86.28-86.28-86.28h-55.91z"/>
<circle r="73.19" cx="-167.5" cy="182.7"/>
</g>
<g transform="matrix(.1833 0 0 .1833 -409.6 196.9)" fill="#bbb">
<path d="m-195.5 242.4c-47.8 0-86.28 38.48-86.28 86.28v78.64a267 106.8 0 0 0 114.2 10.42 267 106.8 0 0 0 114.2 -10.39v-78.66c0-47.8-38.48-86.28-86.28-86.28h-55.91z"/>
<circle r="73.19" cx="-167.5" cy="182.7"/>
</g>
<g transform="matrix(.1833 0 0 .1833 -431.6 204.2)" fill="#4d4d4d">
<path d="m-195.5 242.4c-47.8 0-86.28 38.48-86.28 86.28v78.64a267 106.8 0 0 0 114.2 10.42 267 106.8 0 0 0 114.2 -10.39v-78.66c0-47.8-38.48-86.28-86.28-86.28h-55.91z"/>
<circle cy="182.7" r="73.19" cx="-167.5"/>
</g>
</g>
<g transform="translate(0,-6)">
<g stroke-linejoin="round" stroke-width="13.5" stroke-linecap="round" stroke="#fff">
<g transform="matrix(.1833 0 0 .1833 -453.6 330.6)" fill="#bbb">
<path d="m-195.5 242.4c-47.8 0-86.28 38.48-86.28 86.28v78.64a267 106.8 0 0 0 114.2 10.42 267 106.8 0 0 0 114.2 -10.39v-78.66c0-47.8-38.48-86.28-86.28-86.28h-55.91z"/>
<circle cy="182.7" r="73.19" cx="-167.5"/>
</g>
<g transform="matrix(.1833 0 0 .1833 -409.6 330.6)" fill="#bbb">
<path d="m-195.5 242.4c-47.8 0-86.28 38.48-86.28 86.28v78.64a267 106.8 0 0 0 114.2 10.42 267 106.8 0 0 0 114.2 -10.39v-78.66c0-47.8-38.48-86.28-86.28-86.28h-55.91z"/>
<circle cy="182.7" r="73.19" cx="-167.5"/>
</g>
<g transform="matrix(.1833 0 0 .1833 -387.6 355.9)" fill="#4d4d4d">
<path d="m-195.5 242.4c-47.8 0-86.28 38.48-86.28 86.28v78.64a267 106.8 0 0 0 114.2 10.42 267 106.8 0 0 0 114.2 -10.39v-78.66c0-47.8-38.48-86.28-86.28-86.28h-55.91z"/>
<circle cy="182.7" r="73.19" cx="-167.5"/>
</g>
<g fill="#bbb">
<g transform="matrix(.1833 0 0 .1833 -431.6 345)">
<path d="m-195.5 242.4c-47.8 0-86.28 38.48-86.28 86.28v78.64a267 106.8 0 0 0 114.2 10.42 267 106.8 0 0 0 114.2 -10.39v-78.66c0-47.8-38.48-86.28-86.28-86.28h-55.91z"/>
<circle r="73.19" cx="-167.5" cy="182.7"/>
</g>
<g transform="matrix(.1833 0 0 .1833 -471.9 355.9)">
<path d="m-195.5 242.4c-47.8 0-86.28 38.48-86.28 86.28v78.64a267 106.8 0 0 0 114.2 10.42 267 106.8 0 0 0 114.2 -10.39v-78.66c0-47.8-38.48-86.28-86.28-86.28h-55.91z"/>
<circle cy="182.7" r="73.19" cx="-167.5"/>
</g>
<g transform="matrix(.1833 0 0 .1833 -453.6 370.6)">
<path d="m-195.5 242.4c-47.8 0-86.28 38.48-86.28 86.28v78.64a267 106.8 0 0 0 114.2 10.42 267 106.8 0 0 0 114.2 -10.39v-78.66c0-47.8-38.48-86.28-86.28-86.28h-55.91z"/>
<circle r="73.19" cx="-167.5" cy="182.7"/>
</g>
</g>
<g transform="matrix(.1833 0 0 .1833 -409.6 370.6)" fill="#4d4d4d">
<path d="m-195.5 242.4c-47.8 0-86.28 38.48-86.28 86.28v78.64a267 106.8 0 0 0 114.2 10.42 267 106.8 0 0 0 114.2 -10.39v-78.66c0-47.8-38.48-86.28-86.28-86.28h-55.91z"/>
<circle r="73.19" cx="-167.5" cy="182.7"/>
</g>
<g transform="matrix(.1833 0 0 .1833 -431.6 377.9)" fill="#bbb">
<path d="m-195.5 242.4c-47.8 0-86.28 38.48-86.28 86.28v78.64a267 106.8 0 0 0 114.2 10.42 267 106.8 0 0 0 114.2 -10.39v-78.66c0-47.8-38.48-86.28-86.28-86.28h-55.91z"/>
<circle cy="182.7" r="73.19" cx="-167.5"/>
</g>
</g>
</g>
<g transform="translate(0 -5.168)" stroke-linecap="round" stroke="#4d4d4d">
<path stroke-linejoin="round" d="m104.9 229.7 17.13 15.99-8.279 0.7138 4.711 10.42-3.14 1.427-4.568-10.56-5.853 5.567v-23.55" stroke-width="1.246" fill="#fff"/>
<g stroke-width=".8305" fill="none">
<path d="m110.8 229.6h-3.034m-5.552 0h-2.964"/>
<path d="m100.8 225.4 2.275 2.275m4.083 4.083 2.109 2.109"/>
<path d="m100.8 233.8 2.275-2.275m4.083-4.083 2.109-2.109"/>
<path d="m105 235.4v-3.034m0-5.552v-2.964"/>
</g>
</g>
<g fill="#4d4d4d">
<path d="m55.98 219.5v0.95c3.7 0.3 4.2 0.9 4.2 4.6v21.45c0 4.3-0.3 4.85-4.2 5.15v0.95h14v-0.95c-4.05-0.2-4.7-0.85-4.7-4.65v-8.95c1.35 0.1 2.15 0.15 3.45 0.15 5.35 0 7.8-0.45 10.7-3.05 1.85-1.65 2.85-3.9 2.85-6.55 0-2.5-0.85-4.55-2.5-5.95-2.25-1.9-5.85-3.15-10.85-3.15h-12.95zm9.3 3.65c0-1.35 0.3-1.8 1.75-1.8 6.8 0 9.8 2 9.8 7.5 0 4.5-3 7.35-8.5 7.35-1 0-1.9-0.05-3.05-0.15v-12.9z"/>
<path d="m100.2 256.6c-7-5.85-8.5-11.5-8.5-20.8 0-9.65 1.55-14.3 8.5-20.25l-0.45-0.8c-8 4.75-12.35 11.95-12.35 21.2 0 8.5 4.3 16.95 12.2 21.45l0.6-0.8z"/>
<path d="m132.4 258v-43.95h-3.3v43.95h3.3z"/>
<path d="m221.2 215.6c7.25 5.7 8.5 11.45 8.5 20.8 0 9.7-1.4 14.4-8.5 20.25l0.45 0.8c7.95-4.85 12.35-11.95 12.35-21.2 0-8.5-4.55-16.85-12.2-21.45l-0.6 0.8z"/>
</g>
<path stroke-linejoin="round" stroke="#52a834" stroke-width=".4608" stroke-linecap="round" fill="url(#d)" d="m143.1 227.8h77.62c0.5239 0 0.9456 0.4218 0.9456 0.9456v14.54c0 0.5239-0.4218 0.9456-0.9456 0.9456h-77.62c-0.5239 0-0.9456-0.4218-0.9456-0.9456v-14.54c0-0.5239 0.4218-0.9456 0.9456-0.9456z"/>
<g fill="#4d4d4d">
<path d="m75.95 210.5c-0.77 1.4-1.505 2.555-3.08 2.555-1.12 0-2.73-0.91-3.36-1.19-2.345-1.015-2.94-1.19-4.095-1.19-1.61 0-3.185 0.7-4.375 3.045l1.26 1.75c0.595-1.61 1.715-2.555 2.94-2.555 1.47 0 2.765 0.56 3.395 0.875 1.995 1.05 2.625 1.505 4.2 1.505 1.61 0 2.87-0.77 4.375-3.01l-1.26-1.785z"/>
</g>
<g transform="translate(0,-6)">
<path stroke-linejoin="round" stroke="#a88734" stroke-width=".4608" stroke-linecap="round" fill="url(#c)" d="m143.1 394.4h77.62c0.5239 0 0.9456 0.4218 0.9456 0.9456v14.54c0 0.5239-0.4218 0.9456-0.9456 0.9456h-77.62c-0.5239 0-0.9456-0.4218-0.9456-0.9456v-14.54c0-0.5239 0.4218-0.9456 0.9456-0.9456z"/>
<g transform="translate(0 161.5)" stroke-linecap="round" stroke="#4d4d4d">
<path stroke-linejoin="round" d="m104.9 229.7 17.13 15.99-8.279 0.7138 4.711 10.42-3.14 1.427-4.568-10.56-5.853 5.567v-23.55" stroke-width="1.246" fill="#fff"/>
<g stroke-width=".8305" fill="none">
<path d="m110.8 229.6h-3.034m-5.552 0h-2.964"/>
<path d="m100.8 225.4 2.275 2.275m4.083 4.083 2.109 2.109"/>
<path d="m100.8 233.8 2.275-2.275m4.083-4.083 2.109-2.109"/>
<path d="m105 235.4v-3.034m0-5.552v-2.964"/>
</g>
</g>
<g fill="#4d4d4d">
<path d="m55.98 386.1v0.95c3.7 0.3 4.2 0.9 4.2 4.6v21.45c0 4.3-0.3 4.85-4.2 5.15v0.95h14v-0.95c-4.05-0.2-4.7-0.85-4.7-4.65v-8.95c1.35 0.1 2.15 0.15 3.45 0.15 5.35 0 7.8-0.45 10.7-3.05 1.85-1.65 2.85-3.9 2.85-6.55 0-2.5-0.85-4.55-2.5-5.95-2.25-1.9-5.85-3.15-10.85-3.15h-12.95zm9.3 3.65c0-1.35 0.3-1.8 1.75-1.8 6.8 0 9.8 2 9.8 7.5 0 4.5-3 7.35-8.5 7.35-1 0-1.9-0.05-3.05-0.15v-12.9z"/>
<path d="m100.2 423.3c-7-5.85-8.5-11.5-8.5-20.8 0-9.65 1.55-14.3 8.5-20.25l-0.45-0.8c-8 4.75-12.35 11.95-12.35 21.2 0 8.5 4.3 16.95 12.2 21.45l0.6-0.8z"/>
<path d="m132.4 424.7v-43.95h-3.3v43.95h3.3z"/>
<path d="m221.2 382.2c7.25 5.7 8.5 11.45 8.5 20.8 0 9.7-1.4 14.4-8.5 20.25l0.45 0.8c7.95-4.85 12.35-11.95 12.35-21.2 0-8.5-4.55-16.85-12.2-21.45l-0.6 0.8z"/>
<path d="m75.95 377.2c-0.77 1.4-1.505 2.555-3.08 2.555-1.12 0-2.73-0.91-3.36-1.19-2.345-1.015-2.94-1.19-4.095-1.19-1.61 0-3.185 0.7-4.375 3.045l1.26 1.75c0.595-1.61 1.715-2.555 2.94-2.555 1.47 0 2.765 0.56 3.395 0.875 1.995 1.05 2.625 1.505 4.2 1.505 1.61 0 2.87-0.77 4.375-3.01l-1.26-1.785z"/>
</g>
</g>
<g fill="#4d4d4d">
<path d="m-494.8 287.5-0.55-5.325h-0.525c-0.1 0.55-0.375 0.85-0.8 0.85-0.25 0-0.65-0.1-1.1-0.3-0.95-0.4-1.6-0.55-2.625-0.55-2.475 0-4.35 1.65-4.35 4.375 0 1.55 0.8 3.1 3.05 4.3 1.6 0.85 3.325 1.95 4.2 2.9 0.475 0.525 0.725 1.1 0.725 1.975 0 1.65-1.225 2.8-2.975 2.8-2.375 0-4-1.4-5.15-4.425h-0.55l0.725 5.3h0.55c0-0.525 0.325-0.825 0.7-0.825 0.275 0 0.7 0.075 1.175 0.275 0.925 0.4 1.9 0.575 2.95 0.575 2.9 0 5.1-1.875 5.1-4.675 0-1.9-1.225-3.35-3.875-4.9-2.625-1.525-4.475-2.575-4.475-4.275 0-1.375 0.975-2.375 2.525-2.375 1.5 0 2.75 0.825 3.625 1.95 0.45 0.6 0.725 1.25 1.025 2.35h0.625z"/>
<path d="m-481.5 297.5c-0.425 0.35-0.675 0.475-1.075 0.475-0.45 0-0.775-0.5-0.775-1.65v-4.775c0-1.525-0.1-2.05-0.7-2.775s-1.55-1.125-2.95-1.125c-1.125 0-2.175 0.3-2.875 0.75-0.875 0.55-1.275 1.35-1.275 2 0 0.675 0.55 1.15 1.075 1.15 0.65 0 1.15-0.55 1.15-1.025 0-0.525-0.15-0.6-0.15-1.05 0-0.675 0.75-1.225 1.75-1.225 1.125 0 1.95 0.7 1.95 2.25v1.35c-2.825 1.05-3.75 1.525-4.5 2.025-0.975 0.65-1.75 1.625-1.75 2.925 0 1.65 1.075 2.6 2.625 2.6 1.075 0 2.3-0.325 3.625-1.825h0.025c0.125 1.325 0.675 1.825 1.6 1.825 0.85 0 1.5-0.25 2.25-1.2v-0.7zm-3.875-1.525c0 0.725-0.15 1.075-0.875 1.575-0.425 0.275-0.95 0.4-1.45 0.4-0.975 0-1.725-0.6-1.725-1.925 0-0.775 0.25-1.375 0.85-1.925 0.625-0.575 1.65-1.1 3.2-1.65v3.525z"/>
<path d="m-462.1 299.1v-0.375l-0.65-0.05c-0.75-0.05-1.075-0.375-1.075-1.5v-5.075c0-2.95-0.875-4.5-2.9-4.5-1.45 0-2.725 0.65-4.075 2.1-0.45-1.425-1.3-2.1-2.65-2.1-1.125 0-2.175 0.225-3.825 1.925h-0.05v-1.85l-0.2-0.075c-1.275 0.475-2.1 0.75-3.475 1.125v0.425c0.325-0.075 0.525-0.1 0.8-0.1 0.65 0 0.875 0.425 0.875 1.65v6.2c0 1.45-0.35 1.8-1.75 1.825v0.375h5.55v-0.375c-1.325-0.05-1.7-0.3-1.7-1.375v-6.95c0-0.05 0.15-0.225 0.325-0.425 0.5-0.6 1.725-1.075 2.65-1.075 1.075 0 1.625 1.05 1.625 2.775v5.275c0 1.525-0.275 1.675-1.7 1.775v0.375h5.6v-0.375c-1.425-0.025-1.8-0.375-1.8-2v-6.3c0.75-1.075 1.5-1.525 2.675-1.525 1.425 0 1.925 0.825 1.925 2.8v5.15c0 1.45-0.225 1.725-1.625 1.875v0.375h5.45z"/>
<path d="m-458.2 287.7-0.15-0.05c-1.325 0.525-2.225 0.85-3.6 1.275v0.4c0.225-0.025 0.4-0.025 0.625-0.025 0.85 0 1.025 0.25 1.025 1.425v11.7c0 1.3-0.275 1.575-1.75 1.725v0.425h6.05v-0.45c-1.875-0.025-2.2-0.3-2.2-1.875v-3.925c0.9 0.825 1.475 1.075 2.525 1.075 2.975 0 5.25-2.8 5.25-6.425 0-3.1-1.75-5.325-4.175-5.325-1.4 0-2.5 0.6-3.6 1.975v-1.925zm0 3.1c0-0.75 1.4-1.65 2.55-1.65 1.85 0 3.075 1.9 3.075 4.825 0 2.75-1.225 4.625-3.025 4.625-1.175 0-2.6-0.9-2.6-1.65v-6.15z"/>
<path d="m-443.2 299.1v-0.375c-1.6-0.1-1.875-0.425-1.875-1.8v-14.8l-0.125-0.1c-1.3 0.425-2.225 0.675-3.95 1.1v0.4c0.4-0.05 0.725-0.05 0.925-0.05 0.8 0 1.05 0.4 1.05 1.6v11.72c0 1.375-0.35 1.8-1.925 1.925v0.375h5.9z"/>
<path d="m-432.5 295c-1.225 1.85-2.175 2.625-3.85 2.625-1.15 0-2.075-0.45-2.775-1.375-0.9-1.2-1.025-2.175-1.15-4.075h7.7c-0.1-1.35-0.35-2.15-0.85-2.85-0.8-1.125-1.925-1.725-3.475-1.725-3.15 0-5.175 2.55-5.175 6.075 0 3.45 1.8 5.675 4.75 5.675 2.5 0 4.25-1.45 5.225-4.175l-0.4-0.175zm-7.725-3.625c0.275-1.875 1.25-2.875 2.65-2.875 1.65 0 2.175 0.85 2.45 2.875h-5.1z"/>
<path d="m-415.5 299.1v-0.375c-1.875 0-2.375-0.45-2.375-1.525v-14.92l-0.225-0.075-4.475 2.275v0.35l0.675-0.25c0.45-0.175 0.875-0.3 1.125-0.3 0.525 0 0.75 0.375 0.75 1.225v11.22c0 1.375-0.525 1.9-2.375 2v0.375h6.9z"/>
</g>
<g fill="#4d4d4d">
<path d="m-495.8 455.2-0.55-5.325h-0.525c-0.1 0.55-0.375 0.85-0.8 0.85-0.25 0-0.65-0.1-1.1-0.3-0.95-0.4-1.6-0.55-2.625-0.55-2.475 0-4.35 1.65-4.35 4.375 0 1.55 0.8 3.1 3.05 4.3 1.6 0.85 3.325 1.95 4.2 2.9 0.475 0.525 0.725 1.1 0.725 1.975 0 1.65-1.225 2.8-2.975 2.8-2.375 0-4-1.4-5.15-4.425h-0.55l0.725 5.3h0.55c0-0.525 0.325-0.825 0.7-0.825 0.275 0 0.7 0.075 1.175 0.275 0.925 0.4 1.9 0.575 2.95 0.575 2.9 0 5.1-1.875 5.1-4.675 0-1.9-1.225-3.35-3.875-4.9-2.625-1.525-4.475-2.575-4.475-4.275 0-1.375 0.975-2.375 2.525-2.375 1.5 0 2.75 0.825 3.625 1.95 0.45 0.6 0.725 1.25 1.025 2.35h0.625z"/>
<path d="m-482.5 465.2c-0.425 0.35-0.675 0.475-1.075 0.475-0.45 0-0.775-0.5-0.775-1.65v-4.775c0-1.525-0.1-2.05-0.7-2.775s-1.55-1.125-2.95-1.125c-1.125 0-2.175 0.3-2.875 0.75-0.875 0.55-1.275 1.35-1.275 2 0 0.675 0.55 1.15 1.075 1.15 0.65 0 1.15-0.55 1.15-1.025 0-0.525-0.15-0.6-0.15-1.05 0-0.675 0.75-1.225 1.75-1.225 1.125 0 1.95 0.7 1.95 2.25v1.35c-2.825 1.05-3.75 1.525-4.5 2.025-0.975 0.65-1.75 1.625-1.75 2.925 0 1.65 1.075 2.6 2.625 2.6 1.075 0 2.3-0.325 3.625-1.825h0.025c0.125 1.325 0.675 1.825 1.6 1.825 0.85 0 1.5-0.25 2.25-1.2v-0.7zm-3.875-1.525c0 0.725-0.15 1.075-0.875 1.575-0.425 0.275-0.95 0.4-1.45 0.4-0.975 0-1.725-0.6-1.725-1.925 0-0.775 0.25-1.375 0.85-1.925 0.625-0.575 1.65-1.1 3.2-1.65v3.525z"/>
<path d="m-463.1 466.8v-0.375l-0.65-0.05c-0.75-0.05-1.075-0.375-1.075-1.5v-5.075c0-2.95-0.875-4.5-2.9-4.5-1.45 0-2.725 0.65-4.075 2.1-0.45-1.425-1.3-2.1-2.65-2.1-1.125 0-2.175 0.225-3.825 1.925h-0.05v-1.85l-0.2-0.075c-1.275 0.475-2.1 0.75-3.475 1.125v0.425c0.325-0.075 0.525-0.1 0.8-0.1 0.65 0 0.875 0.425 0.875 1.65v6.2c0 1.45-0.35 1.8-1.75 1.825v0.375h5.55v-0.375c-1.325-0.05-1.7-0.3-1.7-1.375v-6.95c0-0.05 0.15-0.225 0.325-0.425 0.5-0.6 1.725-1.075 2.65-1.075 1.075 0 1.625 1.05 1.625 2.775v5.275c0 1.525-0.275 1.675-1.7 1.775v0.375h5.6v-0.375c-1.425-0.025-1.8-0.375-1.8-2v-6.3c0.75-1.075 1.5-1.525 2.675-1.525 1.425 0 1.925 0.825 1.925 2.8v5.15c0 1.45-0.225 1.725-1.625 1.875v0.375h5.45z"/>
<path d="m-459.2 455.4-0.15-0.05c-1.325 0.525-2.225 0.85-3.6 1.275v0.4c0.225-0.025 0.4-0.025 0.625-0.025 0.85 0 1.025 0.25 1.025 1.425v11.7c0 1.3-0.275 1.575-1.75 1.725v0.425h6.05v-0.45c-1.875-0.025-2.2-0.3-2.2-1.875v-3.925c0.9 0.825 1.475 1.075 2.525 1.075 2.975 0 5.25-2.8 5.25-6.425 0-3.1-1.75-5.325-4.175-5.325-1.4 0-2.5 0.6-3.6 1.975v-1.925zm0 3.1c0-0.75 1.4-1.65 2.55-1.65 1.85 0 3.075 1.9 3.075 4.825 0 2.75-1.225 4.625-3.025 4.625-1.175 0-2.6-0.9-2.6-1.65v-6.15z"/>
<path d="m-444.2 466.8v-0.375c-1.6-0.1-1.875-0.425-1.875-1.8v-14.8l-0.125-0.1c-1.3 0.425-2.225 0.675-3.95 1.1v0.4c0.4-0.05 0.725-0.05 0.925-0.05 0.8 0 1.05 0.4 1.05 1.6v11.72c0 1.375-0.35 1.8-1.925 1.925v0.375h5.9z"/>
<path d="m-433.5 462.7c-1.225 1.85-2.175 2.625-3.85 2.625-1.15 0-2.075-0.45-2.775-1.375-0.9-1.2-1.025-2.175-1.15-4.075h7.7c-0.1-1.35-0.35-2.15-0.85-2.85-0.8-1.125-1.925-1.725-3.475-1.725-3.15 0-5.175 2.55-5.175 6.075 0 3.45 1.8 5.675 4.75 5.675 2.5 0 4.25-1.45 5.225-4.175l-0.4-0.175zm-7.725-3.625c0.275-1.875 1.25-2.875 2.65-2.875 1.65 0 2.175 0.85 2.45 2.875h-5.1z"/>
<path d="m-414.5 463.4-0.35-0.15c-0.825 1.4-1.35 1.675-2.4 1.675h-5.85l4.125-4.4c2.225-2.35 3.2-4.225 3.2-6.2 0-2.475-1.8-4.4-4.625-4.4-3.075 0-4.675 2.05-5.2 4.975l0.525 0.125c1-2.45 1.875-3.25 3.675-3.25 2.125 0 3.475 1.25 3.475 3.525 0 2.125-0.9 4.025-3.25 6.5l-4.45 4.725v0.3h9.775l1.35-3.425z"/>
</g>
</g>
</svg>
