<?xml version="1.0" encoding="UTF-8" standalone="no"?>
<svg xmlns:rdf="http://www.w3.org/1999/02/22-rdf-syntax-ns#" viewBox="0 0 622.46363 622.46364" version="1.1" xmlns="http://www.w3.org/2000/svg" xmlns:dc="http://purl.org/dc/elements/1.1/" height="175.7mm" xmlns:cc="http://creativecommons.org/ns#" width="175.7mm">
<metadata>
<rdf:RDF>
<cc:Work rdf:about="">
<dc:format>image/svg+xml</dc:format>
<dc:type rdf:resource="http://purl.org/dc/dcmitype/StillImage"/>
<dc:title/>
</cc:Work>
</rdf:RDF>
</metadata>
<g transform="translate(2647 -1752)" stroke-linejoin="round" stroke-linecap="round">
<g stroke="#4d4d4d">
<circle cx="-2335" r="310.7" fill="#4d4d4d" cy="2064"/>
<path fill="#fff" d="m-2335 2374c-114.3-0.019-310.7-196.5-310.7-310.8 0.019-114.3 196.5-310.7 310.8-310.7 114.3 0.019 310.7 196.5 310.7 310.8-0.019 114.3-196.5 310.7-310.8 310.7z"/>
<path stroke-width=".9981" fill="#4d4d4d" d="m-2335 1753c-158 91.13-255.4 259.5-255.7 441.9 77.67 45.1 165.9 68.94 255.7 69.1 89.7-0.2227 177.8-24.05 255.3-69.1-0.1946-182.3-97.49-350.7-255.3-441.9z"/>
</g>
<path stroke-width=".9981" fill="#fff" stroke="#eee" d="m-2266 2008c-0.1658-89.81-24-178-69.1-255.7-45.1 77.67-68.93 165.8-69.1 255.7 0.2226 89.7 24.05 177.8 69.1 255.3 45.05-77.57 68.88-165.6 69.1-255.3z"/>
</g>
</svg>
