<?xml version="1.0" encoding="UTF-8" standalone="no"?>
<svg width="191.4mm" version="1.1" height="297.6mm" xmlns:dc="http://purl.org/dc/elements/1.1/" xmlns="http://www.w3.org/2000/svg" xmlns:cc="http://creativecommons.org/ns#" xmlns:rdf="http://www.w3.org/1999/02/22-rdf-syntax-ns#" viewBox="0 0 678.27337 1054.663">
<metadata>
<rdf:RDF>
<cc:Work rdf:about="">
<dc:format>image/svg+xml</dc:format>
<dc:type rdf:resource="http://purl.org/dc/dcmitype/StillImage"/>
<dc:title/>
</cc:Work>
</rdf:RDF>
</metadata>
<g transform="translate(1808 -657)">
<g transform="matrix(.5493 0 0 .5493 -814.7 298.5)">
<path stroke-width="19.31" stroke="#e3e3e3" stroke-linecap="round" fill="#e792ff" d="m-1190 662.3c-95.09 55.08-172 133.4-225.2 225.4 23.05 39.75 50.52 76.94 81.97 110.8 0.309 0.3322 0.6162 0.6666 0.9258 0.9981 1.737 1.861 3.493 3.706 5.254 5.547 0.6856 0.716 1.368 1.436 2.057 2.148 1.41 1.46 2.836 2.908 4.262 4.355 1.051 1.066 2.1 2.135 3.158 3.193 1.058 1.059 2.127 2.107 3.193 3.158 1.441 1.419 2.882 2.838 4.336 4.242 0.7495 0.7247 1.506 1.443 2.26 2.164 1.794 1.716 3.593 3.426 5.406 5.119 0.3621 0.3383 0.7269 0.6742 1.09 1.012 33.93 31.52 71.21 59.04 111.1 82.12 95.08-55.02 172-133.2 225.3-225.2-55.01-94.97-133.2-171.8-225-225.1z" stroke-linejoin="round"/>
<g transform="translate(11.14 -15.99)">
<path fill="#48c086" d="m-976.2 1129c-110.2-190.6-313.6-308.2-534-308.9-54.41 93.81-83.15 200.3-83.34 308.7 0.2707 108.4 29.1 214.9 83.6 308.7 220.2-0.6654 423.5-118.1 533.8-308.5z"/>
<g transform="translate(-12.64 -.2515)">
<path fill="#ff8282" d="m-1414 1129c110.2-190.6 313.6-308.2 534-308.9 54.41 93.81 83.15 200.3 83.34 308.7-0.2707 108.4-29.1 214.9-83.6 308.7-220.2-0.6655-423.5-118.1-533.8-308.5z"/>
<g transform="translate(7.644 .2515)">
<g transform="translate(3.493 -21.24)">
<path fill="#ff8282" d="m-1200 1992c-110.2-190.6-313.6-308.2-534-308.9-54.41 93.81-83.15 200.3-83.34 308.7 0.2706 108.4 29.1 214.9 83.6 308.7 220.2-0.6654 423.5-118.1 533.8-308.5z"/>
<path fill="#ff8282" d="m-1200 1992c110.2 190.6 313.6 308.2 534 308.9 54.41-93.81 83.15-200.3 83.34-308.7-0.2706-108.4-29.1-214.9-83.6-308.7-220.2 0.6653-423.5 118.1-533.8 308.5z"/>
<path fill="#4ad4ff" d="m-1200 1992c56.8-212.7-3.841-439.7-159.2-596-104.8 27.86-200.4 82.81-277.2 159.3-76.48 76.87-131.4 172.5-159.2 277.4 156.2 155.2 383 215.9 595.6 159.3z"/>
<path fill="#4ad4ff" d="m-1200 1992c212.7 56.8 439.7-3.841 596-159.2-27.86-104.8-82.81-200.4-159.3-277.2-76.87-76.48-172.5-131.4-277.4-159.2-155.2 156.2-215.9 383-159.3 595.6z"/>
<g fill="#48c086">
<path d="m-1200 1992c-56.8 212.7 3.841 439.7 159.2 596 104.8-27.86 200.4-82.81 277.2-159.3 76.48-76.87 131.4-172.5 159.2-277.4-156.2-155-383-215-595.6-159z"/>
<path d="m-1200 1992c-190.6 110.2-308.2 313.6-308.9 534 93.81 54.41 200.3 83.15 308.7 83.34 108.4-0.2706 214.9-29.1 308.7-83.6-0.6654-220.2-118.1-423.5-308.5-533.8z"/>
<path d="m-1200 1992c-212.7-56.8-439.7 3.841-596 159.2 27.86 104.8 82.81 200.4 159.3 277.2 76.87 76.48 172.5 131.4 277.4 159.2 155.2-156.2 215.9-383 159.3-595.6z"/>
</g>
<path fill="#ffd065" d="m-1200 1992c190.6-110.2 308.2-313.6 308.9-534-93.81-54.41-200.3-83.15-308.7-83.34-108.4 0.2706-214.9 29.1-308.7 83.6 0.6653 220.2 118.1 423.5 308.5 533.8z"/>
</g>
<path fill="#ffd065" d="m-1196 903.4c-190.6 110.2-308.2 313.6-308.9 534 93.81 54.41 200.3 83.15 308.7 83.34 108.4-0.2707 214.9-29.1 308.7-83.6-0.6654-220.2-118.1-423.5-308.5-533.8z"/>
<g transform="matrix(.4457 0 0 .4457 -1365 1572)">
<path fill="#4ad4ff" d="m378.2 358.8c190.6-110.2 308.2-313.6 308.9-534-93.81-54.41-200.3-83.15-308.7-83.34-108.4 0.2706-214.9 29.1-308.7 83.6 0.6654 220.2 118.1 423.5 308.5 533.8z"/>
<path fill="#48c086" d="m603.8 133.9c-110.3-190.6-313.7-308.2-534-308.9-54.46 93.82-83.2 200.3-83.4 308.7 0.27 108.4 29.1 214.9 83.6 308.7 220.2-0.7 423.5-118.2 533.8-308.5z"/>
<path fill="#ff8282" d="m153.1 133.6c110.2-190.6 313.6-308.2 534-308.9 54.41 93.81 83.15 200.3 83.34 308.7-0.2707 108.4-29.1 214.9-83.6 308.7-220.2-0.7-423.4-118.1-533.7-308.5z"/>
<path fill="#ffd065" d="m378.9-91.65c-190.6 110.2-308.2 313.6-308.9 534 93.81 54.41 200.3 83.15 308.7 83.35 108.4-0.2707 214.9-29.1 308.7-83.6-0.7-220.3-118.2-423.6-308.5-533.8z"/>
<path stroke-width="19.31" stroke="#e3e3e3" stroke-linecap="round" fill="#e792ff" d="m378.6-91.47c-95.09 55.08-172 133.4-225.2 225.4 23.05 39.75 50.52 76.94 81.97 110.8 0.309 0.3322 0.6161 0.6666 0.9258 0.998 1.737 1.861 3.493 3.706 5.254 5.547 0.6856 0.716 1.368 1.436 2.057 2.148 1.41 1.46 2.836 2.908 4.262 4.355 1.051 1.066 2.1 2.135 3.158 3.193 1.058 1.059 2.127 2.107 3.193 3.158 1.441 1.419 2.882 2.838 4.336 4.242 0.7496 0.7248 1.506 1.443 2.26 2.164 1.794 1.716 3.593 3.426 5.406 5.119 0.3621 0.3383 0.7269 0.6742 1.09 1.012 33.93 31.52 71.21 59.04 111.1 82.12 95.08-55.02 172-133.2 225.3-225.2-55.3-94.89-133.5-171.7-225.3-225z" stroke-linejoin="round"/>
</g>
</g>
</g>
</g>
</g>
</g>
</svg>
