<?xml version="1.0" encoding="UTF-8" standalone="no"?>
<svg width="198.1mm" viewBox="0 0 701.97252 501.72106" version="1.1" xmlns="http://www.w3.org/2000/svg" height="141.6mm">
<g transform="translate(508.5 77.22)">
<g fill="#4d4d4d" stroke-linejoin="round" stroke="#fff" stroke-linecap="round" stroke-width="13.5">
<g transform="translate(240,-120)">
<path d="m-195.5 242.4c-47.8 0-86.28 38.48-86.28 86.28v78.64a267 106.8 0 0 0 114.2 10.42 267 106.8 0 0 0 114.2 -10.39v-78.66c0-47.8-38.48-86.28-86.28-86.28h-55.91z"/>
<circle r="73.19" cy="182.7" cx="-167.5"/>
</g>
<g transform="translate(0,-180)">
<path d="m-195.5 242.4c-47.8 0-86.28 38.48-86.28 86.28v78.64a267 106.8 0 0 0 114.2 10.42 267 106.8 0 0 0 114.2 -10.39v-78.66c0-47.8-38.48-86.28-86.28-86.28h-55.91z"/>
<circle r="73.19" cy="182.7" cx="-167.5"/>
</g>
<g transform="translate(-220,-120)">
<path d="m-195.5 242.4c-47.8 0-86.28 38.48-86.28 86.28v78.64a267 106.8 0 0 0 114.2 10.42 267 106.8 0 0 0 114.2 -10.39v-78.66c0-47.8-38.48-86.28-86.28-86.28h-55.91z"/>
<circle r="73.19" cy="182.7" cx="-167.5"/>
</g>
<g transform="translate(-120,-40)">
<path d="m-195.5 242.4c-47.8 0-86.28 38.48-86.28 86.28v78.64a267 106.8 0 0 0 114.2 10.42 267 106.8 0 0 0 114.2 -10.39v-78.66c0-47.8-38.48-86.28-86.28-86.28h-55.91z"/>
<circle r="73.19" cy="182.7" cx="-167.5"/>
</g>
<g transform="translate(120,-40)">
<path d="m-195.5 242.4c-47.8 0-86.28 38.48-86.28 86.28v78.64a267 106.8 0 0 0 114.2 10.42 267 106.8 0 0 0 114.2 -10.39v-78.66c0-47.8-38.48-86.28-86.28-86.28h-55.91z"/>
<circle r="73.19" cy="182.7" cx="-167.5"/>
</g>
<path d="m-195.5 242.4c-47.8 0-86.28 38.48-86.28 86.28v78.64a267 106.8 0 0 0 114.2 10.42 267 106.8 0 0 0 114.2 -10.39v-78.66c0-47.8-38.48-86.28-86.28-86.28h-55.91z"/>
<circle r="73.19" cy="182.7" cx="-167.5"/>
</g>
</g>
</svg>
