<?xml version="1.0" encoding="UTF-8" standalone="no"?>
<svg width="198.1mm" xmlns:rdf="http://www.w3.org/1999/02/22-rdf-syntax-ns#" xmlns:dc="http://purl.org/dc/elements/1.1/" height="141.6mm" version="1.1" xmlns="http://www.w3.org/2000/svg" viewBox="0 0 701.97252 501.72106" xmlns:cc="http://creativecommons.org/ns#">
<metadata>
<rdf:RDF>
<cc:Work rdf:about="">
<dc:format>image/svg+xml</dc:format>
<dc:type rdf:resource="http://purl.org/dc/dcmitype/StillImage"/>
<dc:title/>
</cc:Work>
</rdf:RDF>
</metadata>
<g stroke-linecap="round" stroke-width="13.5" stroke-linejoin="round" stroke="#fff" transform="translate(508.5 77.22)">
<g fill="#bbb">
<path d="m44.54 122.4c-47.8 0-86.28 38.48-86.28 86.28v78.64a267 106.8 0 0 0 114.2 10.42 267 106.8 0 0 0 114.2 -10.39v-78.66c0-47.8-38.48-86.28-86.28-86.28h-55.91z"/>
<circle cx="72.5" r="73.19" cy="62.72"/>
<path d="m-195.5 62.41c-47.8 0-86.28 38.48-86.28 86.28v78.64a267 106.8 0 0 0 114.2 10.42 267 106.8 0 0 0 114.2 -10.39v-78.66c0-47.8-38.48-86.28-86.28-86.28h-55.91z"/>
<circle cx="-167.5" r="73.19" cy="2.719"/>
<path d="m-415.5 122.4c-47.8 0-86.28 38.48-86.28 86.28v78.64a267 106.8 0 0 0 114.2 10.42 267 106.8 0 0 0 114.2 -10.39v-78.66c0-47.8-38.48-86.28-86.28-86.28h-55.91z"/>
<circle cx="-387.5" r="73.19" cy="62.72"/>
</g>
<path fill="#4d4d4d" d="m-315.5 202.4c-47.8 0-86.28 38.48-86.28 86.28v78.64a267 106.8 0 0 0 114.2 10.42 267 106.8 0 0 0 114.2 -10.39v-78.66c0-47.8-38.48-86.28-86.28-86.28h-55.91z"/>
<circle cx="-287.5" r="73.19" fill="#4d4d4d" cy="142.7"/>
<path fill="#bbb" d="m-75.46 202.4c-47.8 0-86.28 38.48-86.28 86.28v78.64a267 106.8 0 0 0 114.2 10.42 267 106.8 0 0 0 114.2 -10.39v-78.66c0-47.8-38.48-86.28-86.28-86.28h-55.91z"/>
<circle cx="-47.5" r="73.19" fill="#bbb" cy="142.7"/>
<path fill="#4d4d4d" d="m-195.5 242.4c-47.8 0-86.28 38.48-86.28 86.28v78.64a267 106.8 0 0 0 114.2 10.42 267 106.8 0 0 0 114.2 -10.39v-78.66c0-47.8-38.48-86.28-86.28-86.28h-55.91z"/>
<circle cx="-167.5" r="73.19" fill="#4d4d4d" cy="182.7"/>
</g>
</svg>
