<?xml version="1.0" encoding="UTF-8" standalone="no"?>
<svg height="141.6mm" viewBox="0 0 701.97252 501.72106" xmlns="http://www.w3.org/2000/svg" xmlns:dc="http://purl.org/dc/elements/1.1/" xmlns:rdf="http://www.w3.org/1999/02/22-rdf-syntax-ns#" version="1.1" width="198.1mm" xmlns:cc="http://creativecommons.org/ns#">
<metadata>
<rdf:RDF>
<cc:Work rdf:about="">
<dc:format>image/svg+xml</dc:format>
<dc:type rdf:resource="http://purl.org/dc/dcmitype/StillImage"/>
<dc:title/>
</cc:Work>
</rdf:RDF>
</metadata>
<g stroke="#fff" stroke-linecap="round" stroke-width="13.5" transform="translate(508.5 77.22)" stroke-linejoin="round">
<path d="m44.54 122.4c-47.8 0-86.28 38.48-86.28 86.28v78.64a267 106.8 0 0 0 114.2 10.42 267 106.8 0 0 0 114.2 -10.39v-78.66c0-47.8-38.48-86.28-86.28-86.28h-55.91z" fill="#4d4d4d"/>
<circle cx="72.5" r="73.19" cy="62.72" fill="#4d4d4d"/>
<g fill="#bbb">
<path d="m-195.5 62.41c-47.8 0-86.28 38.48-86.28 86.28v78.64a267 106.8 0 0 0 114.2 10.42 267 106.8 0 0 0 114.2 -10.39v-78.66c0-47.8-38.48-86.28-86.28-86.28h-55.91z"/>
<circle cx="-167.5" r="73.19" cy="2.719"/>
<path d="m-415.5 122.4c-47.8 0-86.28 38.48-86.28 86.28v78.64a267 106.8 0 0 0 114.2 10.42 267 106.8 0 0 0 114.2 -10.39v-78.66c0-47.8-38.48-86.28-86.28-86.28h-55.91z"/>
<circle cx="-387.5" r="73.19" cy="62.72"/>
<path d="m-315.5 202.4c-47.8 0-86.28 38.48-86.28 86.28v78.64a267 106.8 0 0 0 114.2 10.42 267 106.8 0 0 0 114.2 -10.39v-78.66c0-47.8-38.48-86.28-86.28-86.28h-55.91z"/>
<circle cx="-287.5" r="73.19" cy="142.7"/>
</g>
<path d="m-75.46 202.4c-47.8 0-86.28 38.48-86.28 86.28v78.64a267 106.8 0 0 0 114.2 10.42 267 106.8 0 0 0 114.2 -10.39v-78.66c0-47.8-38.48-86.28-86.28-86.28h-55.91z" fill="#4d4d4d"/>
<circle cx="-47.5" r="73.19" cy="142.7" fill="#4d4d4d"/>
<path d="m-195.5 242.4c-47.8 0-86.28 38.48-86.28 86.28v78.64a267 106.8 0 0 0 114.2 10.42 267 106.8 0 0 0 114.2 -10.39v-78.66c0-47.8-38.48-86.28-86.28-86.28h-55.91z" fill="#bbb"/>
<circle cx="-167.5" r="73.19" cy="182.7" fill="#bbb"/>
</g>
</svg>
