<?xml version="1.0" encoding="UTF-8" standalone="no"?>
<svg width="191.8mm" height="28.39mm" version="1.1" viewBox="0 0 679.59988 100.6" xmlns:cc="http://creativecommons.org/ns#" xmlns="http://www.w3.org/2000/svg" xmlns:xlink="http://www.w3.org/1999/xlink" xmlns:rdf="http://www.w3.org/1999/02/22-rdf-syntax-ns#" xmlns:dc="http://purl.org/dc/elements/1.1/">
<defs>
<linearGradient id="b" x1="-234.9" gradientUnits="userSpaceOnUse" x2="-234.9" gradientTransform="matrix(1.223 0 0 .9363 211.3 -103.1)" y1="416.2" y2="390.1">
<stop offset="0" stop-color="#f0c14c"/>
<stop offset="1" stop-color="#f7dea2"/>
</linearGradient>
<linearGradient id="a" x1="-234.9" gradientUnits="userSpaceOnUse" x2="-234.9" gradientTransform="matrix(1.223 0 0 .9363 674.1 -103.1)" y1="416.2" y2="390.1">
<stop offset="0" stop-color="#76f04c"/>
<stop offset="1" stop-color="#b9f7a2"/>
</linearGradient>
<linearGradient id="c" x1="113" gradientUnits="userSpaceOnUse" x2="198.5" y1="224.7" gradientTransform="translate(20)" y2="224.7">
<stop stop-opacity="0" offset="0" stop-color="#fff"/>
<stop offset="1" stop-color="#fff"/>
</linearGradient>
</defs>
<metadata>
<rdf:RDF>
<cc:Work rdf:about="">
<dc:format>image/svg+xml</dc:format>
<dc:type rdf:resource="http://purl.org/dc/dcmitype/StillImage"/>
<dc:title/>
</cc:Work>
</rdf:RDF>
</metadata>
<g transform="translate(436 -164.6)">
<text style="letter-spacing:0px;word-spacing:0px" font-size="15px" font-family="sans-serif" xml:space="preserve" y="342.25021" line-height="125%" fill="#000000" x="381.66089"><tspan y="342.25021" x="381.66089"/></text>
<text style="letter-spacing:0px;word-spacing:0px" font-size="7.5px" font-family="sans-serif" xml:space="preserve" y="355.17471" line-height="125%" fill="#000000" x="616.8125"><tspan y="355.17471" x="616.8125"/></text>
<g>
<rect width="678.8" height="99.77" stroke-width=".8301" stroke="#000" y="165.1" ry=".8362" fill="#fff" x="-435.6"/>
<text style="letter-spacing:0px;word-spacing:0px" font-size="6.962px" font-family="sans-serif" xml:space="preserve" y="183.52913" line-height="125%" fill="#000000" x="-289.87762"><tspan y="183.52913" font-size="15px" x="-289.87762">Day 1</tspan></text>
<text style="letter-spacing:0px;word-spacing:0px" font-size="6.962px" font-family="sans-serif" xml:space="preserve" y="183.62801" line-height="125%" fill="#000000" x="60.980522"><tspan y="183.62801" font-size="15px" x="60.980522">Day 2</tspan></text>
</g>
<g transform="matrix(.7468 0 0 .7468 -309.6 .3166)">
<rect width="133.2" height="25.49" stroke-width=".7427" stroke="#a88734" y="261.6" ry="1.467" fill="url(#b)" stroke-linejoin="round" x="-142.3" stroke-linecap="round"/>
<text style="letter-spacing:0px;word-spacing:0px" font-size="10px" xml:space="preserve" font-family="&apos;DejaVu Sans&apos;" line-height="125%" y="276.97717" fill="#000000" x="-96.720024"><tspan y="276.97717" x="-96.720024">Buy Now!</tspan></text>
</g>
<g transform="matrix(.7468 0 0 .7409 -655.3 32.78)">
<rect width="133.2" height="25.49" stroke-width=".7427" stroke="#52a834" y="261.6" ry="1.467" fill="url(#a)" stroke-linejoin="round" x="320.5" stroke-linecap="round"/>
<text style="letter-spacing:0px;word-spacing:0px" font-size="10px" xml:space="preserve" font-family="&apos;DejaVu Sans&apos;" line-height="125%" y="276.97717" fill="#000000" x="363.28"><tspan y="276.97717" x="363.28">Buy Now!</tspan></text>
</g>
<g>
<g stroke-linecap="round" stroke="#000" transform="matrix(1.363 0 0 1.363 28.43 -146.1)">
<path fill="#fff" d="m-230 253.1 6.964 6.499-3.366 0.2902 1.915 4.236-1.277 0.5803-1.857-4.294-2.379 2.263v-9.575" stroke-width=".5065" stroke-linejoin="round"/>
<g fill="none" stroke-width="0.4" transform="matrix(.8441 0 0 .8441 -67.47 39.97)">
<path d="m-189.7 252.4h-1.461m-2.674 0h-1.428"/>
<path d="m-194.5 250.4 1.096 1.096m1.967 1.967 1.016 1.016"/>
<path d="m-194.5 254.5 1.096-1.096m1.967-1.967 1.016-1.016"/>
<path d="m-192.5 255.2v-1.461m0-2.674v-1.428"/>
</g>
</g>
<g transform="matrix(1.363 0 0 1.363 45.95 -179.7)">
<path fill="#fff" d="m-228 277.8 6.964 6.499-3.366 0.2902 1.915 4.236-1.277 0.5803-1.857-4.294-2.379 2.263v-9.575" stroke-linecap="round" stroke-width=".5065" stroke="#000" stroke-linejoin="round"/>
<g fill="none" stroke-width="1.2" stroke="#ff2a2a" transform="translate(0 .6667)">
<path d="m-229.2 286.7 7.557-7.557"/>
<circle r="5.387" cy="283" cx="-225.4" stroke-linejoin="round" stroke-linecap="round"/>
</g>
</g>
<g stroke-linecap="round" stroke="#000" transform="matrix(1.363 0 0 1.363 68.43 -146.1)">
<path fill="#fff" d="m-230 253.1 6.964 6.499-3.366 0.2902 1.915 4.236-1.277 0.5803-1.857-4.294-2.379 2.263v-9.575" stroke-width=".5065" stroke-linejoin="round"/>
<g fill="none" stroke-width="0.4" transform="matrix(.8441 0 0 .8441 -67.47 39.97)">
<path d="m-189.7 252.4h-1.461m-2.674 0h-1.428"/>
<path d="m-194.5 250.4 1.096 1.096m1.967 1.967 1.016 1.016"/>
<path d="m-194.5 254.5 1.096-1.096m1.967-1.967 1.016-1.016"/>
<path d="m-192.5 255.2v-1.461m0-2.674v-1.428"/>
</g>
</g>
<g stroke-linecap="round" stroke="#000" transform="matrix(1.363 0 0 1.363 88.43 -146.1)">
<path fill="#fff" d="m-230 253.1 6.964 6.499-3.366 0.2902 1.915 4.236-1.277 0.5803-1.857-4.294-2.379 2.263v-9.575" stroke-width=".5065" stroke-linejoin="round"/>
<g fill="none" stroke-width="0.4" transform="matrix(.8441 0 0 .8441 -67.47 39.97)">
<path d="m-189.7 252.4h-1.461m-2.674 0h-1.428"/>
<path d="m-194.5 250.4 1.096 1.096m1.967 1.967 1.016 1.016"/>
<path d="m-194.5 254.5 1.096-1.096m1.967-1.967 1.016-1.016"/>
<path d="m-192.5 255.2v-1.461m0-2.674v-1.428"/>
</g>
</g>
<g stroke-linecap="round" stroke="#000" transform="matrix(1.363 0 0 1.363 108.4 -146.1)">
<path fill="#fff" d="m-230 253.1 6.964 6.499-3.366 0.2902 1.915 4.236-1.277 0.5803-1.857-4.294-2.379 2.263v-9.575" stroke-width=".5065" stroke-linejoin="round"/>
<g fill="none" stroke-width="0.4" transform="matrix(.8441 0 0 .8441 -67.47 39.97)">
<path d="m-189.7 252.4h-1.461m-2.674 0h-1.428"/>
<path d="m-194.5 250.4 1.096 1.096m1.967 1.967 1.016 1.016"/>
<path d="m-194.5 254.5 1.096-1.096m1.967-1.967 1.016-1.016"/>
<path d="m-192.5 255.2v-1.461m0-2.674v-1.428"/>
</g>
</g>
<g stroke-linecap="round" stroke="#000" transform="matrix(1.363 0 0 1.363 148.4 -146.1)">
<path fill="#fff" d="m-230 253.1 6.964 6.499-3.366 0.2902 1.915 4.236-1.277 0.5803-1.857-4.294-2.379 2.263v-9.575" stroke-width=".5065" stroke-linejoin="round"/>
<g fill="none" stroke-width="0.4" transform="matrix(.8441 0 0 .8441 -67.47 39.97)">
<path d="m-189.7 252.4h-1.461m-2.674 0h-1.428"/>
<path d="m-194.5 250.4 1.096 1.096m1.967 1.967 1.016 1.016"/>
<path d="m-194.5 254.5 1.096-1.096m1.967-1.967 1.016-1.016"/>
<path d="m-192.5 255.2v-1.461m0-2.674v-1.428"/>
</g>
</g>
<g stroke-linecap="round" stroke="#000" transform="matrix(1.363 0 0 1.363 268.4 -146.1)">
<path fill="#fff" d="m-230 253.1 6.964 6.499-3.366 0.2902 1.915 4.236-1.277 0.5803-1.857-4.294-2.379 2.263v-9.575" stroke-width=".5065" stroke-linejoin="round"/>
<g fill="none" stroke-width="0.4" transform="matrix(.8441 0 0 .8441 -67.47 39.97)">
<path d="m-189.7 252.4h-1.461m-2.674 0h-1.428"/>
<path d="m-194.5 250.4 1.096 1.096m1.967 1.967 1.016 1.016"/>
<path d="m-194.5 254.5 1.096-1.096m1.967-1.967 1.016-1.016"/>
<path d="m-192.5 255.2v-1.461m0-2.674v-1.428"/>
</g>
</g>
<g stroke-linecap="round" stroke="#000" transform="matrix(1.363 0 0 1.363 288.4 -146.1)">
<path fill="#fff" d="m-230 253.1 6.964 6.499-3.366 0.2902 1.915 4.236-1.277 0.5803-1.857-4.294-2.379 2.263v-9.575" stroke-width=".5065" stroke-linejoin="round"/>
<g fill="none" stroke-width="0.4" transform="matrix(.8441 0 0 .8441 -67.47 39.97)">
<path d="m-189.7 252.4h-1.461m-2.674 0h-1.428"/>
<path d="m-194.5 250.4 1.096 1.096m1.967 1.967 1.016 1.016"/>
<path d="m-194.5 254.5 1.096-1.096m1.967-1.967 1.016-1.016"/>
<path d="m-192.5 255.2v-1.461m0-2.674v-1.428"/>
</g>
</g>
<g transform="matrix(1.363 0 0 1.363 126 -179.7)">
<path fill="#fff" d="m-228 277.8 6.964 6.499-3.366 0.2902 1.915 4.236-1.277 0.5803-1.857-4.294-2.379 2.263v-9.575" stroke-linecap="round" stroke-width=".5065" stroke="#000" stroke-linejoin="round"/>
<g fill="none" stroke-width="1.2" stroke="#ff2a2a" transform="translate(0 .6667)">
<path d="m-229.2 286.7 7.557-7.557"/>
<circle r="5.387" cy="283" cx="-225.4" stroke-linejoin="round" stroke-linecap="round"/>
</g>
</g>
<g transform="matrix(1.363 0 0 1.363 166 -179.7)">
<path fill="#fff" d="m-228 277.8 6.964 6.499-3.366 0.2902 1.915 4.236-1.277 0.5803-1.857-4.294-2.379 2.263v-9.575" stroke-linecap="round" stroke-width=".5065" stroke="#000" stroke-linejoin="round"/>
<g fill="none" stroke-width="1.2" stroke="#ff2a2a" transform="translate(0 .6667)">
<path d="m-229.2 286.7 7.557-7.557"/>
<circle r="5.387" cy="283" cx="-225.4" stroke-linejoin="round" stroke-linecap="round"/>
</g>
</g>
<g transform="matrix(1.363 0 0 1.363 186 -179.7)">
<path fill="#fff" d="m-228 277.8 6.964 6.499-3.366 0.2902 1.915 4.236-1.277 0.5803-1.857-4.294-2.379 2.263v-9.575" stroke-linecap="round" stroke-width=".5065" stroke="#000" stroke-linejoin="round"/>
<g fill="none" stroke-width="1.2" stroke="#ff2a2a" transform="translate(0 .6667)">
<path d="m-229.2 286.7 7.557-7.557"/>
<circle r="5.387" cy="283" cx="-225.4" stroke-linejoin="round" stroke-linecap="round"/>
</g>
</g>
<g transform="matrix(1.363 0 0 1.363 206 -179.7)">
<path fill="#fff" d="m-228 277.8 6.964 6.499-3.366 0.2902 1.915 4.236-1.277 0.5803-1.857-4.294-2.379 2.263v-9.575" stroke-linecap="round" stroke-width=".5065" stroke="#000" stroke-linejoin="round"/>
<g fill="none" stroke-width="1.2" stroke="#ff2a2a" transform="translate(0 .6667)">
<path d="m-229.2 286.7 7.557-7.557"/>
<circle r="5.387" cy="283" cx="-225.4" stroke-linejoin="round" stroke-linecap="round"/>
</g>
</g>
<g transform="matrix(1.363 0 0 1.363 206 -179.7)">
<path fill="#fff" d="m-228 277.8 6.964 6.499-3.366 0.2902 1.915 4.236-1.277 0.5803-1.857-4.294-2.379 2.263v-9.575" stroke-linecap="round" stroke-width=".5065" stroke="#000" stroke-linejoin="round"/>
<g fill="none" stroke-width="1.2" stroke="#ff2a2a" transform="translate(0 .6667)">
<path d="m-229.2 286.7 7.557-7.557"/>
<circle r="5.387" cy="283" cx="-225.4" stroke-linejoin="round" stroke-linecap="round"/>
</g>
</g>
<g transform="matrix(1.363 0 0 1.363 226 -179.7)">
<path fill="#fff" d="m-228 277.8 6.964 6.499-3.366 0.2902 1.915 4.236-1.277 0.5803-1.857-4.294-2.379 2.263v-9.575" stroke-linecap="round" stroke-width=".5065" stroke="#000" stroke-linejoin="round"/>
<g fill="none" stroke-width="1.2" stroke="#ff2a2a" transform="translate(0 .6667)">
<path d="m-229.2 286.7 7.557-7.557"/>
<circle r="5.387" cy="283" cx="-225.4" stroke-linejoin="round" stroke-linecap="round"/>
</g>
</g>
<g transform="matrix(1.363 0 0 1.363 246 -179.7)">
<path fill="#fff" d="m-228 277.8 6.964 6.499-3.366 0.2902 1.915 4.236-1.277 0.5803-1.857-4.294-2.379 2.263v-9.575" stroke-linecap="round" stroke-width=".5065" stroke="#000" stroke-linejoin="round"/>
<g fill="none" stroke-width="1.2" stroke="#ff2a2a" transform="translate(0 .6667)">
<path d="m-229.2 286.7 7.557-7.557"/>
<circle r="5.387" cy="283" cx="-225.4" stroke-linejoin="round" stroke-linecap="round"/>
</g>
</g>
<g transform="matrix(1.363 0 0 1.363 306 -179.7)">
<path fill="#fff" d="m-228 277.8 6.964 6.499-3.366 0.2902 1.915 4.236-1.277 0.5803-1.857-4.294-2.379 2.263v-9.575" stroke-linecap="round" stroke-width=".5065" stroke="#000" stroke-linejoin="round"/>
<g fill="none" stroke-width="1.2" stroke="#ff2a2a" transform="translate(0 .6667)">
<path d="m-229.2 286.7 7.557-7.557"/>
<circle r="5.387" cy="283" cx="-225.4" stroke-linejoin="round" stroke-linecap="round"/>
</g>
</g>
<g transform="matrix(1.363 0 0 1.363 326 -179.7)">
<path fill="#fff" d="m-228 277.8 6.964 6.499-3.366 0.2902 1.915 4.236-1.277 0.5803-1.857-4.294-2.379 2.263v-9.575" stroke-linecap="round" stroke-width=".5065" stroke="#000" stroke-linejoin="round"/>
<g fill="none" stroke-width="1.2" stroke="#ff2a2a" transform="translate(0 .6667)">
<path d="m-229.2 286.7 7.557-7.557"/>
<circle r="5.387" cy="283" cx="-225.4" stroke-linejoin="round" stroke-linecap="round"/>
</g>
</g>
<g stroke-linecap="round" stroke="#000" transform="matrix(1.363 0 0 1.363 28.43 -115.2)">
<path fill="#fff" d="m-230 253.1 6.964 6.499-3.366 0.2902 1.915 4.236-1.277 0.5803-1.857-4.294-2.379 2.263v-9.575" stroke-width=".5065" stroke-linejoin="round"/>
<g fill="none" stroke-width="0.4" transform="matrix(.8441 0 0 .8441 -67.47 39.97)">
<path d="m-189.7 252.4h-1.461m-2.674 0h-1.428"/>
<path d="m-194.5 250.4 1.096 1.096m1.967 1.967 1.016 1.016"/>
<path d="m-194.5 254.5 1.096-1.096m1.967-1.967 1.016-1.016"/>
<path d="m-192.5 255.2v-1.461m0-2.674v-1.428"/>
</g>
</g>
<g transform="matrix(1.363 0 0 1.363 65.95 -150.6)">
<path fill="#fff" d="m-228 277.8 6.964 6.499-3.366 0.2902 1.915 4.236-1.277 0.5803-1.857-4.294-2.379 2.263v-9.575" stroke-linecap="round" stroke-width=".5065" stroke="#000" stroke-linejoin="round"/>
<g fill="none" stroke-width="1.2" stroke="#ff2a2a" transform="translate(0 .6667)">
<path d="m-229.2 286.7 7.557-7.557"/>
<circle r="5.387" cy="283" cx="-225.4" stroke-linejoin="round" stroke-linecap="round"/>
</g>
</g>
<g transform="matrix(1.363 0 0 1.363 126 -150.6)">
<path fill="#fff" d="m-228 277.8 6.964 6.499-3.366 0.2902 1.915 4.236-1.277 0.5803-1.857-4.294-2.379 2.263v-9.575" stroke-linecap="round" stroke-width=".5065" stroke="#000" stroke-linejoin="round"/>
<g fill="none" stroke-width="1.2" stroke="#ff2a2a" transform="translate(0 .6667)">
<path d="m-229.2 286.7 7.557-7.557"/>
<circle r="5.387" cy="283" cx="-225.4" stroke-linejoin="round" stroke-linecap="round"/>
</g>
</g>
<g transform="matrix(1.363 0 0 1.363 166 -150.6)">
<path fill="#fff" d="m-228 277.8 6.964 6.499-3.366 0.2902 1.915 4.236-1.277 0.5803-1.857-4.294-2.379 2.263v-9.575" stroke-linecap="round" stroke-width=".5065" stroke="#000" stroke-linejoin="round"/>
<g fill="none" stroke-width="1.2" stroke="#ff2a2a" transform="translate(0 .6667)">
<path d="m-229.2 286.7 7.557-7.557"/>
<circle r="5.387" cy="283" cx="-225.4" stroke-linejoin="round" stroke-linecap="round"/>
</g>
</g>
<g transform="matrix(1.363 0 0 1.363 186 -150.6)">
<path fill="#fff" d="m-228 277.8 6.964 6.499-3.366 0.2902 1.915 4.236-1.277 0.5803-1.857-4.294-2.379 2.263v-9.575" stroke-linecap="round" stroke-width=".5065" stroke="#000" stroke-linejoin="round"/>
<g fill="none" stroke-width="1.2" stroke="#ff2a2a" transform="translate(0 .6667)">
<path d="m-229.2 286.7 7.557-7.557"/>
<circle r="5.387" cy="283" cx="-225.4" stroke-linejoin="round" stroke-linecap="round"/>
</g>
</g>
<g transform="matrix(1.363 0 0 1.363 206 -150.6)">
<path fill="#fff" d="m-228 277.8 6.964 6.499-3.366 0.2902 1.915 4.236-1.277 0.5803-1.857-4.294-2.379 2.263v-9.575" stroke-linecap="round" stroke-width=".5065" stroke="#000" stroke-linejoin="round"/>
<g fill="none" stroke-width="1.2" stroke="#ff2a2a" transform="translate(0 .6667)">
<path d="m-229.2 286.7 7.557-7.557"/>
<circle r="5.387" cy="283" cx="-225.4" stroke-linejoin="round" stroke-linecap="round"/>
</g>
</g>
<g transform="matrix(1.363 0 0 1.363 266 -150.6)">
<path fill="#fff" d="m-228 277.8 6.964 6.499-3.366 0.2902 1.915 4.236-1.277 0.5803-1.857-4.294-2.379 2.263v-9.575" stroke-linecap="round" stroke-width=".5065" stroke="#000" stroke-linejoin="round"/>
<g fill="none" stroke-width="1.2" stroke="#ff2a2a" transform="translate(0 .6667)">
<path d="m-229.2 286.7 7.557-7.557"/>
<circle r="5.387" cy="283" cx="-225.4" stroke-linejoin="round" stroke-linecap="round"/>
</g>
</g>
<g stroke-linecap="round" stroke="#000" transform="matrix(1.363 0 0 1.363 48.43 -115.2)">
<path fill="#fff" d="m-230 253.1 6.964 6.499-3.366 0.2902 1.915 4.236-1.277 0.5803-1.857-4.294-2.379 2.263v-9.575" stroke-width=".5065" stroke-linejoin="round"/>
<g fill="none" stroke-width="0.4" transform="matrix(.8441 0 0 .8441 -67.47 39.97)">
<path d="m-189.7 252.4h-1.461m-2.674 0h-1.428"/>
<path d="m-194.5 250.4 1.096 1.096m1.967 1.967 1.016 1.016"/>
<path d="m-194.5 254.5 1.096-1.096m1.967-1.967 1.016-1.016"/>
<path d="m-192.5 255.2v-1.461m0-2.674v-1.428"/>
</g>
</g>
<g stroke-linecap="round" stroke="#000" transform="matrix(1.363 0 0 1.363 88.43 -115.2)">
<path fill="#fff" d="m-230 253.1 6.964 6.499-3.366 0.2902 1.915 4.236-1.277 0.5803-1.857-4.294-2.379 2.263v-9.575" stroke-width=".5065" stroke-linejoin="round"/>
<g fill="none" stroke-width="0.4" transform="matrix(.8441 0 0 .8441 -67.47 39.97)">
<path d="m-189.7 252.4h-1.461m-2.674 0h-1.428"/>
<path d="m-194.5 250.4 1.096 1.096m1.967 1.967 1.016 1.016"/>
<path d="m-194.5 254.5 1.096-1.096m1.967-1.967 1.016-1.016"/>
<path d="m-192.5 255.2v-1.461m0-2.674v-1.428"/>
</g>
</g>
<g stroke-linecap="round" stroke="#000" transform="matrix(1.363 0 0 1.363 108.4 -115.2)">
<path fill="#fff" d="m-230 253.1 6.964 6.499-3.366 0.2902 1.915 4.236-1.277 0.5803-1.857-4.294-2.379 2.263v-9.575" stroke-width=".5065" stroke-linejoin="round"/>
<g fill="none" stroke-width="0.4" transform="matrix(.8441 0 0 .8441 -67.47 39.97)">
<path d="m-189.7 252.4h-1.461m-2.674 0h-1.428"/>
<path d="m-194.5 250.4 1.096 1.096m1.967 1.967 1.016 1.016"/>
<path d="m-194.5 254.5 1.096-1.096m1.967-1.967 1.016-1.016"/>
<path d="m-192.5 255.2v-1.461m0-2.674v-1.428"/>
</g>
</g>
<g stroke-linecap="round" stroke="#000" transform="matrix(1.363 0 0 1.363 148.4 -115.2)">
<path fill="#fff" d="m-230 253.1 6.964 6.499-3.366 0.2902 1.915 4.236-1.277 0.5803-1.857-4.294-2.379 2.263v-9.575" stroke-width=".5065" stroke-linejoin="round"/>
<g fill="none" stroke-width="0.4" transform="matrix(.8441 0 0 .8441 -67.47 39.97)">
<path d="m-189.7 252.4h-1.461m-2.674 0h-1.428"/>
<path d="m-194.5 250.4 1.096 1.096m1.967 1.967 1.016 1.016"/>
<path d="m-194.5 254.5 1.096-1.096m1.967-1.967 1.016-1.016"/>
<path d="m-192.5 255.2v-1.461m0-2.674v-1.428"/>
</g>
</g>
<g stroke-linecap="round" stroke="#000" transform="matrix(1.363 0 0 1.363 228.4 -115.2)">
<path fill="#fff" d="m-230 253.1 6.964 6.499-3.366 0.2902 1.915 4.236-1.277 0.5803-1.857-4.294-2.379 2.263v-9.575" stroke-width=".5065" stroke-linejoin="round"/>
<g fill="none" stroke-width="0.4" transform="matrix(.8441 0 0 .8441 -67.47 39.97)">
<path d="m-189.7 252.4h-1.461m-2.674 0h-1.428"/>
<path d="m-194.5 250.4 1.096 1.096m1.967 1.967 1.016 1.016"/>
<path d="m-194.5 254.5 1.096-1.096m1.967-1.967 1.016-1.016"/>
<path d="m-192.5 255.2v-1.461m0-2.674v-1.428"/>
</g>
</g>
<g stroke-linecap="round" stroke="#000" transform="matrix(1.363 0 0 1.363 248.4 -115.2)">
<path fill="#fff" d="m-230 253.1 6.964 6.499-3.366 0.2902 1.915 4.236-1.277 0.5803-1.857-4.294-2.379 2.263v-9.575" stroke-width=".5065" stroke-linejoin="round"/>
<g fill="none" stroke-width="0.4" transform="matrix(.8441 0 0 .8441 -67.47 39.97)">
<path d="m-189.7 252.4h-1.461m-2.674 0h-1.428"/>
<path d="m-194.5 250.4 1.096 1.096m1.967 1.967 1.016 1.016"/>
<path d="m-194.5 254.5 1.096-1.096m1.967-1.967 1.016-1.016"/>
<path d="m-192.5 255.2v-1.461m0-2.674v-1.428"/>
</g>
</g>
<g stroke-linecap="round" stroke="#000" transform="matrix(1.363 0 0 1.363 288.4 -115.2)">
<path fill="#fff" d="m-230 253.1 6.964 6.499-3.366 0.2902 1.915 4.236-1.277 0.5803-1.857-4.294-2.379 2.263v-9.575" stroke-width=".5065" stroke-linejoin="round"/>
<g fill="none" stroke-width="0.4" transform="matrix(.8441 0 0 .8441 -67.47 39.97)">
<path d="m-189.7 252.4h-1.461m-2.674 0h-1.428"/>
<path d="m-194.5 250.4 1.096 1.096m1.967 1.967 1.016 1.016"/>
<path d="m-194.5 254.5 1.096-1.096m1.967-1.967 1.016-1.016"/>
<path d="m-192.5 255.2v-1.461m0-2.674v-1.428"/>
</g>
</g>
<g stroke-linecap="round" stroke="#000" transform="matrix(1.363 0 0 1.363 308.4 -115.2)">
<path fill="#fff" d="m-230 253.1 6.964 6.499-3.366 0.2902 1.915 4.236-1.277 0.5803-1.857-4.294-2.379 2.263v-9.575" stroke-width=".5065" stroke-linejoin="round"/>
<g fill="none" stroke-width="0.4" transform="matrix(.8441 0 0 .8441 -67.47 39.97)">
<path d="m-189.7 252.4h-1.461m-2.674 0h-1.428"/>
<path d="m-194.5 250.4 1.096 1.096m1.967 1.967 1.016 1.016"/>
<path d="m-194.5 254.5 1.096-1.096m1.967-1.967 1.016-1.016"/>
<path d="m-192.5 255.2v-1.461m0-2.674v-1.428"/>
</g>
</g>
<g stroke-linecap="round" stroke="#000" transform="matrix(1.363 0 0 1.363 328.4 -115.2)">
<path fill="#fff" d="m-230 253.1 6.964 6.499-3.366 0.2902 1.915 4.236-1.277 0.5803-1.857-4.294-2.379 2.263v-9.575" stroke-width=".5065" stroke-linejoin="round"/>
<g fill="none" stroke-width="0.4" transform="matrix(.8441 0 0 .8441 -67.47 39.97)">
<path d="m-189.7 252.4h-1.461m-2.674 0h-1.428"/>
<path d="m-194.5 250.4 1.096 1.096m1.967 1.967 1.016 1.016"/>
<path d="m-194.5 254.5 1.096-1.096m1.967-1.967 1.016-1.016"/>
<path d="m-192.5 255.2v-1.461m0-2.674v-1.428"/>
</g>
</g>
</g>
<g transform="translate(20)">
<g stroke-linecap="round" stroke="#000" transform="matrix(1.363 0 0 1.363 360.4 -146.1)">
<path fill="#fff" d="m-230 253.1 6.964 6.499-3.366 0.2902 1.915 4.236-1.277 0.5803-1.857-4.294-2.379 2.263v-9.575" stroke-width=".5065" stroke-linejoin="round"/>
<g fill="none" stroke-width="0.4" transform="matrix(.8441 0 0 .8441 -67.47 39.97)">
<path d="m-189.7 252.4h-1.461m-2.674 0h-1.428"/>
<path d="m-194.5 250.4 1.096 1.096m1.967 1.967 1.016 1.016"/>
<path d="m-194.5 254.5 1.096-1.096m1.967-1.967 1.016-1.016"/>
<path d="m-192.5 255.2v-1.461m0-2.674v-1.428"/>
</g>
</g>
<g stroke-linecap="round" stroke="#000" transform="matrix(1.363 0 0 1.363 440.4 -146.1)">
<path fill="#fff" d="m-230 253.1 6.964 6.499-3.366 0.2902 1.915 4.236-1.277 0.5803-1.857-4.294-2.379 2.263v-9.575" stroke-width=".5065" stroke-linejoin="round"/>
<g fill="none" stroke-width="0.4" transform="matrix(.8441 0 0 .8441 -67.47 39.97)">
<path d="m-189.7 252.4h-1.461m-2.674 0h-1.428"/>
<path d="m-194.5 250.4 1.096 1.096m1.967 1.967 1.016 1.016"/>
<path d="m-194.5 254.5 1.096-1.096m1.967-1.967 1.016-1.016"/>
<path d="m-192.5 255.2v-1.461m0-2.674v-1.428"/>
</g>
</g>
<g stroke-linecap="round" stroke="#000" transform="matrix(1.363 0 0 1.363 460.4 -146.1)">
<path fill="#fff" d="m-230 253.1 6.964 6.499-3.366 0.2902 1.915 4.236-1.277 0.5803-1.857-4.294-2.379 2.263v-9.575" stroke-width=".5065" stroke-linejoin="round"/>
<g fill="none" stroke-width="0.4" transform="matrix(.8441 0 0 .8441 -67.47 39.97)">
<path d="m-189.7 252.4h-1.461m-2.674 0h-1.428"/>
<path d="m-194.5 250.4 1.096 1.096m1.967 1.967 1.016 1.016"/>
<path d="m-194.5 254.5 1.096-1.096m1.967-1.967 1.016-1.016"/>
<path d="m-192.5 255.2v-1.461m0-2.674v-1.428"/>
</g>
</g>
<g stroke-linecap="round" stroke="#000" transform="matrix(1.363 0 0 1.363 480.4 -146.1)">
<path fill="#fff" d="m-230 253.1 6.964 6.499-3.366 0.2902 1.915 4.236-1.277 0.5803-1.857-4.294-2.379 2.263v-9.575" stroke-width=".5065" stroke-linejoin="round"/>
<g fill="none" stroke-width="0.4" transform="matrix(.8441 0 0 .8441 -67.47 39.97)">
<path d="m-189.7 252.4h-1.461m-2.674 0h-1.428"/>
<path d="m-194.5 250.4 1.096 1.096m1.967 1.967 1.016 1.016"/>
<path d="m-194.5 254.5 1.096-1.096m1.967-1.967 1.016-1.016"/>
<path d="m-192.5 255.2v-1.461m0-2.674v-1.428"/>
</g>
</g>
<g stroke-linecap="round" stroke="#000" transform="matrix(1.363 0 0 1.363 500.4 -146.1)">
<path fill="#fff" d="m-230 253.1 6.964 6.499-3.366 0.2902 1.915 4.236-1.277 0.5803-1.857-4.294-2.379 2.263v-9.575" stroke-width=".5065" stroke-linejoin="round"/>
<g fill="none" stroke-width="0.4" transform="matrix(.8441 0 0 .8441 -67.47 39.97)">
<path d="m-189.7 252.4h-1.461m-2.674 0h-1.428"/>
<path d="m-194.5 250.4 1.096 1.096m1.967 1.967 1.016 1.016"/>
<path d="m-194.5 254.5 1.096-1.096m1.967-1.967 1.016-1.016"/>
<path d="m-192.5 255.2v-1.461m0-2.674v-1.428"/>
</g>
</g>
<g transform="matrix(1.363 0 0 1.363 378 -179.7)">
<path fill="#fff" d="m-228 277.8 6.964 6.499-3.366 0.2902 1.915 4.236-1.277 0.5803-1.857-4.294-2.379 2.263v-9.575" stroke-linecap="round" stroke-width=".5065" stroke="#000" stroke-linejoin="round"/>
<g fill="none" stroke-width="1.2" stroke="#ff2a2a" transform="translate(0 .6667)">
<path d="m-229.2 286.7 7.557-7.557"/>
<circle r="5.387" cy="283" cx="-225.4" stroke-linejoin="round" stroke-linecap="round"/>
</g>
</g>
<g transform="matrix(1.363 0 0 1.363 398 -179.7)">
<path fill="#fff" d="m-228 277.8 6.964 6.499-3.366 0.2902 1.915 4.236-1.277 0.5803-1.857-4.294-2.379 2.263v-9.575" stroke-linecap="round" stroke-width=".5065" stroke="#000" stroke-linejoin="round"/>
<g fill="none" stroke-width="1.2" stroke="#ff2a2a" transform="translate(0 .6667)">
<path d="m-229.2 286.7 7.557-7.557"/>
<circle r="5.387" cy="283" cx="-225.4" stroke-linejoin="round" stroke-linecap="round"/>
</g>
</g>
<g transform="matrix(1.363 0 0 1.363 418 -179.7)">
<path fill="#fff" d="m-228 277.8 6.964 6.499-3.366 0.2902 1.915 4.236-1.277 0.5803-1.857-4.294-2.379 2.263v-9.575" stroke-linecap="round" stroke-width=".5065" stroke="#000" stroke-linejoin="round"/>
<g fill="none" stroke-width="1.2" stroke="#ff2a2a" transform="translate(0 .6667)">
<path d="m-229.2 286.7 7.557-7.557"/>
<circle r="5.387" cy="283" cx="-225.4" stroke-linejoin="round" stroke-linecap="round"/>
</g>
</g>
<g transform="matrix(1.363 0 0 1.363 358 -150.6)">
<path fill="#fff" d="m-228 277.8 6.964 6.499-3.366 0.2902 1.915 4.236-1.277 0.5803-1.857-4.294-2.379 2.263v-9.575" stroke-linecap="round" stroke-width=".5065" stroke="#000" stroke-linejoin="round"/>
<g fill="none" stroke-width="1.2" stroke="#ff2a2a" transform="translate(0 .6667)">
<path d="m-229.2 286.7 7.557-7.557"/>
<circle r="5.387" cy="283" cx="-225.4" stroke-linejoin="round" stroke-linecap="round"/>
</g>
</g>
<g transform="matrix(1.363 0 0 1.363 398 -150.6)">
<path fill="#fff" d="m-228 277.8 6.964 6.499-3.366 0.2902 1.915 4.236-1.277 0.5803-1.857-4.294-2.379 2.263v-9.575" stroke-linecap="round" stroke-width=".5065" stroke="#000" stroke-linejoin="round"/>
<g fill="none" stroke-width="1.2" stroke="#ff2a2a" transform="translate(0 .6667)">
<path d="m-229.2 286.7 7.557-7.557"/>
<circle r="5.387" cy="283" cx="-225.4" stroke-linejoin="round" stroke-linecap="round"/>
</g>
</g>
<g transform="matrix(1.363 0 0 1.363 418 -150.6)">
<path fill="#fff" d="m-228 277.8 6.964 6.499-3.366 0.2902 1.915 4.236-1.277 0.5803-1.857-4.294-2.379 2.263v-9.575" stroke-linecap="round" stroke-width=".5065" stroke="#000" stroke-linejoin="round"/>
<g fill="none" stroke-width="1.2" stroke="#ff2a2a" transform="translate(0 .6667)">
<path d="m-229.2 286.7 7.557-7.557"/>
<circle r="5.387" cy="283" cx="-225.4" stroke-linejoin="round" stroke-linecap="round"/>
</g>
</g>
<g transform="matrix(1.363 0 0 1.363 458 -150.6)">
<path fill="#fff" d="m-228 277.8 6.964 6.499-3.366 0.2902 1.915 4.236-1.277 0.5803-1.857-4.294-2.379 2.263v-9.575" stroke-linecap="round" stroke-width=".5065" stroke="#000" stroke-linejoin="round"/>
<g fill="none" stroke-width="1.2" stroke="#ff2a2a" transform="translate(0 .6667)">
<path d="m-229.2 286.7 7.557-7.557"/>
<circle r="5.387" cy="283" cx="-225.4" stroke-linejoin="round" stroke-linecap="round"/>
</g>
</g>
<g transform="matrix(1.363 0 0 1.363 478 -150.6)">
<path fill="#fff" d="m-228 277.8 6.964 6.499-3.366 0.2902 1.915 4.236-1.277 0.5803-1.857-4.294-2.379 2.263v-9.575" stroke-linecap="round" stroke-width=".5065" stroke="#000" stroke-linejoin="round"/>
<g fill="none" stroke-width="1.2" stroke="#ff2a2a" transform="translate(0 .6667)">
<path d="m-229.2 286.7 7.557-7.557"/>
<circle r="5.387" cy="283" cx="-225.4" stroke-linejoin="round" stroke-linecap="round"/>
</g>
</g>
<g transform="matrix(1.363 0 0 1.363 478 -150.6)">
<path fill="#fff" d="m-228 277.8 6.964 6.499-3.366 0.2902 1.915 4.236-1.277 0.5803-1.857-4.294-2.379 2.263v-9.575" stroke-linecap="round" stroke-width=".5065" stroke="#000" stroke-linejoin="round"/>
<g fill="none" stroke-width="1.2" stroke="#ff2a2a" transform="translate(0 .6667)">
<path d="m-229.2 286.7 7.557-7.557"/>
<circle r="5.387" cy="283" cx="-225.4" stroke-linejoin="round" stroke-linecap="round"/>
</g>
</g>
<g stroke-linecap="round" stroke="#000" transform="matrix(1.363 0 0 1.363 380.4 -115.2)">
<path fill="#fff" d="m-230 253.1 6.964 6.499-3.366 0.2902 1.915 4.236-1.277 0.5803-1.857-4.294-2.379 2.263v-9.575" stroke-width=".5065" stroke-linejoin="round"/>
<g fill="none" stroke-width="0.4" transform="matrix(.8441 0 0 .8441 -67.47 39.97)">
<path d="m-189.7 252.4h-1.461m-2.674 0h-1.428"/>
<path d="m-194.5 250.4 1.096 1.096m1.967 1.967 1.016 1.016"/>
<path d="m-194.5 254.5 1.096-1.096m1.967-1.967 1.016-1.016"/>
<path d="m-192.5 255.2v-1.461m0-2.674v-1.428"/>
</g>
</g>
<g stroke-linecap="round" stroke="#000" transform="matrix(1.363 0 0 1.363 440.4 -115.2)">
<path fill="#fff" d="m-230 253.1 6.964 6.499-3.366 0.2902 1.915 4.236-1.277 0.5803-1.857-4.294-2.379 2.263v-9.575" stroke-width=".5065" stroke-linejoin="round"/>
<g fill="none" stroke-width="0.4" transform="matrix(.8441 0 0 .8441 -67.47 39.97)">
<path d="m-189.7 252.4h-1.461m-2.674 0h-1.428"/>
<path d="m-194.5 250.4 1.096 1.096m1.967 1.967 1.016 1.016"/>
<path d="m-194.5 254.5 1.096-1.096m1.967-1.967 1.016-1.016"/>
<path d="m-192.5 255.2v-1.461m0-2.674v-1.428"/>
</g>
</g>
<g stroke-linecap="round" stroke="#000" transform="matrix(1.363 0 0 1.363 500.4 -115.2)">
<path fill="#fff" d="m-230 253.1 6.964 6.499-3.366 0.2902 1.915 4.236-1.277 0.5803-1.857-4.294-2.379 2.263v-9.575" stroke-width=".5065" stroke-linejoin="round"/>
<g fill="none" stroke-width="0.4" transform="matrix(.8441 0 0 .8441 -67.47 39.97)">
<path d="m-189.7 252.4h-1.461m-2.674 0h-1.428"/>
<path d="m-194.5 250.4 1.096 1.096m1.967 1.967 1.016 1.016"/>
<path d="m-194.5 254.5 1.096-1.096m1.967-1.967 1.016-1.016"/>
<path d="m-192.5 255.2v-1.461m0-2.674v-1.428"/>
</g>
</g>
</g>
<rect width="166.5" fill="url(#c)" height="60" y="195.2" ry="1.467" x="56.53"/>
</g>
</svg>
