<?xml version="1.0" encoding="UTF-8" standalone="no"?>
<svg xmlns:dc="http://purl.org/dc/elements/1.1/" xmlns:cc="http://creativecommons.org/ns#" viewBox="0 0 53.463057 83.844018" version="1.1" xmlns="http://www.w3.org/2000/svg" xmlns:rdf="http://www.w3.org/1999/02/22-rdf-syntax-ns#" preserveAspectRatio="xMidYMid">
<metadata>
<rdf:RDF>
<cc:Work rdf:about="">
<dc:format>image/svg+xml</dc:format>
<dc:type rdf:resource="http://purl.org/dc/dcmitype/StillImage"/>
<dc:title/>
</cc:Work>
</rdf:RDF>
</metadata>
<g transform="translate(508.2 -196)">
<text line-height="125%" x="381.66089" y="342.25021" font-size="15px" font-family="sans-serif" fill="#000000" style="word-spacing:0px;letter-spacing:0px" xml:space="preserve"><tspan x="381.66089" y="342.25021"/></text>
<text line-height="125%" x="616.8125" y="355.17471" font-size="7.5px" font-family="sans-serif" fill="#000000" style="word-spacing:0px;letter-spacing:0px" xml:space="preserve"><tspan x="616.8125" y="355.17471"/></text>
<g transform="matrix(.5182 0 0 .5182 -742.7 48.43)">
<path stroke-width="0.4" stroke="#000" stroke-linecap="round" fill="#3e4c71" stroke-linejoin="round" d="m502.5 287.9c-0.8302-0.1552 0.0657-0.6738 0.2308-1.039 2.247-1.532 4.519-2.999 8.437-0.1531 0.1922 0.4088 1.604 0.9919 0.3327 1.192v7.375h-9z"/>
<path fill="none" stroke-width="0.4" stroke="#000" d="m502.5 287.8c3.745-1.865 6.502-1.112 9.082 0.1105"/>
<g>
<path stroke-width=".1" stroke="#000" stroke-linecap="round" fill="#f5f5d1" stroke-linejoin="round" d="m503 288.4c1.852-1.16 3.306-1.088 4.75-0.9844v6.687l-4.75 0.4688z"/>
<path stroke-width=".1" stroke="#000" stroke-linecap="round" fill="#f5f5d1" stroke-linejoin="round" d="m508.8 287.6c0.8367 0.1859 1.748 0.2235 2.391 0.7969v5.406l-2.422 0.2344z"/>
<path fill="#1c3456" d="m466.2 299.9 54.33-8.045 0.0371 7.251-54.32 6.77z"/>
<path d="m520.5 291.8 24.2 14.59 0.0808 4.825-24.24-12.17z"/>
<path fill="#000002" d="m521.8 297.4 26.68 15.14-0.0442 3.137-26.6-13.66z"/>
<path d="m523.4 301.3 29.2 15.71-0.3536 111.7-28.2 10.61z"/>
<path fill="#1a2f4b" d="m461.7 305.8 60.16-8.466 0.0322 4.62-60.24 8.088z"/>
<path fill="#30527d" d="m457.3 310.3 66.08-8.996 0.6509 138-67.43-6.91z"/>
<path stroke-width="0.4" stroke="#000" stroke-linecap="round" fill="#2f4f78" stroke-linejoin="round" d="m490.9 318.5 26.34-2.812v123.8l-26.34-2.5z"/>
<path stroke-width="0.4" stroke="#000" stroke-linecap="round" fill="#2f4f78" stroke-linejoin="round" d="m465.2 321 22.38-2.188v117.3l-22.38-2.188z"/>
<path fill="#11161c" d="m452.7 434.1 72.91 8.531v4.066l-72.91-8.927z"/>
<path fill="#11161c" d="m555.9 429.7-30.26 12.93v4.066l30.26-13.31z"/>
<path fill="#172736" d="m456.9 432.1 67.01 6.922 1.648 3.692-72.89-8.673z"/>
<path fill="#020202" d="m551.9 428.6-27.99 10.43 1.648 3.692 30.28-12.9z"/>
<path stroke-width="0.6" stroke="#000" stroke-linecap="round" fill="#58759d" stroke-linejoin="round" d="m469.4 351.2 16-0.9281v22.55l-16 0.7071z"/>
<path fill="#e3e2db" d="m470.8 353.2 13.08-0.9281v18.61l-13.08 0.2652z"/>
<path d="m459.9 311.3 57.89-7.226v6.887l-57.89 6.751z"/>
<path d="m527.5 304.9 23.6 13.52v4.552l-23.6-11.38z"/>
</g>
<g stroke-linecap="round" stroke-width="0.6" stroke="#000" stroke-linejoin="round" fill="#58759d">
<path d="m494.7 349.8 17.95-1.149v23.96l-17.95 0.3094z"/>
<path d="m494.7 378.4 17.92-0.149v23.62l-17.92-0.6594z"/>
<path d="m494.8 407.2 17.7 0.726v23.46l-17.7-1.503z"/>
<path d="m469.3 378 16.11 0.0697v22.5l-16.11-0.6906z"/>
<path d="m469.4 405.4 16.02 0.7532v22.28l-16.02-0.8116z"/>
</g>
<g fill="#fdfffe">
<path d="m470.4 324.9 4.419-0.375v9.771l-4.419 0.2812z"/>
<path d="m475.6 324.4 4.419-0.375v9.771l-4.419 0.2812z"/>
<path d="m480.8 324 4.419-0.375v9.771l-4.419 0.2812z"/>
<path d="m470.3 335.6 4.419-0.375v9.771l-4.419 0.2812z"/>
<path d="m475.5 335.1 4.419-0.375v9.771l-4.419 0.2812z"/>
<path d="m480.7 334.7 4.419-0.375v9.771l-4.419 0.2812z"/>
<g transform="matrix(1.134 0 0 1.062 -60.84 -22.66)">
<path d="m490.4 324.9 4.419-0.375v9.771l-4.419 0.2812z"/>
<path d="m495.6 324.4 4.419-0.375v9.771l-4.419 0.2812z"/>
<path d="m500.8 324 4.419-0.375v9.771l-4.419 0.2812z"/>
<path d="m490.3 335.6 4.419-0.375v9.771l-4.419 0.2812z"/>
<path d="m495.5 335.1 4.419-0.375v9.771l-4.419 0.2812z"/>
<path d="m500.7 334.7 4.419-0.375v9.771l-4.419 0.2812z"/>
</g>
<g transform="matrix(.4555 .2758 0 .9724 303.3 -129.2)">
<path d="m490.4 324.9 4.419-0.375v9.771l-4.419 0.2812z"/>
<path d="m495.6 324.4 4.419-0.375v9.771l-4.419 0.2812z"/>
<path d="m500.8 324 4.419-0.375v9.771l-4.419 0.2812z"/>
<path d="m490.3 335.6 4.419-0.375v9.771l-4.419 0.2812z"/>
<path d="m495.5 335.1 4.419-0.375v9.771l-4.419 0.2812z"/>
<path d="m500.7 334.7 4.419-0.375v9.771l-4.419 0.2812z"/>
</g>
<g transform="matrix(.4555 .2743 0 .9670 315.3 -122.1)">
<path d="m490.4 324.9 4.419-0.375v9.771l-4.419 0.2812z"/>
<path d="m495.6 324.4 4.419-0.375v9.771l-4.419 0.2812z"/>
<path d="m500.8 324 4.419-0.375v9.771l-4.419 0.2812z"/>
<path d="m490.3 335.6 4.419-0.375v9.771l-4.419 0.2812z"/>
<path d="m495.5 335.1 4.419-0.375v9.771l-4.419 0.2812z"/>
<path d="m500.7 334.7 4.419-0.375v9.771l-4.419 0.2812z"/>
</g>
</g>
<g>
<g fill="#f6f8f6" transform="matrix(.4546 -.03020 0 .7666 298.9 109.4)">
<g fill="#f6f8f6" transform="matrix(.3083 .1053 0 .4039 321.8 86.75)" font-family="sans-serif">
<text line-height="125%" x="608.11182" y="329.69907" font-size="15px" style="word-spacing:0px;letter-spacing:0px" xml:space="preserve"><tspan x="608.11182" y="329.69907">POLICE</tspan></text>
<text line-height="82.99999833%" x="562.06213" y="396.01776" font-size="7.985px" transform="scale(1.223 .8179)" style="text-align:center;text-anchor:middle;word-spacing:0px;letter-spacing:0px" xml:space="preserve"><tspan x="562.06213" y="396.01776">PUBLIC</tspan><tspan x="562.06213" y="402.64517">CALL</tspan></text>
<text line-height="125%" x="712.58691" y="329.69907" font-size="15px" style="word-spacing:0px;letter-spacing:0px" xml:space="preserve"><tspan x="712.58691" y="329.69907" fill="#f6f8f6" font-size="13.75px">BOX</tspan></text>
</g>
</g>
<g fill="#f6f8f6" transform="matrix(.2949 -.03885 0 .2949 287.7 241.9)" font-family="sans-serif">
<text line-height="125%" x="608.11182" y="329.69907" font-size="15px" style="word-spacing:0px;letter-spacing:0px" xml:space="preserve"><tspan x="608.11182" y="329.69907">POLICE</tspan></text>
<text line-height="82.99999833%" x="562.06213" y="396.01776" font-size="7.985px" transform="scale(1.223 .8179)" style="text-align:center;text-anchor:middle;word-spacing:0px;letter-spacing:0px" xml:space="preserve"><tspan x="562.06213" y="396.01776">PUBLIC</tspan><tspan x="562.06213" y="402.64517">CALL</tspan></text>
<text line-height="125%" x="712.58691" y="329.69907" font-size="15px" style="word-spacing:0px;letter-spacing:0px" xml:space="preserve"><tspan x="712.58691" y="329.69907" fill="#f6f8f6" font-size="16.95px">BOX</tspan></text>
</g>
<ellipse ry="1.149" rx=".9060" cx="492.6" cy="375.8" fill="#a8ac9c"/>
</g>
</g>
</g>
</svg>
