<?xml version="1.0" encoding="UTF-8" standalone="no"?>
<svg xmlns="http://www.w3.org/2000/svg" viewBox="0 0 551.20971 107.44805" version="1.1" width="155.6mm" xmlns:xlink="http://www.w3.org/1999/xlink" height="30.32mm" xmlns:rdf="http://www.w3.org/1999/02/22-rdf-syntax-ns#" xmlns:dc="http://purl.org/dc/elements/1.1/" xmlns:cc="http://creativecommons.org/ns#">
<defs>
<marker id="e" refY="0" refX="0" overflow="visible" orient="auto">
<path stroke="#000" d="m0 0 5-5-17.5 5 17.5 5-5-5z" stroke-width="1pt" transform="matrix(-.4 0 0 -.4 -4 0)" fill-rule="evenodd"/>
</marker>
<linearGradient id="c" gradientUnits="userSpaceOnUse" x1="61.25" gradientTransform="matrix(1 0 0 .8487 -.02723 6.329)" x2="61.25" y1="34.15" y2="22.09">
<stop offset="0" stop-color="#76f04c"/>
<stop offset="1" stop-color="#b9f7a2"/>
</linearGradient>
<linearGradient id="d" gradientUnits="userSpaceOnUse" x1="61.25" gradientTransform="matrix(1 0 0 .8487 -.02723 6.329)" x2="61.25" y1="34.15" y2="22.09">
<stop offset="0" stop-color="#f0c14c"/>
<stop offset="1" stop-color="#f7dea2"/>
</linearGradient>
<linearGradient id="b" gradientUnits="userSpaceOnUse" x2="-234.9" x1="-234.9" xlink:href="#c" y2="390.1" gradientTransform="matrix(1.223 0 0 .9363 674.1 -103.1)" y1="416.2"/>
<linearGradient id="a" gradientUnits="userSpaceOnUse" x2="-234.9" x1="-234.9" xlink:href="#d" y2="390.1" gradientTransform="matrix(1.223 0 0 .9363 214.1 -103.1)" y1="416.2"/>
</defs>
<metadata>
<rdf:RDF>
<cc:Work rdf:about="">
<dc:format>image/svg+xml</dc:format>
<dc:type rdf:resource="http://purl.org/dc/dcmitype/StillImage"/>
<dc:title/>
</cc:Work>
</rdf:RDF>
</metadata>
<g transform="translate(357 -161.2)">
<text x="381.66089" style="letter-spacing:0px;word-spacing:0px" xml:space="preserve" font-family="sans-serif" line-height="125%" font-size="15px" y="342.25021" fill="#000000"><tspan y="342.25021" x="381.66089"/></text>
<text x="616.8125" style="letter-spacing:0px;word-spacing:0px" xml:space="preserve" font-family="sans-serif" line-height="125%" font-size="7.5px" y="355.17471" fill="#000000"><tspan y="355.17471" x="616.8125"/></text>
<g transform="translate(-9.028 -54.4)">
<g transform="matrix(.5479 0 0 .5479 -212.6 104.2)">
<rect stroke="#a88734" y="261.6" stroke-width=".7427" ry="1.467" x="-139.5" stroke-linejoin="round" width="133.2" height="25.49" stroke-linecap="round" fill="url(#a)"/>
<text style="letter-spacing:0px;word-spacing:0px" xml:space="preserve" font-family="&apos;DejaVu Sans&apos;" line-height="125%" fill="#000000" font-size="10px" y="276.97717" x="-96.720024"><tspan y="276.97717" x="-96.720024">Buy Now!</tspan></text>
</g>
<g stroke-linecap="round" stroke="#000">
<path stroke-linejoin="round" d="m-230 253.1 6.964 6.499-3.366 0.2902 1.915 4.236-1.277 0.5803-1.857-4.294-2.379 2.263v-9.575" stroke-width=".5065" fill="#fff"/>
<g stroke-width="0.4" transform="matrix(.8441 0 0 .8441 -67.47 39.97)" fill="none">
<path d="m-189.7 252.4h-1.461m-2.674 0h-1.428"/>
<path d="m-194.5 250.4 1.096 1.096m1.967 1.967 1.016 1.016"/>
<path d="m-194.5 254.5 1.096-1.096m1.967-1.967 1.016-1.016"/>
<path d="m-192.5 255.2v-1.461m0-2.674v-1.428"/>
</g>
</g>
</g>
<g transform="translate(231 -79.07)">
<g transform="matrix(.5479 0 0 .5479 -212.6 128.9)">
<rect stroke="#a88734" x="-139.5" stroke-width=".7427" ry="1.467" width="133.2" stroke-linejoin="round" y="261.6" height="25.49" stroke-linecap="round" fill="url(#a)"/>
<text style="letter-spacing:0px;word-spacing:0px" xml:space="preserve" font-family="&apos;DejaVu Sans&apos;" line-height="125%" fill="#000000" font-size="10px" y="276.97717" x="-96.720024"><tspan y="276.97717" x="-96.720024">Buy Now!</tspan></text>
</g>
<g>
<path stroke-linejoin="round" d="m-228 277.8 6.964 6.499-3.366 0.2902 1.915 4.236-1.277 0.5803-1.857-4.294-2.379 2.263v-9.575" stroke="#000" stroke-width=".5065" stroke-linecap="round" fill="#fff"/>
<g stroke="#ff2a2a" stroke-width="1.2" transform="translate(0 .6667)" fill="none">
<path d="m-229.2 286.7 7.557-7.557"/>
<circle cx="-225.4" stroke-linejoin="round" cy="283" stroke-linecap="round" r="5.387"/>
</g>
</g>
</g>
<g transform="translate(70.97 -54.4)">
<g transform="matrix(.5479 0 0 .5479 -212.6 104.2)">
<rect stroke="#a88734" x="-139.5" stroke-width=".7427" ry="1.467" width="133.2" stroke-linejoin="round" y="261.6" height="25.49" stroke-linecap="round" fill="url(#a)"/>
<text style="letter-spacing:0px;word-spacing:0px" xml:space="preserve" font-family="&apos;DejaVu Sans&apos;" line-height="125%" fill="#000000" font-size="10px" y="276.97717" x="-96.720024"><tspan y="276.97717" x="-96.720024">Buy Now!</tspan></text>
</g>
<g stroke-linecap="round" stroke="#000">
<path stroke-linejoin="round" d="m-230 253.1 6.964 6.499-3.366 0.2902 1.915 4.236-1.277 0.5803-1.857-4.294-2.379 2.263v-9.575" stroke-width=".5065" fill="#fff"/>
<g stroke-width="0.4" transform="matrix(.8441 0 0 .8441 -67.47 39.97)" fill="none">
<path d="m-189.7 252.4h-1.461m-2.674 0h-1.428"/>
<path d="m-194.5 250.4 1.096 1.096m1.967 1.967 1.016 1.016"/>
<path d="m-194.5 254.5 1.096-1.096m1.967-1.967 1.016-1.016"/>
<path d="m-192.5 255.2v-1.461m0-2.674v-1.428"/>
</g>
</g>
</g>
<g transform="translate(151 -54.4)">
<g transform="matrix(.5479 0 0 .5479 -212.6 104.2)">
<rect stroke="#a88734" y="261.6" stroke-width=".7427" ry="1.467" x="-139.5" stroke-linejoin="round" width="133.2" height="25.49" stroke-linecap="round" fill="url(#a)"/>
<text style="letter-spacing:0px;word-spacing:0px" xml:space="preserve" font-family="&apos;DejaVu Sans&apos;" line-height="125%" fill="#000000" font-size="10px" y="276.97717" x="-96.720024"><tspan y="276.97717" x="-96.720024">Buy Now!</tspan></text>
</g>
<g stroke-linecap="round" stroke="#000">
<path stroke-linejoin="round" d="m-230 253.1 6.964 6.499-3.366 0.2902 1.915 4.236-1.277 0.5803-1.857-4.294-2.379 2.263v-9.575" stroke-width=".5065" fill="#fff"/>
<g stroke-width="0.4" transform="matrix(.8441 0 0 .8441 -67.47 39.97)" fill="none">
<path d="m-189.7 252.4h-1.461m-2.674 0h-1.428"/>
<path d="m-194.5 250.4 1.096 1.096m1.967 1.967 1.016 1.016"/>
<path d="m-194.5 254.5 1.096-1.096m1.967-1.967 1.016-1.016"/>
<path d="m-192.5 255.2v-1.461m0-2.674v-1.428"/>
</g>
</g>
</g>
<g transform="translate(311 -79.07)">
<g transform="matrix(.5479 0 0 .5479 -212.6 128.9)">
<rect stroke="#a88734" y="261.6" stroke-width=".7427" ry="1.467" x="-139.5" stroke-linejoin="round" width="133.2" height="25.49" stroke-linecap="round" fill="url(#a)"/>
<text style="letter-spacing:0px;word-spacing:0px" xml:space="preserve" font-family="&apos;DejaVu Sans&apos;" line-height="125%" fill="#000000" font-size="10px" y="276.97717" x="-96.720024"><tspan y="276.97717" x="-96.720024">Buy Now!</tspan></text>
</g>
<g>
<path stroke-linejoin="round" d="m-228 277.8 6.964 6.499-3.366 0.2902 1.915 4.236-1.277 0.5803-1.857-4.294-2.379 2.263v-9.575" stroke="#000" stroke-width=".5065" stroke-linecap="round" fill="#fff"/>
<g stroke="#ff2a2a" stroke-width="1.2" transform="translate(0 .6667)" fill="none">
<path d="m-229.2 286.7 7.557-7.557"/>
<circle cx="-225.4" stroke-linejoin="round" cy="283" stroke-linecap="round" r="5.387"/>
</g>
</g>
</g>
<g transform="matrix(.5479 0 0 .5479 178.4 49.83)">
<rect stroke="#a88734" y="261.6" stroke-width=".7427" ry="1.467" x="-139.5" stroke-linejoin="round" width="133.2" height="25.49" stroke-linecap="round" fill="url(#a)"/>
<text style="letter-spacing:0px;word-spacing:0px" xml:space="preserve" font-family="&apos;DejaVu Sans&apos;" line-height="125%" fill="#000000" font-size="10px" y="276.97717" x="-96.720024"><tspan y="276.97717" x="-96.720024">Buy Now!</tspan></text>
</g>
<g stroke-linecap="round" transform="translate(391 -54.4)" stroke="#000">
<path stroke-linejoin="round" d="m-230 253.1 6.964 6.499-3.366 0.2902 1.915 4.236-1.277 0.5803-1.857-4.294-2.379 2.263v-9.575" stroke-width=".5065" fill="#fff"/>
<g stroke-width="0.4" transform="matrix(.8441 0 0 .8441 -67.47 39.97)" fill="none">
<path d="m-189.7 252.4h-1.461m-2.674 0h-1.428"/>
<path d="m-194.5 250.4 1.096 1.096m1.967 1.967 1.016 1.016"/>
<path d="m-194.5 254.5 1.096-1.096m1.967-1.967 1.016-1.016"/>
<path d="m-192.5 255.2v-1.461m0-2.674v-1.428"/>
</g>
</g>
<text x="179.86499" style="letter-spacing:0px;word-spacing:0px" xml:space="preserve" font-family="sans-serif" line-height="125%" font-size="16.25px" y="207.34706" fill="#a88734"><tspan y="207.34706" x="179.86499">…</tspan></text>
<g transform="translate(19 -90.83)">
<g transform="matrix(.5477 0 0 .5434 -412.6 165.6)">
<rect stroke="#52a834" x="320.5" stroke-width=".7427" ry="1.467" width="133.2" stroke-linejoin="round" y="261.6" height="25.49" stroke-linecap="round" fill="url(#b)"/>
<text style="letter-spacing:0px;word-spacing:0px" xml:space="preserve" font-family="&apos;DejaVu Sans&apos;" line-height="125%" fill="#000000" font-size="10px" y="276.97717" x="363.28"><tspan y="276.97717" x="363.28">Buy Now!</tspan></text>
</g>
<g stroke-linecap="round" transform="translate(51.97 60.1)" stroke="#000">
<path stroke-linejoin="round" d="m-230 253.1 6.964 6.499-3.366 0.2902 1.915 4.236-1.277 0.5803-1.857-4.294-2.379 2.263v-9.575" stroke-width=".5065" fill="#fff"/>
<g stroke-width="0.4" transform="matrix(.8441 0 0 .8441 -67.47 39.97)" fill="none">
<path d="m-189.7 252.4h-1.461m-2.674 0h-1.428"/>
<path d="m-194.5 250.4 1.096 1.096m1.967 1.967 1.016 1.016"/>
<path d="m-194.5 254.5 1.096-1.096m1.967-1.967 1.016-1.016"/>
<path d="m-192.5 255.2v-1.461m0-2.674v-1.428"/>
</g>
</g>
</g>
<g transform="translate(-61 -115.5)">
<g transform="matrix(.5477 0 0 .5434 -412.6 190.2)">
<rect stroke="#52a834" y="261.6" stroke-width=".7427" ry="1.467" x="320.5" stroke-linejoin="round" width="133.2" height="25.49" stroke-linecap="round" fill="url(#b)"/>
<text style="letter-spacing:0px;word-spacing:0px" xml:space="preserve" font-family="&apos;DejaVu Sans&apos;" line-height="125%" fill="#000000" font-size="10px" y="276.97717" x="363.28"><tspan y="276.97717" x="363.28">Buy Now!</tspan></text>
</g>
<g transform="translate(51.97 60.1)">
<path stroke-linejoin="round" d="m-228 277.8 6.964 6.499-3.366 0.2902 1.915 4.236-1.277 0.5803-1.857-4.294-2.379 2.263v-9.575" stroke="#000" stroke-width=".5065" stroke-linecap="round" fill="#fff"/>
<g stroke="#ff2a2a" stroke-width="1.2" transform="translate(0 .6667)" fill="none">
<path d="m-229.2 286.7 7.557-7.557"/>
<circle cx="-225.4" stroke-linejoin="round" cy="283" stroke-linecap="round" r="5.387"/>
</g>
</g>
</g>
<g transform="translate(99 -90.83)">
<g transform="matrix(.5477 0 0 .5434 -412.6 165.6)">
<rect stroke="#52a834" y="261.6" stroke-width=".7427" ry="1.467" x="320.5" stroke-linejoin="round" width="133.2" height="25.49" stroke-linecap="round" fill="url(#b)"/>
<text style="letter-spacing:0px;word-spacing:0px" xml:space="preserve" font-family="&apos;DejaVu Sans&apos;" line-height="125%" fill="#000000" font-size="10px" y="276.97717" x="363.28"><tspan y="276.97717" x="363.28">Buy Now!</tspan></text>
</g>
<g stroke-linecap="round" transform="translate(51.97 60.1)" stroke="#000">
<path stroke-linejoin="round" d="m-230 253.1 6.964 6.499-3.366 0.2902 1.915 4.236-1.277 0.5803-1.857-4.294-2.379 2.263v-9.575" stroke-width=".5065" fill="#fff"/>
<g stroke-width="0.4" transform="matrix(.8441 0 0 .8441 -67.47 39.97)" fill="none">
<path d="m-189.7 252.4h-1.461m-2.674 0h-1.428"/>
<path d="m-194.5 250.4 1.096 1.096m1.967 1.967 1.016 1.016"/>
<path d="m-194.5 254.5 1.096-1.096m1.967-1.967 1.016-1.016"/>
<path d="m-192.5 255.2v-1.461m0-2.674v-1.428"/>
</g>
</g>
</g>
<g transform="translate(179 -90.83)">
<g transform="matrix(.5477 0 0 .5434 -412.6 165.6)">
<rect stroke="#52a834" x="320.5" stroke-width=".7427" ry="1.467" width="133.2" stroke-linejoin="round" y="261.6" height="25.49" stroke-linecap="round" fill="url(#b)"/>
<text style="letter-spacing:0px;word-spacing:0px" xml:space="preserve" font-family="&apos;DejaVu Sans&apos;" line-height="125%" fill="#000000" font-size="10px" y="276.97717" x="363.28"><tspan y="276.97717" x="363.28">Buy Now!</tspan></text>
</g>
<g stroke-linecap="round" transform="translate(51.97 60.1)" stroke="#000">
<path stroke-linejoin="round" d="m-230 253.1 6.964 6.499-3.366 0.2902 1.915 4.236-1.277 0.5803-1.857-4.294-2.379 2.263v-9.575" stroke-width=".5065" fill="#fff"/>
<g stroke-width="0.4" transform="matrix(.8441 0 0 .8441 -67.47 39.97)" fill="none">
<path d="m-189.7 252.4h-1.461m-2.674 0h-1.428"/>
<path d="m-194.5 250.4 1.096 1.096m1.967 1.967 1.016 1.016"/>
<path d="m-194.5 254.5 1.096-1.096m1.967-1.967 1.016-1.016"/>
<path d="m-192.5 255.2v-1.461m0-2.674v-1.428"/>
</g>
</g>
</g>
<g transform="translate(259 -115.5)">
<g transform="matrix(.5477 0 0 .5434 -412.6 190.2)">
<rect stroke="#52a834" x="320.5" stroke-width=".7427" ry="1.467" width="133.2" stroke-linejoin="round" y="261.6" height="25.49" stroke-linecap="round" fill="url(#b)"/>
<text style="letter-spacing:0px;word-spacing:0px" xml:space="preserve" font-family="&apos;DejaVu Sans&apos;" line-height="125%" fill="#000000" font-size="10px" y="276.97717" x="363.28"><tspan y="276.97717" x="363.28">Buy Now!</tspan></text>
</g>
<g transform="translate(51.97 60.1)">
<path stroke-linejoin="round" d="m-228 277.8 6.964 6.499-3.366 0.2902 1.915 4.236-1.277 0.5803-1.857-4.294-2.379 2.263v-9.575" stroke="#000" stroke-width=".5065" stroke-linecap="round" fill="#fff"/>
<g stroke="#ff2a2a" stroke-width="1.2" transform="translate(0 .6667)" fill="none">
<path d="m-229.2 286.7 7.557-7.557"/>
<circle cx="-225.4" stroke-linejoin="round" cy="283" stroke-linecap="round" r="5.387"/>
</g>
</g>
</g>
<g transform="matrix(.5477 0 0 .5434 -73.59 74.72)">
<rect stroke="#52a834" x="320.5" stroke-width=".7427" ry="1.467" width="133.2" stroke-linejoin="round" y="261.6" height="25.49" stroke-linecap="round" fill="url(#b)"/>
<text style="letter-spacing:0px;word-spacing:0px" xml:space="preserve" font-family="&apos;DejaVu Sans&apos;" line-height="125%" fill="#000000" font-size="10px" y="276.97717" x="363.28"><tspan y="276.97717" x="363.28">Buy Now!</tspan></text>
</g>
<g transform="translate(391 -55.4)">
<path stroke-linejoin="round" d="m-228 277.8 6.964 6.499-3.366 0.2902 1.915 4.236-1.277 0.5803-1.857-4.294-2.379 2.263v-9.575" stroke="#000" stroke-width=".5065" stroke-linecap="round" fill="#fff"/>
<g stroke="#ff2a2a" stroke-width="1.2" transform="translate(0 .6667)" fill="none">
<path d="m-229.2 286.7 7.557-7.557"/>
<circle cx="-225.4" stroke-linejoin="round" cy="283" stroke-linecap="round" r="5.387"/>
</g>
</g>
<text x="179.86499" style="letter-spacing:0px;word-spacing:0px" xml:space="preserve" font-family="sans-serif" line-height="125%" font-size="16.25px" y="230.95526" fill="#52a834"><tspan y="230.95526" x="179.86499">…</tspan></text>
<path d="m-298.3 170.7h489.5" stroke-width="1.1" marker-end="url(#e)" stroke="#000" fill="none"/>
<text x="-297.91364" style="letter-spacing:0px;word-spacing:0px" xml:space="preserve" font-family="sans-serif" line-height="125%" font-size="6.962px" y="166.52913" fill="#000000"><tspan y="166.52913" x="-297.91364">Jan. 2016</tspan></text>
<text x="142.08638" style="letter-spacing:0px;word-spacing:0px" xml:space="preserve" font-family="sans-serif" line-height="125%" font-size="6.962px" y="166.52913" fill="#000000"><tspan y="166.52913" x="142.08638">Feb. 2016</tspan></text>
<g font-size="6.962px" transform="translate(0 -60.5)" font-family="sans-serif" fill="#000000">
<text x="-278.51434" style="letter-spacing:0px;word-spacing:0px" xml:space="preserve" line-height="125%" y="246.52913"><tspan y="246.52913" x="-278.51434">Visitor #1</tspan></text>
<text x="-198.51433" style="letter-spacing:0px;word-spacing:0px" xml:space="preserve" line-height="125%" y="246.52913"><tspan y="246.52913" x="-198.51433">Visitor #2</tspan></text>
<text x="-118.51431" style="letter-spacing:0px;word-spacing:0px" xml:space="preserve" line-height="125%" y="246.52913"><tspan y="246.52913" x="-118.51431">Visitor #3</tspan></text>
<text x="-38.514313" style="letter-spacing:0px;word-spacing:0px" xml:space="preserve" line-height="125%" y="246.52913"><tspan y="246.52913" x="-38.514313">Visitor #4</tspan></text>
<text x="41.485687" style="letter-spacing:0px;word-spacing:0px" xml:space="preserve" line-height="125%" y="246.52913"><tspan y="246.52913" x="41.485687">Visitor #5</tspan></text>
<text x="121.48569" style="letter-spacing:0px;word-spacing:0px" xml:space="preserve" line-height="125%" y="246.52913"><tspan y="246.52913" x="121.48569">Visitor #6</tspan></text>
</g>
<text x="-356.94693" style="letter-spacing:0px;word-spacing:0px" xml:space="preserve" font-family="sans-serif" line-height="125%" font-size="13.75px" y="203.36731" fill="#000000"><tspan font-size="6.962px" x="-356.94693" y="203.36731">Timeline #1</tspan></text>
<text x="-356.94693" style="letter-spacing:0px;word-spacing:0px" xml:space="preserve" font-family="sans-serif" line-height="125%" font-size="13.75px" y="227.0623" fill="#000000"><tspan font-size="6.962px" x="-356.94693" y="227.0623">Timeline #2</tspan></text>
<g transform="translate(73.48 -4)">
<g transform="translate(140)">
<g transform="matrix(.5477 0 0 .5434 -426.9 116.4)">
<rect stroke="#52a834" x="320.5" stroke-width=".7427" ry="1.467" width="133.2" stroke-linejoin="round" y="261.6" height="25.49" stroke-linecap="round" fill="url(#b)"/>
<text style="letter-spacing:0px;word-spacing:0px" xml:space="preserve" font-family="&apos;DejaVu Sans&apos;" line-height="125%" fill="#000000" font-size="10px" y="276.97717" x="363.28"><tspan y="276.97717" x="363.28">Buy Now!</tspan></text>
</g>
<text x="-170.63501" style="letter-spacing:0px;word-spacing:0px" xml:space="preserve" font-family="sans-serif" line-height="125%" font-size="6.962px" y="267.42188" fill="#000000"><tspan y="267.42188" x="-170.63501">gathered 1000 clicks</tspan></text>
</g>
<g transform="translate(-107.7 -40.75)">
<g transform="matrix(.5479 0 0 .5479 -167.2 155.9)">
<rect stroke="#a88734" x="-139.5" stroke-width=".7427" ry="1.467" width="133.2" stroke-linejoin="round" y="261.6" height="25.49" stroke-linecap="round" fill="url(#a)"/>
<text style="letter-spacing:0px;word-spacing:0px" xml:space="preserve" font-family="&apos;DejaVu Sans&apos;" line-height="125%" fill="#000000" font-size="10px" y="276.97717" x="-96.720024"><tspan y="276.97717" x="-96.720024">Buy Now!</tspan></text>
</g>
<text x="-162.88501" style="letter-spacing:0px;word-spacing:0px" xml:space="preserve" font-family="sans-serif" line-height="125%" font-size="6.962px" y="308.17188" fill="#000000"><tspan y="308.17188" x="-162.88501">gathered 5000 clicks</tspan></text>
</g>
</g>
</g>
</svg>
